<?xml version="1.0" encoding="utf-8"?>
<!-- Generator: Adobe Illustrator 16.0.0, SVG Export Plug-In . SVG Version: 6.00 Build 0)  -->
<!DOCTYPE svg PUBLIC "-//W3C//DTD SVG 1.1//EN" "http://www.w3.org/Graphics/SVG/1.1/DTD/svg11.dtd">
<svg version="1.1" id="Layer_1" xmlns="http://www.w3.org/2000/svg" xmlns:xlink="http://www.w3.org/1999/xlink" x="0px" y="0px"
	 width="13.736px" height="13.708px" viewBox="0 0 13.736 13.708" enable-background="new 0 0 13.736 13.708" xml:space="preserve">
<g>
	<path fill="#FFFFFF" d="M13.629,2.874c-0.062-0.255-0.149-0.494-0.256-0.716c-0.188-0.388-0.438-0.719-0.718-0.992
		c-0.21-0.206-0.438-0.382-0.672-0.527c-0.353-0.221-0.72-0.377-1.078-0.481c-0.179-0.053-0.355-0.091-0.528-0.118
		C10.204,0.014,10.036,0,9.872,0C9.446,0,9.068,0.061,8.744,0.156C8.501,0.228,8.29,0.317,8.107,0.413
		C7.835,0.558,7.632,0.713,7.49,0.84C7.396,0.926,7.33,0.996,7.291,1.043L1.279,6.974L1.278,6.977
		C1.12,7.134,0.962,7.315,0.812,7.523C0.587,7.834,0.383,8.206,0.235,8.636C0.089,9.066,0,9.556,0,10.099
		c0.001,0.216,0.028,0.432,0.079,0.645c0.088,0.371,0.246,0.734,0.461,1.075c0.161,0.256,0.354,0.5,0.578,0.724
		c0.336,0.336,0.743,0.626,1.211,0.834c0.233,0.104,0.482,0.187,0.743,0.244c0.262,0.057,0.536,0.088,0.82,0.088
		c0.27,0,0.529-0.042,0.774-0.108c0.214-0.06,0.418-0.138,0.609-0.229c0.338-0.16,0.642-0.357,0.914-0.562
		c0.406-0.306,0.738-0.629,0.976-0.878c0.235-0.25,0.374-0.426,0.384-0.439L6.44,10.622l0,0l0.51,0.399l-0.51-0.4l0.453,0.356
		l-0.452-0.356H6.44l0,0v0.001l0,0c-0.002,0.004-0.093,0.116-0.246,0.282c-0.116,0.126-0.269,0.281-0.447,0.441
		c-0.133,0.121-0.28,0.245-0.437,0.358c-0.233,0.175-0.485,0.328-0.73,0.433c-0.123,0.054-0.243,0.094-0.359,0.121
		c-0.115,0.027-0.225,0.04-0.328,0.04c-0.185,0-0.36-0.021-0.527-0.058c-0.293-0.063-0.561-0.182-0.803-0.336
		c-0.181-0.115-0.346-0.253-0.49-0.403c-0.217-0.227-0.387-0.481-0.499-0.73c-0.056-0.125-0.098-0.246-0.124-0.36
		S1.41,10.19,1.41,10.099c0-0.26,0.028-0.493,0.075-0.705C1.557,9.077,1.671,8.806,1.81,8.571c0.138-0.234,0.302-0.433,0.466-0.597
		l6.065-5.986l0.023-0.03c0.009-0.01,0.042-0.048,0.104-0.1c0.096-0.08,0.252-0.191,0.48-0.282C9.063,1.53,9.195,1.489,9.348,1.459
		s0.326-0.048,0.524-0.048c0.1,0,0.219,0.01,0.348,0.032c0.226,0.038,0.48,0.116,0.727,0.232c0.186,0.089,0.366,0.198,0.53,0.329
		c0.124,0.097,0.238,0.207,0.34,0.327c0.152,0.182,0.277,0.388,0.366,0.629c0.09,0.241,0.143,0.518,0.144,0.848
		c0,0.151-0.02,0.297-0.053,0.436c-0.053,0.21-0.139,0.407-0.248,0.59s-0.241,0.348-0.376,0.486l-0.001,0.002L8.609,8.496
		C8.604,8.5,8.586,8.519,8.553,8.542C8.501,8.579,8.418,8.63,8.306,8.671C8.194,8.712,8.052,8.744,7.869,8.744
		c-0.051,0-0.098-0.006-0.141-0.016c-0.075-0.017-0.14-0.047-0.202-0.09c-0.046-0.03-0.089-0.071-0.13-0.118
		C7.336,8.449,7.284,8.359,7.248,8.257C7.213,8.155,7.192,8.043,7.192,7.926c0-0.111,0.021-0.216,0.055-0.314
		c0.024-0.075,0.058-0.145,0.094-0.207C7.396,7.31,7.455,7.231,7.498,7.183C7.52,7.156,7.537,7.14,7.546,7.13
		C7.55,7.127,7.553,7.125,7.554,7.123l0.008-0.008l2.355-2.326L8.925,3.786L6.593,6.09c-0.025,0.024-0.072,0.07-0.13,0.134
		c-0.115,0.128-0.278,0.334-0.42,0.618C5.973,6.983,5.907,7.146,5.86,7.328C5.813,7.51,5.781,7.711,5.781,7.926
		c0.001,0.281,0.05,0.557,0.143,0.814c0.069,0.193,0.164,0.376,0.282,0.545c0.09,0.126,0.193,0.243,0.31,0.349
		c0.176,0.158,0.38,0.289,0.609,0.381c0.229,0.091,0.482,0.141,0.744,0.141c0.273,0,0.521-0.04,0.735-0.1
		c0.161-0.045,0.304-0.103,0.427-0.162C9.217,9.803,9.359,9.704,9.46,9.623c0.09-0.07,0.146-0.128,0.174-0.156l3.03-3.166
		c0.268-0.277,0.53-0.623,0.732-1.041c0.101-0.209,0.186-0.436,0.245-0.679c0.061-0.242,0.095-0.503,0.095-0.772
		C13.736,3.479,13.699,3.167,13.629,2.874z M8.362,1.96L8.362,1.96L8.362,1.96L8.362,1.96z"/>
	<polygon fill="#FFFFFF" points="12.666,6.299 12.664,6.301 12.664,6.301 	"/>
</g>
</svg>
