<?xml version="1.0" encoding="utf-8"?>
<!-- Generator: Adobe Illustrator 16.0.0, SVG Export Plug-In . SVG Version: 6.00 Build 0)  -->
<!DOCTYPE svg PUBLIC "-//W3C//DTD SVG 1.1//EN" "http://www.w3.org/Graphics/SVG/1.1/DTD/svg11.dtd">
<svg version="1.1" id="Layer_1" xmlns="http://www.w3.org/2000/svg" xmlns:xlink="http://www.w3.org/1999/xlink" x="0px" y="0px"
	 width="21.222px" height="19.66px" viewBox="0 0 21.222 19.66" enable-background="new 0 0 21.222 19.66" xml:space="preserve">
<path fill="#FFFFFF" d="M16.656,0.009c0,0-0.501-0.112-0.723,0.473l-1.782,4.204c0,0-0.334,0.611,0.167,1.196l1.28,1.67
	c0,0,0.473,0.446,0.111,0.975c-0.362,0.528-2.255,4.036-7.154,6.235c0,0-0.611,0.417-1.056-0.195
	c-0.446-0.612-1.811-2.839-2.674-2.365l-4.509,2.115c0,0-0.39,0.027-0.306,0.835C0.095,15.958-0.017,19.66,5.3,19.66
	c6.348,0,15.922-9.061,15.922-14.809c0,0,0-4.843-2.979-4.843H16.656z"/>
</svg>
