<?xml version="1.0" encoding="utf-8"?>
<!-- Generator: Adobe Illustrator 16.0.0, SVG Export Plug-In . SVG Version: 6.00 Build 0)  -->
<!DOCTYPE svg PUBLIC "-//W3C//DTD SVG 1.1//EN" "http://www.w3.org/Graphics/SVG/1.1/DTD/svg11.dtd">
<svg version="1.1" id="Layer_1" xmlns="http://www.w3.org/2000/svg" xmlns:xlink="http://www.w3.org/1999/xlink" x="0px" y="0px"
	 width="10.664px" height="11.333px" viewBox="0 0 10.664 11.333" enable-background="new 0 0 10.664 11.333" xml:space="preserve">
<path fill="#FFFFFF" d="M5.332,11.333C2.387,11.332,0.002,8.947,0,6.001h1.582C1.582,7.041,2,7.972,2.68,8.654
	c0.682,0.68,1.613,1.098,2.652,1.098s1.973-0.418,2.654-1.098c0.68-0.682,1.098-1.613,1.098-2.652h1.58
	C10.664,8.947,8.277,11.332,5.332,11.333z M3.75,1.5c0,0.826-0.672,1.5-1.5,1.5s-1.5-0.674-1.5-1.5c0-0.83,0.672-1.5,1.5-1.5
	S3.75,0.669,3.75,1.5z M9.75,1.5c0,0.826-0.672,1.5-1.5,1.5s-1.5-0.674-1.5-1.5c0-0.83,0.672-1.5,1.5-1.5S9.75,0.669,9.75,1.5z"/>
</svg>
