<?xml version="1.0" encoding="utf-8"?>
<!-- Generator: Adobe Illustrator 16.0.0, SVG Export Plug-In . SVG Version: 6.00 Build 0)  -->
<!DOCTYPE svg PUBLIC "-//W3C//DTD SVG 1.1//EN" "http://www.w3.org/Graphics/SVG/1.1/DTD/svg11.dtd">
<svg version="1.1" id="Layer_1" xmlns="http://www.w3.org/2000/svg" xmlns:xlink="http://www.w3.org/1999/xlink" x="0px" y="0px"
	 width="19.509px" height="23.089px" viewBox="0 0 19.509 23.089" enable-background="new 0 0 19.509 23.089" xml:space="preserve">
<path fill="#FFFFFF" d="M3.663,2.025C2.146,3.105,0.95,4.664,0.417,6.458c-0.68,2.182-0.537,4.631,0.494,6.682
	c1.055,2.143,3.014,3.775,5.248,4.58c1.865,0.723,3.939,0.826,5.881,0.365c-0.232,1.795-1.008,3.461-1.922,5.004
	c2.865-1.863,5.223-4.416,7.145-7.227c1.414-2.119,2.354-4.643,2.236-7.219c-0.104-2.264-1.211-4.419-2.852-5.96
	c-1.777-1.665-4.189-2.613-6.619-2.677C7.757-0.078,5.485,0.677,3.663,2.025z"/>
</svg>
