<svg xmlns:rdf="http://www.w3.org/1999/02/22-rdf-syntax-ns#" xmlns="http://www.w3.org/2000/svg" version="1.1" xmlns:cc="http://creativecommons.org/ns#" xmlns:xlink="http://www.w3.org/1999/xlink" viewBox="0 0 256 256" xmlns:dc="http://purl.org/dc/elements/1.1/">
 <path d="m80 31 48-15 42 15v205h-90z" fill="#FFF" fill-opacity="0.33"/>
 <path d="m128.06-0.25c-31.017-0.0007-62.06 20.75-62.06 62.25v30h-16c-17.944 0-29 12.35-29 30v104c0 18.08 11.941 29.94 30 30l154 0.5c17.98 0.06 30-12.48 30-30.5v-104c0-17.94-12.07-30.583-30-30h-15l0.03-30c0.05-41.497-30.95-62.249-61.97-62.25zm-0.06 25.25c21.06 0 36 15.484 36 35 0 20.467-8 40-36 50 5-8 7-11 8-19-29 3-44-12.2-44-31s14.94-35 36-35zm0 96c14.86 0 27 11.87 27 27s-11 22.98-17.44 25.25 25.44 7.75 25.44 34.75v11c0 6-4 10-10 10h-51c-6 0-10-4-10-10v-11c0-27 26.38-34.72 26.38-34.72-5.39-1.27-17.38-10.28-17.38-25.28s12.14-27 27-27z" fill="#252325"/>
</svg>
