<?xml version="1.0" encoding="UTF-8" standalone="no"?>
<!-- Generator: Adobe Illustrator 16.0.0, SVG Export Plug-In . SVG Version: 6.00 Build 0)  -->

<svg
   xmlns:dc="http://purl.org/dc/elements/1.1/"
   xmlns:cc="http://creativecommons.org/ns#"
   xmlns:rdf="http://www.w3.org/1999/02/22-rdf-syntax-ns#"
   xmlns:svg="http://www.w3.org/2000/svg"
   xmlns="http://www.w3.org/2000/svg"
   xmlns:sodipodi="http://sodipodi.sourceforge.net/DTD/sodipodi-0.dtd"
   xmlns:inkscape="http://www.inkscape.org/namespaces/inkscape"
   width="22.608538"
   height="22.608543"
   viewBox="0 0 22.608539 22.608543"
   enable-background="new 0 0 15.615 15.616"
   xml:space="preserve"
   sodipodi:docname="searchSettingsButton.svg"
   inkscape:version="0.92.2 2405546, 2018-03-11"
   version="1.1"
   id="svg6"><metadata
   id="metadata9"><rdf:RDF><cc:Work
       rdf:about=""><dc:format>image/svg+xml</dc:format><dc:type
         rdf:resource="http://purl.org/dc/dcmitype/StillImage" /><dc:title></dc:title></cc:Work></rdf:RDF></metadata><defs
   id="defs7" /><sodipodi:namedview
   pagecolor="#ffffff"
   bordercolor="#666666"
   borderopacity="1"
   objecttolerance="10"
   gridtolerance="10"
   guidetolerance="10"
   inkscape:pageopacity="0"
   inkscape:pageshadow="2"
   inkscape:window-width="1169"
   inkscape:window-height="745"
   id="namedview5"
   showgrid="false"
   fit-margin-top="0"
   fit-margin-left="0"
   fit-margin-right="0"
   fit-margin-bottom="0"
   inkscape:zoom="15.112705"
   inkscape:cx="7.8074999"
   inkscape:cy="16.211526"
   inkscape:window-x="0"
   inkscape:window-y="36"
   inkscape:window-maximized="0"
   inkscape:current-layer="svg6" />
<path
   d="m 22.608538,10.183688 c 0,-0.2852152 -0.236003,-0.5183051 -0.518335,-0.5183051 h -0.955599 c -0.288127,0 -0.589284,-0.2229595 -0.668919,-0.4994838 L 19.168392,6.1371404 C 19.030843,5.889577 19.075722,5.5218341 19.27698,5.3162508 l 0.645756,-0.6442642 c 0.202706,-0.2026848 0.202706,-0.5313344 0,-0.7340239 L 18.369167,2.3830454 c -0.20125,-0.2026859 -0.531372,-0.2026859 -0.738417,0 L 16.931428,3.0837706 C 16.725832,3.2893579 16.353724,3.3443717 16.100349,3.2140707 L 13.46522,2.1571936 C 13.190124,2.0804606 12.96136,1.782216 12.96136,1.4941079 V 0.5168576 C 12.96136,0.2345406 12.728252,0 12.445917,0 H 10.24515 C 9.9599197,0 9.7253655,0.234541 9.7253655,0.5168576 v 0.9772503 c 0,0.2881081 -0.2258667,0.5877995 -0.4980661,0.6732181 L 6.1722829,3.4746724 C 5.9261437,3.61801 5.5612809,3.5702314 5.3571307,3.3704474 l -0.68774,-0.6862637 c -0.1998076,-0.2012533 -0.5313693,-0.2012533 -0.7326241,0 L 2.3817512,4.2405479 c -0.2041499,0.2026848 -0.2041499,0.5313342 0,0.7340239 L 3.1274059,5.7259702 C 3.334452,5.928655 3.3894712,6.299293 3.2562666,6.5512046 L 2.2166937,9.1644505 C 2.1399568,9.4409884 1.8416947,9.6653821 1.5535678,9.6653821 H 0.5168907 C 0.23165972,9.6653796 0,9.8984739 0,10.183688 v 2.199178 c 0,0.286676 0.23165972,0.521202 0.5168907,0.521202 h 1.0366771 c 0.2881267,0 0.5892847,0.222956 0.6718131,0.498035 l 1.2770241,3.005592 c 0.1462352,0.247564 0.094112,0.615306 -0.1042469,0.816548 l -0.7152493,0.713756 c -0.2012548,0.202687 -0.2012548,0.531334 0,0.734023 l 1.5579114,1.554919 c 0.2026997,0.202688 0.5328173,0.202688 0.7311763,0 l 0.7644767,-0.760086 c 0.2041494,-0.202688 0.5704624,-0.256266 0.8252873,-0.120157 l 2.6655348,1.062673 c 0.2722005,0.07961 0.4980661,0.379319 0.4980661,0.663083 v 1.016336 c 0,0.286639 0.2345578,0.519753 0.5197836,0.519753 h 2.200768 c 0.282338,0 0.515445,-0.233097 0.515445,-0.519753 v -1.016343 c 0,-0.283773 0.225867,-0.583454 0.50386,-0.667427 l 2.981172,-1.265359 c 0.249035,-0.140437 0.611003,-0.09123 0.816601,0.108604 l 0.673261,0.677563 c 0.201254,0.20125 0.532818,0.20125 0.734071,0 l 1.557911,-1.557812 c 0.20125,-0.20125 0.20125,-0.532783 0,-0.732578 l -0.719592,-0.71667 c -0.19836,-0.202686 -0.254825,-0.573319 -0.118728,-0.825236 l 1.080113,-2.688527 c 0.0753,-0.275072 0.376445,-0.499484 0.664574,-0.502381 h 0.955595 c 0.282339,0 0.518336,-0.233089 0.518336,-0.518305 z m -11.303545,4.815317 c -2.0429492,0 -3.694972,-1.654813 -3.694972,-3.696183 0,-2.0413696 1.6520228,-3.694736 3.694972,-3.694736 2.040053,0 3.697868,1.6533664 3.697868,3.694736 0,2.04137 -1.657815,3.696183 -3.697868,3.696183 z"
   id="path2"
   inkscape:connector-curvature="0"
   style="fill:#ffffff;stroke-width:1.44782674" />
</svg>
