<?xml version="1.0" encoding="UTF-8" standalone="no"?>
<svg
   xmlns:dc="http://purl.org/dc/elements/1.1/"
   xmlns:cc="http://creativecommons.org/ns#"
   xmlns:rdf="http://www.w3.org/1999/02/22-rdf-syntax-ns#"
   xmlns:svg="http://www.w3.org/2000/svg"
   xmlns="http://www.w3.org/2000/svg"
   height="14"
   width="14"
   xml:space="preserve"
   enable-background="new 0 0 10 10"
   viewBox="0 0 14 14"
   y="0px"
   x="0px"
   id="Layer_1"
   version="1.1"><metadata
     id="metadata9"><rdf:RDF><cc:Work
         rdf:about=""><dc:format>image/svg+xml</dc:format><dc:type
           rdf:resource="http://purl.org/dc/dcmitype/StillImage" /><dc:title></dc:title></cc:Work></rdf:RDF></metadata><defs
     id="defs7" /><g
     style="stroke-width:0.36135802;stroke-miterlimit:4;stroke-dasharray:none;stroke:#c94f50"
     id="layer1"
     transform="matrix(3.0289233,0,0,3.0289233,0.18380903,-887.48895)"><path
       style="fill:#000000;stroke-width:0.36135802;stroke-miterlimit:4;stroke-dasharray:none;stroke:#c94f50"
       d=""
       id="path4500" /><path
       style="fill:#000000;stroke-width:0.36135802;stroke-miterlimit:4;stroke-dasharray:none;stroke:#c94f50"
       d=""
       id="path4498" /><path
       id="path4528"
       style="fill:none;stroke:#c94f50;stroke-width:0.36135802;stroke-linecap:butt;stroke-linejoin:miter;stroke-miterlimit:4;stroke-dasharray:none;stroke-opacity:1"
       d="m 0.10133195,293.90792 1.88406635,1.94794 H 2.5570778 L 4.3764717,293.9374 M 0.13990242,293.77165 H 4.375461 v 2.99779 H 0.13310726 l 9.0535e-4,-3.17789" /></g><path
     d="m 10.053717,7.2034804 c 0,-1.7077371 -1.3111442,-3.0490702 -3.0188813,-3.0490702 -1.7077372,0 -3.0188815,1.3111442 -3.0188815,3.0188812 0,1.7077372 1.3111443,3.0188816 3.0188815,3.0188816 1.7077371,0 3.0615753,-1.3236491 3.0188813,-2.9886926 z M 4.9216188,6.5695153 c 0.5055481,0 4.2264342,0 4.2264342,0 0,0.3576655 0,0.7183127 0,1.2075524 -0.5600147,0 -3.5305832,0 -4.2264342,0 0,-0.3231018 -2.1e-6,-0.720037 0,-1.2075524 z"
     id="path3"
     style="fill:#c94f50;stroke-width:0.60377628" /><rect
     y="7.1552882"
     x="5.6552882"
     height="0.13001703"
     width="2.8144238"
     id="rect821"
     style="opacity:1;fill:#ff00ff;fill-opacity:1;stroke:#ffffff;stroke-width:1.4043262;stroke-miterlimit:4;stroke-dasharray:none" /></svg>