<?xml version="1.0" encoding="UTF-8" standalone="no"?>
<svg
   xmlns:dc="http://purl.org/dc/elements/1.1/"
   xmlns:cc="http://creativecommons.org/ns#"
   xmlns:rdf="http://www.w3.org/1999/02/22-rdf-syntax-ns#"
   xmlns:svg="http://www.w3.org/2000/svg"
   xmlns="http://www.w3.org/2000/svg"
   xmlns:xlink="http://www.w3.org/1999/xlink"
   xmlns:sodipodi="http://sodipodi.sourceforge.net/DTD/sodipodi-0.dtd"
   xmlns:inkscape="http://www.inkscape.org/namespaces/inkscape"
   height="14"
   width="14"
   xml:space="preserve"
   enable-background="new 0 0 10 10"
   viewBox="0 0 14 14"
   y="0px"
   x="0px"
   id="Layer_1"
   version="1.1"
   sodipodi:docname="busy_notification.svg"
   inkscape:version="0.92.4 (5da689c313, 2019-01-14)"><sodipodi:namedview
     pagecolor="#ff928b"
     bordercolor="#666666"
     borderopacity="1"
     objecttolerance="10"
     gridtolerance="10"
     guidetolerance="10"
     inkscape:pageopacity="0.56470588"
     inkscape:pageshadow="2"
     inkscape:window-width="1850"
     inkscape:window-height="1016"
     id="namedview11"
     showgrid="false"
     inkscape:zoom="16.858997"
     inkscape:cx="-5.1573699"
     inkscape:cy="-3.4020751"
     inkscape:window-x="70"
     inkscape:window-y="27"
     inkscape:window-maximized="1"
     inkscape:current-layer="Layer_1" /><metadata
     id="metadata9"><rdf:RDF><cc:Work
         rdf:about=""><dc:format>image/svg+xml</dc:format><dc:type
           rdf:resource="http://purl.org/dc/dcmitype/StillImage" /><dc:title /></cc:Work></rdf:RDF></metadata><defs
     id="defs7"><pattern
       inkscape:collect="always"
       xlink:href="#pattern868"
       id="pattern1604"
       patternTransform="translate(0.03956194,1.7755828)" /><pattern
       patternUnits="userSpaceOnUse"
       width="13.944446"
       height="10.174602"
       patternTransform="translate(0.03956194,1.7755828)"
       id="pattern868"><path
         inkscape:connector-curvature="0"
         id="path4528"
         d="M 0.45117379,0.96001415 C 2.3534047,2.9267344 4.2556355,4.8934547 6.1578663,6.860175 c 0.5771911,0 1.1543823,0 1.7315734,0 C 9.7263745,4.9232189 11.563309,2.9862629 13.400244,1.0493068 M 0.56800079,0.54726285 c 4.27639411,0 8.55278821,0 12.82918221,0 0,3.02669205 0,6.05338425 0,9.08007635 -4.2832547,0 -8.5665094,0 -12.84976423,0 9.14e-4,-3.2085285 0.001828,-6.417057 0.002742,-9.62558545"
         style="fill:none;stroke:#c94f50;stroke-width:1.09452569;stroke-linecap:butt;stroke-linejoin:miter;stroke-miterlimit:4;stroke-dasharray:none;stroke-opacity:1" /><path
         sodipodi:nodetypes="cssscccc"
         inkscape:connector-curvature="0"
         inkscape:label="circle"
         style="opacity:1;fill:#c94f50"
         id="path3"
         d="m 10.014155,5.4278976 c 0,-1.7077371 -1.3111441,-3.0490702 -3.0188812,-3.0490702 -1.7077372,0 -3.0188815,1.3111442 -3.0188815,3.0188812 0,1.7077372 1.3111443,3.0188816 3.0188815,3.0188816 1.7077371,0 3.0615752,-1.3236491 3.0188812,-2.9886926 z M 9.1084911,6.0014849 8.4301504,5.5097222 C 7.678475,4.9647957 8.3568157,5.4565583 9.1084911,6.0014849 Z" /></pattern><pattern
       patternUnits="userSpaceOnUse"
       width="4.21875"
       height="1.5343432"
       patternTransform="translate(4.9531251,6.4531251)"
       id="pattern1599"><rect
         inkscape:label="rect821"
         style="display:inline;opacity:1;fill:#ff0000;fill-opacity:1;stroke:#ffffff;stroke-width:1.4043262;stroke-miterlimit:4;stroke-dasharray:none"
         id="rect821"
         width="2.8144238"
         height="0.13001703"
         x="0.7021631"
         y="0.7021631" /></pattern></defs><path
     style="stroke:none;fill:url(#pattern1604)"
     d="M 0.0390625 1.7753906 L 0.0390625 11.949219 L 13.984375 11.949219 L 13.984375 1.7753906 L 0.0390625 1.7753906 z M 4.953125 6.453125 L 9.171875 6.453125 L 9.171875 7.9882812 L 4.953125 7.9882812 L 4.953125 6.453125 z "
     id="rect872" /></svg>