<?xml version="1.0" encoding="utf-8"?>
<!-- Generator: Adobe Illustrator 18.1.0, SVG Export Plug-In . SVG Version: 6.00 Build 0)  -->
<!DOCTYPE svg PUBLIC "-//W3C//DTD SVG 1.1//EN" "http://www.w3.org/Graphics/SVG/1.1/DTD/svg11.dtd">
<svg version="1.1" id="Layer_1" xmlns="http://www.w3.org/2000/svg" xmlns:xlink="http://www.w3.org/1999/xlink" x="0px" y="0px"
	 viewBox="0 0 16 16" enable-background="new 0 0 16 16" xml:space="preserve">
<g>
	<path fill="#C94F50" d="M8,4.5c1.9,0,3.5,1.6,3.5,3.5S9.9,11.5,8,11.5c-1.9,0-3.5-1.6-3.5-3.5S6.1,4.5,8,4.5 M8,3C5.2,3,3,5.2,3,8
		s2.2,5,5,5c2.8,0,5-2.2,5-5S10.8,3,8,3z"/>
</g>
<g>
	<path fill="#C94F50" d="M8,1.5c3.6,0,6.5,2.9,6.5,6.5s-2.9,6.5-6.5,6.5S1.5,11.6,1.5,8S4.4,1.5,8,1.5 M8,0C3.6,0,0,3.6,0,8
		s3.6,8,8,8s8-3.6,8-8S12.4,0,8,0z"/>
</g>
</svg>
