<?xml version="1.0" encoding="UTF-8" standalone="no"?>
<!-- Generator: Adobe Illustrator 18.1.0, SVG Export Plug-In . SVG Version: 6.00 Build 0)  -->

<svg
   xmlns:dc="http://purl.org/dc/elements/1.1/"
   xmlns:cc="http://creativecommons.org/ns#"
   xmlns:rdf="http://www.w3.org/1999/02/22-rdf-syntax-ns#"
   xmlns:svg="http://www.w3.org/2000/svg"
   xmlns="http://www.w3.org/2000/svg"
   xmlns:sodipodi="http://sodipodi.sourceforge.net/DTD/sodipodi-0.dtd"
   xmlns:inkscape="http://www.inkscape.org/namespaces/inkscape"
   version="1.1"
   id="Layer_1"
   x="0px"
   y="0px"
   viewBox="0 0 16 16"
   enable-background="new 0 0 16 16"
   xml:space="preserve"
   inkscape:version="0.91 r13725"
   sodipodi:docname="dot_busy_notification.svg"><metadata
     id="metadata13"><rdf:RDF><cc:Work
         rdf:about=""><dc:format>image/svg+xml</dc:format><dc:type
           rdf:resource="http://purl.org/dc/dcmitype/StillImage" /></cc:Work></rdf:RDF></metadata><defs
     id="defs11" /><sodipodi:namedview
     pagecolor="#ffffff"
     bordercolor="#666666"
     borderopacity="1"
     objecttolerance="10"
     gridtolerance="10"
     guidetolerance="10"
     inkscape:pageopacity="0"
     inkscape:pageshadow="2"
     inkscape:window-width="1366"
     inkscape:window-height="721"
     id="namedview9"
     showgrid="false"
     inkscape:zoom="29.5"
     inkscape:cx="6.3555457"
     inkscape:cy="7.1223848"
     inkscape:window-x="-2"
     inkscape:window-y="-3"
     inkscape:window-maximized="1"
     inkscape:current-layer="Layer_1" /><g
     id="g5"><path
       fill="#C94F50"
       d="M8,1.5c3.6,0,6.5,2.9,6.5,6.5s-2.9,6.5-6.5,6.5S1.5,11.6,1.5,8S4.4,1.5,8,1.5 M8,0C3.6,0,0,3.6,0,8   s3.6,8,8,8s8-3.6,8-8S12.4,0,8,0z"
       id="path7" /></g><path
     d="M 13,8.0499997 C 13,5.2215727 10.828427,3.0000002 7.9999997,3.0000002 5.1715726,3.0000002 3,5.1715727 3,7.9999997 3,10.828428 5.1715726,13 7.9999997,13 10.828427,13 13.070711,10.807717 13,8.0499997 Z m -8.5000003,-1.05 c 0.8373105,0 7.0000003,0 7.0000003,0 0,0.592382 0,1.1897 0,2 -0.92752,0 -5.8475021,0 -7.0000003,0 0,-0.535134 -3.5e-6,-1.192555 0,-2 z"
     id="path3-0"
     inkscape:connector-curvature="0"
     style="fill:#c94f50"
     sodipodi:nodetypes="cssscccccc" /></svg>