<?xml version="1.0" encoding="utf-8"?>
<!-- Generator: Adobe Illustrator 18.1.0, SVG Export Plug-In . SVG Version: 6.00 Build 0)  -->
<!DOCTYPE svg PUBLIC "-//W3C//DTD SVG 1.1//EN" "http://www.w3.org/Graphics/SVG/1.1/DTD/svg11.dtd">
<svg version="1.1" id="Layer_1" xmlns="http://www.w3.org/2000/svg" xmlns:xlink="http://www.w3.org/1999/xlink" x="0px" y="0px"
	 viewBox="0 0 16 16" enable-background="new 0 0 16 16" xml:space="preserve">
<path fill="#C94F50" d="M11.5,4.5c-2-2-5.1-2-7.1,0s-2,5.1,0,7.1s5.1,2,7.1,0S13.5,6.4,11.5,4.5z M5.5,5.5c1.2-1.2,3-1.3,4.4-0.5
	L5.1,9.9C4.2,8.5,4.3,6.7,5.5,5.5z M6.1,10.9l4.8-4.8c0.9,1.4,0.7,3.2-0.5,4.4S7.5,11.8,6.1,10.9z"/>
<g>
	<path fill="#C94F50" d="M8,1.5c3.6,0,6.5,2.9,6.5,6.5s-2.9,6.5-6.5,6.5S1.5,11.6,1.5,8S4.4,1.5,8,1.5 M8,0C3.6,0,0,3.6,0,8
		s3.6,8,8,8s8-3.6,8-8S12.4,0,8,0z"/>
</g>
</svg>
