<?xml version="1.0" encoding="utf-8"?>
<!-- Generator: Adobe Illustrator 16.0.0, SVG Export Plug-In . SVG Version: 6.00 Build 0)  -->
<!DOCTYPE svg PUBLIC "-//W3C//DTD SVG 1.1//EN" "http://www.w3.org/Graphics/SVG/1.1/DTD/svg11.dtd">
<svg version="1.1" id="Layer_1" xmlns="http://www.w3.org/2000/svg" xmlns:xlink="http://www.w3.org/1999/xlink" x="0px" y="0px"
	 width="16.814px" height="16.816px" viewBox="0 0 16.814 16.816" enable-background="new 0 0 16.814 16.816" xml:space="preserve">
<path fill="#C94F4F" d="M8.408,3.381c-2.777,0-5.029,2.25-5.029,5.027s2.252,5.027,5.029,5.027c2.775,0,5.027-2.25,5.027-5.027
	S11.184,3.381,8.408,3.381z M8.408,12.021c-1.996,0-3.613-1.617-3.613-3.613c0-1.033,0.434-1.967,1.131-2.625
	c0.002-0.002,0.006-0.006,0.008-0.008C5.967,5.744,6,5.715,6.031,5.686c0.008-0.004,0.014-0.01,0.02-0.016
	c0.033-0.027,0.064-0.055,0.098-0.082c0.006-0.004,0.014-0.01,0.02-0.014c0.141-0.111,0.291-0.213,0.449-0.303
	c0.012-0.008,0.025-0.016,0.039-0.023c0.029-0.018,0.059-0.033,0.09-0.047c0.018-0.012,0.037-0.02,0.055-0.029
	c0.027-0.014,0.057-0.029,0.086-0.041c0.021-0.01,0.041-0.02,0.063-0.029C6.977,5.09,7.006,5.078,7.033,5.066
	c0.023-0.01,0.047-0.02,0.07-0.027c0.027-0.012,0.055-0.021,0.08-0.031c0.029-0.01,0.057-0.02,0.086-0.029
	c0.035-0.012,0.07-0.023,0.105-0.033C7.414,4.934,7.453,4.922,7.49,4.912c0.023-0.006,0.047-0.01,0.068-0.016
	c0.033-0.008,0.064-0.016,0.096-0.021c0.023-0.006,0.049-0.012,0.072-0.016c0.031-0.006,0.064-0.012,0.096-0.016
	c0.023-0.004,0.049-0.01,0.072-0.012c0.033-0.004,0.066-0.01,0.1-0.014c0.023-0.002,0.047-0.004,0.068-0.006
	C8.1,4.807,8.139,4.805,8.176,4.803c0.02-0.002,0.039-0.002,0.059-0.004c0.057-0.002,0.113-0.004,0.17-0.004c0,0,0.002,0,0.004,0
	l0,0l0,0c0.059,0,0.115,0.002,0.174,0.004C8.6,4.801,8.617,4.801,8.635,4.803c0.041,0.002,0.08,0.004,0.121,0.01
	c0.02,0.002,0.039,0.004,0.061,0.006c0.037,0.004,0.074,0.01,0.109,0.014c0.021,0.002,0.043,0.008,0.063,0.01
	c0.037,0.006,0.074,0.014,0.109,0.02c0.02,0.004,0.039,0.008,0.059,0.012C9.197,4.881,9.236,4.891,9.275,4.9
	C9.291,4.904,9.305,4.908,9.32,4.91c0.055,0.016,0.107,0.029,0.162,0.047c0,0,0,0.002,0.002,0.002
	C9.537,4.975,9.588,4.992,9.639,5.01C9.654,5.018,9.67,5.023,9.686,5.027C9.723,5.041,9.758,5.057,9.793,5.07
	C9.811,5.078,9.83,5.086,9.848,5.094c0.033,0.016,0.064,0.029,0.096,0.045c0.02,0.008,0.039,0.016,0.059,0.027
	c0.029,0.014,0.061,0.029,0.092,0.047c0.018,0.008,0.035,0.018,0.055,0.027c0.031,0.018,0.063,0.037,0.096,0.057
	c0.016,0.008,0.029,0.018,0.045,0.025c0.047,0.029,0.09,0.057,0.135,0.086c0.014,0.01,0.027,0.02,0.039,0.029
	c0.031,0.021,0.063,0.043,0.092,0.066c0.02,0.014,0.039,0.027,0.057,0.043c0.023,0.018,0.047,0.035,0.07,0.053
	c0.021,0.018,0.041,0.035,0.061,0.053s0.041,0.033,0.063,0.051c0.02,0.02,0.039,0.037,0.061,0.057
	c0.018,0.018,0.037,0.035,0.055,0.053c0.021,0.02,0.041,0.039,0.061,0.061c0.018,0.018,0.033,0.035,0.051,0.051
	c0.02,0.023,0.041,0.043,0.061,0.066c0.004,0.004,0.006,0.006,0.01,0.01c0.053,0.059,0.102,0.119,0.152,0.184
	c0.01,0.014,0.021,0.027,0.033,0.041c0.02,0.027,0.039,0.055,0.059,0.082c0.012,0.016,0.023,0.031,0.033,0.047
	c0.02,0.027,0.039,0.057,0.057,0.084c0.01,0.016,0.021,0.031,0.031,0.049c0.018,0.027,0.037,0.057,0.055,0.088
	c0.008,0.014,0.016,0.029,0.023,0.043c0.02,0.033,0.037,0.064,0.055,0.098c0.006,0.01,0.01,0.02,0.016,0.029
	c0.061,0.117,0.115,0.238,0.164,0.363c0.004,0.008,0.006,0.018,0.01,0.025c0.014,0.037,0.027,0.074,0.039,0.111
	c0.006,0.014,0.01,0.029,0.016,0.043c0.01,0.035,0.021,0.072,0.031,0.107c0.006,0.016,0.01,0.031,0.014,0.047
	c0.01,0.037,0.02,0.072,0.029,0.109c0.002,0.004,0.002,0.01,0.004,0.016l0,0c0.064,0.27,0.1,0.551,0.1,0.842
	C12.021,10.404,10.402,12.021,8.408,12.021z"/>
<path fill="#C94F4F" d="M8.408,0C3.765,0.001,0,3.766,0,8.408c0,4.644,3.765,8.407,8.408,8.408c4.644-0.001,8.405-3.766,8.406-8.408
	C16.813,3.766,13.052,0.001,8.408,0z M13.292,13.293c-1.253,1.251-2.975,2.023-4.884,2.023s-3.632-0.772-4.885-2.023
	C2.272,12.04,1.5,10.317,1.5,8.408c0-1.909,0.772-3.632,2.023-4.884C4.776,2.272,6.499,1.501,8.408,1.5
	c1.909,0.001,3.631,0.772,4.884,2.023c1.251,1.253,2.022,2.976,2.022,4.885S14.543,12.04,13.292,13.293z"/>
</svg>
