<?xml version="1.0" encoding="utf-8"?>
<!-- Generator: Adobe Illustrator 16.0.0, SVG Export Plug-In . SVG Version: 6.00 Build 0)  -->
<!DOCTYPE svg PUBLIC "-//W3C//DTD SVG 1.1//EN" "http://www.w3.org/Graphics/SVG/1.1/DTD/svg11.dtd">
<svg version="1.1" id="Layer_1" xmlns="http://www.w3.org/2000/svg" xmlns:xlink="http://www.w3.org/1999/xlink" x="0px" y="0px"
	 width="16.814px" height="16.817px" viewBox="0 0 16.814 16.817" enable-background="new 0 0 16.814 16.817" xml:space="preserve">
<g>
	<path fill="#CEBF43" d="M8.441,3.475c-2.777,0-5.029,2.25-5.029,5.028c0,2.777,2.252,5.027,5.029,5.027s5.029-2.25,5.029-5.027
		C13.47,5.725,11.218,3.475,8.441,3.475z M4.828,8.502c0-1.997,1.617-3.614,3.613-3.614s3.613,1.617,3.613,3.614H4.828z"/>
	<path fill="#CEBF43" d="M15.314,8.409c0,1.909-0.771,3.632-2.022,4.885c-1.253,1.251-2.975,2.023-4.884,2.023
		s-3.632-0.772-4.884-2.023C2.272,12.041,1.5,10.318,1.5,8.409c0-1.91,0.772-3.632,2.024-4.885C4.776,2.272,6.499,1.5,8.408,1.5
		c1.909,0,3.631,0.772,4.884,2.024C14.542,4.776,15.314,6.499,15.314,8.409h1.5C16.813,3.765,13.051,0,8.408,0
		C3.764,0,0,3.765,0,8.409c0,4.644,3.764,8.407,8.408,8.408c4.644-0.001,8.405-3.766,8.406-8.408H15.314z"/>
</g>
</svg>
