<?xml version="1.0" encoding="utf-8"?>
<!-- Generator: Adobe Illustrator 16.0.0, SVG Export Plug-In . SVG Version: 6.00 Build 0)  -->
<!DOCTYPE svg PUBLIC "-//W3C//DTD SVG 1.1//EN" "http://www.w3.org/Graphics/SVG/1.1/DTD/svg11.dtd">
<svg version="1.1" id="Layer_1" xmlns="http://www.w3.org/2000/svg" xmlns:xlink="http://www.w3.org/1999/xlink" x="0px" y="0px"
	 width="10.057px" height="10.055px" viewBox="0 0 10.057 10.055" enable-background="new 0 0 10.057 10.055" xml:space="preserve">
<path fill="#C94F4F" d="M5.029,0C2.252,0,0,2.25,0,5.027s2.252,5.027,5.029,5.027c2.775,0,5.027-2.25,5.027-5.027S7.805,0,5.029,0z
	 M5.029,8.641c-1.996,0-3.613-1.617-3.613-3.613c0-1.033,0.434-1.967,1.131-2.625C2.549,2.4,2.553,2.396,2.555,2.395
	c0.033-0.031,0.066-0.061,0.098-0.09c0.008-0.004,0.014-0.01,0.02-0.016C2.705,2.262,2.736,2.234,2.77,2.207
	c0.006-0.004,0.014-0.01,0.02-0.014C2.93,2.082,3.08,1.98,3.238,1.891C3.25,1.883,3.264,1.875,3.277,1.867
	C3.307,1.85,3.336,1.834,3.367,1.82c0.018-0.012,0.037-0.02,0.055-0.029C3.449,1.777,3.479,1.762,3.508,1.75
	C3.529,1.74,3.549,1.73,3.57,1.721c0.027-0.012,0.057-0.023,0.084-0.035c0.023-0.01,0.047-0.02,0.07-0.027
	c0.027-0.012,0.055-0.021,0.08-0.031c0.029-0.01,0.057-0.02,0.086-0.029c0.035-0.012,0.07-0.023,0.105-0.033
	c0.039-0.012,0.078-0.023,0.115-0.033c0.023-0.006,0.047-0.01,0.068-0.016C4.213,1.508,4.244,1.5,4.275,1.494
	c0.023-0.006,0.049-0.012,0.072-0.016c0.031-0.006,0.064-0.012,0.096-0.016c0.023-0.004,0.049-0.01,0.072-0.012
	c0.033-0.004,0.066-0.01,0.1-0.014c0.023-0.002,0.047-0.004,0.068-0.006c0.037-0.006,0.076-0.008,0.113-0.01
	C4.816,1.42,4.836,1.42,4.855,1.418c0.057-0.002,0.113-0.004,0.17-0.004c0,0,0.002,0,0.004,0l0,0l0,0
	c0.059,0,0.115,0.002,0.174,0.004C5.221,1.42,5.238,1.42,5.256,1.422c0.041,0.002,0.08,0.004,0.121,0.01
	c0.02,0.002,0.039,0.004,0.061,0.006c0.037,0.004,0.074,0.01,0.109,0.014c0.021,0.002,0.043,0.008,0.063,0.01
	c0.037,0.006,0.074,0.014,0.109,0.02c0.02,0.004,0.039,0.008,0.059,0.012C5.818,1.5,5.857,1.51,5.896,1.52
	c0.016,0.004,0.029,0.008,0.045,0.01c0.055,0.016,0.107,0.029,0.162,0.047c0,0,0,0.002,0.002,0.002
	C6.158,1.594,6.209,1.611,6.26,1.629c0.016,0.008,0.031,0.014,0.047,0.018C6.344,1.66,6.379,1.676,6.414,1.689
	c0.018,0.008,0.037,0.016,0.055,0.023c0.033,0.016,0.064,0.029,0.096,0.045c0.02,0.008,0.039,0.016,0.059,0.027
	c0.029,0.014,0.061,0.029,0.092,0.047C6.732,1.84,6.75,1.85,6.77,1.859c0.031,0.018,0.063,0.037,0.096,0.057
	C6.881,1.924,6.895,1.934,6.91,1.941C6.957,1.971,7,1.998,7.045,2.027c0.014,0.01,0.027,0.02,0.039,0.029
	C7.115,2.078,7.146,2.1,7.176,2.123c0.02,0.014,0.039,0.027,0.057,0.043c0.023,0.018,0.047,0.035,0.07,0.053
	c0.021,0.018,0.041,0.035,0.061,0.053s0.041,0.033,0.063,0.051c0.02,0.02,0.039,0.037,0.061,0.057
	c0.018,0.018,0.037,0.035,0.055,0.053c0.021,0.02,0.041,0.039,0.061,0.061C7.619,2.51,7.635,2.527,7.652,2.543
	c0.02,0.023,0.041,0.043,0.061,0.066c0.004,0.004,0.006,0.006,0.01,0.01c0.053,0.059,0.102,0.119,0.152,0.184
	c0.01,0.014,0.021,0.027,0.033,0.041c0.02,0.027,0.039,0.055,0.059,0.082C7.979,2.941,7.99,2.957,8,2.973
	C8.02,3,8.039,3.029,8.057,3.057c0.01,0.016,0.021,0.031,0.031,0.049c0.018,0.027,0.037,0.057,0.055,0.088
	C8.15,3.207,8.158,3.223,8.166,3.236c0.02,0.033,0.037,0.064,0.055,0.098c0.006,0.01,0.01,0.02,0.016,0.029
	C8.297,3.48,8.352,3.602,8.4,3.727c0.004,0.008,0.006,0.018,0.01,0.025c0.014,0.037,0.027,0.074,0.039,0.111
	c0.006,0.014,0.01,0.029,0.016,0.043c0.01,0.035,0.021,0.072,0.031,0.107c0.006,0.016,0.01,0.031,0.014,0.047
	c0.01,0.037,0.02,0.072,0.029,0.109c0.002,0.004,0.002,0.01,0.004,0.016l0,0c0.064,0.27,0.1,0.551,0.1,0.842
	C8.643,7.023,7.023,8.641,5.029,8.641z"/>
</svg>
