<?xml version="1.0" encoding="utf-8"?>
<!-- Generator: Adobe Illustrator 18.1.0, SVG Export Plug-In . SVG Version: 6.00 Build 0)  -->
<!DOCTYPE svg PUBLIC "-//W3C//DTD SVG 1.1//EN" "http://www.w3.org/Graphics/SVG/1.1/DTD/svg11.dtd">
<svg version="1.1" id="Layer_1" xmlns="http://www.w3.org/2000/svg" xmlns:xlink="http://www.w3.org/1999/xlink" x="0px" y="0px"
	 viewBox="0 0 16 16" enable-background="new 0 0 16 16" xml:space="preserve">
<g>
	<path fill="#252325" d="m 7.95,0 c -1.9,0 -3.8,1.3 -3.8,3.9 v 1.9 h -1 c -1.1,0 -1.8,0.8 -1.8,1.9 v 6.5 c 0,1.1 0.7,1.9 1.9,1.9 h 9.6 c 1.1,0 1.9,-0.8 1.9,-1.9 V 7.6 c 0,-1.1 -0.8,-1.9 -1.9,-1.9 h -0.9 V 3.8 C 11.85,1.3 9.95,0 7.95,0 Z m 0,1.6 c 1.3,0 2.2,1 2.2,2.2 0.1,1.2 -0.4,2.4 -2.2,3.1 0.3,-0.5 0.4,-0.7 0.5,-1.2 -1.8,0.2 -2.7,-0.8 -2.7,-1.9 0,-1.1 0.9,-2.2 2.2,-2.2 z"/>
	<g transform="translate(20.146176,1.0868021)">
		<path fill="#C94F50" d="m -11.983551,6.6340045 c -1.815987,0 -3.28125,1.4652629 -3.28125,3.28125 0,1.8159875 1.465263,3.2812505 3.28125,3.2812505 1.815987,0 3.3124995,-1.465263 3.3124995,-3.2812505 0,-1.8159871 -1.4965125,-3.28125 -3.3124995,-3.28125 z m 0,0.90625 c 1.319867,0 2.4062495,1.0551331 2.4062495,2.375 0,1.3198675 -1.0863825,2.3750005 -2.4062495,2.3750005 -1.319867,0 -2.375,-1.055133 -2.375,-2.3750005 0,-1.3198669 1.055133,-2.375 2.375,-2.375 z"/>
	</g>
</g>
</svg>
