<?xml version="1.0" encoding="UTF-8" standalone="no"?>
<!-- Created with Inkscape (http://www.inkscape.org/) -->

<svg
   xmlns:dc="http://purl.org/dc/elements/1.1/"
   xmlns:cc="http://creativecommons.org/ns#"
   xmlns:rdf="http://www.w3.org/1999/02/22-rdf-syntax-ns#"
   xmlns:svg="http://www.w3.org/2000/svg"
   xmlns="http://www.w3.org/2000/svg"
   version="1.1"
   width="100%"
   height="100%"
   viewBox="0 0 16.1 16"
   id="Layer_1"
   xml:space="preserve"><metadata
     id="metadata3127"><rdf:RDF><cc:Work
         rdf:about=""><dc:format>image/svg+xml</dc:format><dc:type
           rdf:resource="http://purl.org/dc/dcmitype/StillImage" /><dc:title></dc:title></cc:Work></rdf:RDF></metadata><defs
     id="defs3125" /><path
     d="M 8,0 C 6.1,0 4.2,1.3 4.2,3.9 v 1.9 h -1 C 2.1,5.8 1.4,6.6 1.4,7.7 v 6.5 c 0,1.1 0.7,1.9 1.9,1.9 l 9.6,0 c 1.1,0 1.9,-0.8 1.9,-1.9 V 7.6 C 14.8,6.5 14,5.7 12.9,5.7 H 12 L 12,3.8 C 11.9,1.3 10,0 8,0 z m 0,1.6 c 1.3,0 2.2,1 2.2,2.2 C 10.3,5 9.8,6.2 8,6.9 8.3,6.4 8.4,6.2 8.5,5.7 6.7,5.9 5.8,4.9 5.8,3.8 5.8,2.7 6.7,1.6 8,1.6 z"
     id="path3119"
     style="fill:#ff9600;fill-opacity:1" /><path
     d="M 11.4,11 C 11.4,12.9 9.9,14.4 8,14.4 6.1,14.4 4.6,12.9 4.6,11 4.6,9.1 6.1,7.6 8,7.6 c 1.9,0 3.4,1.5 3.4,3.4"
     id="path3121"
     style="fill:#6fc062" /></svg>