<?xml version="1.0" encoding="UTF-8" standalone="no"?>
<!-- Generator: Adobe Illustrator 18.1.0, SVG Export Plug-In . SVG Version: 6.00 Build 0)  -->

<svg
   xmlns:dc="http://purl.org/dc/elements/1.1/"
   xmlns:cc="http://creativecommons.org/ns#"
   xmlns:rdf="http://www.w3.org/1999/02/22-rdf-syntax-ns#"
   xmlns:svg="http://www.w3.org/2000/svg"
   xmlns="http://www.w3.org/2000/svg"
   xmlns:sodipodi="http://sodipodi.sourceforge.net/DTD/sodipodi-0.dtd"
   xmlns:inkscape="http://www.inkscape.org/namespaces/inkscape"
   version="1.1"
   id="Layer_1"
   x="0px"
   y="0px"
   viewBox="0 0 16.1 16"
   enable-background="new 0 0 16.1 16"
   xml:space="preserve"
   inkscape:version="0.91 r13725"
   sodipodi:docname="taskbar_away.svg"><metadata
     id="metadata11"><rdf:RDF><cc:Work
         rdf:about=""><dc:format>image/svg+xml</dc:format><dc:type
           rdf:resource="http://purl.org/dc/dcmitype/StillImage" /><dc:title /></cc:Work></rdf:RDF></metadata><defs
     id="defs9" /><sodipodi:namedview
     pagecolor="#ffffff"
     bordercolor="#666666"
     borderopacity="1"
     objecttolerance="10"
     gridtolerance="10"
     guidetolerance="10"
     inkscape:pageopacity="0"
     inkscape:pageshadow="2"
     inkscape:window-width="1366"
     inkscape:window-height="706"
     id="namedview7"
     showgrid="false"
     inkscape:zoom="14.75"
     inkscape:cx="-11.591329"
     inkscape:cy="6.3083469"
     inkscape:window-x="0"
     inkscape:window-y="0"
     inkscape:window-maximized="1"
     inkscape:current-layer="Layer_1" /><path
     d="m 7.9007454,0.34992702 c -1.8858417,0 -3.771683,1.23541548 -3.771683,3.70624648 l 0,1.8056072 -0.9925482,0 c -1.091803,0 -1.7865867,0.7602556 -1.7865867,1.8056073 l 0,6.177077 c 0,1.045351 0.6947837,1.805607 1.8858415,1.805607 l 9.528461,0 c 1.091803,0 1.885842,-0.760256 1.885842,-1.805607 l 0,-6.272109 c 0,-1.0453515 -0.794039,-1.8056073 -1.885842,-1.8056073 l -0.893293,0 0,-1.8056072 C 11.771682,1.5853425 9.885842,0.34992702 7.9007454,0.34992702 Z m 0,1.52051148 c 1.2903124,0 2.1836046,0.9503194 2.1836046,2.090703 C 10.183605,5.101525 9.6873319,6.2419085 7.9007454,6.9071322 8.1985097,6.4319724 8.2977644,6.2419085 8.3970192,5.7667487 6.6104326,5.9568126 5.7171393,5.006493 5.7171393,3.9611415 c 0,-1.0453515 0.8932933,-2.090703 2.1836061,-2.090703 z"
     id="path3"
     style="fill:#252325;stroke:#ffffff;stroke-width:0.69985509;stroke-linecap:round;stroke-linejoin:round;stroke-miterlimit:4;stroke-dasharray:none;stroke-opacity:1"
     inkscape:connector-curvature="0" /><path
     fill="#CDBE41"
     d="M8,7.6c-1.8,0-3.3,1.5-3.3,3.3c0,1.8,1.5,3.3,3.3,3.3s3.3-1.5,3.3-3.3C11.3,9.1,9.8,7.6,8,7.6z M5.6,11  c0-1.3,1.1-2.4,2.4-2.4s2.4,1.1,2.4,2.4H5.6z"
     id="path5" /></svg>