<?xml version="1.0" encoding="utf-8"?>
<!-- Generator: Adobe Illustrator 18.1.0, SVG Export Plug-In . SVG Version: 6.00 Build 0)  -->
<!DOCTYPE svg PUBLIC "-//W3C//DTD SVG 1.1//EN" "http://www.w3.org/Graphics/SVG/1.1/DTD/svg11.dtd">
<svg version="1.1" id="Layer_1" xmlns="http://www.w3.org/2000/svg" xmlns:xlink="http://www.w3.org/1999/xlink" x="0px" y="0px"
	 viewBox="0 0 16.1 16" enable-background="new 0 0 16.1 16" xml:space="preserve">
<path
   fill="#ff9600"
   d="M8,0C6.1,0,4.2,1.3,4.2,3.9v1.9h-1c-1.1,0-1.8,0.8-1.8,1.9v6.5c0,1.1,0.7,1.9,1.9,1.9l9.6,0  c1.1,0,1.9-0.8,1.9-1.9V7.6c0-1.1-0.8-1.9-1.9-1.9h-0.9l0-1.9C11.9,1.3,10,0,8,0z M8,1.6c1.3,0,2.2,1,2.2,2.2C10.3,5,9.8,6.2,8,6.9  c0.3-0.5,0.4-0.7,0.5-1.2C6.7,5.9,5.8,4.9,5.8,3.8S6.7,1.6,8,1.6z"
   id="path2" />
<path
   d="m 8.05,7.8 c -1.8545455,0 -3.4,1.5 -3.4,3.3 0,1.8 1.5454545,3.3 3.4,3.3 1.8545455,0 3.4,-1.5 3.4,-3.3 0,-1.8 -1.5454545,-3.3 -3.4,-3.3 z m -2.4727273,3.4 c 0,-1.3 1.1333334,-2.4 2.4727273,-2.4 1.3393939,0 2.472727,1.1 2.472727,2.4 z"
   id="path4"
   inkscape:connector-curvature="0"
   style="fill:#cdbe41;stroke-width:1.01503849" />
</svg>
