<?xml version="1.0" encoding="UTF-8" standalone="no"?>
<!-- Created with Inkscape (http://www.inkscape.org/) -->

<svg
   xmlns:dc="http://purl.org/dc/elements/1.1/"
   xmlns:cc="http://creativecommons.org/ns#"
   xmlns:rdf="http://www.w3.org/1999/02/22-rdf-syntax-ns#"
   xmlns:svg="http://www.w3.org/2000/svg"
   xmlns="http://www.w3.org/2000/svg"
   xmlns:sodipodi="http://sodipodi.sourceforge.net/DTD/sodipodi-0.dtd"
   xmlns:inkscape="http://www.inkscape.org/namespaces/inkscape"
   version="1.1"
   width="100%"
   height="100%"
   viewBox="0 0 16.1 16"
   id="Layer_1"
   xml:space="preserve"
   inkscape:version="0.91 r13725"
   sodipodi:docname="taskbar_event.svg"><sodipodi:namedview
     pagecolor="#ffffff"
     bordercolor="#666666"
     borderopacity="1"
     objecttolerance="10"
     gridtolerance="10"
     guidetolerance="10"
     inkscape:pageopacity="0"
     inkscape:pageshadow="2"
     inkscape:window-width="1366"
     inkscape:window-height="706"
     id="namedview4224"
     showgrid="false"
     inkscape:zoom="14.75"
     inkscape:cx="8.05"
     inkscape:cy="8"
     inkscape:window-x="0"
     inkscape:window-y="0"
     inkscape:window-maximized="1"
     inkscape:current-layer="Layer_1" /><metadata
     id="metadata3127"><rdf:RDF><cc:Work
         rdf:about=""><dc:format>image/svg+xml</dc:format><dc:type
           rdf:resource="http://purl.org/dc/dcmitype/StillImage" /><dc:title /></cc:Work></rdf:RDF></metadata><defs
     id="defs3125" /><path
     d="m 7.900746,0.349979 c -1.885827,0 -3.7716539,1.2354071 -3.7716539,3.7062215 l 0,1.805595 -0.9925405,0 c -1.0917945,0 -1.7865727,0.7602505 -1.7865727,1.8055951 l 0,6.1770354 c 0,1.045344 0.6947782,1.805595 1.8858268,1.805595 l 9.5283883,0 c 1.091796,0 1.885827,-0.760251 1.885827,-1.805595 l 0,-6.2720667 c 0,-1.0453446 -0.794031,-1.8055951 -1.885827,-1.8055951 l -0.893286,0 0,-1.805595 C 11.771655,1.5853861 9.8858274,0.349979 7.900746,0.349979 Z m 0,1.520501 c 1.2903026,0 2.183589,0.9503134 2.183589,2.0906892 C 10.183588,5.1015449 9.6873189,6.2419208 7.900746,6.90714 8.1985082,6.4319834 8.297762,6.2419208 8.3970162,5.7667642 6.6104432,5.9568268 5.7171568,5.0065136 5.7171568,3.9611692 5.7171568,2.9158246 6.6104432,1.87048 7.900746,1.87048 Z"
     id="path3119"
     style="fill:#ff9600;fill-opacity:1;stroke:#ffffff;stroke-width:0.69995773;stroke-miterlimit:4;stroke-dasharray:none;stroke-opacity:1"
     inkscape:connector-curvature="0" /><path
     d="M 11.4,11 C 11.4,12.9 9.9,14.4 8,14.4 6.1,14.4 4.6,12.9 4.6,11 4.6,9.1 6.1,7.6 8,7.6 c 1.9,0 3.4,1.5 3.4,3.4"
     id="path3121"
     style="fill:#6fc062" /></svg>