<?xml version="1.0" encoding="UTF-8" standalone="no"?>
<!-- Created with Inkscape (http://www.inkscape.org/) -->

<svg
   xmlns:dc="http://purl.org/dc/elements/1.1/"
   xmlns:cc="http://creativecommons.org/ns#"
   xmlns:rdf="http://www.w3.org/1999/02/22-rdf-syntax-ns#"
   xmlns:svg="http://www.w3.org/2000/svg"
   xmlns="http://www.w3.org/2000/svg"
   xmlns:sodipodi="http://sodipodi.sourceforge.net/DTD/sodipodi-0.dtd"
   xmlns:inkscape="http://www.inkscape.org/namespaces/inkscape"
   version="1.1"
   width="100%"
   height="100%"
   viewBox="0 0 16.1 16"
   id="Layer_1"
   xml:space="preserve"
   inkscape:version="0.91 r13725"
   sodipodi:docname="taskbar_busy.svg"><sodipodi:namedview
     pagecolor="#ffffff"
     bordercolor="#666666"
     borderopacity="1"
     objecttolerance="10"
     gridtolerance="10"
     guidetolerance="10"
     inkscape:pageopacity="0"
     inkscape:pageshadow="2"
     inkscape:window-width="1366"
     inkscape:window-height="706"
     id="namedview15"
     showgrid="false"
     inkscape:zoom="20.85965"
     inkscape:cx="4.8809851"
     inkscape:cy="8.9312496"
     inkscape:window-x="0"
     inkscape:window-y="0"
     inkscape:window-maximized="1"
     inkscape:current-layer="Layer_1" /><metadata
     id="metadata19"><rdf:RDF><cc:Work
         rdf:about=""><dc:format>image/svg+xml</dc:format><dc:type
           rdf:resource="http://purl.org/dc/dcmitype/StillImage" /><dc:title /></cc:Work></rdf:RDF></metadata><defs
     id="defs17" /><path
     d="m 7.9002955,0.35042986 c -1.8858271,0 -3.771654,1.23540704 -3.771654,3.70622134 l 0,1.8055949 -0.9925405,0 c -1.0917945,0 -1.7865727,0.7602505 -1.7865727,1.8055951 l 0,6.1770358 c 0,1.045344 0.6947782,1.805595 1.8858268,1.805595 l 9.5283879,0 c 1.091795,0 1.885828,-0.760251 1.885828,-1.805595 l 0,-6.2720671 c 0,-1.0453446 -0.794033,-1.805595 -1.885828,-1.805595 l -0.893286,0 0,-1.8055951 C 11.771204,1.5858369 9.8853768,0.35042986 7.9002955,0.35042986 Z m 0,1.52050094 c 1.2903025,0 2.1835885,0.9503134 2.1835885,2.090689 C 10.18314,5.1019955 9.6868682,6.2423714 7.9002955,6.9075906 8.1980575,6.432434 8.2973115,6.2423714 8.3965656,5.7672149 6.6099926,5.9572774 5.7167062,5.0069643 5.7167062,3.9616198 c 0,-1.0453444 0.8932864,-2.090689 2.1835893,-2.090689 z"
     id="path3"
     style="fill:#252325;stroke:#ffffff;stroke-width:0.69995773;stroke-miterlimit:4;stroke-dasharray:none;stroke-opacity:1"
     inkscape:connector-curvature="0" /><path
     d="m -6.5762711,11.932203 a 5.3220339,6.237288 0 1 1 -10.6440679,0 5.3220339,6.237288 0 1 1 10.6440679,0 z"
     id="path2996"
     style="fill:#ffffff;fill-opacity:1" /><g
     transform="translate(-12.523729,-0.08389831)"
     id="g3893"><g
       id="g3877"><g
         id="g3879"><path
           d="m 5.6,8.7 c -1.3,1.3 -1.3,3.4 0,4.7 1.3,1.3 3.4,1.3 4.7,0 1.3,-1.3 1.3,-3.4 0,-4.7 C 9,7.4 6.9,7.4 5.6,8.7 z m 4.1,4 c -0.9,0.9 -2.4,0.9 -3.4,0 -0.5,-0.5 -0.7,-1.1 -0.7,-1.8 0,0 0,0 0,0 0,0 0,-0.1 0,-0.1 0,0 0,0 0,0 0,0 0,-0.1 0,-0.1 0,0 0,0 0,0 0,-0.1 0,-0.2 0.1,-0.4 0,0 0,0 0,0 0,0 0,0 0,-0.1 0,0 0,0 0,0 0,0 0,0 0,-0.1 0,0 0,0 0,0 0,0 0,0 0,-0.1 0,0 0,0 0,0 0,0 0,0 0,-0.1 0,0 0,0 0,-0.1 0,0 0,0 0,-0.1 0,0 0,0 0,-0.1 0,0 0,0 0,0 0,0 0,0 0,-0.1 0,0 0,0 0,0 0,0 0,0 0,-0.1 0,0 0,0 0,0 0,0 0,0 0,-0.1 0,0 0,0 0,0 0,0 0,0 0,-0.1 0,0 0,0 0,0 0,0 0.1,-0.1 0.1,-0.1 0,0 0,0 0,0 l 0,0 0,0 c 0,0 0.1,-0.1 0.1,-0.1 0,0 0,0 0,0 0,0 0,0 0.1,-0.1 0,0 0,0 0,0 0,0 0,0 0.1,0 0,0 0,0 0,0 0,0 0,0 0.1,0 0,0 0,0 0,0 0,0 0,0 0.1,0 0,0 0,0 0,0 0,0 0.1,0 0.1,-0.1 0,0 0,0 0,0 0,0 0.1,0 0.1,0 0,0 0,0 0,0 0,0 0,0 0.1,0 0,0 0,0 0,0 0,0 0,0 0.1,0 0,0 0,0 0,0 0,0 0,0 0.1,0 0,0 0,0 0,0 0,0 0,0 0.1,0 0,0 0,0 0,0 0,0 0.1,0 0.1,0 0,0 0,0 0,0 0,0 0,0 0.1,0 0,0 0,0 0,0 0,0 0,0 0.1,0 0,0 0,0 0.1,0 0,0 0,0 0.1,0 0,0 0,0 0.1,0 0,0 0,0 0.1,0 0,0 0,0 0.1,0 0,0 0,0 0,0 0,0 0,0 0.1,0 0,0 0,0 0,0 0.1,0 0.1,0 0.2,0 0,0 0,0 0,0 0,0 0,0 0.1,0 0,0 0,0 0,0 0,0 0,0 0.1,0 0,0 0,0 0,0 0,0 0,0 0.1,0 0,0 0,0 0,0 0,0 0,0 0.1,0 0,0 0,0 0,0 0.1,0 0.2,0.1 0.2,0.1 0,0 0,0 0,0 0,0 0,0 0.1,0 0,0 0,0 0,0 0,0 0,0 0.1,0 0,0 0,0 0,0 0,0 0,0 0.1,0 0,0 0,0 0,0 l 0,0 c 0.2,0.1 0.3,0.2 0.4,0.3 1.3,1.1 1.3,2.6 0.4,3.5 z"
           id="path3881"
           style="fill:#ffffff" /><g
           id="g3883"><polyline
             id="polyline3885"
             points="7.5,8.5 7.5,13.6 8.5,13.6 8.5,8.5    "
             style="fill:#ffffff" /></g></g></g></g><path
     d="m 11.548426,11.258529 c 0,-1.8521744 -1.422038,-3.3069551 -3.2742131,-3.3069551 C 6.4220389,7.9515739 5,9.3736125 5,11.225787 5,13.077962 6.4220389,14.5 8.2742129,14.5 c 1.8521751,0 3.3205181,-1.4356 3.2742131,-3.241471 z M 5.982264,10.570944 c 0.5483069,0 4.583899,0 4.583899,0 0,0.387917 0,0.779067 0,1.309686 -0.6073801,0 -3.8291941,0 -4.583899,0 0,-0.350429 -2.3e-6,-0.780936 0,-1.309686 z"
     id="path3-2"
     inkscape:connector-curvature="0"
     style="fill:#c94f50"
     sodipodi:nodetypes="cssscccccc" /></svg>