<?xml version="1.0" encoding="UTF-8" standalone="no"?>
<!-- Generator: Adobe Illustrator 18.1.0, SVG Export Plug-In . SVG Version: 6.00 Build 0)  -->

<svg
   xmlns:dc="http://purl.org/dc/elements/1.1/"
   xmlns:cc="http://creativecommons.org/ns#"
   xmlns:rdf="http://www.w3.org/1999/02/22-rdf-syntax-ns#"
   xmlns:svg="http://www.w3.org/2000/svg"
   xmlns="http://www.w3.org/2000/svg"
   xmlns:sodipodi="http://sodipodi.sourceforge.net/DTD/sodipodi-0.dtd"
   xmlns:inkscape="http://www.inkscape.org/namespaces/inkscape"
   version="1.1"
   id="Layer_1"
   x="0px"
   y="0px"
   viewBox="0 0 16.1 16"
   enable-background="new 0 0 16.1 16"
   xml:space="preserve"
   inkscape:version="0.91 r13725"
   sodipodi:docname="taskbar_online.svg"><metadata
     id="metadata11"><rdf:RDF><cc:Work
         rdf:about=""><dc:format>image/svg+xml</dc:format><dc:type
           rdf:resource="http://purl.org/dc/dcmitype/StillImage" /><dc:title /></cc:Work></rdf:RDF></metadata><defs
     id="defs9" /><sodipodi:namedview
     pagecolor="#ffffff"
     bordercolor="#666666"
     borderopacity="1"
     objecttolerance="10"
     gridtolerance="10"
     guidetolerance="10"
     inkscape:pageopacity="0"
     inkscape:pageshadow="2"
     inkscape:window-width="1366"
     inkscape:window-height="706"
     id="namedview7"
     showgrid="false"
     inkscape:zoom="20.85965"
     inkscape:cx="2.6633291"
     inkscape:cy="10.910862"
     inkscape:window-x="0"
     inkscape:window-y="0"
     inkscape:window-maximized="1"
     inkscape:current-layer="Layer_1" /><path
     d="m 7.9007454,0.34993398 c -1.8858396,0 -3.7716791,1.23541452 -3.7716791,3.70624402 l 0,1.8056067 -0.9925475,0 c -1.0918018,0 -1.7865846,0.7602551 -1.7865846,1.8056061 l 0,6.1770702 c 0,1.045351 0.6947828,1.805605 1.8858395,1.805605 l 9.5284533,0 c 1.091801,0 1.885839,-0.760254 1.885839,-1.805605 l 0,-6.2721021 c 0,-1.045351 -0.794038,-1.8056065 -1.885839,-1.8056065 l -0.893291,0 0,-1.8056062 C 11.771679,1.5853485 9.8858411,0.34993398 7.9007454,0.34993398 Z m 0,1.52051022 c 1.2903115,0 2.1836046,0.9503192 2.1836046,2.090702 C 10.1836,5.1015292 9.6873307,6.2419121 7.9007454,6.9071356 8.1985098,6.431976 8.2977644,6.2419121 8.3970191,5.7667524 6.6104342,5.9568164 5.7171417,5.0064972 5.7171417,3.9611462 c 0,-1.0453509 0.8932925,-2.090702 2.1836037,-2.090702 z"
     id="path3"
     style="fill:#252325;stroke:#ffffff;stroke-width:0.69986838;stroke-linecap:round;stroke-linejoin:round;stroke-miterlimit:4;stroke-dasharray:none;stroke-opacity:1"
     inkscape:connector-curvature="0" /><path
     fill="#6FC062"
     d="M11.4,11c0,1.9-1.5,3.4-3.4,3.4c-1.9,0-3.4-1.5-3.4-3.4c0-1.9,1.5-3.4,3.4-3.4C9.9,7.6,11.4,9.1,11.4,11"
     id="path5" /></svg>