<?xml version="1.0" encoding="UTF-8" standalone="no"?>
<!-- Created with Inkscape (http://www.inkscape.org/) -->

<svg
   xmlns:dc="http://purl.org/dc/elements/1.1/"
   xmlns:cc="http://creativecommons.org/ns#"
   xmlns:rdf="http://www.w3.org/1999/02/22-rdf-syntax-ns#"
   xmlns:svg="http://www.w3.org/2000/svg"
   xmlns="http://www.w3.org/2000/svg"
   xmlns:sodipodi="http://sodipodi.sourceforge.net/DTD/sodipodi-0.dtd"
   xmlns:inkscape="http://www.inkscape.org/namespaces/inkscape"
   version="1.1"
   width="100%"
   height="100%"
   viewBox="0 0 16.1 16"
   id="Layer_1"
   xml:space="preserve"
   inkscape:version="0.91 r13725"
   sodipodi:docname="taskbar_invisible.svg"><sodipodi:namedview
     pagecolor="#ffffff"
     bordercolor="#666666"
     borderopacity="1"
     objecttolerance="10"
     gridtolerance="10"
     guidetolerance="10"
     inkscape:pageopacity="0"
     inkscape:pageshadow="2"
     inkscape:window-width="1366"
     inkscape:window-height="706"
     id="namedview15"
     showgrid="false"
     inkscape:zoom="14.75"
     inkscape:cx="8.05"
     inkscape:cy="8"
     inkscape:window-x="0"
     inkscape:window-y="0"
     inkscape:window-maximized="1"
     inkscape:current-layer="Layer_1" /><metadata
     id="metadata19"><rdf:RDF><cc:Work
         rdf:about=""><dc:format>image/svg+xml</dc:format><dc:type
           rdf:resource="http://purl.org/dc/dcmitype/StillImage" /><dc:title /></cc:Work></rdf:RDF></metadata><defs
     id="defs17" /><path
     d="m 7.900747,0.35003001 c -1.8858125,0 -3.771625,1.23539889 -3.771625,3.70619679 l 0,1.8055831 -0.992533,0 c -1.0917862,0 -1.7865593,0.7602455 -1.7865593,1.8055831 l 0,6.176996 c 0,1.045335 0.6947731,1.805581 1.8858126,1.805581 l 9.5283167,0 c 1.091785,0 1.885811,-0.760246 1.885811,-1.805581 l 0,-6.2720267 c 0,-1.0453376 -0.794026,-1.8055832 -1.885811,-1.8055832 l -0.893281,0 0,-1.8055829 C 11.771626,1.5854289 9.8858132,0.35003001 7.900747,0.35003001 Z m 0,1.52049099 c 1.2902929,0 2.183573,0.9503069 2.183573,2.0906752 C 10.183572,5.1015644 9.6873064,6.2419326 7.900747,6.9071474 8.1985069,6.431994 8.2977604,6.2419326 8.3970135,5.7667791 6.6104542,5.9568407 5.7171747,5.0065336 5.7171747,3.9611962 c 0,-1.0453376 0.8932795,-2.0906752 2.1835723,-2.0906752 z"
     id="path3"
     style="fill:#252325;stroke:#ffffff;stroke-width:0.70005947;stroke-linecap:round;stroke-linejoin:round;stroke-miterlimit:4;stroke-dasharray:none;stroke-opacity:1"
     inkscape:connector-curvature="0" /><path
     d="m 7.9927197,7.71875 c -1.8159871,0 -3.28125,1.4652629 -3.28125,3.28125 0,1.815987 1.4652629,3.28125 3.28125,3.28125 1.8159871,0 3.3125003,-1.465263 3.3125003,-3.28125 0,-1.8159871 -1.4965132,-3.28125 -3.3125003,-3.28125 z m 0,0.90625 c 1.3198669,0 2.4062503,1.0551331 2.4062503,2.375 0,1.319867 -1.0863834,2.375 -2.4062503,2.375 -1.3198669,0 -2.375,-1.055133 -2.375,-2.375 0,-1.3198669 1.0551331,-2.375 2.375,-2.375 z"
     id="path3000"
     style="fill:#dedede;fill-opacity:1" /><path
     d="m -6.5762711,11.932203 a 5.3220339,6.237288 0 1 1 -10.6440679,0 5.3220339,6.237288 0 1 1 10.6440679,0 z"
     id="path2996"
     style="fill:#ffffff;fill-opacity:1" /><rect
     width="1.1830783"
     height="5.3462563"
     rx="0"
     ry="0.89710045"
     x="7.4181905"
     y="8.3502293"
     id="rect3937"
     style="fill:#dedede;fill-opacity:1;fill-rule:nonzero" /><g
     transform="translate(-12.523729,-0.08389831)"
     id="g3893"><g
       id="g3877"><g
         id="g3879"><path
           d="m 5.6,8.7 c -1.3,1.3 -1.3,3.4 0,4.7 1.3,1.3 3.4,1.3 4.7,0 1.3,-1.3 1.3,-3.4 0,-4.7 C 9,7.4 6.9,7.4 5.6,8.7 z m 4.1,4 c -0.9,0.9 -2.4,0.9 -3.4,0 -0.5,-0.5 -0.7,-1.1 -0.7,-1.8 0,0 0,0 0,0 0,0 0,-0.1 0,-0.1 0,0 0,0 0,0 0,0 0,-0.1 0,-0.1 0,0 0,0 0,0 0,-0.1 0,-0.2 0.1,-0.4 0,0 0,0 0,0 0,0 0,0 0,-0.1 0,0 0,0 0,0 0,0 0,0 0,-0.1 0,0 0,0 0,0 0,0 0,0 0,-0.1 0,0 0,0 0,0 0,0 0,0 0,-0.1 0,0 0,0 0,-0.1 0,0 0,0 0,-0.1 0,0 0,0 0,-0.1 0,0 0,0 0,0 0,0 0,0 0,-0.1 0,0 0,0 0,0 0,0 0,0 0,-0.1 0,0 0,0 0,0 0,0 0,0 0,-0.1 0,0 0,0 0,0 0,0 0,0 0,-0.1 0,0 0,0 0,0 0,0 0.1,-0.1 0.1,-0.1 0,0 0,0 0,0 l 0,0 0,0 c 0,0 0.1,-0.1 0.1,-0.1 0,0 0,0 0,0 0,0 0,0 0.1,-0.1 0,0 0,0 0,0 0,0 0,0 0.1,0 0,0 0,0 0,0 0,0 0,0 0.1,0 0,0 0,0 0,0 0,0 0,0 0.1,0 0,0 0,0 0,0 0,0 0.1,0 0.1,-0.1 0,0 0,0 0,0 0,0 0.1,0 0.1,0 0,0 0,0 0,0 0,0 0,0 0.1,0 0,0 0,0 0,0 0,0 0,0 0.1,0 0,0 0,0 0,0 0,0 0,0 0.1,0 0,0 0,0 0,0 0,0 0,0 0.1,0 0,0 0,0 0,0 0,0 0.1,0 0.1,0 0,0 0,0 0,0 0,0 0,0 0.1,0 0,0 0,0 0,0 0,0 0,0 0.1,0 0,0 0,0 0.1,0 0,0 0,0 0.1,0 0,0 0,0 0.1,0 0,0 0,0 0.1,0 0,0 0,0 0.1,0 0,0 0,0 0,0 0,0 0,0 0.1,0 0,0 0,0 0,0 0.1,0 0.1,0 0.2,0 0,0 0,0 0,0 0,0 0,0 0.1,0 0,0 0,0 0,0 0,0 0,0 0.1,0 0,0 0,0 0,0 0,0 0,0 0.1,0 0,0 0,0 0,0 0,0 0,0 0.1,0 0,0 0,0 0,0 0.1,0 0.2,0.1 0.2,0.1 0,0 0,0 0,0 0,0 0,0 0.1,0 0,0 0,0 0,0 0,0 0,0 0.1,0 0,0 0,0 0,0 0,0 0,0 0.1,0 0,0 0,0 0,0 l 0,0 c 0.2,0.1 0.3,0.2 0.4,0.3 1.3,1.1 1.3,2.6 0.4,3.5 z"
           id="path3881"
           style="fill:#ffffff" /><g
           id="g3883"><polyline
             id="polyline3885"
             points="7.5,8.5 7.5,13.6 8.5,13.6 8.5,8.5    "
             style="fill:#ffffff" /></g></g></g></g></svg>