<?xml version="1.0" encoding="UTF-8" standalone="no"?>
<!-- Created with Inkscape (http://www.inkscape.org/) -->

<svg
   xmlns:dc="http://purl.org/dc/elements/1.1/"
   xmlns:cc="http://creativecommons.org/ns#"
   xmlns:rdf="http://www.w3.org/1999/02/22-rdf-syntax-ns#"
   xmlns:svg="http://www.w3.org/2000/svg"
   xmlns="http://www.w3.org/2000/svg"
   xmlns:sodipodi="http://sodipodi.sourceforge.net/DTD/sodipodi-0.dtd"
   xmlns:inkscape="http://www.inkscape.org/namespaces/inkscape"
   version="1.1"
   width="100%"
   height="100%"
   viewBox="0 0 16.1 16"
   id="Layer_1"
   xml:space="preserve"
   inkscape:version="0.91 r13725"
   sodipodi:docname="taskbar_offline.svg"><sodipodi:namedview
     pagecolor="#ffffff"
     bordercolor="#666666"
     borderopacity="1"
     objecttolerance="10"
     gridtolerance="10"
     guidetolerance="10"
     inkscape:pageopacity="0"
     inkscape:pageshadow="2"
     inkscape:window-width="1366"
     inkscape:window-height="706"
     id="namedview8"
     showgrid="false"
     inkscape:zoom="14.75"
     inkscape:cx="8.05"
     inkscape:cy="8"
     inkscape:window-x="0"
     inkscape:window-y="0"
     inkscape:window-maximized="1"
     inkscape:current-layer="Layer_1" /><metadata
     id="metadata13"><rdf:RDF><cc:Work
         rdf:about=""><dc:format>image/svg+xml</dc:format><dc:type
           rdf:resource="http://purl.org/dc/dcmitype/StillImage" /><dc:title /></cc:Work></rdf:RDF></metadata><defs
     id="defs11" /><path
     d="m 7.900746,0.349979 c -1.885827,0 -3.7716539,1.235407 -3.7716539,3.7062214 l 0,1.8055949 -0.9925405,0 c -1.0917945,0 -1.7865727,0.7602505 -1.7865727,1.8055952 l 0,6.1770355 c 0,1.045344 0.6947782,1.805595 1.8858268,1.805595 l 9.5283883,0 c 1.091796,0 1.885827,-0.760251 1.885827,-1.805595 l 0,-6.2720669 c 0,-1.0453445 -0.794031,-1.805595 -1.885827,-1.805595 l -0.893286,0 0,-1.805595 C 11.771655,1.585386 9.8858274,0.349979 7.900746,0.349979 Z m 0,1.5205009 c 1.2903026,0 2.183589,0.9503134 2.183589,2.0906892 C 10.183591,5.1015447 9.6873189,6.2419206 7.900746,6.9071399 8.1985082,6.4319833 8.297762,6.2419206 8.3970162,5.7667641 6.6104432,5.9568266 5.7171568,5.0065135 5.7171568,3.9611691 c 0,-1.0453446 0.8932864,-2.0906892 2.1835892,-2.0906892 z"
     id="path3"
     style="fill:#252325;stroke:#ffffff;stroke-width:0.69995773;stroke-linecap:round;stroke-linejoin:round;stroke-miterlimit:4;stroke-dasharray:none;stroke-opacity:1"
     inkscape:connector-curvature="0" /><g
     transform="translate(19.990072,1.0868021)"
     id="g3027"><path
       d="m -11.983551,6.6340045 c -1.815987,0 -3.28125,1.4652629 -3.28125,3.28125 0,1.8159875 1.465263,3.2812505 3.28125,3.2812505 1.815987,0 3.3124995,-1.465263 3.3124995,-3.2812505 0,-1.8159871 -1.4965125,-3.28125 -3.3124995,-3.28125 z m 0,0.90625 c 1.319867,0 2.4062495,1.0551331 2.4062495,2.375 0,1.3198675 -1.0863825,2.3750005 -2.4062495,2.3750005 -1.319867,0 -2.375,-1.055133 -2.375,-2.3750005 0,-1.3198669 1.055133,-2.375 2.375,-2.375 z"
       id="path3000"
       style="fill:#c94f50;fill-opacity:1" /></g></svg>