<?xml version="1.0" encoding="UTF-8" standalone="no"?>
<!-- Created with Inkscape (http://www.inkscape.org/) -->
<svg
    xmlns:dc="http://purl.org/dc/elements/1.1/"
    xmlns:cc="http://creativecommons.org/ns#"
    xmlns:rdf="http://www.w3.org/1999/02/22-rdf-syntax-ns#"
    xmlns:svg="http://www.w3.org/2000/svg"
    xmlns="http://www.w3.org/2000/svg"
   version="1.1"
   width="100%"
   height="100%"
   viewBox="0 0 16.1 16"
   id="Layer_1"
   xml:space="preserve">
    <metadata
   id="metadata19">
        <rdf:RDF>
            <cc:Work
   rdf:about="">
                <dc:format>image/svg+xml</dc:format>
                <dc:type
   rdf:resource="http://purl.org/dc/dcmitype/StillImage" />
                <dc:title />
            </cc:Work>
        </rdf:RDF>
    </metadata>
    <defs
   id="defs17" />
    <path
   d="m 7.95,0 c -1.9,0 -3.8,1.3 -3.8,3.9 v 1.9 h -1 c -1.1,0 -1.8,0.8 -1.8,1.9 v 6.5 c 0,1.1 0.7,1.9 1.9,1.9 h 9.6 c 1.1,0 1.9,-0.8 1.9,-1.9 V 7.6 c 0,-1.1 -0.8,-1.9 -1.9,-1.9 h -0.9 V 3.8 C 11.85,1.3 9.95,0 7.95,0 Z m 0,1.6 c 1.3,0 2.2,1 2.2,2.2 0.1,1.2 -0.4,2.4 -2.2,3.1 0.3,-0.5 0.4,-0.7 0.5,-1.2 -1.8,0.2 -2.7,-0.8 -2.7,-1.9 0,-1.1 0.9,-2.2 2.2,-2.2 z"
   id="path3"
   style="fill:#ffffff"
   inkscape:connector-curvature="0" />
    <path
   d="m 8.162625,7.71875 c -1.8159871,0 -3.28125,1.4652629 -3.28125,3.28125 0,1.815987 1.4652629,3.28125 3.28125,3.28125 1.8159871,0 3.3125,-1.465263 3.3125,-3.28125 0,-1.8159871 -1.4965129,-3.28125 -3.3125,-3.28125 z m 0,0.90625 c 1.3198669,0 2.40625,1.0551331 2.40625,2.375 0,1.319867 -1.0863831,2.375 -2.40625,2.375 -1.3198669,0 -2.375,-1.055133 -2.375,-2.375 0,-1.3198669 1.0551331,-2.375 2.375,-2.375 z"
   id="path3000"
   style="fill:#4e4e4e;fill-opacity:1"
   inkscape:connector-curvature="0" />
    <rect
   width="1.1830783"
   height="5.3462563"
   rx="0"
   ry="0.89710045"
   x="7.4584999"
   y="8.3502293"
   id="rect3937"
   style="fill:#4e4e4e;fill-opacity:1;fill-rule:nonzero" />
</svg>
