<?xml version="1.0" encoding="UTF-8" standalone="no"?>
<!-- Created with Inkscape (http://www.inkscape.org/) -->

<svg
   xmlns:dc="http://purl.org/dc/elements/1.1/"
   xmlns:cc="http://creativecommons.org/ns#"
   xmlns:rdf="http://www.w3.org/1999/02/22-rdf-syntax-ns#"
   xmlns:svg="http://www.w3.org/2000/svg"
   xmlns="http://www.w3.org/2000/svg"
   xmlns:sodipodi="http://sodipodi.sourceforge.net/DTD/sodipodi-0.dtd"
   xmlns:inkscape="http://www.inkscape.org/namespaces/inkscape"
   version="1.1"
   width="100%"
   height="100%"
   viewBox="0 0 16.1 16"
   id="Layer_1"
   xml:space="preserve"
   inkscape:version="0.92.4 (5da689c313, 2019-01-14)"
   sodipodi:docname="taskbar_busy.svg"><sodipodi:namedview
     pagecolor="#ffffff"
     bordercolor="#666666"
     borderopacity="1"
     objecttolerance="10"
     gridtolerance="10"
     guidetolerance="10"
     inkscape:pageopacity="0"
     inkscape:pageshadow="2"
     inkscape:window-width="1850"
     inkscape:window-height="1016"
     id="namedview15"
     showgrid="false"
     inkscape:zoom="20.85965"
     inkscape:cx="2.9873773"
     inkscape:cy="0.87742313"
     inkscape:window-x="70"
     inkscape:window-y="27"
     inkscape:window-maximized="1"
     inkscape:current-layer="Layer_1" /><metadata
     id="metadata19"><rdf:RDF><cc:Work
         rdf:about=""><dc:format>image/svg+xml</dc:format><dc:type
           rdf:resource="http://purl.org/dc/dcmitype/StillImage" /><dc:title /></cc:Work></rdf:RDF></metadata><defs
     id="defs17" /><path
     d="m 7.95,0 c -1.9,0 -3.8,1.3 -3.8,3.9 v 1.9 h -1 c -1.1,0 -1.8,0.8 -1.8,1.9 v 6.5 c 0,1.1 0.7,1.9 1.9,1.9 h 9.6 c 1.1,0 1.9,-0.8 1.9,-1.9 V 7.6 c 0,-1.1 -0.8,-1.9 -1.9,-1.9 h -0.9 V 3.8 C 11.85,1.3 9.95,0 7.95,0 Z m 0,1.6 c 1.3,0 2.2,1 2.2,2.2 0.1,1.2 -0.4,2.4 -2.2,3.1 0.3,-0.5 0.4,-0.7 0.5,-1.2 -1.8,0.2 -2.7,-0.8 -2.7,-1.9 0,-1.1 0.9,-2.2 2.2,-2.2 z"
     id="path3"
     style="fill:#ffffff"
     inkscape:connector-curvature="0" /><path
     d="m 11.429801,11.258529 c 0,-1.8521744 -1.422038,-3.3069551 -3.2742131,-3.3069551 -1.852174,0 -3.2742129,1.4220386 -3.2742129,3.2742131 0,1.852175 1.4220389,3.274213 3.2742129,3.274213 1.8521751,0 3.3205181,-1.4356 3.2742131,-3.241471 z M 5.863639,10.570944 c 0.5483069,0 4.583899,0 4.583899,0 0,0.387917 0,0.779067 0,1.309686 -0.6073801,0 -3.8291941,0 -4.583899,0 0,-0.350429 -2.3e-6,-0.780936 0,-1.309686 z"
     id="path3-2"
     inkscape:connector-curvature="0"
     style="fill:#c94f50"
     sodipodi:nodetypes="cssscccccc" /></svg>
