<?xml version="1.0" encoding="UTF-8" standalone="no"?>
<!-- Created with Inkscape (http://www.inkscape.org/) -->

<svg
   xmlns:dc="http://purl.org/dc/elements/1.1/"
   xmlns:cc="http://creativecommons.org/ns#"
   xmlns:rdf="http://www.w3.org/1999/02/22-rdf-syntax-ns#"
   xmlns:svg="http://www.w3.org/2000/svg"
   xmlns="http://www.w3.org/2000/svg"
   xmlns:sodipodi="http://sodipodi.sourceforge.net/DTD/sodipodi-0.dtd"
   xmlns:inkscape="http://www.inkscape.org/namespaces/inkscape"
   version="1.1"
   width="100%"
   height="100%"
   viewBox="0 0 16.1 16"
   id="Layer_1"
   xml:space="preserve"
   inkscape:version="0.91 r13725"
   sodipodi:docname="taskbar_busy.svg"><sodipodi:namedview
     pagecolor="#ffffff"
     bordercolor="#666666"
     borderopacity="1"
     objecttolerance="10"
     gridtolerance="10"
     guidetolerance="10"
     inkscape:pageopacity="0"
     inkscape:pageshadow="2"
     inkscape:window-width="1366"
     inkscape:window-height="706"
     id="namedview15"
     showgrid="false"
     inkscape:zoom="20.85965"
     inkscape:cx="3.1236391"
     inkscape:cy="6.0530341"
     inkscape:window-x="0"
     inkscape:window-y="0"
     inkscape:window-maximized="1"
     inkscape:current-layer="Layer_1" /><metadata
     id="metadata19"><rdf:RDF><cc:Work
         rdf:about=""><dc:format>image/svg+xml</dc:format><dc:type
           rdf:resource="http://purl.org/dc/dcmitype/StillImage" /><dc:title /></cc:Work></rdf:RDF></metadata><defs
     id="defs17" /><path
     d="m 7.900746,0.349979 c -1.885827,0 -3.7716539,1.235407 -3.7716539,3.7062214 l 0,1.8055949 -0.9925405,0 c -1.0917945,0 -1.7865727,0.7602505 -1.7865727,1.8055952 l 0,6.1770355 c 0,1.045344 0.6947782,1.805595 1.8858268,1.805595 l 9.5283883,0 c 1.091796,0 1.885827,-0.760251 1.885827,-1.805595 l 0,-6.2720669 c 0,-1.0453445 -0.794031,-1.805595 -1.885827,-1.805595 l -0.893286,0 0,-1.805595 C 11.771655,1.585386 9.8858274,0.349979 7.900746,0.349979 Z m 0,1.5205009 c 1.2903026,0 2.183589,0.9503134 2.183589,2.0906892 C 10.183591,5.1015447 9.6873189,6.2419206 7.900746,6.9071399 8.1985082,6.4319833 8.297762,6.2419206 8.3970162,5.7667641 6.6104432,5.9568266 5.7171568,5.0065135 5.7171568,3.9611691 c 0,-1.0453446 0.8932864,-2.0906892 2.1835892,-2.0906892 z"
     id="path3"
     style="fill:#ffffff;stroke:#000000;stroke-width:0.69995773;stroke-linecap:round;stroke-linejoin:round;stroke-miterlimit:4;stroke-dasharray:none;stroke-opacity:1"
     inkscape:connector-curvature="0" /><path
     d="m -6.5762711,11.932203 a 5.3220339,6.237288 0 1 1 -10.6440679,0 5.3220339,6.237288 0 1 1 10.6440679,0 z"
     id="path2996"
     style="fill:#ffffff;fill-opacity:1" /><g
     transform="translate(-12.523729,-0.08389831)"
     id="g3893"><g
       id="g3877"><g
         id="g3879"><path
           d="m 5.6,8.7 c -1.3,1.3 -1.3,3.4 0,4.7 1.3,1.3 3.4,1.3 4.7,0 1.3,-1.3 1.3,-3.4 0,-4.7 C 9,7.4 6.9,7.4 5.6,8.7 z m 4.1,4 c -0.9,0.9 -2.4,0.9 -3.4,0 -0.5,-0.5 -0.7,-1.1 -0.7,-1.8 0,0 0,0 0,0 0,0 0,-0.1 0,-0.1 0,0 0,0 0,0 0,0 0,-0.1 0,-0.1 0,0 0,0 0,0 0,-0.1 0,-0.2 0.1,-0.4 0,0 0,0 0,0 0,0 0,0 0,-0.1 0,0 0,0 0,0 0,0 0,0 0,-0.1 0,0 0,0 0,0 0,0 0,0 0,-0.1 0,0 0,0 0,0 0,0 0,0 0,-0.1 0,0 0,0 0,-0.1 0,0 0,0 0,-0.1 0,0 0,0 0,-0.1 0,0 0,0 0,0 0,0 0,0 0,-0.1 0,0 0,0 0,0 0,0 0,0 0,-0.1 0,0 0,0 0,0 0,0 0,0 0,-0.1 0,0 0,0 0,0 0,0 0,0 0,-0.1 0,0 0,0 0,0 0,0 0.1,-0.1 0.1,-0.1 0,0 0,0 0,0 l 0,0 0,0 c 0,0 0.1,-0.1 0.1,-0.1 0,0 0,0 0,0 0,0 0,0 0.1,-0.1 0,0 0,0 0,0 0,0 0,0 0.1,0 0,0 0,0 0,0 0,0 0,0 0.1,0 0,0 0,0 0,0 0,0 0,0 0.1,0 0,0 0,0 0,0 0,0 0.1,0 0.1,-0.1 0,0 0,0 0,0 0,0 0.1,0 0.1,0 0,0 0,0 0,0 0,0 0,0 0.1,0 0,0 0,0 0,0 0,0 0,0 0.1,0 0,0 0,0 0,0 0,0 0,0 0.1,0 0,0 0,0 0,0 0,0 0,0 0.1,0 0,0 0,0 0,0 0,0 0.1,0 0.1,0 0,0 0,0 0,0 0,0 0,0 0.1,0 0,0 0,0 0,0 0,0 0,0 0.1,0 0,0 0,0 0.1,0 0,0 0,0 0.1,0 0,0 0,0 0.1,0 0,0 0,0 0.1,0 0,0 0,0 0.1,0 0,0 0,0 0,0 0,0 0,0 0.1,0 0,0 0,0 0,0 0.1,0 0.1,0 0.2,0 0,0 0,0 0,0 0,0 0,0 0.1,0 0,0 0,0 0,0 0,0 0,0 0.1,0 0,0 0,0 0,0 0,0 0,0 0.1,0 0,0 0,0 0,0 0,0 0,0 0.1,0 0,0 0,0 0,0 0.1,0 0.2,0.1 0.2,0.1 0,0 0,0 0,0 0,0 0,0 0.1,0 0,0 0,0 0,0 0,0 0,0 0.1,0 0,0 0,0 0,0 0,0 0,0 0.1,0 0,0 0,0 0,0 l 0,0 c 0.2,0.1 0.3,0.2 0.4,0.3 1.3,1.1 1.3,2.6 0.4,3.5 z"
           id="path3881"
           style="fill:#ffffff" /><g
           id="g3883"><polyline
             id="polyline3885"
             points="7.5,8.5 7.5,13.6 8.5,13.6 8.5,8.5    "
             style="fill:#ffffff" /></g></g></g></g><path
     d="m 11.548426,11.258529 c 0,-1.852174 -1.422038,-3.306955 -3.274213,-3.306955 C 6.422039,7.951574 5,9.373612 5,11.225787 5,13.077962 6.422039,14.5 8.274213,14.5 c 1.852175,0 3.320518,-1.4356 3.274213,-3.241471 z M 5.982264,10.570944 c 0.548307,0 4.583899,0 4.583899,0 0,0.387917 0,0.779067 0,1.309686 -0.60738,0 -3.829194,0 -4.583899,0 0,-0.350429 -2e-6,-0.780936 0,-1.309686 z"
     id="path3-2"
     inkscape:connector-curvature="0"
     style="fill:#c94f50;stroke:none;stroke-opacity:1;stroke-width:0.1;stroke-miterlimit:4;stroke-dasharray:none;stroke-linejoin:round;stroke-linecap:round"
     sodipodi:nodetypes="cssscccccc" /></svg>