<?xml version="1.0" encoding="utf-8"?>
<!-- Generator: Adobe Illustrator 18.1.0, SVG Export Plug-In . SVG Version: 6.00 Build 0)  -->
<!DOCTYPE svg PUBLIC "-//W3C//DTD SVG 1.1//EN" "http://www.w3.org/Graphics/SVG/1.1/DTD/svg11.dtd">
<svg version="1.1" id="Layer_1" xmlns="http://www.w3.org/2000/svg" xmlns:xlink="http://www.w3.org/1999/xlink" x="0px" y="0px"
	 viewBox="0 0 16 16" enable-background="new 0 0 16 16" xml:space="preserve">
<g>
	<path fill="#ff9600" d="M 8,0 C 6.1,0 4.1,1.3 4.1,3.9 v 1.9 h -1 C 2,5.7 1.3,6.5 1.3,7.6 v 6.5 C 1.3,15.2 2,16 3.2,16 h 9.6 c 1.1,0 1.9,-0.8 1.9,-1.9 V 7.6 C 14.7,6.5 13.9,5.7 12.8,5.7 H 11.9 V 3.8 C 11.9,1.3 9.9,0 8,0 Z m 0,1.6 c 1.3,0 2.2,1 2.2,2.2 C 10.2,5 9.7,6.2 8,6.9 8.3,6.4 8.4,6.2 8.5,5.7 6.7,5.9 5.8,4.9 5.8,3.8 5.8,2.7 6.7,1.6 8,1.6 Z"/>
	<path fill="#CDBE41" d="m 7.9975,7.6 c -1.8,0 -3.3,1.5 -3.3,3.3 0,1.8 1.5,3.3 3.3,3.3 1.8,0 3.3,-1.5 3.3,-3.3 0.1,-1.8 -1.4,-3.3 -3.3,-3.3 z m -2.3,3.4 c 0,-1.3 1.1,-2.4 2.4,-2.4 1.3,0 2.4,1.1 2.4,2.4 z"/>
</g>
</svg>
