<?xml version="1.0" encoding="UTF-8" standalone="no"?>
<!-- Created with Inkscape (http://www.inkscape.org/) -->
<svg
    xmlns:dc="http://purl.org/dc/elements/1.1/"
    xmlns:cc="http://creativecommons.org/ns#"
    xmlns:rdf="http://www.w3.org/1999/02/22-rdf-syntax-ns#"
    xmlns:svg="http://www.w3.org/2000/svg"
    xmlns="http://www.w3.org/2000/svg"
   version="1.1"
   width="100%"
   height="100%"
   viewBox="0 0 16.1 16"
   id="Layer_1"
   xml:space="preserve">
    <metadata
     id="metadata19">
        <rdf:RDF>
            <cc:Work
         rdf:about="">
                <dc:format>image/svg+xml</dc:format>
                <dc:type
           rdf:resource="http://purl.org/dc/dcmitype/StillImage" />
                <dc:title></dc:title>
            </cc:Work>
        </rdf:RDF>
    </metadata>
    <defs
     id="defs17" />
    <path
     d="M 8,0 C 6.1,0 4.2,1.3 4.2,3.9 v 1.9 h -1 C 2.1,5.8 1.4,6.6 1.4,7.7 v 6.5 c 0,1.1 0.7,1.9 1.9,1.9 l 9.6,0 c 1.1,0 1.9,-0.8 1.9,-1.9 V 7.6 C 14.8,6.5 14,5.7 12.9,5.7 H 12 L 12,3.8 C 11.9,1.3 10,0 8,0 z m 0,1.6 c 1.3,0 2.2,1 2.2,2.2 C 10.3,5 9.8,6.2 8,6.9 8.3,6.4 8.4,6.2 8.5,5.7 6.7,5.9 5.8,4.9 5.8,3.8 5.8,2.7 6.7,1.6 8,1.6 z"
     id="path3"
     style="fill:#ffffff" />
    <path
     d="m 7.9927197,7.71875 c -1.8159871,0 -3.28125,1.4652629 -3.28125,3.28125 0,1.815987 1.4652629,3.28125 3.28125,3.28125 1.8159871,0 3.3125003,-1.465263 3.3125003,-3.28125 0,-1.8159871 -1.4965132,-3.28125 -3.3125003,-3.28125 z m 0,0.90625 c 1.3198669,0 2.4062503,1.0551331 2.4062503,2.375 0,1.319867 -1.0863834,2.375 -2.4062503,2.375 -1.3198669,0 -2.375,-1.055133 -2.375,-2.375 0,-1.3198669 1.0551331,-2.375 2.375,-2.375 z"
     id="path3000"
     style="fill:#4e4e4e;fill-opacity:1" />
    <rect
     width="1.1830783"
     height="5.3462563"
     rx="0"
     ry="0.89710045"
     x="7.4181905"
     y="8.3502293"
     id="rect3937"
     style="fill:#4e4e4e;fill-opacity:1;fill-rule:nonzero" />
</svg>