<?xml version="1.0" encoding="UTF-8" standalone="no"?>
<!-- Generator: Adobe Illustrator 18.1.0, SVG Export Plug-In . SVG Version: 6.00 Build 0)  -->

<svg
   xmlns:dc="http://purl.org/dc/elements/1.1/"
   xmlns:cc="http://creativecommons.org/ns#"
   xmlns:rdf="http://www.w3.org/1999/02/22-rdf-syntax-ns#"
   xmlns:svg="http://www.w3.org/2000/svg"
   xmlns="http://www.w3.org/2000/svg"
   xmlns:sodipodi="http://sodipodi.sourceforge.net/DTD/sodipodi-0.dtd"
   xmlns:inkscape="http://www.inkscape.org/namespaces/inkscape"
   version="1.1"
   id="Layer_1"
   x="0px"
   y="0px"
   viewBox="0 0 16 16"
   enable-background="new 0 0 16 16"
   xml:space="preserve"
   inkscape:version="0.91 r13725"
   sodipodi:docname="taskbar_event_small.svg"><metadata
     id="metadata13"><rdf:RDF><cc:Work
         rdf:about=""><dc:format>image/svg+xml</dc:format><dc:type
           rdf:resource="http://purl.org/dc/dcmitype/StillImage" /><dc:title /></cc:Work></rdf:RDF></metadata><defs
     id="defs11" /><sodipodi:namedview
     pagecolor="#ffffff"
     bordercolor="#666666"
     borderopacity="1"
     objecttolerance="10"
     gridtolerance="10"
     guidetolerance="10"
     inkscape:pageopacity="0"
     inkscape:pageshadow="2"
     inkscape:window-width="1366"
     inkscape:window-height="706"
     id="namedview9"
     showgrid="false"
     inkscape:zoom="13.4375"
     inkscape:cx="1.5282069"
     inkscape:cy="-2.213525"
     inkscape:window-x="0"
     inkscape:window-y="0"
     inkscape:window-maximized="1"
     inkscape:current-layer="Layer_1" /><path
     inkscape:connector-curvature="0"
     style="fill:#ffffff;stroke:#000000;stroke-width:0.6999622;stroke-linecap:round;stroke-linejoin:round;stroke-miterlimit:4;stroke-dasharray:none;stroke-opacity:1"
     id="path5"
     d="m 7.9999998,0.34998098 c -1.8858263,0 -3.8709064,1.24312792 -3.8709064,3.72938392 l 0,1.8168795 -0.9925401,0 C 2.0447591,5.8006187 1.3499811,6.565621 1.3499811,7.6174985 l 0,6.2156405 c 0,1.051877 0.694778,1.81688 1.8858261,1.81688 l 9.5283848,0 c 1.091795,0 1.885827,-0.765003 1.885827,-1.81688 l 0,-6.2156405 c 0,-1.0518775 -0.794032,-1.8168794 -1.885827,-1.8168794 l -0.893287,0 0,-1.8168794 c 0,-2.3906308 -1.985079,-3.63375872 -3.8709052,-3.63375872 z m 0,1.53000372 c 1.290302,0 2.1835892,0.9562524 2.1835892,2.103755 0,1.1475027 -0.4962711,2.2950055 -2.1835892,2.9643822 C 8.2977617,6.4699957 8.3970157,6.2787452 8.4962698,5.8006191 6.7096975,5.9918695 5.8164114,5.0356173 5.8164114,3.9837397 c 0,-1.0518775 0.8932861,-2.103755 2.1835884,-2.103755 z" /><path
     inkscape:connector-curvature="0"
     style="fill:#ff9400;stroke:none;stroke-width:0.1;stroke-linecap:round;stroke-linejoin:round;stroke-miterlimit:4;stroke-dasharray:none;stroke-opacity:1"
     id="path7"
     d="M 11.4,11 C 11.4,12.9 9.9,14.4 8,14.4 6.1,14.4 4.6,12.9 4.6,11 4.6,9.1 6.1,7.6 8,7.6 c 1.9,0 3.4,1.5 3.4,3.4" /></svg>