<?xml version="1.0" encoding="UTF-8" standalone="no"?>
<!-- Generator: Adobe Illustrator 18.1.0, SVG Export Plug-In . SVG Version: 6.00 Build 0)  -->

<svg
   xmlns:dc="http://purl.org/dc/elements/1.1/"
   xmlns:cc="http://creativecommons.org/ns#"
   xmlns:rdf="http://www.w3.org/1999/02/22-rdf-syntax-ns#"
   xmlns:svg="http://www.w3.org/2000/svg"
   xmlns="http://www.w3.org/2000/svg"
   xmlns:sodipodi="http://sodipodi.sourceforge.net/DTD/sodipodi-0.dtd"
   xmlns:inkscape="http://www.inkscape.org/namespaces/inkscape"
   version="1.1"
   id="Layer_1"
   x="0px"
   y="0px"
   viewBox="0 0 16 16"
   enable-background="new 0 0 16 16"
   xml:space="preserve"
   inkscape:version="0.91 r13725"
   sodipodi:docname="taskbar_offline.svg"><metadata
     id="metadata15"><rdf:RDF><cc:Work
         rdf:about=""><dc:format>image/svg+xml</dc:format><dc:type
           rdf:resource="http://purl.org/dc/dcmitype/StillImage" /><dc:title /></cc:Work></rdf:RDF></metadata><defs
     id="defs13" /><sodipodi:namedview
     pagecolor="#ffffff"
     bordercolor="#666666"
     borderopacity="1"
     objecttolerance="10"
     gridtolerance="10"
     guidetolerance="10"
     inkscape:pageopacity="0"
     inkscape:pageshadow="2"
     inkscape:window-width="1366"
     inkscape:window-height="706"
     id="namedview11"
     showgrid="false"
     inkscape:zoom="20.85965"
     inkscape:cx="-4.1039155"
     inkscape:cy="7.1508475"
     inkscape:window-x="0"
     inkscape:window-y="0"
     inkscape:window-maximized="1"
     inkscape:current-layer="Layer_1" /><path
     inkscape:connector-curvature="0"
     style="fill:#ffffff;stroke:#000000;stroke-width:0.6999408;stroke-linecap:round;stroke-linejoin:round;stroke-miterlimit:4;stroke-dasharray:none;stroke-opacity:1"
     id="path5"
     d="m 8.0000004,0.34996999 c -1.8858295,0 -3.870913,1.24312971 -3.870913,3.72938951 l 0,1.8168819 -0.9925419,0 C 2.0447496,5.8006159 1.3499704,6.5656188 1.3499704,7.6174979 l 0,6.2156491 c 0,1.05188 0.6947792,1.816883 1.8858293,1.816883 l 9.5283993,0 c 1.091797,0 1.88583,-0.765003 1.88583,-1.816883 l 0,-6.2156491 c 0,-1.0518791 -0.794033,-1.816882 -1.88583,-1.816882 l -0.893286,0 0,-1.8168819 c 0,-2.3906343 -1.9850833,-3.63376401 -3.8709126,-3.63376401 z m 0,1.53000581 c 1.2903042,0 2.1835906,0.9562539 2.1835906,2.1037582 0,1.1475044 -0.4962702,2.2950088 -2.1835906,2.9643863 C 8.2977629,6.4699934 8.397017,6.2787428 8.4962711,5.8006159 6.709696,5.9918667 5.8164084,5.035613 5.8164084,3.983734 c 0,-1.0518792 0.8932876,-2.1037582 2.183592,-2.1037582 z" /><g
     id="g7"
     style="stroke:none;fill:#c94f50;fill-opacity:1"><path
       inkscape:connector-curvature="0"
       style="fill:#c94f50;stroke:none;stroke-width:0.1;stroke-linecap:round;stroke-linejoin:round;stroke-miterlimit:4;stroke-dasharray:none;stroke-opacity:1;fill-opacity:1"
       id="path9"
       d="m 7.9,7.7 c -1.8,0 -3.3,1.5 -3.3,3.3 0,1.8 1.5,3.3 3.3,3.3 1.8,0 3.3,-1.4 3.3,-3.2 C 11.3,9.3 9.8,7.7 7.9,7.7 Z m 0,5.7 C 5.4,13.4 4.7,10 6.8,8.9 7.4,8.6 8,8.6 8.6,8.7 c 2.5,0.7 2.2,4.7 -0.7,4.7 z" /></g></svg>