<?xml version="1.0" encoding="utf-8"?>
<!-- Generator: Adobe Illustrator 18.1.0, SVG Export Plug-In . SVG Version: 6.00 Build 0)  -->
<!DOCTYPE svg PUBLIC "-//W3C//DTD SVG 1.1//EN" "http://www.w3.org/Graphics/SVG/1.1/DTD/svg11.dtd">
<svg version="1.1" id="Layer_1" xmlns="http://www.w3.org/2000/svg" xmlns:xlink="http://www.w3.org/1999/xlink" x="0px" y="0px"
	 viewBox="0 0 16.1 16" enable-background="new 0 0 16.1 16" xml:space="preserve">
<path fill="#FFFFFF" d="M7.95,0 c-1.9,0-3.8,1.3-3.8,3.9 v 1.9 h-1 c-1.1,0-1.8,0.8-1.8,1.9 v 6.5 c 0,1.1 0.7,1.9 1.9,1.9 h 9.6 c 1.1,0 1.9,-0.8 1.9,-1.9 V 7.6 c 0,-1.1-0.8,-1.9-1.9,-1.9 h-0.9 V 3.8 C 11.85,1.3 9.95,0 7.95,0 Z m 0,1.6 c 1.3,0 2.2,1 2.2,2.2 0.1,1.2-0.4,2.4-2.2,3.1 0.3,-0.5 0.4,-0.7 0.5,-1.2-1.8,0.2-2.7,-0.8-2.7,-1.9 0,-1.1 0.9,-2.2 2.2,-2.2 z"/>
<path fill="#6FC062" d="M11.45,11 c 0,1.9-1.5,3.4-3.4,3.4-1.9,0-3.4,-1.5-3.4,-3.4 0,-1.9 1.5,-3.4 3.4,-3.4 1.9,0 3.4,1.5 3.4,3.4"/>
</svg>
