<?xml version="1.0" encoding="UTF-8" standalone="no"?>
<!-- Created with Inkscape (http://www.inkscape.org/) -->

<svg
   xmlns:dc="http://purl.org/dc/elements/1.1/"
   xmlns:cc="http://creativecommons.org/ns#"
   xmlns:rdf="http://www.w3.org/1999/02/22-rdf-syntax-ns#"
   xmlns:svg="http://www.w3.org/2000/svg"
   xmlns="http://www.w3.org/2000/svg"
   xmlns:sodipodi="http://sodipodi.sourceforge.net/DTD/sodipodi-0.dtd"
   xmlns:inkscape="http://www.inkscape.org/namespaces/inkscape"
   version="1.1"
   width="100%"
   height="100%"
   viewBox="0 0 16.1 16"
   id="Layer_1"
   xml:space="preserve"
   inkscape:version="0.91 r13725"
   sodipodi:docname="taskbar_busy.svg"><sodipodi:namedview
     pagecolor="#ffffff"
     bordercolor="#666666"
     borderopacity="1"
     objecttolerance="10"
     gridtolerance="10"
     guidetolerance="10"
     inkscape:pageopacity="0"
     inkscape:pageshadow="2"
     inkscape:window-width="1366"
     inkscape:window-height="721"
     id="namedview15"
     showgrid="false"
     inkscape:zoom="41.7193"
     inkscape:cx="8.7435381"
     inkscape:cy="3.5150696"
     inkscape:window-x="-2"
     inkscape:window-y="-3"
     inkscape:window-maximized="1"
     inkscape:current-layer="Layer_1" /><metadata
     id="metadata19"><rdf:RDF><cc:Work
         rdf:about=""><dc:format>image/svg+xml</dc:format><dc:type
           rdf:resource="http://purl.org/dc/dcmitype/StillImage" /><dc:title /></cc:Work></rdf:RDF></metadata><defs
     id="defs17" /><path
     d="M 8,0 C 6.1,0 4.2,1.3 4.2,3.9 v 1.9 h -1 C 2.1,5.8 1.4,6.6 1.4,7.7 v 6.5 c 0,1.1 0.7,1.9 1.9,1.9 l 9.6,0 c 1.1,0 1.9,-0.8 1.9,-1.9 V 7.6 C 14.8,6.5 14,5.7 12.9,5.7 H 12 L 12,3.8 C 11.9,1.3 10,0 8,0 z m 0,1.6 c 1.3,0 2.2,1 2.2,2.2 C 10.3,5 9.8,6.2 8,6.9 8.3,6.4 8.4,6.2 8.5,5.7 6.7,5.9 5.8,4.9 5.8,3.8 5.8,2.7 6.7,1.6 8,1.6 z"
     id="path3"
     style="fill:#ffffff" /><path
     d="m -6.5762711,11.932203 a 5.3220339,6.237288 0 1 1 -10.6440679,0 5.3220339,6.237288 0 1 1 10.6440679,0 z"
     id="path2996"
     style="fill:#ffffff;fill-opacity:1" /><g
     transform="translate(-12.523729,-0.08389831)"
     id="g3893"><g
       id="g3877"><g
         id="g3879"><path
           d="m 5.6,8.7 c -1.3,1.3 -1.3,3.4 0,4.7 1.3,1.3 3.4,1.3 4.7,0 1.3,-1.3 1.3,-3.4 0,-4.7 C 9,7.4 6.9,7.4 5.6,8.7 z m 4.1,4 c -0.9,0.9 -2.4,0.9 -3.4,0 -0.5,-0.5 -0.7,-1.1 -0.7,-1.8 0,0 0,0 0,0 0,0 0,-0.1 0,-0.1 0,0 0,0 0,0 0,0 0,-0.1 0,-0.1 0,0 0,0 0,0 0,-0.1 0,-0.2 0.1,-0.4 0,0 0,0 0,0 0,0 0,0 0,-0.1 0,0 0,0 0,0 0,0 0,0 0,-0.1 0,0 0,0 0,0 0,0 0,0 0,-0.1 0,0 0,0 0,0 0,0 0,0 0,-0.1 0,0 0,0 0,-0.1 0,0 0,0 0,-0.1 0,0 0,0 0,-0.1 0,0 0,0 0,0 0,0 0,0 0,-0.1 0,0 0,0 0,0 0,0 0,0 0,-0.1 0,0 0,0 0,0 0,0 0,0 0,-0.1 0,0 0,0 0,0 0,0 0,0 0,-0.1 0,0 0,0 0,0 0,0 0.1,-0.1 0.1,-0.1 0,0 0,0 0,0 l 0,0 0,0 c 0,0 0.1,-0.1 0.1,-0.1 0,0 0,0 0,0 0,0 0,0 0.1,-0.1 0,0 0,0 0,0 0,0 0,0 0.1,0 0,0 0,0 0,0 0,0 0,0 0.1,0 0,0 0,0 0,0 0,0 0,0 0.1,0 0,0 0,0 0,0 0,0 0.1,0 0.1,-0.1 0,0 0,0 0,0 0,0 0.1,0 0.1,0 0,0 0,0 0,0 0,0 0,0 0.1,0 0,0 0,0 0,0 0,0 0,0 0.1,0 0,0 0,0 0,0 0,0 0,0 0.1,0 0,0 0,0 0,0 0,0 0,0 0.1,0 0,0 0,0 0,0 0,0 0.1,0 0.1,0 0,0 0,0 0,0 0,0 0,0 0.1,0 0,0 0,0 0,0 0,0 0,0 0.1,0 0,0 0,0 0.1,0 0,0 0,0 0.1,0 0,0 0,0 0.1,0 0,0 0,0 0.1,0 0,0 0,0 0.1,0 0,0 0,0 0,0 0,0 0,0 0.1,0 0,0 0,0 0,0 0.1,0 0.1,0 0.2,0 0,0 0,0 0,0 0,0 0,0 0.1,0 0,0 0,0 0,0 0,0 0,0 0.1,0 0,0 0,0 0,0 0,0 0,0 0.1,0 0,0 0,0 0,0 0,0 0,0 0.1,0 0,0 0,0 0,0 0.1,0 0.2,0.1 0.2,0.1 0,0 0,0 0,0 0,0 0,0 0.1,0 0,0 0,0 0,0 0,0 0,0 0.1,0 0,0 0,0 0,0 0,0 0,0 0.1,0 0,0 0,0 0,0 l 0,0 c 0.2,0.1 0.3,0.2 0.4,0.3 1.3,1.1 1.3,2.6 0.4,3.5 z"
           id="path3881"
           style="fill:#ffffff" /><g
           id="g3883"><polyline
             id="polyline3885"
             points="7.5,8.5 7.5,13.6 8.5,13.6 8.5,8.5    "
             style="fill:#ffffff" /></g></g></g></g><path
     d="m 11.548426,11.258529 c 0,-1.852174 -1.422038,-3.306955 -3.274213,-3.306955 C 6.422039,7.951574 5,9.373612 5,11.225787 5,13.077962 6.422039,14.5 8.274213,14.5 c 1.852175,0 3.320518,-1.4356 3.274213,-3.241471 z M 5.982264,10.570944 c 0.548307,0 4.583899,0 4.583899,0 0,0.387917 0,0.779067 0,1.309686 -0.60738,0 -3.829194,0 -4.583899,0 0,-0.350429 -2e-6,-0.780936 0,-1.309686 z"
     id="path3-2"
     inkscape:connector-curvature="0"
     style="fill:#c94f50"
     sodipodi:nodetypes="cssscccccc" /></svg>