<?xml version="1.0" encoding="utf-8"?>
<!-- Generator: Adobe Illustrator 18.1.0, SVG Export Plug-In . SVG Version: 6.00 Build 0)  -->
<!DOCTYPE svg PUBLIC "-//W3C//DTD SVG 1.1//EN" "http://www.w3.org/Graphics/SVG/1.1/DTD/svg11.dtd">
<svg version="1.1" id="Layer_1" xmlns="http://www.w3.org/2000/svg" xmlns:xlink="http://www.w3.org/1999/xlink" x="0px" y="0px"
	 viewBox="0 0 16 16" enable-background="new 0 0 16 16" xml:space="preserve">
<g>
	<path fill="#FFFFFF" d="M8,0C6.1,0,4.1,1.3,4.1,3.9v1.9h-1C2,5.7,1.3,6.5,1.3,7.6v6.5c0,1.1,0.7,1.9,1.9,1.9l9.6,0
		c1.1,0,1.9-0.8,1.9-1.9V7.6c0-1.1-0.8-1.9-1.9-1.9h-0.9l0-1.9C11.9,1.3,9.9,0,8,0z M8,1.6c1.3,0,2.2,1,2.2,2.2
		C10.2,5,9.7,6.2,8,6.9c0.3-0.5,0.4-0.7,0.5-1.2C6.7,5.9,5.8,4.9,5.8,3.8S6.7,1.6,8,1.6z"/>
	<path fill="#252325" d="M5.6,8.7c-1.3,1.3-1.3,3.4,0,4.7c1.3,1.3,3.4,1.3,4.7,0c1.2-1.2,1.3-3.3,0.1-4.6C9.1,7.4,6.9,7.3,5.6,8.7z
		 M6.3,12.7c-1.4-1.4-0.6-3.6,1.2-4c0,1.6,0,3.1,0,4.7C7,13.3,6.6,13,6.3,12.7z M9.6,12.7c-0.3,0.3-0.7,0.6-1.2,0.6
		c0-1.6,0-3.1,0-4.7C10.2,9.1,11,11.4,9.6,12.7z"/>
</g>
</svg>
