<?xml version="1.0" encoding="UTF-8" standalone="no"?>
<!-- Created with Inkscape (http://www.inkscape.org/) -->

<svg
   xmlns:dc="http://purl.org/dc/elements/1.1/"
   xmlns:cc="http://creativecommons.org/ns#"
   xmlns:rdf="http://www.w3.org/1999/02/22-rdf-syntax-ns#"
   xmlns:svg="http://www.w3.org/2000/svg"
   xmlns="http://www.w3.org/2000/svg"
   version="1.1"
   width="47.5"
   height="47.5"
   id="svg3129"
   xml:space="preserve"><metadata
     id="metadata3135"><rdf:RDF><cc:Work
         rdf:about=""><dc:format>image/svg+xml</dc:format><dc:type
           rdf:resource="http://purl.org/dc/dcmitype/StillImage" /><dc:title></dc:title></cc:Work></rdf:RDF></metadata><defs
     id="defs3133"><linearGradient
       id="linearGradient5377"><stop
         id="stop5379"
         style="stop-color:#020000;stop-opacity:1"
         offset="0" /></linearGradient><clipPath
       id="clipPath3143"><path
         d="M 0,38 38,38 38,0 0,0 0,38 z"
         id="path3145" /></clipPath></defs><g
     transform="matrix(1.25,0,0,-1.25,0,47.5)"
     id="g3137"
     style="display:inline"><g
       id="g3139"><g
         clip-path="url(#clipPath3143)"
         id="g3141"><g
           transform="translate(37,19)"
           id="g3147"><path
             d="m 0,0 c 0,-9.941 -8.059,-18 -18,-18 -9.941,0 -18,8.059 -18,18 0,9.941 8.059,18 18,18 C -8.059,18 0,9.941 0,0"
             id="path3149"
             style="fill:#ffcc4d;fill-opacity:1;fill-rule:nonzero;stroke:none" /></g><g
           transform="translate(19,16)"
           id="g3151" /><g
           transform="translate(11,24)"
           id="g3155"><path
             d="M 0,0 C 0,0 0,2 2,2 4,2 4,0 4,0 l 0,-2 c 0,0 0,-2 -2,-2 -2,0 -2,2 -2,2 l 0,2 z"
             id="path3157"
             style="fill:#664500;fill-opacity:1;fill-rule:nonzero;stroke:none" /></g><g
           transform="translate(23,24)"
           id="g3159"><path
             d="M 0,0 C 0,0 0,2 2,2 4,2 4,0 4,0 l 0,-2 c 0,0 0,-2 -2,-2 -2,0 -2,2 -2,2 l 0,2 z"
             id="path3161"
             style="fill:#664500;fill-opacity:1;fill-rule:nonzero;stroke:none" /></g><g
           transform="translate(10,15)"
           id="g3163"><path
             d="m -1.0247056,0.56928088 c 0,0 3.3225925,-1.87814548 9.9677775,-1.87814548 6.6451851,0 9.9677771,1.87814548 9.9677771,1.87814548 0,0 -2.215061,-10.56528318 -9.9677771,-10.56528318 -7.7527158,0 -9.9677775,10.56528318 -9.9677775,10.56528318"
             id="path3165"
             style="fill:#ffffff;fill-opacity:1;fill-rule:nonzero;stroke:none" /><path
             d="m -1.0247056,0.56928088 c 0,0 3.3358667,-1.87814548 10.0076002,-1.87814548 6.6717334,0 10.0075994,1.87814548 10.0075994,1.87814548 0,0 -2.22391,-10.56528318 -10.0075994,-10.56528318 -7.783689,0 -10.0076002,10.56528318 -10.0076002,10.56528318"
             id="path5383"
             style="fill:#ffffff;fill-opacity:1;fill-rule:nonzero;stroke:none" /></g></g></g></g><g
     transform="matrix(1.25,0,0,-1.25,0,47.5)"
     id="g5385"
     style="display:inline"><g
       id="g5387"><g
         clip-path="url(#clipPath3143)"
         id="g5389"><g
           transform="translate(37,19)"
           id="g5391" /><g
           transform="translate(19,16)"
           id="g5395" /><g
           transform="translate(11,24)"
           id="g5397"><path
             d="M 0,0 C 0,0 0,2 2,2 4,2 4,0 4,0 l 0,-2 c 0,0 0,-2 -2,-2 -2,0 -2,2 -2,2 l 0,2 z"
             id="path5399"
             style="fill:#664500;fill-opacity:1;fill-rule:nonzero;stroke:none" /></g><g
           transform="translate(23,24)"
           id="g5401"><path
             d="M 0,0 C 0,0 0,2 2,2 4,2 4,0 4,0 l 0,-2 c 0,0 0,-2 -2,-2 -2,0 -2,2 -2,2 l 0,2 z"
             id="path5403"
             style="fill:#664500;fill-opacity:1;fill-rule:nonzero;stroke:none" /></g><g
           transform="translate(10,15)"
           id="g5405"><path
             d="m -1.0247056,0.56928088 c 0,0 3.3225925,-1.87814548 9.9677775,-1.87814548 6.6451851,0 9.9677771,1.87814548 9.9677771,1.87814548 0,0 -2.215061,-10.56528318 -9.9677771,-10.56528318 -7.7527158,0 -9.9677775,10.56528318 -9.9677775,10.56528318"
             id="path5407"
             style="fill:#ffffff;fill-opacity:1;fill-rule:nonzero;stroke:none" /><path
             d="m -2.956909,2.1794504 c 0,0 4.0062627,-2.16437849 12.0187882,-2.16437849 8.0125248,0 12.0187838,2.16437849 12.0187838,2.16437849 0,0 -2.67084,-12.1754527 -12.0187838,-12.1754527 -9.34794657,0 -12.0187882,12.1754527 -12.0187882,12.1754527"
             id="path5409"
             style="fill:#664500;fill-opacity:1;fill-rule:nonzero;stroke:none" /><path
             d="m -1.4668034,0.77055209 c 0,0 3.5165029,-1.73502897 10.5495083,-1.73502897 7.0330041,0 10.5495051,1.73502897 10.5495051,1.73502897 0,0 -2.344334,-9.76019849 -10.5495051,-9.76019849 -8.20517324,0 -10.5495083,9.76019849 -10.5495083,9.76019849"
             id="path5411"
             style="fill:#ffffff;fill-opacity:1;fill-rule:nonzero;stroke:none" /></g></g></g></g></svg>