<?xml version="1.0" encoding="UTF-8" standalone="no"?>
<!-- Created with Inkscape (http://www.inkscape.org/) -->

<svg
   xmlns:dc="http://purl.org/dc/elements/1.1/"
   xmlns:cc="http://creativecommons.org/ns#"
   xmlns:rdf="http://www.w3.org/1999/02/22-rdf-syntax-ns#"
   xmlns:svg="http://www.w3.org/2000/svg"
   xmlns="http://www.w3.org/2000/svg"
   xmlns:sodipodi="http://sodipodi.sourceforge.net/DTD/sodipodi-0.dtd"
   xmlns:inkscape="http://www.inkscape.org/namespaces/inkscape"
   width="18"
   height="18"
   id="svg3815"
   version="1.1"
   inkscape:version="0.48.5 r10040"
   sodipodi:docname="Neues Dokument 5">
  <defs
     id="defs3817" />
  <sodipodi:namedview
     id="base"
     pagecolor="#ffffff"
     bordercolor="#666666"
     borderopacity="1.0"
     inkscape:pageopacity="0.0"
     inkscape:pageshadow="2"
     inkscape:zoom="22.4"
     inkscape:cx="23.994336"
     inkscape:cy="16.050687"
     inkscape:document-units="px"
     inkscape:current-layer="layer1"
     showgrid="false"
     inkscape:window-width="2560"
     inkscape:window-height="1386"
     inkscape:window-x="-2"
     inkscape:window-y="-3"
     inkscape:window-maximized="1" />
  <metadata
     id="metadata3820">
    <rdf:RDF>
      <cc:Work
         rdf:about="">
        <dc:format>image/svg+xml</dc:format>
        <dc:type
           rdf:resource="http://purl.org/dc/dcmitype/StillImage" />
        <dc:title></dc:title>
      </cc:Work>
    </rdf:RDF>
  </metadata>
  <g
     inkscape:label="Ebene 1"
     inkscape:groupmode="layer"
     id="layer1"
     transform="translate(0,-1034.3622)">
    <path
       inkscape:connector-curvature="0"
       d="m 0,1034.3622 0,18 18,0 0,-18 -18,0 z m 3.9500533,11.7834 a 2.2475413,2.148285 0 0 1 2.1829252,2.1482 2.2475416,2.1482852 0 0 1 -4.4950832,0 2.2475413,2.148285 0 0 1 2.312158,-2.1482 z m 5.1159617,0 a 2.2475413,2.148285 0 0 1 2.18293,2.1482 2.2475417,2.1482853 0 0 1 -4.4950834,0 2.2475413,2.148285 0 0 1 2.3121534,-2.1482 z m 5.11597,0 a 2.2475413,2.148285 0 0 1 2.18012,2.1482 2.2475435,2.1482871 0 0 1 -4.495087,0 2.2475413,2.148285 0 0 1 2.314967,-2.1482 z"
       id="mask"
       style="fill:#ffffff;fill-opacity:1;stroke:none" />
  </g>
</svg>
