<svg xmlns="http://www.w3.org/2000/svg" width="64" height="64" viewBox="0 0 64 64"><circle fill="#4FD1D9" cx="32" cy="32" r="30"/><path fill="#FFF" d="M32 16c2.983 0 5.315 1.082 6.996 3.25C40.999 21.814 42 26.068 42 32.012c0 5.928-1.009 10.189-3.025 12.783C37.308 46.932 34.983 48 32 48c-2.997 0-5.414-1.172-7.248-3.516C22.918 42.139 22 37.961 22 31.947c0-5.9 1.009-10.146 3.025-12.74C26.692 17.07 29.017 16 32 16zm0 4.98c-.715 0-1.352.232-1.912.695s-.994 1.293-1.303 2.49c-.405 1.553-.608 4.168-.608 7.846 0 3.676.182 6.203.546 7.578.363 1.375.822 2.291 1.377 2.746.553.457 1.186.684 1.9.684s1.352-.23 1.912-.693c.561-.465.994-1.295 1.303-2.492.405-1.539.608-4.146.608-7.822 0-3.678-.182-6.203-.546-7.58-.363-1.373-.822-2.293-1.377-2.756a2.873 2.873 0 0 0-1.9-.696z"/></svg>