<svg xmlns="http://www.w3.org/2000/svg" width="64" height="64" viewBox="0 0 64 64"><circle fill="#4FD1D9" cx="32" cy="32" r="30"/><path fill="#FFF" d="M42 42.326V48H22a15.421 15.421 0 0 1 1.949-6.098c1.083-1.922 3.221-4.467 6.416-7.643 2.571-2.564 4.148-4.303 4.731-5.217.784-1.26 1.177-2.508 1.177-3.738 0-1.363-.342-2.41-1.025-3.143s-1.627-1.098-2.832-1.098c-1.191 0-2.14.385-2.843 1.152-.704.768-1.11 2.045-1.218 3.826l-5.686-.609c.338-3.361 1.401-5.773 3.188-7.238C27.645 16.732 29.878 16 32.559 16c2.936 0 5.246.848 6.924 2.543S42 22.348 42 24.869c0 1.434-.24 2.801-.721 4.098-.48 1.299-1.242 2.656-2.284 4.076-.691.941-1.937 2.297-3.737 4.064-1.799 1.77-2.94 2.943-3.42 3.523a10.48 10.48 0 0 0-1.168 1.695H42z"/></svg>