<svg xmlns="http://www.w3.org/2000/svg" width="64" height="64" viewBox="0 0 64 64"><circle fill="#4FD1D9" cx="32" cy="32" r="30"/><path fill="#FFF" d="M22 39.254l5.68-.631c.162 1.379.643 2.469 1.44 3.273.798.807 1.717 1.209 2.759 1.209 1.189 0 2.197-.52 3.021-1.557.825-1.035 1.237-2.598 1.237-4.688 0-1.957-.409-3.426-1.228-4.404-.817-.979-1.883-1.469-3.193-1.469-1.637 0-3.104.777-4.402 2.328l-4.625-.719L25.611 16h15.07v5.721h-10.75l-.893 5.418c1.271-.682 2.568-1.023 3.895-1.023 2.527 0 4.672.986 6.43 2.959 1.758 1.97 2.637 4.53 2.637 7.679 0 2.623-.71 4.967-2.129 7.025C37.937 46.592 35.252 48 31.818 48c-2.746 0-4.984-.791-6.715-2.371-1.73-1.582-2.765-3.707-3.103-6.375z"/></svg>