<svg xmlns="http://www.w3.org/2000/svg" width="64" height="64" viewBox="0 0 64 64"><circle fill="#4FD1D9" cx="32" cy="32" r="30"/><path fill="#FFF" d="M27.084 30.547c-1.509-.654-2.604-1.557-3.289-2.703-.686-1.145-1.026-2.402-1.026-3.768 0-2.338.791-4.268 2.374-5.791C26.727 16.762 28.979 16 31.896 16c2.891 0 5.136.762 6.733 2.285s2.396 3.453 2.396 5.791c0 1.451-.366 2.744-1.101 3.877-.732 1.129-1.763 1.996-3.091 2.594 1.688.697 2.971 1.717 3.849 3.055.879 1.339 1.318 2.882 1.318 4.634 0 2.893-.896 5.242-2.686 7.051C37.521 47.096 35.139 48 32.166 48c-2.767 0-5.069-.748-6.909-2.242C23.086 43.99 22 41.57 22 38.492c0-1.693.408-3.25 1.224-4.664.817-1.42 2.103-2.512 3.86-3.281zm.663 7.371c0 1.652.412 2.939 1.235 3.865.822.924 1.85 1.389 3.08 1.389 1.203 0 2.198-.445 2.987-1.336.788-.889 1.182-2.174 1.182-3.855 0-1.465-.399-2.646-1.202-3.533-.803-.893-1.819-1.338-3.05-1.338-1.425 0-2.487.506-3.185 1.518-.697 1.011-1.047 2.106-1.047 3.29zm.539-13.416c0 1.197.328 2.129.986 2.797.656.67 1.53 1.004 2.623 1.004 1.108 0 1.992-.338 2.655-1.014.664-.676.996-1.613.996-2.809 0-1.125-.328-2.025-.984-2.703-.658-.676-1.525-1.014-2.604-1.014-1.12 0-2.013.342-2.676 1.025-.664.685-.996 1.589-.996 2.714z"/></svg>