<svg xmlns="http://www.w3.org/2000/svg" width="64" height="64" viewBox="0 0 64 64"><circle fill="#4FD1D9" cx="32" cy="32" r="30"/><path fill="#FFF" d="M22.572 40.203l5.555-.641c.137 1.182.492 2.057 1.064 2.627s1.328.854 2.268.854c1.184 0 2.193-.568 3.023-1.709.83-1.139 1.359-3.502 1.592-7.092-1.443 1.752-3.246 2.627-5.412 2.627-2.357 0-4.391-.951-6.098-2.85C22.854 32.117 22 29.643 22 26.596c0-3.178.9-5.736 2.707-7.68C26.512 16.971 28.809 16 31.602 16c3.035 0 5.527 1.229 7.479 3.684C41.025 22.143 42 26.182 42 31.807c0 5.727-1.016 9.855-3.045 12.391C36.926 46.73 34.283 48 31.029 48c-2.342 0-4.236-.652-5.68-1.955s-2.369-3.252-2.777-5.842zm12.994-13.117c0-1.938-.43-3.439-1.279-4.506-.852-1.068-1.836-1.604-2.951-1.604-1.063 0-1.943.439-2.645 1.314-.703.877-1.055 2.311-1.055 4.305 0 2.021.383 3.508 1.146 4.453.762.947 1.715 1.42 2.857 1.42 1.105 0 2.033-.453 2.791-1.365.758-.912 1.136-2.249 1.136-4.017z"/></svg>