<svg xmlns="http://www.w3.org/2000/svg" width="64" height="64" viewBox="0 0 64 64"><circle fill="#4FD1D9" cx="32" cy="32" r="30"/><path fill="#FFF" d="M23.266 20.396c2.338-2.389 5.311-3.583 8.92-3.583 4.83 0 8.361 1.601 10.594 4.804 1.234 1.798 1.896 3.602 1.986 5.413h-6.063c-.387-1.392-.881-2.44-1.484-3.149-1.08-1.26-2.682-1.891-4.803-1.891-2.16 0-3.863.89-5.111 2.668-1.246 1.778-1.869 4.295-1.869 7.549 0 3.255.658 5.692 1.973 7.313 1.316 1.621 2.988 2.431 5.018 2.431 2.078 0 3.664-.695 4.756-2.086.604-.748 1.104-1.87 1.502-3.366h6.023c-.52 3.163-1.848 5.735-3.982 7.717-2.137 1.981-4.871 2.972-8.209 2.972-4.129 0-7.375-1.338-9.736-4.016-2.363-2.689-3.545-6.378-3.545-11.063-.002-5.066 1.342-8.97 4.03-11.713z"/></svg>