<svg xmlns="http://www.w3.org/2000/svg" width="64" height="64" viewBox="0 0 64 64"><circle fill="#4FD1D9" cx="32" cy="32" r="30"/><path fill="#FFF" d="M37.719 18.121c2.035.67 3.684 1.896 4.944 3.682 1.012 1.443 1.7 3.006 2.068 4.686s.552 3.281.552 4.803c0 3.859-.774 7.127-2.324 9.803-2.102 3.609-5.346 5.414-9.732 5.414H20.716V17.492h12.511c1.798.026 3.296.237 4.492.629zm-11.116 4.41v18.938h5.6c2.865 0 4.862-1.41 5.993-4.232.617-1.549.927-3.393.927-5.531 0-2.953-.464-5.221-1.39-6.801-.928-1.582-2.771-2.373-5.53-2.373h-5.6z"/></svg>