<svg xmlns="http://www.w3.org/2000/svg" width="64" height="64" viewBox="0 0 64 64"><circle fill="#4FD1D9" cx="32" cy="32" r="30"/><path fill="#FFF" d="M44.898 37.418c-.511 1.664-1.263 3.046-2.257 4.146l3.331 3.137L42.812 48l-3.485-3.307c-1.064.646-1.982 1.1-2.758 1.363-1.301.436-2.857.652-4.67.652-3.783 0-6.909-1.128-9.378-3.386-2.995-2.716-4.493-6.706-4.493-11.968 0-5.303 1.535-9.312 4.606-12.028C25.141 17.109 28.258 16 31.984 16c3.754 0 6.903 1.175 9.449 3.524 2.939 2.716 4.409 6.516 4.409 11.397.001 2.586-.314 4.752-.944 6.497zm-11.001 3.897a10.22 10.22 0 0 0 1.359-.493l-2.938-2.794 3.114-3.252 2.949 2.776c.459-.944.781-1.771.964-2.479.289-1.063.433-2.303.433-3.72 0-3.254-.666-5.771-1.998-7.549-1.332-1.777-3.277-2.666-5.836-2.666-2.402 0-4.318.853-5.748 2.559-1.431 1.706-2.146 4.259-2.146 7.658 0 3.976 1.024 6.824 3.072 8.543 1.326 1.115 2.915 1.673 4.766 1.673a7.78 7.78 0 0 0 2.009-.256z"/></svg>