<svg xmlns="http://www.w3.org/2000/svg" width="64" height="64" viewBox="0 0 64 64"><circle fill="#4FD1D9" cx="32" cy="32" r="30"/><path fill="#FFF" d="M39.636 18.24a7.169 7.169 0 0 1 2.717 2.027 9.07 9.07 0 0 1 1.459 2.441c.357.893.537 1.908.537 3.051 0 1.379-.348 2.732-1.043 4.064s-1.844 2.273-3.445 2.826c1.338.537 2.287 1.303 2.844 2.293.559.99.838 2.504.838 4.537v1.949c0 1.324.053 2.225.16 2.697.16.748.533 1.299 1.119 1.652v.729h-6.693a20.582 20.582 0 0 1-.393-1.555 14.126 14.126 0 0 1-.256-2.5l-.041-2.697c-.023-1.85-.344-3.084-.959-3.701-.613-.615-1.766-.924-3.453-.924h-5.922v11.377h-5.926V17.492h13.879c1.984.039 3.509.289 4.578.748zm-12.532 4.291v7.795h6.525c1.295 0 2.268-.156 2.916-.473 1.146-.551 1.721-1.639 1.721-3.268 0-1.758-.555-2.939-1.664-3.543-.623-.342-1.559-.512-2.805-.512h-6.693z"/></svg>