<svg xmlns="http://www.w3.org/2000/svg" width="64" height="64" viewBox="0 0 64 64"><path fill="#3E4347" d="M21.541 58.882s-1.035 1.487 0 3.118h2.865v-1.133S24.885 62 29.261 62c1.514 0 1.672-1.473.08-1.559-1.607-.087-1.371-1.204-2.875-3.118l-4.925 1.559zM38.734 58.882s-1.033 1.487 0 3.118h2.867v-1.133S42.078 62 46.455 62c1.514 0 1.674-1.473.08-1.559-1.607-.087-1.369-1.204-2.873-3.118l-4.928 1.559z"/><path fill="#C28FEF" d="M41.92 48.195c-.475-2.493-4.299-4.226-6.688-9.137 0 0-4.061-1.236-10.029-1.236 0 0-2.629 1.32-1.195 7.274.871 3.613-.955 9.714-3.82 14.159 0 0 4.219 1.611 8.598 0 0 0-1.314-3.104.932-9.103.725-1.936-.955-3.859.74-8.14 0 0 .822 1.817 6.939 7.264 0 0-1.209 5.599.225 9.979 0 0 .916.406 4.213.406 3.088 0 4.621-.406 4.621-.406s-2.956-2.743-4.536-11.06z"/><path fill="#9450E0" d="M29.125 38.825c-2.111-1.039-3.393-1.125-4.178-.82-.342.284-.93.952-1.211 2.28 1.805.973 4.564.846 4.564.846.827-1.577.825-2.306.825-2.306z"/><path fill="#C28FEF" d="M32.924 21.507s7.23-2.171 10.334-8.056c0 0 .492 2.254 4.154 4.457 0 0-5.414 4.118-9.234 5.818 0 0-.154 7.356 2.678 14.873 0 0-.26.874-7.105.874-.001.001 3.53-6.262-.827-17.966zM27.908 21.851s-3.357-1.982-5.014-.675c-8.895 7.02-9.41 8.728-8.359 14.239 0 0 1.828-1.327 5.012.162 0 0-1.434-5.466 4.967-8.363 0 0 .193 4.153-2.098 11.179 0 0 1.434 1.947 5.492 1.947 0 0 4.299-9.096 0-18.489z"/><path fill="#9450E0" d="M44.09 12.439s3.863 2.114 3.863 5.383h-2.191s-.188-1.771-1.152-2.475c-.967-.703-.52-2.908-.52-2.908z"/><path fill="#FFC7CE" d="M44.09 12.439s-1.662 1.41-2.826 2.674c0 0 .207 1.191 1.08 2.167l2.471-1.277-1.807 2.324s.748 1.121 2.078 1.626c0 0 1.828-.975 2.867-2.131 0 0-3.139-1.819-3.863-5.383z"/><path fill="#FFDD67" d="M47.953 12.557s1.891-1.599 1.393-2.14c-.498-.542-.904-.569-1.393 0-.195.229-.582.632-1.264 1.33-.719-.57-1.002.01-1.178.241-.26.343-.59 1.563-.59 1.563.463 1.349 1.412 2.502 2.662 3.303.96-.603 2.417-1.585 2.417-2.021 0-.948-2.047-2.276-2.047-2.276z"/><path fill="#EBA352" d="M45.512 13.184s.891-.176 1.316.194l-.188.145c.001-.001-.327-.27-1.128-.339z"/><path fill="#9450E0" d="M14.373 36.457s1.627 1.126 5.721.186c0 0-2.133-1.743-5.721-.186z"/><path fill="#FFDD67" d="M15.447 35.442s-1.086 2.162.697 4.624c.455.628 1.834 1.156 3.283.545 1.43-.604.193-1.137-.35-2.298.338-.372.672-.713.494-1.108-.271-.601-1.203-1.001-1.203-1.001s.482-1.029-2.921-.762z"/><path fill="#EBA352" d="M19.572 37.205c-.023-.053-.059-.102-.09-.151.127.322-.275.848-.514.617-.367-.354-.855-.814-.855-.814.625.655.965 1.457.965 1.457.338-.373.672-.713.494-1.109z"/><path fill="#FFC7CE" d="M14 33.103s.457 1.982.373 3.354c0 0 2.316-.897 5.721.186 0 0-.602-2.023.094-3.54 0 0-.371-.86-2.074-1.114l-.699 2.849-.664-2.78c-.001-.001-1.579-.469-2.751 1.045z"/><path fill="#EBA352" d="M48.555 15.598c-.301.271-.879.782-1.746-.144-.865-.925-.33-1.521.066-2.003.162-.197.414-.429.414-.902 0-.434-.852-.831-.457-.487 0 0 .58.253-.25 1.39-.336.46-.732 1.014-.291 1.68.479.722 1.082 1.455 2.076.865.996-.59.707-.868.188-.399zM32.924 21.176h-4.363l3.521 5.658z"/><path fill="#FFC7CE" d="M35.945 22.121c-.539-.573-1.744-.271-1.744-.271l1.434-1.896c-1.123.813-2.93.976-2.93.976-1.017 2.026-.641 5.795-.641 5.795s-.769-3.934-3.473-5.795c0 0-1.371-.217-3.303.217l2.637 1.337-1.982.83s1.278.212 2.938 1.099c.002.005 1.634 6.351-.376 14.384l5.464.275s2.891-5.584-.219-15.028c1.093-1.268 2.195-1.923 2.195-1.923z"/><path fill="#9450E0" d="M33.75 39.474s5.705-2.089 7.105-.874c0 0-.074.874-7.105.874z"/><path fill="#C28FEF" d="M32.082 27.214s1.309 4.696-.811 10.506c0 0 2.948-5.221.811-10.506z"/><g><path fill="#FFDD67" d="M28.617 7.944c-7.852 0-6.934-2.006-6.934 7.94 0 4.723 4.207 6.089 8.584 6.005 4.381-.082 6.885-1.076 6.885-5.802 0-7.852-2.093-8.143-8.535-8.143z"/><path fill="#FFB300" d="M25.006 21.311c-.082.743-.146 2.012-2.965 1.552 0 0 .402-4.798-1.756-7.473-2.158-2.676-2.629-5.091-.91-7.031 0 0-1.986-4.385 7.082-5.56 4.572-.592 8.6 1.123 12.82-.799 0 0 3.771 7.486-3.381 8.412-7.152.927-7.236-1.558-11.422-1.016 0 0 .469 4.223 1.707 7.088 0 0 .182.801-.773 1.337 0 0-.877-3.891-2.279-4.827-1.402-.936-1.408 1.317-.697 2.531.707 1.215 1.232 1.01 1.232 1.01s1.598 2.455 1.342 4.776z"/><circle fill="#937237" cx="27.863" cy="13.425" r="1.451"/><circle fill="#937237" cx="34.96" cy="13.425" r="1.452"/><path fill="#937237" d="M33.729 17.84c-1.492 1.162-3.152 1.154-4.638 0-.18-.138-.34.102-.219.325.453.829 1.367 1.569 2.536 1.569 1.171 0 2.088-.74 2.54-1.569.123-.223-.04-.463-.219-.325z"/></g></svg>