<svg xmlns="http://www.w3.org/2000/svg" width="64" height="64" viewBox="0 0 64 64"><path fill="#3E4347" d="M21.541 58.883s-1.035 1.486 0 3.117h2.865v-1.133S24.885 62 29.261 62c1.514 0 1.672-1.473.08-1.559-1.607-.086-1.371-1.203-2.875-3.117l-4.925 1.559zM38.734 58.883s-1.033 1.486 0 3.117h2.867v-1.133S42.078 62 46.455 62c1.514 0 1.674-1.473.08-1.559-1.607-.086-1.369-1.203-2.873-3.117l-4.928 1.559z"/><path fill="#C28FEF" d="M41.92 48.195c-.475-2.492-4.299-4.225-6.688-9.137 0 0-4.061-1.236-10.03-1.236 0 0-2.629 1.32-1.195 7.275.871 3.613-.955 9.713-3.82 14.158 0 0 4.219 1.611 8.598 0 0 0-1.314-3.104.932-9.102.725-1.936-.955-3.859.74-8.141 0 0 .822 1.818 6.94 7.264 0 0-1.209 5.6.225 9.979 0 0 .916.406 4.213.406 3.088 0 4.621-.406 4.621-.406s-2.956-2.743-4.536-11.06z"/><path fill="#9450E0" d="M29.125 38.826c-2.111-1.039-3.393-1.125-4.178-.82-.342.283-.93.951-1.211 2.279 1.805.973 4.564.846 4.564.846.826-1.576.825-2.305.825-2.305z"/><path fill="#C28FEF" d="M32.923 21.508s7.231-2.172 10.334-8.057c0 0 .492 2.254 4.154 4.457 0 0-5.414 4.119-9.234 5.818 0 0-.154 7.357 2.678 14.873 0 0-.26.875-7.105.875 0 .001 3.531-6.263-.827-17.966zM27.908 21.852s-3.357-1.982-5.014-.676c-8.894 7.02-9.41 8.729-8.359 14.24 0 0 1.828-1.328 5.011.162 0 0-1.433-5.467 4.967-8.363 0 0 .193 4.152-2.098 11.178 0 0 1.434 1.947 5.492 1.947.001 0 4.3-9.096.001-18.488z"/><path fill="#9450E0" d="M44.09 12.439s3.863 2.115 3.863 5.383h-2.191s-.188-1.77-1.152-2.475c-.967-.702-.52-2.908-.52-2.908z"/><path fill="#FFC7CE" d="M44.09 12.439s-1.662 1.41-2.826 2.674c0 0 .207 1.191 1.08 2.168l2.471-1.277-1.807 2.324s.748 1.121 2.078 1.625c0 0 1.828-.975 2.867-2.131 0 0-3.139-1.818-3.863-5.383z"/><path fill="#8A6859" d="M47.953 12.557s1.891-1.598 1.393-2.139c-.498-.543-.904-.57-1.393 0-.195.229-.582.631-1.264 1.33-.719-.57-1.002.01-1.178.24-.26.344-.59 1.563-.59 1.563.463 1.35 1.412 2.502 2.662 3.303.96-.602 2.417-1.584 2.417-2.02 0-.949-2.047-2.277-2.047-2.277z"/><path fill="#705041" d="M45.512 13.184s.891-.176 1.316.195l-.188.145c.001-.001-.327-.27-1.128-.34z"/><path fill="#9450E0" d="M14.373 36.457s1.627 1.127 5.72.186c0 0-2.132-1.743-5.72-.186z"/><path fill="#8A6859" d="M15.447 35.443s-1.086 2.162.697 4.623c.455.629 1.834 1.156 3.283.545 1.43-.604.193-1.137-.35-2.297.338-.373.672-.713.494-1.109-.271-.6-1.203-1-1.203-1s.482-1.029-2.921-.762z"/><path fill="#705041" d="M19.572 37.205c-.023-.053-.059-.102-.09-.15.127.322-.275.848-.513.617-.367-.354-.855-.814-.855-.814.625.654.964 1.457.964 1.457.338-.374.672-.713.494-1.11z"/><path fill="#FFC7CE" d="M14 33.104s.457 1.982.373 3.354c0 0 2.316-.896 5.72.186 0 0-.602-2.023.094-3.539 0 0-.371-.861-2.074-1.115l-.699 2.85-.664-2.781c0-.002-1.578-.469-2.75 1.045z"/><path fill="#705041" d="M48.555 15.598c-.301.271-.879.783-1.746-.143-.865-.926-.33-1.521.066-2.004.162-.197.414-.428.414-.902 0-.434-.852-.83-.457-.486 0 0 .58.252-.25 1.389-.336.461-.732 1.014-.291 1.68.479.723 1.082 1.455 2.076.865.996-.589.707-.868.188-.399zM32.923 21.176H28.56l3.522 5.658z"/><path fill="#FFC7CE" d="M35.945 22.121c-.539-.572-1.744-.271-1.744-.271l1.434-1.896c-1.123.813-2.93.977-2.93.977-1.016 2.025-.641 5.795-.641 5.795s-.768-3.934-3.473-5.795c0 0-1.371-.217-3.303.217l2.637 1.336-1.982.83s1.279.213 2.938 1.1c.002.004 1.635 6.35-.375 14.383l5.463.275s2.891-5.584-.219-15.027c1.094-1.268 2.195-1.924 2.195-1.924z"/><path fill="#9450E0" d="M33.75 39.475s5.705-2.09 7.105-.875c0 0-.074.875-7.105.875z"/><path fill="#C28FEF" d="M32.082 27.215s1.309 4.695-.811 10.506c0 0 2.948-5.221.811-10.506z"/><g><path fill="#8A6859" d="M28.617 7.945c-7.852 0-6.934-2.006-6.934 7.939 0 4.723 4.207 6.09 8.584 6.006 4.381-.082 6.885-1.076 6.885-5.803 0-7.851-2.093-8.142-8.535-8.142z"/><path fill="#231F20" d="M25.005 21.311c-.082.744-.146 2.012-2.965 1.553 0 0 .402-4.799-1.756-7.473-2.158-2.676-2.628-5.092-.91-7.031 0 0-1.986-4.385 7.082-5.561 4.572-.592 8.6 1.123 12.821-.799 0 0 3.771 7.486-3.381 8.412-7.153.928-7.237-1.557-11.422-1.016 0 0 .469 4.223 1.707 7.088 0 0 .182.801-.773 1.338 0 0-.877-3.891-2.279-4.828-1.402-.936-1.408 1.318-.697 2.531.707 1.215 1.232 1.01 1.232 1.01s1.597 2.455 1.341 4.776z"/><circle fill="#574137" cx="27.863" cy="13.426" r="1.451"/><circle fill="#574137" cx="34.96" cy="13.426" r="1.452"/><path fill="#574137" d="M33.73 17.84c-1.493 1.162-3.153 1.154-4.639 0-.18-.139-.34.102-.219.324.453.83 1.367 1.57 2.537 1.57s2.088-.74 2.54-1.57c.123-.223-.041-.463-.219-.324z"/></g></svg>