<svg xmlns="http://www.w3.org/2000/svg" width="64" height="64" viewBox="0 0 64 64"><path fill="#B2C1C0" d="M53.129 38.563h-7.5v3.75h7.5c1.034 0 1.877.841 1.877 1.875s-.843 1.875-1.877 1.875H6.254a1.875 1.875 0 1 0 0 3.75H53.13a5.624 5.624 0 1 0-.001-11.25zM54.487 25.672l-3.725-.312c.024-.141 2.348-13.817 2.787-16.563.253-1.586.946-6.094 6.563-6.094v3.75c-2.309 0-2.56.904-2.836 2.639-.441 2.762-2.765 16.439-2.789 16.58z"/><path fill="#F15744" d="M54.672 12.313H3.988c-1.938 0-2.156 1.811-1.902 2.813l5.746 25.367c.252 1.002 1.312 1.82 2.353 1.82H49.94c1.04 0 2.023-.835 2.185-1.853l4.229-26.272c.162-1.019-.64-1.875-1.682-1.875zM6.866 20.777l-.949-3.805c-.125-.502.197-.91.713-.91h7.06c.517 0 .985.419 1.04.932l.404 3.761a.827.827 0 0 1-.84.932H8.032c-.516.001-1.041-.41-1.166-.91zm3.271 9.348c-.518 0-1.042-.41-1.167-.91l-.716-2.867c-.125-.502.197-.91.713-.91h5.729c.517 0 .985.419 1.04.932l.304 2.823a.826.826 0 0 1-.839.932h-5.064zm5.969 8.438H12.24c-.518 0-1.041-.41-1.166-.91l-.716-2.867c-.125-.502.196-.91.713-.91h4.531c.516 0 .985.419 1.041.932l.302 2.824a.825.825 0 0 1-.839.931zm11.491-.938a.942.942 0 0 1-.94.938h-4.891a1.07 1.07 0 0 1-1.039-.932l-.304-2.824a.826.826 0 0 1 .839-.932h5.394a.94.94 0 0 1 .94.938v2.812zm0-8.437a.942.942 0 0 1-.94.938H20.86c-.517 0-.984-.419-1.04-.932l-.303-2.823a.827.827 0 0 1 .84-.932h6.3a.94.94 0 0 1 .94.938v2.811zm0-8.438a.942.942 0 0 1-.94.938h-6.702a1.07 1.07 0 0 1-1.04-.932l-.405-3.761a.828.828 0 0 1 .84-.932h7.307a.94.94 0 0 1 .94.938v3.749zm10.16 16.881a1.071 1.071 0 0 1-1.04.932h-4.42a.942.942 0 0 1-.94-.938v-2.813c0-.517.424-.938.94-.938h4.924c.516 0 .896.419.84.932l-.304 2.825zm.906-8.438a1.071 1.071 0 0 1-1.04.932h-5.326a.942.942 0 0 1-.94-.938v-2.813c0-.517.424-.938.94-.938h5.83c.517 0 .896.419.839.932l-.303 2.825zm.906-8.438a1.071 1.071 0 0 1-1.04.932h-6.232a.942.942 0 0 1-.94-.938V17c0-.517.424-.938.94-.938h6.837c.517 0 .896.419.841.932l-.406 3.761zm8.739 16.881c-.077.51-.566.927-1.082.927h-4.849a.825.825 0 0 1-.839-.932l.302-2.824a1.073 1.073 0 0 1 1.04-.932h5.076c.517 0 .873.416.795.927l-.443 2.834zm1.316-8.438c-.079.509-.567.927-1.084.927h-5.257a.828.828 0 0 1-.841-.932l.304-2.823a1.074 1.074 0 0 1 1.04-.932h5.484c.517 0 .875.416.797.926l-.443 2.834zm1.314-8.437c-.078.509-.567.927-1.084.927h-5.663a.826.826 0 0 1-.841-.932l.405-3.761a1.07 1.07 0 0 1 1.04-.932h5.936c.517 0 .876.416.795.926l-.588 3.772z"/><circle fill="#62727A" cx="12.312" cy="56.375" r="5.625"/><circle fill="#FFF" cx="12.312" cy="56.375" r="2.812"/><circle fill="#62727A" cx="46.062" cy="56.375" r="5.626"/><path fill="#FFF" d="M48.875 56.375a2.816 2.816 0 0 1-2.813 2.813 2.816 2.816 0 0 1-2.814-2.813 2.815 2.815 0 0 1 2.814-2.813 2.816 2.816 0 0 1 2.813 2.813z"/><path fill="#62727A" d="M61.063 2H58.25v5.625h2.813A.942.942 0 0 0 62 6.688v-3.75A.94.94 0 0 0 61.063 2z"/><path fill="#F15744" d="M12.312 48.875a7.5 7.5 0 0 0-7.499 7.5h14.999a7.5 7.5 0 0 0-7.5-7.5zM46.063 48.875a7.5 7.5 0 0 0-7.502 7.5h15.002a7.5 7.5 0 0 0-7.5-7.5z"/><path fill="#75A843" d="M42.283 38.441l-.044.092c.019.004.035.011.055.013-.005-.034-.005-.069-.011-.105zM46.793 38.563h.008v-.007z"/></svg>