<svg xmlns="http://www.w3.org/2000/svg" width="64" height="64" viewBox="0 0 64 64"><ellipse fill="#3E4347" cx="9.5" cy="7" rx="2.344" ry="4"/><path fill="#3E4347" d="M2.938 5h4.688v4H2.938z"/><ellipse fill="#3E4347" cx="2.938" cy="7" rx=".938" ry="2"/><ellipse fill="#83BF4F" cx="9.5" cy="7" rx=".938" ry="2"/><ellipse fill="#3E4347" cx="55.438" cy="54" rx="6.563" ry="7"/><path fill="#83BF4F" d="M9.5 5h13.125v4H9.5z"/><ellipse fill="#3E4347" cx="21.688" cy="7" rx="2.344" ry="4"/><path fill="#3E4347" d="M22.625 5h6.563v4h-6.563z"/><ellipse fill="#94989B" cx="29.188" cy="7" rx="1.406" ry="2"/><path fill="#83BF4F" d="M28.309 52s-1.699-8-9.434-8c-2.672 0-4.39-1.805-5.176-3.088-.439-.718-1.654-2.941-1.654-2.941L8.83 40.029 17.813 56h37.625v-4H28.309z"/><path fill="#D0D0D0" d="M58.719 54c0 1.93-1.469 3.5-3.281 3.5s-3.281-1.57-3.281-3.5 1.469-3.5 3.281-3.5 3.281 1.57 3.281 3.5z"/><path fill="#83BF4F" d="M55.438 46.5c3.102 0 5.613-.494 5.624-1.105-1.596-1.19-3.533-1.895-5.624-1.895-5.428 0-9.844 4.71-9.844 10.5h2.813c-.001-4.136 3.154-7.5 7.031-7.5z"/><ellipse fill="#FFF" cx="55.438" cy="54" rx="2.188" ry="2.333"/><path opacity=".5" fill="#3E4347" d="M13.699 40.912c-.439-.718-1.654-2.941-1.654-2.941l-1.373.879-.561 3.457 2.91 5.174.99-6.105a7.266 7.266 0 0 1-.312-.464z"/><path fill="#C7E755" d="M57.773 44.778c-.032.278-3.446-.733-6.677 1.429-3.291 2.046-4.279 5.9-4.505 5.791-.289.051.36-4.368 4.047-6.707 3.658-2.398 7.325-.768 7.135-.513z"/><path opacity=".5" fill="#3E4347" d="M6.649 47.17c.282-.09.573-.152.872-.162l.139-.832c.191-1.154.407-1.728 1.168-1.752l.002-.009s-1.559-.138-2.181 2.755z"/><path fill="#3E4347" d="M9.5 47H7.625c-2.589 0-4.688 3.134-4.688 7s2.099 7 4.688 7H9.5c2.589 0 4.688-3.134 4.688-7s-2.099-7-4.688-7z"/><path fill="#D0D0D0" d="M11.844 54c0 1.93-1.049 3.5-2.344 3.5S7.156 55.93 7.156 54s1.049-3.5 2.344-3.5 2.344 1.57 2.344 3.5z"/><ellipse fill="#FFF" cx="9.5" cy="54" rx="1.563" ry="2.333"/><path fill="#FFF" d="M5.047 54c-.023 3.946 2.697 6.252 2.802 5.979.184-.158-1.961-2.513-1.908-5.979-.054-3.466 2.091-5.821 1.907-5.979-.104-.273-2.825 2.033-2.801 5.979z" opacity=".25"/><path fill="#83BF4F" d="M11.438 42.057L17.452 5h-3.75L7.756 41.632c-1.361.615-2.223 2.128-2.546 4.085l-.457 2.759c.769-.892 1.726-1.434 2.769-1.468l.139-.832c.239-1.442.501-1.993 1.84-1.676.527.125.483 1.156.245 2.598l-1.078 6.533h-.001c-.118.723.332 1.41 1.01 1.537.676.127 1.32-.354 1.44-1.075l1.081-6.532c.371-2.251.488-4.417-.76-5.504z"/><path fill="#C7E755" d="M9.877 43.598c.793-.338 1.595.793.95 4.543s-.851 2.702-.306-1.762c.34-2.781-1.083-2.594-.644-2.781zM11.76 25.572c-1.473 8.906-2.838 16.094-3.051 16.055-.213-.04.81-7.293 2.281-16.199 1.473-8.906 2.838-16.094 3.051-16.055.213.04-.81 7.293-2.281 16.199z"/><ellipse fill="#C7E755" cx="14.188" cy="6.208" rx="4.688" ry=".458"/></svg>