<svg xmlns="http://www.w3.org/2000/svg" width="64" height="64" viewBox="0 0 64 64"><path fill="#EDA454" d="M6.081 38.886S.569 49.484 2.356 58.995c1.788 9.51 23.372-5.299 39.59-20.109 16.221-14.81 21.326-21.962 19.795-36.723 0 0 1.531 17.542-21.584 30.094C17.042 44.81 7.894 41.423 6.081 38.886z"/><path fill="#F9B978" d="M40.157 32.257c15.857-8.609 20.115-19.566 21.225-25.602.4-2.488.359-4.155.359-4.493 0-1.461-5.619 7.245-12.389 11.545-6.768 4.301-30.521 22.214-34.227 25.177-3.701 2.961-9.045 0-9.045 0 1.814 2.539 10.962 5.926 34.077-6.627z"/><g fill="#3E4347"><path d="M32.417 27.179C24.893 32.763 17.6 38.303 15.728 39.8c-.125.098-.25.191-.377.281 4.793-.418 12.555-2.428 24.357-8.835a55.948 55.948 0 0 0 6.438-4.066H32.417zM60.14 5.054c-2.26 2.596-6.045 6.943-10.277 9.633-2.513 1.597-7.469 5.147-12.861 9.107h13.237c7.069-6.594 9.395-13.298 10.144-17.361.102-.652.186-1.299.242-1.932-.163.184-.325.372-.485.553z"/></g><path opacity=".5" fill="#3E4347" d="M26.064 35.227c.598 1.195 2.225 8.584 4.244 12.609.107.213.224.419.333.636a193.205 193.205 0 0 0 4.46-3.522c-.037-.074-.076-.15-.111-.223-1.928-3.842-6.768-9.342-7.365-10.537-.625-1.24-1.14-2.421-1.698-3.533-.516.389-1.072.804-1.564 1.175.544 1.082 1.096 2.189 1.701 3.395z"/><path fill="#A87D5D" d="M27.916 31.233L14.375 4.245c.498-.332.671-1.073.383-1.643-.288-.573-.929-.772-1.425-.442L11.52 3.363c-.496.331-.669 1.07-.383 1.643.287.573.931.771 1.429.439l13.54 26.99c.693 1.386 2.58 9.958 4.923 14.626 3.172 6.321 6.881 13.717 6.881 13.717.58 1.16 1.871 1.565 2.866.903l1.81-1.2c.995-.662 1.335-2.152.755-3.311 0 0-3.713-7.397-6.881-13.716-2.236-4.455-7.851-10.835-8.544-12.221z"/></svg>