<svg xmlns="http://www.w3.org/2000/svg" width="64" height="64" viewBox="0 0 64 64"><circle fill="#3E4347" cx="52" cy="54.5" r="7.5"/><circle fill="#94989B" cx="52" cy="54.277" r="3.75"/><circle fill="#3E4347" cx="10.5" cy="54.5" r="7.5"/><circle fill="#94989B" cx="10.5" cy="54.5" r="3.75"/><path fill="#F2B200" d="M53.016 36.902H31.629s5.345 2.334 5.345 7.163c0 2.669-2.391 4.827-5.345 4.827h-9.747c-1.724 0-3.118-5.344-3.118-11.949 0-6.82 2.729-10.381 2.729-10.381h-.006v-2.109c0-.699-.42-1.264-.938-1.264v-.006c-.67-.139-1.492-.484-1.729-1.367C18.351 20.063 17.102 20 16.331 20h-1.406v6.563h3.449s-7.908 10.381-7.908 15.571c0 .845.784 1.97.784 1.97l.003.004a9.19 9.19 0 0 0-.799-.042c-3.445 0-6.775 1.946-8.388 4.827-.795 1.424 5.942.605 8.388 1.932 2.065 1.121 3.03 2.897 6.526 2.897h3.215c1.264 0 1.801.966 3.193.966H62c0-11.186-8.984-17.786-8.984-17.786z"/><path fill="#D0D0D0" d="M13.987 20h.938v6.563h-.938z"/><path fill="#D0D0D0" d="M13.05 23.281c0 1.293.42 2.344.938 2.344v-4.688c-.518.001-.938 1.05-.938 2.344z"/><path fill="#94989B" d="M13.987 20v6.563h.938s-.938-3.282-.938-6.563zM13.987 25.625v-1.211c-.706-.282-.938-1.133-.938-1.133.001 1.293.421 2.344.938 2.344z"/><circle fill="#3E4347" cx="20.799" cy="24.585" r="1.04"/><path fill="#3E4347" d="M23.263 25.016a.735.735 0 0 0-.293-.309l-1.979-.844a.747.747 0 0 0-.386 1.443l1.663.689a.734.734 0 0 0 .633.014.748.748 0 0 0 .362-.993z"/><circle fill="#94989B" cx="22.627" cy="25.369" r=".586"/><path fill="#3E4347" d="M55.75 31.26a1.809 1.809 0 0 0-1.873-1.825l-22.502.812c-1.031.036-1.875.919-1.875 1.959v2.837a1.89 1.89 0 0 0 1.875 1.892h22.5a1.89 1.89 0 0 0 1.875-1.892V31.26z"/><path fill="#94989B" d="M30.544 32.119l24.268-.811v-.048a.87.87 0 0 0-.869-.889l-22.536.811c-.504.02-.922.452-.957.96.033-.005.061-.021.094-.023z"/><path fill="#89664C" d="M57.824 43.916a19.328 19.328 0 0 0-3.195-2.046 18.396 18.396 0 0 0-3.471-1.429c-1.197-.347-2.42-.592-3.654-.672-1.238-.081-2.467-.045-3.629.291-2.344.594-4.316 2.354-5.15 4.65-.865 2.295-.6 4.943.346 7.297a10.493 10.493 0 0 1-1.305-3.619 9.03 9.03 0 0 1 .275-3.909c.371-1.28 1.119-2.453 2.09-3.386.98-.927 2.205-1.582 3.498-1.938 1.295-.355 2.652-.387 3.947-.27 1.301.141 2.59.41 3.807.873 2.437.898 4.68 2.302 6.441 4.158z"/><path fill="#FFCE31" d="M58.563 45.208a19.284 19.284 0 0 0-3.102-1.777 19.092 19.092 0 0 0-3.314-1.236c-1.139-.294-2.291-.524-3.457-.599-1.17-.09-2.336-.084-3.447.158-2.236.42-4.293 1.797-5.27 3.867-1.006 2.066-.77 4.604.209 6.781a8.734 8.734 0 0 1-1.305-3.386 7.36 7.36 0 0 1 .434-3.685c.457-1.184 1.293-2.209 2.299-2.98 1.02-.766 2.217-1.259 3.445-1.516 1.24-.248 2.5-.248 3.715-.122a15.99 15.99 0 0 1 3.588.794c2.306.8 4.468 2.026 6.205 3.701z"/><circle fill="#D0D0D0" cx="7.972" cy="54.5" r=".469"/><circle fill="#D0D0D0" cx="8.712" cy="56.287" r=".469"/><circle fill="#D0D0D0" cx="10.5" cy="57.027" r=".469"/><circle fill="#D0D0D0" cx="12.287" cy="56.288" r=".469"/><circle fill="#D0D0D0" cx="13.028" cy="54.501" r=".469"/><circle fill="#D0D0D0" cx="12.288" cy="52.713" r=".469"/><circle fill="#D0D0D0" cx="10.501" cy="51.973" r=".469"/><circle fill="#D0D0D0" cx="8.713" cy="52.712" r=".469"/><path fill="#FFCE31" d="M19.156 51.602a8.97 8.97 0 0 0-2.103-3.636c-.965-.983-2.159-1.727-3.47-2.071-1.304-.366-2.707-.337-4.039.024a9.173 9.173 0 0 0-3.689 2.018c.806-1.219 2.042-2.188 3.462-2.713a7.313 7.313 0 0 1 4.514-.233 7.356 7.356 0 0 1 3.77 2.495 7.049 7.049 0 0 1 1.555 4.116z"/><circle fill="#D0D0D0" cx="10.501" cy="54.501" r=".938"/><circle fill="#D0D0D0" cx="50.213" cy="56.064" r=".47"/><circle fill="#D0D0D0" cx="52" cy="56.805" r=".469"/><circle fill="#D0D0D0" cx="53.788" cy="56.065" r=".468"/><path fill="#D0D0D0" d="M51.168 54.688c.152.311.465.528.834.528s.68-.218.834-.528h-1.668z"/></svg>