<svg xmlns="http://www.w3.org/2000/svg" width="64" height="64" viewBox="0 0 64 64"><path fill="#D6A57C" d="M47.785 31.017s-8.633-6.512-9.811-8.512c-1.416-2.405-2.063-6.063 1.915-8.601 4.19-2.673 6.306-6.968 4.981-9.604-1.58-3.157-5.053-3.088-7.719.393-5.851 7.632-12.417 10.946-16.16 16.727-2.17 3.351-5.082 8.624-6.452 12.355-2.023 5.521 2.024 12.357 5.602 14.429l7.194 4.162 20.45-21.349z"/><path fill="#D6A57C" d="M28.709 52.548c2.357 2.105 8.521 8.096 8.521 8.096 3.717 3.23 8.648-2.208 4.934-5.438l-10.802-9.832c0-.001-6.305 3.91-2.653 7.174z"/><path fill="#B58360" d="M42.295 55.327c2.939 3.014-1.617 7.788-4.936 4.354-2.598-2.688-5.108-5.512-10.105-8.624-2.879-1.793-5.896-3.479-5.896-3.479-3.578-2.07-7.463-8.265-5.44-13.787 1.367-3.732 4.132-8.793 6.302-12.145 3.743-5.783 10.243-9.462 16.091-17.092.841-1.097 2.474-2.665 4.411-2.35-1.69-.629-3.805.182-5.569 2.484-5.85 7.631-12.417 10.948-16.161 16.728-2.169 3.352-5.081 8.625-6.451 12.356-2.024 5.522 2.023 12.358 5.601 14.43l6.534 3.781c5.504 3.377 7.132 5.928 10.341 8.71 1.657 1.438 4.004 1.934 5.494.212 1.715-1.981 1.313-4.249-.216-5.578z"/><path fill="#D6A57C" d="M37.687 22.206C49.17 28.614 50.037 33.136 50 35.764c-.068 4.933-6.841 5.038-8.036.804l-.558-5.917c-.49-4.909-8.019-10.844-3.719-8.445z"/><path fill="#B58360" d="M23.012 31.473c4.288 2.569 9.79 1.354 12.678-2.653a7.429 7.429 0 0 1-.75 1.739c-2.166 3.615-6.835 4.803-10.425 2.651a7.433 7.433 0 0 1-2.466-2.412c.305.241.622.47.963.675z"/><path fill="#D6A57C" d="M36.849 41.978l-3.551.337-2.754-2.284c-3.26-2.677-7.639 2.688-4.379 5.363l3.911 3.244c.749.575 1.354.827 2.405.717l5.054-.479c4.192-.42 3.506-7.318-.686-6.898z"/><path fill="#B58360" d="M38.083 48.15l-5.053.479c-1.051.111-1.657-.14-2.406-.716l-3.911-3.243c-1.44-1.183-1.387-2.889-.6-4.195-1.26 1.331-1.687 3.495.041 4.914l3.912 3.243c.748.576 1.354.827 2.404.717l5.054-.479c1.141-.114 1.918-.711 2.364-1.507-.447.42-1.044.711-1.805.787z"/><g><path fill="#D6A57C" d="M41.309 36.037l-4.146.394-3.217-2.668c-3.806-3.125-8.921 3.14-5.115 6.265l4.568 3.788c.875.672 1.582.965 2.811.837l5.9-.561c4.896-.489 4.095-8.544-.801-8.055z"/><path fill="#B58360" d="M42.752 43.247l-5.902.56c-1.229.129-1.936-.165-2.811-.837l-4.567-3.789c-1.683-1.381-1.62-3.372-.7-4.898-1.471 1.555-1.971 4.083.048 5.739l4.567 3.787c.876.673 1.582.966 2.811.837l5.902-.56c1.332-.133 2.24-.829 2.76-1.759-.522.49-1.221.831-2.108.92z"/></g><g><path fill="#D6A57C" d="M45.786 31.721l-4.146.393-3.217-2.668c-3.808-3.125-8.921 3.14-5.115 6.265l4.568 3.788c.874.673 1.58.966 2.809.837l5.902-.56c4.898-.49 4.098-8.545-.801-8.055z"/><path fill="#B58360" d="M42.123 32.716s1.313-.902 3.574-.725c-1.66-.889-3.68-.244-3.68-.244s-3.945-4.622-7.519-2.729c3.781-.85 7.625 3.698 7.625 3.698zM47.229 38.93l-5.902.56c-1.228.129-1.934-.165-2.809-.837l-4.568-3.788c-1.681-1.381-1.619-3.373-.699-4.898-1.472 1.554-1.969 4.082.047 5.738l4.568 3.787c.875.673 1.582.967 2.811.838l5.902-.56c1.332-.134 2.239-.829 2.762-1.76-.525.491-1.224.831-2.112.92z"/></g></svg>