<svg xmlns="http://www.w3.org/2000/svg" width="64" height="64" viewBox="0 0 64 64"><path fill="#FED0AC" d="M24.375 7.811C21.67 9.54 18.217 13.34 13.94 15.017 10.115 16.517 2 17.279 2 17.279v30.956s14.785-.98 19.577 2.861l2.798-43.285z"/><path fill="#E0A372" d="M21.315 48.303S11.107 45.532 2 45.532v2.682c6.648 0 19.577 2.861 19.577 2.861l-.262-2.772z"/><path fill="#FED0AC" d="M46.129 14.138S39.6 7.681 36.694 6.227c-10.573-5.294-20.245 7.599-19.9 18.546.2 6.348 1.083 15.875 2.487 21.991 2.084 9.041 14.858 9.297 20.543 8.73l6.305-41.356z"/><path fill="#E0A372" d="M39.806 54.152c-10.864 0-18.073-3.344-21.45-8.385.543 6.75 9.839 10.982 21.45 10.029v-1.644z"/><path fill="#FED0AC" d="M33.773 6.155c18.054-2.128 25.13 7.385 27.169 10.844 1.807 3.064 1.072 6.091-.701 7.966-1.982 2.095-12.205 4.757-12.205 4.757S27.014 6.952 33.773 6.155z"/><path fill="#E0A372" d="M27.037 36.033c6.88-.563 9.472-6.043 10.565-8.509l.93 3.954s-1.695 5.172-8.422 5.448c-1.669.068-3.258-.199-4.697-.893.535.035 1.076.043 1.624 0z"/><path fill="#FED0AC" d="M49.444 46.176l-3.184 3.123-4.18-.393c-4.929-.436-5.527 8.895-.599 9.332l5.936.557c1.106.059 1.856-.133 2.792-1.068l4.53-4.449c3.744-3.714-1.551-10.815-5.295-7.102z"/><path fill="#E0A372" d="M54.779 52.051l-4.53 4.445c-.934.939-1.686 1.131-2.791 1.072l-5.937-.559c-2.177-.191-3.272-2.121-3.395-4.178-.315 2.449.753 5.344 3.366 5.576l5.959.586c1.105.059 1.811-.332 2.744-1.268l4.53-4.447c1.02-1.01 1.364-2.273 1.257-3.5a4.204 4.204 0 0 1-1.203 2.273z"/><path fill="#FED0AC" d="M50.994 36.471l-3.747 3.68-4.922-.463c-5.805-.514-6.51 10.473-.705 10.984l6.989.66c1.302.066 2.187-.158 3.287-1.262l5.335-5.236c4.407-4.373-1.83-12.735-6.237-8.363z"/><path fill="#E0A372" d="M57.276 43.389l-5.334 5.236c-1.1 1.104-1.983 1.328-3.287 1.262l-6.988-.658c-2.564-.227-3.854-2.5-3.998-4.918-.371 2.883.859 6.092 3.936 6.365l6.99.658c1.303.066 2.186-.158 3.286-1.262l5.334-5.236c1.2-1.191 1.606-2.678 1.48-4.121a4.948 4.948 0 0 1-1.419 2.674z"/><path fill="#FED0AC" d="M51.334 25.286l-4.375 4.296-5.749-.542c-6.778-.599-7.601 12.234-.824 12.832l8.164.768c1.521.078 2.551-.184 3.838-1.471l6.229-6.117c5.148-5.107-2.135-14.873-7.283-9.766z"/><path fill="#E0A372" d="M58.672 33.363l-6.229 6.117c-1.285 1.287-2.317 1.551-3.839 1.473l-8.162-.77c-2.995-.264-4.501-2.918-4.669-5.746-.433 3.369 1.004 7.119 4.596 7.436l8.163.768c1.521.078 2.553-.184 3.839-1.473l6.229-6.115c1.401-1.389 1.876-3.125 1.729-4.813a5.807 5.807 0 0 1-1.657 3.123z"/><g fill="#E0A372"><path d="M49.627 20.212s.769-2.372 3.466-4.205c-2.58.356-4.352 3.039-4.352 3.039l.886 1.166zM60.317 23.651l-6.23 6.117c-1.285 1.289-2.316 1.549-3.838 1.472l-.072 1.689c1.52.079 2.553-.185 3.84-1.474l6.229-6.115c1.4-1.39 1.877-3.124 1.729-4.813a5.801 5.801 0 0 1-1.658 3.124z"/></g><g><path fill="#FED0AC" d="M33.206 21.643l5.082 3.815 1.092 6.923c1.324 8.15 12.893 5.121 11.568-3.03l-1.65-9.752c-.348-1.812-.529-2.992-2.044-4.104l-7.234-5.432c-6.026-4.469-12.838 7.108-6.814 11.58z"/><path fill="#E0A372" d="M45.376 37.102c3.9-.146 7.004-3.574 6.02-7.809-1.957-8.414-1.678-10.84-2.527-12.269C46.846 13.62 36.791 6.438 36.071 5.943c.344.385 10.66 9.646 11.565 11.663.997 2.221 1.113 5.746 2.044 9.826 1.4 6.123-.742 7.818-4.304 9.67zM38.253 25.591s-2.001-.713-4.503-3.334c1.574 3.752 3.341 4.116 3.341 4.116s1.311 10.902 7.04 10.812c-4.489-1.632-5.878-11.594-5.878-11.594z"/></g></svg>