<svg xmlns="http://www.w3.org/2000/svg" width="64" height="64" viewBox="0 0 64 64"><path fill="#FFE1BD" d="M24.375 7.811c-2.704 1.729-6.158 5.529-10.434 7.206C10.116 16.517 2 17.279 2 17.279v30.956s14.785-.98 19.578 2.861l2.797-43.285z"/><path fill="#E6B796" d="M21.316 48.303S11.107 45.532 2 45.532v2.682c6.649 0 19.578 2.861 19.578 2.861l-.262-2.772z"/><path fill="#FFE1BD" d="M46.129 14.138S39.6 7.681 36.695 6.227C26.121.933 16.45 13.826 16.795 24.773c.199 6.348 1.082 15.875 2.487 21.991 2.083 9.041 14.858 9.297 20.542 8.73l6.305-41.356z"/><path fill="#E6B796" d="M39.807 54.152c-10.865 0-18.074-3.344-21.451-8.385.544 6.75 9.84 10.982 21.451 10.029v-1.644z"/><path fill="#FFE1BD" d="M33.774 6.155c18.054-2.128 25.129 7.385 27.168 10.844 1.807 3.064 1.073 6.091-.7 7.966-1.983 2.095-12.205 4.757-12.205 4.757S27.015 6.952 33.774 6.155z"/><path fill="#E6B796" d="M27.037 36.033c6.881-.563 9.473-6.043 10.566-8.509l.93 3.955s-1.696 5.172-8.422 5.447c-1.67.068-3.258-.199-4.697-.893.535.035 1.076.043 1.623 0z"/><path fill="#FFE1BD" d="M49.444 46.176l-3.183 3.123-4.18-.393c-4.93-.436-5.528 8.895-.6 9.332l5.936.557c1.106.059 1.857-.133 2.792-1.068l4.53-4.449c3.745-3.714-1.551-10.815-5.295-7.102z"/><path fill="#E6B796" d="M54.779 52.051l-4.529 4.445c-.934.939-1.686 1.131-2.791 1.072l-5.938-.559c-2.177-.191-3.271-2.121-3.395-4.178-.314 2.449.754 5.344 3.366 5.576l5.96.586c1.104.059 1.81-.332 2.744-1.268l4.529-4.447c1.02-1.01 1.365-2.273 1.258-3.5a4.2 4.2 0 0 1-1.204 2.273z"/><path fill="#FFE1BD" d="M50.994 36.471l-3.746 3.68-4.923-.463c-5.804-.514-6.509 10.473-.704 10.984l6.988.66c1.303.066 2.187-.158 3.287-1.262l5.335-5.236c4.408-4.373-1.829-12.734-6.237-8.363z"/><path fill="#E6B796" d="M57.277 43.389l-5.334 5.236c-1.1 1.104-1.984 1.328-3.287 1.262l-6.989-.658c-2.563-.227-3.853-2.5-3.998-4.918-.37 2.883.86 6.092 3.936 6.365l6.991.658c1.303.066 2.185-.158 3.285-1.262l5.334-5.236c1.201-1.191 1.607-2.678 1.48-4.121a4.953 4.953 0 0 1-1.418 2.674z"/><path fill="#FFE1BD" d="M51.334 25.286l-4.375 4.296-5.748-.542c-6.779-.599-7.602 12.234-.824 12.832l8.163.768c1.521.078 2.552-.184 3.839-1.471l6.229-6.117c5.148-5.107-2.136-14.873-7.284-9.766z"/><path fill="#E6B796" d="M58.672 33.363l-6.229 6.117c-1.285 1.287-2.318 1.551-3.84 1.473l-8.162-.77c-2.995-.264-4.5-2.918-4.669-5.746-.433 3.369 1.005 7.119 4.597 7.436l8.162.768c1.521.078 2.553-.184 3.839-1.473l6.229-6.115c1.402-1.389 1.877-3.125 1.729-4.813a5.785 5.785 0 0 1-1.656 3.123z"/><g fill="#E6B796"><path d="M49.627 20.212s.77-2.372 3.467-4.205c-2.58.356-4.353 3.039-4.353 3.039l.886 1.166zM60.317 23.651l-6.229 6.117c-1.286 1.289-2.316 1.548-3.838 1.472l-.073 1.689c1.521.078 2.553-.186 3.84-1.475l6.229-6.115c1.4-1.39 1.876-3.124 1.729-4.813a5.794 5.794 0 0 1-1.658 3.125z"/></g><g><path fill="#FFE1BD" d="M33.207 21.643l5.082 3.815 1.092 6.922c1.324 8.15 12.893 5.121 11.568-3.03l-1.65-9.752c-.349-1.812-.529-2.992-2.045-4.104l-7.234-5.432c-6.025-4.468-12.838 7.109-6.813 11.581z"/><path fill="#E6B796" d="M45.376 37.102c3.901-.146 7.005-3.574 6.021-7.809-1.957-8.414-1.679-10.84-2.527-12.269C46.846 13.62 36.791 6.438 36.072 5.943c.344.385 10.66 9.646 11.564 11.663.998 2.221 1.113 5.746 2.045 9.826 1.399 6.123-.743 7.818-4.305 9.67zM38.253 25.591s-2.001-.713-4.503-3.334c1.574 3.752 3.342 4.116 3.342 4.116s1.31 10.902 7.039 10.812c-4.488-1.632-5.878-11.594-5.878-11.594z"/></g></svg>