<svg xmlns="http://www.w3.org/2000/svg" width="64" height="64" viewBox="0 0 64 64"><path fill="#B47D56" d="M39.625 7.81c2.705 1.73 6.158 5.53 10.436 7.207C53.885 16.517 62 17.279 62 17.279v30.956s-14.785-.98-19.576 2.861L39.625 7.81z"/><path fill="#935E3E" d="M42.686 48.303S52.893 45.532 62 45.532v2.682c-6.648 0-19.576 2.861-19.576 2.861l.262-2.772z"/><path fill="#B47D56" d="M17.871 14.138s6.529-6.457 9.434-7.911C37.879.933 47.551 13.826 47.207 24.773c-.201 6.348-1.084 15.875-2.488 21.991-2.084 9.041-14.857 9.297-20.543 8.73l-6.305-41.356z"/><path fill="#935E3E" d="M24.195 54.152c10.863 0 18.072-3.344 21.449-8.385-.543 6.75-9.838 10.982-21.449 10.029v-1.644z"/><path fill="#B47D56" d="M30.227 6.154C12.174 4.027 5.098 13.539 3.059 16.998c-1.807 3.065-1.072 6.092.701 7.967 1.982 2.094 12.203 4.756 12.203 4.756S36.986 6.951 30.227 6.154z"/><path fill="#935E3E" d="M36.963 36.033c-6.879-.563-9.473-6.043-10.566-8.51l-.93 3.955s1.697 5.172 8.424 5.448c1.668.068 3.258-.199 4.697-.893-.535.035-1.076.043-1.625 0z"/><path fill="#B47D56" d="M14.557 46.176l3.182 3.123 4.182-.393c4.928-.436 5.527 8.895.598 9.332l-5.936.557c-1.105.059-1.857-.133-2.791-1.068l-4.532-4.45c-3.742-3.713 1.553-10.814 5.297-7.101z"/><path fill="#935E3E" d="M9.221 52.051l4.531 4.445c.934.939 1.684 1.131 2.791 1.072l5.936-.559c2.178-.191 3.271-2.121 3.395-4.178.316 2.449-.754 5.344-3.365 5.576l-5.959.586c-1.105.059-1.811-.332-2.744-1.268l-4.531-4.447c-1.02-1.01-1.363-2.273-1.256-3.5a4.196 4.196 0 0 0 1.202 2.273z"/><path fill="#B47D56" d="M13.006 36.471l3.748 3.68 4.922-.463c5.803-.514 6.508 10.473.705 10.984l-6.99.66c-1.303.066-2.186-.158-3.287-1.262L6.77 44.834c-4.409-4.373 1.828-12.735 6.236-8.363z"/><path fill="#935E3E" d="M6.725 43.389l5.332 5.236c1.102 1.104 1.984 1.328 3.287 1.262l6.99-.658c2.564-.227 3.854-2.5 3.998-4.918.371 2.883-.861 6.092-3.936 6.365l-6.99.658c-1.303.066-2.186-.158-3.287-1.262l-5.334-5.236c-1.201-1.191-1.605-2.678-1.48-4.121a4.957 4.957 0 0 0 1.42 2.674z"/><path fill="#B47D56" d="M12.666 25.285l4.375 4.297 5.748-.543c6.779-.598 7.602 12.235.824 12.833l-8.162.768c-1.521.078-2.551-.184-3.84-1.471l-6.229-6.117c-5.146-5.107 2.136-14.873 7.284-9.767z"/><path fill="#935E3E" d="M5.328 33.363l6.229 6.117c1.287 1.287 2.318 1.551 3.84 1.473l8.162-.77c2.996-.264 4.5-2.918 4.67-5.746.432 3.369-1.006 7.119-4.598 7.436l-8.162.768c-1.521.078-2.553-.184-3.838-1.473L5.4 35.053C4 33.664 3.523 31.927 3.672 30.24a5.798 5.798 0 0 0 1.656 3.123z"/><g fill="#935E3E"><path d="M14.373 20.212s-.768-2.373-3.465-4.205c2.578.356 4.352 3.039 4.352 3.039l-.887 1.166zM3.684 23.651l6.229 6.116c1.287 1.289 2.318 1.549 3.84 1.473l.072 1.689c-1.521.079-2.553-.185-3.84-1.475l-6.23-6.115c-1.4-1.389-1.875-3.123-1.729-4.813a5.8 5.8 0 0 0 1.658 3.125z"/></g><g><path fill="#B47D56" d="M30.795 21.643l-5.084 3.815-1.092 6.923c-1.322 8.15-12.891 5.121-11.568-3.03l1.65-9.752c.35-1.813.529-2.992 2.045-4.105l7.234-5.431c6.026-4.469 12.838 7.108 6.815 11.58z"/><path fill="#935E3E" d="M18.625 37.102c-3.902-.146-7.006-3.574-6.021-7.809 1.957-8.414 1.68-10.84 2.527-12.27 2.023-3.403 12.078-10.585 12.797-11.08-.344.385-10.66 9.646-11.564 11.662-.996 2.221-1.113 5.747-2.045 9.827-1.399 6.123.744 7.818 4.306 9.67zM25.748 25.591s2-.713 4.502-3.334c-1.574 3.752-3.34 4.116-3.34 4.116s-1.31 10.902-7.041 10.813c4.488-1.633 5.879-11.595 5.879-11.595z"/></g></svg>