<svg xmlns="http://www.w3.org/2000/svg" width="64" height="64" viewBox="0 0 64 64"><path fill="#FED0AC" d="M47.786 31.017s-8.634-6.512-9.812-8.512c-1.416-2.405-2.062-6.063 1.916-8.601 4.189-2.673 6.305-6.968 4.98-9.604-1.58-3.157-5.052-3.088-7.719.393-5.851 7.632-12.418 10.946-16.16 16.727-2.169 3.351-5.081 8.624-6.451 12.355-2.023 5.521 2.024 12.357 5.603 14.429l7.192 4.162 20.451-21.349z"/><path fill="#FED0AC" d="M28.71 52.548c2.356 2.105 8.521 8.096 8.521 8.096 3.717 3.23 8.649-2.208 4.934-5.438l-10.802-9.832c-.001-.001-6.306 3.91-2.653 7.174z"/><path fill="#E0A372" d="M42.296 55.327c2.938 3.014-1.618 7.788-4.936 4.354-2.598-2.688-5.108-5.512-10.106-8.624-2.879-1.793-5.895-3.479-5.895-3.479-3.578-2.07-7.464-8.265-5.44-13.787 1.367-3.732 4.133-8.793 6.302-12.145 3.743-5.783 10.242-9.462 16.092-17.092.841-1.097 2.473-2.665 4.41-2.35-1.689-.629-3.805.182-5.568 2.484-5.851 7.631-12.418 10.948-16.161 16.728-2.17 3.352-5.081 8.625-6.451 12.356-2.024 5.522 2.023 12.358 5.602 14.43l6.533 3.781c5.503 3.377 7.132 5.928 10.341 8.71 1.658 1.438 4.005 1.934 5.494.212 1.714-1.981 1.312-4.249-.217-5.578z"/><path fill="#FED0AC" d="M37.688 22.206C49.17 28.614 50.036 33.136 50 35.764c-.069 4.933-6.841 5.038-8.035.804l-.558-5.917c-.49-4.909-8.019-10.844-3.719-8.445z"/><path fill="#E0A372" d="M23.013 31.473c4.286 2.569 9.789 1.354 12.678-2.653a7.432 7.432 0 0 1-.751 1.739c-2.166 3.615-6.835 4.803-10.425 2.651a7.443 7.443 0 0 1-2.466-2.412c.305.241.623.47.964.675z"/><path fill="#FED0AC" d="M36.85 41.978l-3.551.337-2.755-2.284c-3.261-2.677-7.64 2.688-4.38 5.363l3.912 3.244c.749.575 1.354.827 2.405.717l5.054-.479c4.193-.42 3.506-7.318-.685-6.898z"/><path fill="#E0A372" d="M38.084 48.15l-5.053.479c-1.053.111-1.658-.14-2.406-.716l-3.912-3.243c-1.439-1.183-1.387-2.889-.6-4.195-1.26 1.331-1.686 3.495.041 4.914l3.912 3.243c.749.576 1.354.827 2.405.717l5.054-.479c1.142-.114 1.918-.711 2.365-1.507-.448.42-1.045.711-1.806.787z"/><g><path fill="#FED0AC" d="M41.309 36.037l-4.146.394-3.217-2.668c-3.808-3.125-8.923 3.14-5.115 6.265l4.568 3.788c.874.672 1.581.965 2.81.837l5.901-.561c4.897-.489 4.095-8.544-.801-8.055z"/><path fill="#E0A372" d="M42.752 43.247l-5.902.56c-1.229.129-1.936-.165-2.81-.837l-4.567-3.789c-1.684-1.381-1.62-3.372-.701-4.898-1.471 1.555-1.97 4.083.049 5.739l4.567 3.787c.876.673 1.581.966 2.81.837l5.902-.56c1.332-.133 2.24-.829 2.761-1.759-.523.49-1.222.831-2.109.92z"/></g><g><path fill="#FED0AC" d="M45.787 31.721l-4.146.393-3.216-2.668c-3.808-3.125-8.923 3.14-5.116 6.265l4.568 3.788c.875.673 1.581.966 2.81.837l5.901-.56c4.896-.49 4.096-8.545-.801-8.055z"/><path fill="#E0A372" d="M42.124 32.716s1.312-.902 3.573-.725c-1.66-.889-3.679-.244-3.679-.244s-3.946-4.622-7.519-2.729c3.781-.85 7.625 3.698 7.625 3.698zM47.229 38.93l-5.901.56c-1.228.129-1.935-.165-2.81-.837l-4.568-3.788c-1.682-1.381-1.619-3.373-.699-4.898-1.472 1.554-1.969 4.082.048 5.738l4.567 3.787c.875.673 1.582.967 2.811.838l5.902-.56c1.332-.134 2.24-.829 2.762-1.76-.525.491-1.223.831-2.112.92z"/></g></svg>