<svg xmlns="http://www.w3.org/2000/svg" width="64" height="64" viewBox="0 0 64 64"><path fill="#FED0AC" d="M56.296 33.423l-1.22-18.104-8.313 5.107c-4.074-.686-5.204-.68-8.361-2.251-1.878-.934-4.315-.308-5.498.359-1.797-1.938-13.468.878-14.761 1.467-3.534-.956-8.726-5.051-8.726-5.051L7.649 35.437l2.363.545c.243.72.78 2.406.78 2.406-2.198 2.842.443 6.074 2.887 5.002-1.072 2.77 1.773 5.377 4.064 3.611-.333 2.598 2.445 4.476 4.432 2.669-.91 3.115 2.614 5.415 4.662 2.88 1.491 1.021 2.865 1.811 4.072 2.235l.001-.001c2.077.895 4.403-1.124 4.019-3.631 2.448 2.818 5.993.059 5.201-3.021 2.723 2.074 6.032-1.437 4.253-4.524 3 1.725 5.613-2.923 2.702-5.876l9.211-4.309z"/><path fill="#E0A372" d="M13.926 36.284c1.545.713 2.463 2.951.889 4.991l-.68.822c-.752.976-1.635 1.322-2.45 1.267.608.279 1.31.318 1.997.02.133-.342.309-.685.569-1.021l.682-.823c.409-.53.858-.861 1.314-1.061.816-2.079-.593-4.072-2.321-4.195zM25.35 46.157c1.628.439 2.848 2.493 1.576 4.774l-.557.929c-.607 1.09-1.433 1.582-2.248 1.667 1.062.287 2.292-.108 3.127-1.598l.555-.927c1.497-2.679-.447-5.048-2.453-4.845zM18.328 45.4l1.602-2.474c-.141-1.438-1.252-2.576-2.542-2.668 1.544.712 2.462 2.951.887 4.99l-.68.823c-.753.976-1.638 1.323-2.452 1.267.787.362 1.734.322 2.603-.344a3.92 3.92 0 0 1 .582-1.594zM22.574 40.892c1.604.535 2.726 2.658 1.345 4.861l-1.924 2.965c-.659 1.053-1.507 1.497-2.326 1.533 1.048.348 2.296.025 3.198-1.413l1.919-2.962c1.627-2.59-.2-5.068-2.212-4.984z"/><g fill="#E0A372"><path d="M35.869 43.368c.136-.025 1.256-.211 1.744-.166-1.538-1.506-3.866-.35-5.26-1.055.987 1.705 3.068 1.299 3.315 1.257l2.445 3.085c1.969 2.481.4 5.353-1.695 5.712 2.161.702 4.355-1.579 3.718-4.064-.213-.163-4.267-4.769-4.267-4.769zM38.269 37.618c.031-.001 1.463-.298 2.804-.299-1.528-1.202-3.794-.124-5.263-1.053.641 1.335 1.865 1.336 2.26 1.35l4.57 5.253c2.072 2.381.625 5.327-1.453 5.79 2.43.66 4.746-2.36 3.188-5.057-1.019-.421-6.106-5.984-6.106-5.984zM35.107 49.099c-1.47-1.182-3.563-.348-4.5-.902.546 1.361 2.373 1.133 2.469 1.121 1.695 2.639-.068 5.309-2.166 5.468 2.074.892 4.408-1.118 4.037-3.613-.053-.06-1.529-1.896-1.529-1.896.186-.032 1.273-.219 1.689-.178z"/><path d="M55.169 31.718s-1.698 3.453-8.305 5.373c-.891-1.111-2.764-3.32-4.967-5.174 1.396-.291 2.084-1.416 3.244-1.597-.375-.401-1.848-.152-2.864.229-1.989.748-6.563-2.513-6.563-2.513l-3.821.545c-2.703 2.607-8.489 3.956-8.828.023-.239-2.786 5.914-4.716 7.768-6.536 2.378-2.335 4.496-5.192 8.408-3.246 3.249 1.619 4.529 1.52 8.888 2.27 1.5.258 2.471 1 3.621 2.539-.919-2.119-2.157-2.961-3.771-3.348l6.955-3.307.144-1.658-8.325 4.734c-3.845-.631-5.234-.592-8.313-2.125-2.027-1.008-3.571-.723-4.919.104-2.436-1.38-3.804-1.138-4.725-.851-2.823.886-7.348.986-11.307 2.613.701.246 1.362.406 1.928.41l-.002.004c3.903-1.214 7.996-1.081 9.863-1.793.604-.229 1.808-.243 3.082.479-.797.69-1.55 1.511-2.33 2.278-1.869 1.834-7.689 4.412-7.298 7.681.188 1.563 2.354 5.835 9.696 1.101l3.07-.418s5.718 2.738 11.046 8.861c2.058 2.364.779 4.955-1.27 5.561 2.678.533 4.992-3.266 2.371-5.927l6.299-3.446 1.225-2.866z"/></g><path fill="#3B946F" d="M53.39 16.265l3.281 17.129-2.727 1.193c-1.383-3.726-3.477-12.586-3.039-16.896l2.485-1.426z"/><path fill="#E0A372" d="M11.092 38.024c-.501-1.157-.807-2.819-.807-2.819l-2.471-1.68-.165 1.911 2.12.572a9.118 9.118 0 0 0 1.027 2.373l.296-.357z"/><path fill="#3B946F" d="M6.054 35.099l5.444-18.678 2.52 1.679c.362 2.8-4.209 15.591-5.854 17.477l-2.11-.478z"/><g fill="#47B892"><path d="M53.265 16.239c-.795.474 2.066 17.837 3.27 17.302C60.343 31.847 62 31.3 62 31.3V10.732s-2.267 1.657-8.735 5.507zM2 9.001v25.48s1.818.254 4.139.771c1.285.287 5.996-18.549 5.674-18.77C8.43 14.171 2 9.001 2 9.001z"/></g></svg>