<svg xmlns="http://www.w3.org/2000/svg" width="64" height="64" viewBox="0 0 64 64"><path fill="#B47D56" d="M47.786 31.017s-8.633-6.512-9.811-8.512c-1.417-2.405-2.063-6.063 1.914-8.601 4.191-2.673 6.306-6.968 4.982-9.604-1.58-3.157-5.053-3.088-7.72.393-5.851 7.632-12.417 10.946-16.16 16.727-2.169 3.351-5.081 8.624-6.451 12.355-2.023 5.521 2.024 12.357 5.603 14.429l7.192 4.162 20.451-21.349z"/><path fill="#B47D56" d="M28.71 52.548c2.357 2.105 8.521 8.096 8.521 8.096 3.716 3.23 8.648-2.208 4.934-5.438l-10.803-9.832c0-.001-6.304 3.91-2.652 7.174z"/><path fill="#935E3E" d="M42.296 55.327c2.938 3.014-1.618 7.788-4.936 4.354-2.598-2.688-5.109-5.512-10.105-8.624-2.88-1.793-5.896-3.479-5.896-3.479-3.577-2.07-7.463-8.265-5.439-13.787 1.367-3.732 4.133-8.793 6.303-12.145 3.742-5.783 10.241-9.462 16.09-17.092.842-1.097 2.475-2.665 4.411-2.35-1.69-.629-3.804.182-5.569 2.484-5.85 7.631-12.418 10.948-16.16 16.728-2.17 3.352-5.081 8.625-6.451 12.356-2.024 5.522 2.023 12.358 5.602 14.43l6.533 3.781c5.504 3.377 7.133 5.928 10.342 8.71 1.656 1.438 4.004 1.934 5.493.212 1.712-1.981 1.311-4.249-.218-5.578z"/><path fill="#B47D56" d="M37.687 22.206C49.17 28.614 50.037 33.136 50 35.764c-.068 4.933-6.84 5.038-8.035.804l-.559-5.917c-.489-4.909-8.018-10.844-3.719-8.445z"/><path fill="#935E3E" d="M23.013 31.473c4.287 2.569 9.789 1.354 12.678-2.653a7.429 7.429 0 0 1-.75 1.739c-2.167 3.615-6.836 4.803-10.426 2.651a7.455 7.455 0 0 1-2.467-2.412c.306.241.623.47.965.675z"/><path fill="#B47D56" d="M36.849 41.978l-3.551.337-2.754-2.284c-3.26-2.677-7.64 2.688-4.379 5.363l3.91 3.244c.75.575 1.355.827 2.406.717l5.055-.479c4.192-.42 3.506-7.318-.687-6.898z"/><path fill="#935E3E" d="M38.083 48.15l-5.053.479c-1.051.111-1.656-.14-2.406-.716l-3.911-3.243c-1.44-1.183-1.386-2.889-.599-4.195-1.26 1.331-1.688 3.495.041 4.914l3.911 3.243c.749.576 1.354.827 2.405.717l5.054-.479c1.142-.114 1.919-.711 2.364-1.507-.447.42-1.044.711-1.806.787z"/><g><path fill="#B47D56" d="M41.309 36.037l-4.146.394-3.217-2.668c-3.808-3.125-8.922 3.14-5.115 6.265l4.568 3.788c.875.672 1.581.965 2.81.837l5.901-.561c4.897-.489 4.095-8.544-.801-8.055z"/><path fill="#935E3E" d="M42.752 43.247l-5.902.56c-1.228.129-1.935-.165-2.81-.837l-4.568-3.789c-1.682-1.381-1.619-3.372-.699-4.898-1.472 1.555-1.971 4.083.047 5.739l4.568 3.787c.875.673 1.582.966 2.81.837l5.902-.56c1.333-.133 2.24-.829 2.761-1.759-.523.49-1.221.831-2.109.92z"/></g><g><path fill="#B47D56" d="M45.786 31.721l-4.145.393-3.217-2.668c-3.809-3.125-8.923 3.14-5.115 6.265l4.567 3.788c.874.673 1.581.966 2.81.837l5.901-.56c4.898-.49 4.097-8.545-.801-8.055z"/><path fill="#935E3E" d="M42.124 32.716s1.312-.902 3.573-.725c-1.659-.889-3.679-.244-3.679-.244s-3.945-4.622-7.52-2.729c3.782-.85 7.626 3.698 7.626 3.698zM47.229 38.93l-5.902.56c-1.229.129-1.934-.165-2.81-.837l-4.567-3.788c-1.683-1.381-1.619-3.373-.7-4.898-1.472 1.554-1.97 4.082.048 5.738l4.568 3.787c.874.673 1.581.967 2.81.838l5.902-.56c1.333-.134 2.239-.829 2.761-1.76-.523.491-1.221.831-2.11.92z"/></g></svg>