<svg xmlns="http://www.w3.org/2000/svg" width="64" height="64" viewBox="0 0 64 64"><path fill="#FFDD67" d="M24.375 7.81c-2.704 1.73-6.158 5.53-10.435 7.207C10.116 16.517 2 17.278 2 17.278v30.955s14.785-.979 19.577 2.861L24.375 7.81z"/><path fill="#EBA352" d="M21.315 48.303S11.107 45.532 2 45.532v2.681c6.649 0 19.577 2.861 19.577 2.861l-.262-2.771z"/><path fill="#FFDD67" d="M46.128 14.137s-6.529-6.457-9.434-7.911C26.121.932 16.45 13.824 16.794 24.772c.2 6.348 1.083 15.876 2.488 21.99 2.083 9.041 14.856 9.297 20.541 8.73l6.305-41.355z"/><path fill="#EBA352" d="M39.805 54.152c-10.863 0-18.072-3.345-21.449-8.386.544 6.75 9.839 10.982 21.449 10.029v-1.643z"/><path fill="#FFDD67" d="M33.773 6.154c18.053-2.128 25.129 7.385 27.168 10.844 1.807 3.065 1.072 6.091-.701 7.966-1.982 2.094-12.204 4.756-12.204 4.756S27.015 6.951 33.773 6.154z"/><path fill="#EBA352" d="M27.037 36.032c6.879-.563 9.472-6.043 10.565-8.51l.93 3.955s-1.696 5.172-8.422 5.447c-1.669.068-3.258-.199-4.697-.893.535.037 1.076.044 1.624.001z"/><path fill="#FFDD67" d="M49.443 46.175l-3.183 3.124-4.181-.394c-4.929-.436-5.527 8.896-.599 9.332l5.936.558c1.106.058 1.857-.134 2.792-1.069l4.53-4.448c3.744-3.715-1.551-10.816-5.295-7.103z"/><path fill="#EBA352" d="M54.778 52.05l-4.53 4.445c-.934.939-1.685 1.131-2.791 1.072l-5.937-.558c-2.177-.192-3.271-2.122-3.395-4.179-.315 2.449.754 5.345 3.366 5.576l5.959.587c1.105.058 1.811-.332 2.744-1.269l4.53-4.447c1.02-1.01 1.364-2.273 1.257-3.499a4.195 4.195 0 0 1-1.203 2.272z"/><path fill="#FFDD67" d="M50.993 36.47l-3.747 3.68-4.922-.463c-5.804-.514-6.509 10.474-.705 10.985l6.989.659c1.303.066 2.187-.157 3.287-1.261l5.335-5.236c4.408-4.373-1.829-12.735-6.237-8.364z"/><path fill="#EBA352" d="M57.275 43.388l-5.333 5.236c-1.101 1.104-1.984 1.329-3.287 1.262l-6.989-.658c-2.564-.227-3.854-2.499-3.998-4.918-.371 2.883.86 6.092 3.936 6.365l6.99.658c1.303.066 2.186-.158 3.286-1.262l5.334-5.236c1.201-1.191 1.606-2.678 1.48-4.121a4.948 4.948 0 0 1-1.419 2.674z"/><path fill="#FFDD67" d="M51.333 25.285l-4.375 4.296-5.748-.543c-6.779-.598-7.602 12.234-.824 12.832l8.163.769c1.521.078 2.551-.185 3.839-1.472l6.229-6.117c5.147-5.106-2.136-14.871-7.284-9.765z"/><path fill="#EBA352" d="M58.671 33.362l-6.229 6.117c-1.286 1.287-2.318 1.551-3.84 1.473l-8.162-.77c-2.995-.264-4.5-2.918-4.669-5.745-.433 3.368 1.005 7.119 4.597 7.436l8.162.768c1.521.077 2.553-.185 3.839-1.474l6.229-6.114c1.401-1.39 1.877-3.126 1.729-4.813a5.789 5.789 0 0 1-1.656 3.122z"/><g fill="#EBA352"><path d="M49.626 20.211s.769-2.372 3.466-4.205c-2.579.356-4.352 3.039-4.352 3.039l.886 1.166zM60.316 23.65l-6.229 6.116c-1.286 1.289-2.317 1.549-3.839 1.473l-.072 1.689c1.521.078 2.553-.185 3.84-1.475l6.229-6.115c1.4-1.389 1.876-3.124 1.729-4.813a5.794 5.794 0 0 1-1.658 3.125z"/></g><g><path fill="#FFDD67" d="M33.205 21.643l5.083 3.815 1.092 6.923c1.323 8.149 12.892 5.12 11.568-3.03l-1.65-9.752c-.349-1.812-.529-2.992-2.045-4.104l-7.234-5.431c-6.025-4.47-12.837 7.106-6.814 11.579z"/><path fill="#EBA352" d="M45.375 37.101c3.901-.146 7.005-3.574 6.021-7.809-1.957-8.415-1.679-10.84-2.527-12.269C46.845 13.619 36.79 6.438 36.071 5.942c.344.385 10.66 9.646 11.564 11.663.997 2.221 1.113 5.747 2.045 9.827 1.399 6.122-.743 7.818-4.305 9.669zM38.252 25.591s-2.001-.713-4.503-3.334c1.574 3.752 3.341 4.116 3.341 4.116s1.311 10.901 7.04 10.812c-4.488-1.633-5.878-11.594-5.878-11.594z"/></g></svg>