<svg xmlns="http://www.w3.org/2000/svg" width="64" height="64" viewBox="0 0 64 64"><path fill="#FFDD67" d="M29.318 40.921h-8.085V9.338c0-2.116 1.807-3.881 4.031-3.881h.022c2.228 0 4.031 1.765 4.031 3.942v31.522z"/><path fill="#EBA352" d="M25.265 5.457h.022c.242 0 .478.03.708.069-1.887.327-3.322 1.926-3.322 3.812v31.583h-1.439V9.338c-.001-2.116 1.806-3.881 4.031-3.881z"/><path fill="#FFDD67" d="M38.359 40.921h-9.041V6.682C29.318 4.099 31.339 2 33.836 2s4.523 2.099 4.523 4.682v34.239z"/><path fill="#EBA352" d="M33.836 2c.233 0 .458.035.682.071-2.171.342-3.839 2.268-3.839 4.61V40.92h-1.36V6.682C29.318 4.099 31.339 2 33.836 2z"/><path fill="#FFDD67" d="M46.241 40.921h-7.882V8.69c0-2.249 1.763-4.072 3.935-4.072h.014c2.174 0 3.934 1.823 3.934 4.072v32.231z"/><path fill="#EBA352" d="M42.294 4.618h.014c.23 0 .453.028.673.069-1.849.331-3.26 1.994-3.26 4.003v32.23H38.36V8.69c-.001-2.249 1.762-4.072 3.934-4.072z"/><g><path fill="#FFDD67" d="M49.837 9.446c2.023 0 3.593 1.693 3.593 3.784v27.69h-7.188V13.23c-.001-2.09 1.57-3.784 3.595-3.784z"/><path fill="#EBA352" d="M49.837 9.446c.234 0 .459.027.68.069-1.685.334-2.912 1.866-2.912 3.715v27.69h-1.363V13.23c-.001-2.09 1.57-3.784 3.595-3.784z"/></g><g><path fill="#FFDD67" d="M13.504 30.163c4.272.396 5.698 3.745 6.197 5.402l.231.782s.479.541 1.086 1.388c.071.014.143.031.215.047 0 0 1.901-2.977 1.794-9.216l6.29.492 1.361.969 7.682-.124 1.293 1.36 6.604-.405 1.354 1.289s5.679.01 5.818.579c.509 2.079.977 5.045 0 13.53-2.364 20.538-28.793 16.795-34.214 7.654-1.032-1.738-4.859-6.483-4.859-6.483-.01-.014-.017-.029-.028-.043-.613-.549-1.004-1.323-1.107-2.286-.31-2.874-1.011-6.479-2.996-10.706-.735-1.563.321-4.502 3.279-4.229z"/><path fill="#EBA352" d="M10.956 30.988c-.179.679-.143 1.384.111 1.923 1.984 4.226 2.686 7.831 2.996 10.705.103.963.488 2.138 1.061 2.728 2.947 3.035 7.204 14.447 17.489 14.447 11.387 0 16.915-5.157 18.582-7.37C49.918 56.576 44.471 62 32.519 62c-11.17 0-14.25-10.075-18.19-14.615-.744-.857-1.004-1.323-1.107-2.286-.31-2.874-1.011-6.479-2.996-10.706-.456-.971-.222-2.47.73-3.405z"/><path fill="#EBA352" d="M20.052 41.777s-1.262-4.058-1.768-5.968c-.42-1.593-1.935-4.481-4.453-5.607 4.019.528 5.384 3.751 5.87 5.363l.231.782s.674.452 1.301 1.435c0 0-1.33 1.845-1.181 3.995zM28.873 26.922c.202.544.468.965.763 1.398.3.429.615.874.891 1.382.26.51.471 1.095.473 1.703a2.726 2.726 0 0 1-.502 1.664c-.047-.577-.102-1.091-.24-1.567a7.158 7.158 0 0 0-.586-1.374c-.228-.461-.514-.936-.705-1.483-.198-.538-.298-1.175-.094-1.723zM37.987 27.586c.201.545.469.967.764 1.401.299.426.613.872.891 1.379.258.51.469 1.097.472 1.705a2.725 2.725 0 0 1-.503 1.665c-.047-.578-.101-1.091-.24-1.567a7.074 7.074 0 0 0-.585-1.374c-.228-.463-.513-.938-.706-1.484-.198-.54-.298-1.174-.093-1.725zM45.793 28.566c.201.545.468.967.763 1.401.299.428.615.872.891 1.379.26.512.469 1.097.473 1.705a2.738 2.738 0 0 1-.502 1.665c-.049-.58-.102-1.091-.242-1.567a6.983 6.983 0 0 0-.584-1.374c-.229-.463-.514-.936-.707-1.484-.197-.537-.296-1.174-.092-1.725z"/></g></svg>