<svg xmlns="http://www.w3.org/2000/svg" width="64" height="64" viewBox="0 0 64 64"><path fill="#FFDD67" d="M49.291 34.416s2.948 13.642-1.065 20.27c-5.971 9.873-27.402 11.662-33.191-6.756-.619-1.965 8.415-17.788 8.415-17.788l25.841 4.274z"/><path fill="#FFDD67" d="M35.13 30.268c.999 2.046.021 4.482-2.179 5.44l-.035.014c-2.203.959-4.801.078-5.797-1.965L13.405 7.844c-.999-2.046-.02-4.483 2.184-5.444l.035-.011c2.2-.961 4.796-.081 5.794 1.966L35.13 30.268z"/><path fill="#EBA352" d="M34.335 34.088l-.039.019c-2.202.956-4.794.042-5.792-2.004L14.789 6.19a3.835 3.835 0 0 1 .002-3.378c-1.639 1.138-2.271 3.216-1.399 5.002l13.714 25.914c.997 2.048 3.593 2.96 5.796 2l.035-.014c1.006-.438 1.757-1.185 2.177-2.062a4.164 4.164 0 0 1-.779.436z"/><path fill="#EBA352" d="M29.173 28.016c.067 2.399 1.616 3.512 7.496 2.002l.764 2.988-16.021.235 8.386-13.052-.625 7.827z"/><path fill="#FFDD67" d="M24.298 39.433c-.623 2.323-3.156 3.72-5.65 3.119l-.042-.008c-2.497-.603-4.015-2.972-3.39-5.291l8.937-29.159c.624-2.323 2.553-3.715 5.049-3.112l.039.008c2.496.603 4.011 2.971 3.387 5.291l-8.33 29.152z"/><path fill="#EBA352" d="M20.937 42.091l-.045-.013c-2.495-.6-3.987-2.994-3.365-5.319l8.333-29.15c.341-1.259 1.243-2.251 2.394-2.79-2.157-.097-4.151 1.223-4.7 3.252l-8.331 29.15c-.625 2.323.872 4.717 3.368 5.317l.042.012a4.92 4.92 0 0 0 3.254-.328 5.103 5.103 0 0 1-.95-.131z"/><path fill="#FFDD67" d="M50.991 31.589c.143-2.259-1.492-4.233-3.654-4.413l-.064-.008c-2.158-.18-4.021 1.501-4.164 3.76l-.394 6.315c-.142 2.257 1.491 4.233 3.65 4.414l.064.007c2.161.183 4.024-1.502 4.166-3.758l.396-6.317z"/><path fill="#EBA352" d="M47.636 40.241l-.053-.005c-2.157-.182-3.742-2.127-3.6-4.385l.395-6.319a4.234 4.234 0 0 1 .467-1.676c-.98.667-1.654 1.792-1.736 3.119l-.396 6.321c-.141 2.256 1.437 4.176 3.597 4.357l.048.003c1.58.135 2.994-.718 3.703-2.069a3.749 3.749 0 0 1-2.425.654z"/><path fill="#FFDD67" d="M43.817 26.935c.211-2.751-1.691-5.119-4.252-5.282l-.074-.006c-2.561-.166-4.812 1.935-5.023 4.689l-.594 7.709c-.213 2.755 1.691 5.125 4.252 5.29l.075.002c2.56.168 4.809-1.933 5.021-4.689l.595-7.713z"/><path fill="#EBA352" d="M39.681 37.574l-.058-.005c-2.56-.162-4.426-2.461-4.213-5.218l.597-7.715a5.332 5.332 0 0 1 .58-2.054c-1.176.838-2.002 2.229-2.127 3.847l-.945 7.763c-.213 2.754 2.007 4.974 4.564 5.14l.061.002c1.869.124 3.568-.949 4.436-2.619-.829.591-1.837.928-2.895.859z"/><path fill="#EBA352" d="M26.127 31.161c3.521-2.019 4.224 1.164 10.21 1.335 2.62.074 3.789 5.297-.181 7.19-5.527 2.631-5.958-1.095-7.304.357-1.432 1.544-2.779 1.846-3.986 3.636-.878 1.299-7.731-.705-8.455-3.37-1.391-5.116 4.13-5.945 9.716-9.148z"/><path fill="#FFDD67" d="M25.673 32.052c3.66-2.101 4.391 1.209 10.623 1.387 2.727.076 3.94 5.511-.193 7.479-5.746 2.738-6.195-1.14-7.593.373-1.492 1.606-2.893 1.921-4.148 3.781-.912 1.353 1.517 6.459 1.517 6.459s-7.044 4.78-8.482 2.057c-2.67-5.058-1.912-9.044-1.831-12.02.196-6.855 4.291-6.185 10.107-9.516z"/><g><path fill="#EBA352" d="M18.598 35.449c-3.91 1.728-3.722 11.485-.81 16.188 7.253 11.69 21.298 11.364 28.828 5.104-6.979 7.182-22.057 8.026-29.936-4.093-3.156-4.851-4.141-15.969 1.918-17.199z"/></g><g><path fill="#EBA352" d="M25.163 45.208c-.282.417-.247 1.196-.06 2.072-.42-1.333-.698-2.72-.283-3.333 1.254-1.863 1.965-2.246 3.453-3.852 1.402-1.513 1.852 2.365 7.597-.372 2.124-1.013 2.828-2.94 2.647-4.587.806 1.782.403 4.559-2.306 5.851-5.746 2.736-6.195-1.142-7.595.371-1.49 1.606-2.2 1.99-3.453 3.85z"/></g><g fill="#EBA352"><path d="M38.771 53.591c0-6.487-5.023-11.802-11.414-12.343a9.65 9.65 0 0 1 2.438-.325c5.47 0 9.908 4.404 9.908 9.837a9.662 9.662 0 0 1-1.038 4.355c.063-.501.106-1.008.106-1.524z"/><path d="M40.729 41.436a4.761 4.761 0 0 1 3.104.224 6.08 6.08 0 0 0-1.228.189 6.07 6.07 0 0 0-4.393 7.079 4.662 4.662 0 0 1-.849-1.673c-.686-2.532.819-5.136 3.366-5.819z"/></g></svg>