<svg xmlns="http://www.w3.org/2000/svg" width="64" height="64" viewBox="0 0 64 64"><path fill="#8A6859" d="M29.319 40.921h-8.086V9.338c0-2.116 1.809-3.881 4.033-3.881h.021c2.227 0 4.031 1.765 4.031 3.942v31.522z"/><path fill="#705041" d="M25.266 5.457h.021c.242 0 .479.03.709.069-1.887.327-3.324 1.926-3.324 3.812v31.583h-1.439V9.338c0-2.116 1.809-3.881 4.033-3.881z"/><path fill="#8A6859" d="M38.359 40.921h-9.041V6.682c0-2.583 2.02-4.682 4.517-4.682 2.498 0 4.523 2.099 4.523 4.682v34.239z"/><path fill="#705041" d="M33.836 2c.232 0 .457.035.682.071-2.169.342-3.837 2.268-3.837 4.61V40.92H29.32V6.682C29.319 4.099 31.338 2 33.836 2z"/><path fill="#8A6859" d="M46.242 40.921h-7.883V8.69c0-2.249 1.764-4.072 3.936-4.072h.014c2.174 0 3.934 1.823 3.934 4.072v32.231z"/><path fill="#705041" d="M42.295 4.618h.014c.23 0 .453.028.672.069-1.848.331-3.26 1.994-3.26 4.003v32.23H38.36V8.69c-.001-2.249 1.763-4.072 3.935-4.072z"/><g><path fill="#8A6859" d="M49.838 9.446c2.023 0 3.592 1.693 3.592 3.784v27.69h-7.188V13.23c0-2.09 1.571-3.784 3.596-3.784z"/><path fill="#705041" d="M49.838 9.446c.234 0 .459.027.68.069-1.686.334-2.912 1.866-2.912 3.715v27.69h-1.363V13.23c-.001-2.09 1.57-3.784 3.595-3.784z"/></g><g><path fill="#8A6859" d="M13.504 30.163c4.273.396 5.697 3.745 6.197 5.402l.23.782s.479.541 1.088 1.388c.07.014.143.031.213.047 0 0 1.902-2.977 1.795-9.216l6.291.492 1.361.969 7.681-.124 1.293 1.36 6.604-.405 1.354 1.289s5.68.01 5.818.579c.51 2.079.977 5.045 0 13.53-2.363 20.538-28.792 16.795-34.214 7.654-1.031-1.738-4.857-6.483-4.857-6.483-.01-.014-.018-.029-.029-.043-.613-.549-1.004-1.323-1.107-2.286-.309-2.874-1.012-6.479-2.996-10.706-.735-1.563.319-4.502 3.278-4.229z"/><path fill="#705041" d="M10.956 30.988c-.178.679-.143 1.384.111 1.923 1.984 4.226 2.686 7.831 2.996 10.705.102.963.488 2.138 1.061 2.728 2.947 3.035 7.203 14.447 17.488 14.447 11.388 0 16.916-5.157 18.583-7.37C49.918 56.576 44.471 62 32.518 62c-11.17 0-14.248-10.075-18.189-14.615-.744-.857-1.004-1.323-1.107-2.286-.309-2.874-1.012-6.479-2.996-10.706-.456-.971-.222-2.47.73-3.405z"/><path fill="#705041" d="M20.053 41.777s-1.262-4.058-1.77-5.968c-.42-1.593-1.936-4.481-4.453-5.607 4.02.528 5.385 3.751 5.871 5.363l.23.782s.674.452 1.301 1.435c.001 0-1.327 1.845-1.179 3.995zM28.874 26.922c.201.544.469.965.764 1.398.299.429.615.874.891 1.382.26.51.469 1.095.473 1.703a2.74 2.74 0 0 1-.504 1.664c-.047-.577-.1-1.091-.24-1.567a7.212 7.212 0 0 0-.584-1.374c-.229-.461-.516-.936-.705-1.483-.201-.538-.299-1.175-.095-1.723zM37.988 27.586c.201.545.469.967.764 1.401.299.426.613.872.891 1.379.258.51.469 1.097.471 1.705a2.718 2.718 0 0 1-.502 1.665c-.047-.578-.102-1.091-.24-1.567a7.018 7.018 0 0 0-.586-1.374c-.227-.463-.512-.938-.705-1.484-.198-.54-.298-1.174-.093-1.725zM45.793 28.566c.201.545.469.967.764 1.401.299.428.615.872.891 1.379.26.512.469 1.097.473 1.705a2.744 2.744 0 0 1-.502 1.665c-.049-.58-.102-1.091-.242-1.567a6.983 6.983 0 0 0-.584-1.374c-.229-.463-.514-.936-.707-1.484-.197-.537-.296-1.174-.093-1.725z"/></g></svg>