<svg xmlns="http://www.w3.org/2000/svg" width="64" height="64" viewBox="0 0 64 64"><path fill="#FFDD67" d="M39.625 7.81c2.704 1.73 6.158 5.53 10.435 7.207 3.824 1.5 11.94 2.262 11.94 2.262v30.955s-14.785-.979-19.577 2.861L39.625 7.81z"/><path fill="#EBA352" d="M42.685 48.303S52.893 45.532 62 45.532v2.681c-6.649 0-19.577 2.861-19.577 2.861l.262-2.771z"/><path fill="#FFDD67" d="M17.872 14.137s6.529-6.457 9.434-7.911C37.88.932 47.551 13.824 47.207 24.772c-.2 6.348-1.083 15.876-2.488 21.99-2.083 9.041-14.857 9.297-20.542 8.73l-6.305-41.355z"/><path fill="#EBA352" d="M24.195 54.152c10.864 0 18.073-3.345 21.45-8.386-.544 6.75-9.839 10.982-21.45 10.029v-1.643z"/><path fill="#FFDD67" d="M30.226 6.154C12.173 4.026 5.097 13.539 3.058 16.998c-1.807 3.065-1.072 6.091.701 7.966 1.982 2.094 12.204 4.756 12.204 4.756S36.985 6.951 30.226 6.154z"/><path fill="#EBA352" d="M36.963 36.032c-6.879-.563-9.472-6.043-10.566-8.51l-.93 3.955s1.696 5.172 8.422 5.447c1.669.068 3.258-.199 4.697-.893-.534.037-1.075.044-1.623.001z"/><path fill="#FFDD67" d="M14.556 46.175l3.183 3.124 4.181-.394c4.929-.436 5.527 8.896.599 9.332l-5.936.558c-1.106.058-1.857-.134-2.792-1.069l-4.53-4.448c-3.744-3.715 1.552-10.816 5.295-7.103z"/><path fill="#EBA352" d="M9.221 52.05l4.53 4.445c.934.939 1.685 1.131 2.791 1.072l5.937-.558c2.177-.192 3.271-2.122 3.395-4.179.315 2.449-.754 5.345-3.366 5.576l-5.959.587c-1.105.058-1.811-.332-2.744-1.269l-4.53-4.447c-1.02-1.01-1.364-2.273-1.257-3.499a4.208 4.208 0 0 0 1.203 2.272z"/><path fill="#FFDD67" d="M13.006 36.47l3.747 3.68 4.922-.463c5.804-.514 6.509 10.474.705 10.985l-6.989.659c-1.303.066-2.187-.157-3.287-1.261l-5.335-5.236c-4.407-4.373 1.829-12.735 6.237-8.364z"/><path fill="#EBA352" d="M6.724 43.388l5.333 5.236c1.101 1.104 1.984 1.329 3.287 1.262l6.989-.658c2.564-.227 3.854-2.499 3.998-4.918.371 2.883-.86 6.092-3.936 6.365l-6.99.658c-1.303.066-2.186-.158-3.286-1.262l-5.334-5.236c-1.201-1.191-1.606-2.678-1.48-4.121a4.948 4.948 0 0 0 1.419 2.674z"/><path fill="#FFDD67" d="M12.667 25.285l4.375 4.296 5.748-.543c6.779-.598 7.602 12.234.824 12.832l-8.163.769c-1.521.078-2.551-.185-3.839-1.472L5.383 35.05c-5.147-5.106 2.135-14.871 7.284-9.765z"/><path fill="#EBA352" d="M5.329 33.362l6.229 6.117c1.286 1.287 2.318 1.551 3.84 1.473l8.162-.77c2.995-.264 4.5-2.918 4.669-5.745.433 3.368-1.005 7.119-4.597 7.436l-8.162.768c-1.521.077-2.553-.185-3.839-1.474l-6.229-6.114C4 33.663 3.524 31.927 3.671 30.239a5.799 5.799 0 0 0 1.658 3.123z"/><g fill="#EBA352"><path d="M14.374 20.211s-.769-2.372-3.466-4.205c2.579.356 4.352 3.039 4.352 3.039l-.886 1.166zM3.683 23.65l6.229 6.116c1.286 1.289 2.317 1.549 3.839 1.473l.072 1.689c-1.521.078-2.553-.185-3.84-1.475l-6.229-6.115c-1.4-1.389-1.876-3.124-1.729-4.813a5.8 5.8 0 0 0 1.658 3.125z"/></g><g><path fill="#FFDD67" d="M30.794 21.643l-5.083 3.815-1.092 6.923c-1.323 8.149-12.892 5.12-11.568-3.03l1.65-9.752c.349-1.812.529-2.992 2.045-4.104l7.234-5.431c6.025-4.47 12.838 7.106 6.814 11.579z"/><path fill="#EBA352" d="M18.625 37.101c-3.901-.146-7.005-3.574-6.021-7.809 1.957-8.415 1.679-10.84 2.527-12.269 2.023-3.404 12.078-10.585 12.797-11.081-.344.385-10.66 9.646-11.564 11.663-.997 2.221-1.113 5.747-2.045 9.827-1.399 6.122.744 7.818 4.306 9.669zM25.748 25.591s2.001-.713 4.503-3.334c-1.574 3.752-3.341 4.116-3.341 4.116s-1.311 10.901-7.04 10.812c4.488-1.633 5.878-11.594 5.878-11.594z"/></g></svg>