<svg xmlns="http://www.w3.org/2000/svg" width="64" height="64" viewBox="0 0 64 64"><path fill="#FFDD67" d="M47.786 31.017s-8.633-6.512-9.811-8.512c-1.417-2.405-2.063-6.063 1.915-8.6 4.19-2.673 6.305-6.968 4.981-9.605-1.58-3.157-5.053-3.087-7.72.393C31.3 12.325 24.734 15.64 20.991 21.42c-2.169 3.352-5.081 8.625-6.451 12.355-2.023 5.521 2.024 12.357 5.603 14.429l7.192 4.163 20.451-21.35z"/><path fill="#FFDD67" d="M28.71 52.548c2.357 2.105 8.521 8.096 8.521 8.096 3.716 3.23 8.648-2.207 4.934-5.438l-10.803-9.831c0-.001-6.305 3.909-2.652 7.173z"/><path fill="#EBA352" d="M42.296 55.327c2.938 3.014-1.618 7.788-4.936 4.354-2.598-2.688-5.109-5.512-10.106-8.623-2.879-1.793-5.896-3.479-5.896-3.479-3.578-2.07-7.463-8.266-5.44-13.787C17.285 30.06 20.051 25 22.22 21.647c3.743-5.782 10.242-9.461 16.091-17.092.841-1.097 2.474-2.665 4.41-2.35-1.689-.629-3.804.182-5.568 2.484-5.851 7.631-12.418 10.948-16.161 16.728-2.17 3.352-5.081 8.625-6.451 12.356-2.024 5.522 2.023 12.358 5.602 14.43l6.533 3.781c5.503 3.378 7.133 5.929 10.342 8.71 1.657 1.438 4.004 1.934 5.493.212 1.716-1.981 1.314-4.249-.215-5.579z"/><path fill="#FFDD67" d="M37.688 22.207C49.17 28.615 50.037 33.136 50 35.764c-.068 4.933-6.84 5.038-8.035.804l-.558-5.916c-.49-4.908-8.019-10.844-3.719-8.445z"/><path fill="#EBA352" d="M23.013 31.473c4.287 2.569 9.789 1.354 12.678-2.653a7.436 7.436 0 0 1-.75 1.74c-2.167 3.614-6.836 4.802-10.426 2.65a7.433 7.433 0 0 1-2.466-2.412c.305.243.622.471.964.675z"/><path fill="#FFDD67" d="M36.85 41.978l-3.551.337-2.755-2.284c-3.26-2.676-7.64 2.688-4.379 5.363l3.911 3.244c.75.576 1.354.827 2.406.717l5.055-.479c4.191-.42 3.505-7.318-.687-6.898z"/><path fill="#EBA352" d="M38.084 48.151l-5.053.479c-1.052.111-1.658-.141-2.407-.717l-3.912-3.243c-1.44-1.183-1.386-2.888-.599-4.194-1.26 1.33-1.687 3.494.041 4.913l3.912 3.243c.749.576 1.354.828 2.405.717l5.054-.479c1.142-.113 1.919-.711 2.365-1.507-.448.421-1.045.712-1.806.788z"/><g><path fill="#FFDD67" d="M41.309 36.038l-4.146.393-3.217-2.668c-3.808-3.125-8.922 3.141-5.115 6.265l4.568 3.788c.875.672 1.581.965 2.81.838l5.901-.561c4.897-.49 4.095-8.545-.801-8.055z"/><path fill="#EBA352" d="M42.752 43.247l-5.902.56c-1.228.129-1.935-.165-2.81-.837l-4.568-3.789c-1.683-1.381-1.62-3.371-.7-4.898-1.471 1.555-1.97 4.084.048 5.739l4.568 3.788c.876.672 1.582.965 2.81.836l5.902-.559c1.333-.134 2.24-.83 2.761-1.76-.523.49-1.221.831-2.109.92z"/></g><g><path fill="#FFDD67" d="M45.787 31.721l-4.146.394-3.217-2.668c-3.808-3.125-8.923 3.139-5.115 6.263l4.567 3.789c.875.672 1.581.965 2.81.836l5.901-.559c4.898-.49 4.097-8.544-.8-8.055z"/><path fill="#EBA352" d="M42.124 32.716s1.312-.902 3.573-.725c-1.659-.889-3.679-.244-3.679-.244s-3.945-4.622-7.519-2.729c3.781-.85 7.625 3.698 7.625 3.698zM47.229 38.93l-5.902.56c-1.228.129-1.934-.164-2.81-.836l-4.567-3.789c-1.683-1.381-1.62-3.373-.7-4.898-1.472 1.555-1.969 4.082.048 5.738l4.568 3.787c.874.673 1.581.967 2.81.838l5.902-.56c1.333-.134 2.24-.829 2.762-1.76-.524.491-1.222.831-2.111.92z"/></g></svg>