<svg xmlns="http://www.w3.org/2000/svg" width="64" height="64" viewBox="0 0 64 64"><path fill="#B47D56" d="M49.291 34.416s2.949 13.643-1.064 20.27c-5.971 9.873-27.403 11.662-33.193-6.756-.618-1.965 8.415-17.788 8.415-17.788l25.842 4.274z"/><path fill="#B47D56" d="M35.131 30.268c.998 2.046.021 4.482-2.181 5.441l-.035.014c-2.203.959-4.801.078-5.797-1.965L13.405 7.844c-.999-2.046-.02-4.483 2.185-5.444l.034-.011c2.2-.961 4.795-.081 5.793 1.966l13.714 25.913z"/><path fill="#935E3E" d="M34.336 34.088l-.039.02c-2.204.955-4.796.041-5.794-2.005L14.789 6.19a3.835 3.835 0 0 1 .002-3.378c-1.639 1.138-2.271 3.216-1.398 5.002l13.712 25.915c.998 2.047 3.594 2.959 5.797 2l.035-.014c1.006-.438 1.759-1.186 2.179-2.063a4.093 4.093 0 0 1-.78.436z"/><path fill="#935E3E" d="M29.173 28.016c.066 2.399 1.615 3.512 7.497 2.002l.764 2.988-16.022.236 8.385-13.053-.624 7.827z"/><path fill="#B47D56" d="M24.298 39.434c-.623 2.322-3.156 3.719-5.65 3.119l-.041-.008c-2.497-.604-4.016-2.973-3.391-5.291l8.937-29.16c.623-2.323 2.553-3.715 5.049-3.112l.039.008c2.496.603 4.012 2.971 3.387 5.291l-8.33 29.153z"/><path fill="#935E3E" d="M20.937 42.092l-.045-.014c-2.496-.6-3.987-2.994-3.365-5.318L25.86 7.609c.34-1.259 1.242-2.251 2.393-2.79-2.156-.097-4.15 1.223-4.699 3.252l-8.331 29.15c-.625 2.324.872 4.717 3.368 5.318l.042.012a4.933 4.933 0 0 0 3.254-.328 5.092 5.092 0 0 1-.95-.131z"/><path fill="#B47D56" d="M50.992 31.589c.143-2.259-1.492-4.233-3.654-4.413l-.064-.008c-2.158-.18-4.021 1.501-4.164 3.76l-.395 6.316c-.141 2.256 1.492 4.232 3.65 4.414l.064.006c2.162.184 4.025-1.502 4.166-3.758l.397-6.317z"/><path fill="#935E3E" d="M47.637 40.242l-.053-.006c-2.158-.182-3.742-2.127-3.6-4.385l.395-6.319a4.234 4.234 0 0 1 .467-1.676c-.98.667-1.654 1.792-1.736 3.119l-.396 6.321c-.141 2.256 1.436 4.176 3.596 4.357l.049.004c1.58.135 2.994-.719 3.703-2.07a3.759 3.759 0 0 1-2.425.655z"/><path fill="#B47D56" d="M43.818 26.935c.211-2.751-1.691-5.119-4.252-5.282l-.074-.006c-2.561-.166-4.813 1.935-5.023 4.689l-.595 7.71c-.213 2.754 1.692 5.125 4.253 5.289l.074.002c2.561.168 4.809-1.932 5.021-4.689l.596-7.713z"/><path fill="#935E3E" d="M39.682 37.574l-.059-.004c-2.559-.162-4.426-2.461-4.213-5.219l.598-7.715c.055-.743.26-1.438.58-2.054-1.176.838-2.002 2.229-2.127 3.847l-.946 7.764c-.213 2.754 2.007 4.973 4.565 5.139l.061.002c1.869.125 3.568-.949 4.436-2.619-.829.592-1.837.928-2.895.859z"/><path fill="#935E3E" d="M26.126 31.161c3.521-2.019 4.225 1.164 10.212 1.335 2.621.074 3.789 5.297-.18 7.19-5.528 2.631-5.96-1.094-7.306.357-1.432 1.545-2.779 1.846-3.986 3.637-.879 1.299-7.732-.705-8.455-3.371-1.392-5.116 4.129-5.944 9.715-9.148z"/><path fill="#B47D56" d="M25.673 32.052c3.66-2.101 4.391 1.209 10.624 1.387 2.727.076 3.939 5.512-.193 7.48-5.747 2.738-6.196-1.141-7.595.373-1.492 1.605-2.893 1.92-4.148 3.781-.912 1.352 1.516 6.459 1.516 6.459s-7.042 4.779-8.481 2.057c-2.671-5.059-1.912-9.045-1.831-12.02.196-6.856 4.291-6.186 10.108-9.517z"/><g><path fill="#935E3E" d="M18.597 35.449c-3.91 1.729-3.722 11.486-.809 16.188 7.251 11.691 21.299 11.365 28.829 5.105-6.979 7.182-22.06 8.025-29.937-4.094-3.157-4.851-4.141-15.968 1.917-17.199z"/></g><g><path fill="#935E3E" d="M25.161 45.209c-.281.416-.246 1.195-.059 2.072-.42-1.334-.699-2.721-.283-3.334 1.254-1.863 1.965-2.246 3.453-3.852 1.402-1.512 1.852 2.365 7.599-.371 2.123-1.014 2.828-2.941 2.646-4.588.807 1.783.404 4.559-2.305 5.852-5.747 2.736-6.196-1.143-7.597.371-1.489 1.606-2.2 1.989-3.454 3.85z"/></g><g fill="#935E3E"><path d="M38.771 53.592c0-6.488-5.024-11.803-11.415-12.344a9.649 9.649 0 0 1 2.438-.324c5.472 0 9.909 4.404 9.909 9.836 0 1.57-.379 3.045-1.039 4.355.065-.5.107-1.008.107-1.523z"/><path d="M40.729 41.436a4.764 4.764 0 0 1 3.105.225c-.408.023-.82.078-1.229.189a6.071 6.071 0 0 0-4.393 7.078 4.663 4.663 0 0 1-.848-1.672 4.743 4.743 0 0 1 3.365-5.82z"/></g></svg>