<svg xmlns="http://www.w3.org/2000/svg" width="64" height="64" viewBox="0 0 64 64"><path fill="#FFE1BD" d="M29.318 40.921h-8.085V9.338c0-2.116 1.808-3.881 4.032-3.881h.021c2.228 0 4.031 1.765 4.031 3.942v31.522z"/><path fill="#E6B796" d="M25.266 5.457h.021c.242 0 .479.03.709.069-1.887.327-3.323 1.926-3.323 3.812v31.583h-1.439V9.338c-.001-2.116 1.807-3.881 4.032-3.881z"/><path fill="#FFE1BD" d="M38.359 40.921h-9.041V6.682C29.318 4.099 31.339 2 33.836 2s4.523 2.099 4.523 4.682v34.239z"/><path fill="#E6B796" d="M33.836 2c.233 0 .458.035.682.071-2.17.342-3.838 2.268-3.838 4.61V40.92h-1.361V6.682C29.318 4.099 31.339 2 33.836 2z"/><path fill="#FFE1BD" d="M46.242 40.921h-7.883V8.69c0-2.249 1.763-4.072 3.935-4.072h.014c2.174 0 3.935 1.823 3.935 4.072v32.231z"/><path fill="#E6B796" d="M42.294 4.618h.014c.23 0 .454.028.673.069-1.848.331-3.26 1.994-3.26 4.003v32.23H38.36V8.69c-.001-2.249 1.762-4.072 3.934-4.072z"/><g><path fill="#FFE1BD" d="M49.837 9.446c2.023 0 3.593 1.693 3.593 3.784v27.69h-7.188V13.23c0-2.09 1.57-3.784 3.595-3.784z"/><path fill="#E6B796" d="M49.837 9.446c.234 0 .46.027.68.069-1.685.334-2.912 1.866-2.912 3.715v27.69h-1.362V13.23c-.001-2.09 1.569-3.784 3.594-3.784z"/></g><g><path fill="#FFE1BD" d="M13.505 30.163c4.272.396 5.697 3.745 6.196 5.402l.231.782s.479.541 1.087 1.388c.07.014.143.031.214.047 0 0 1.901-2.977 1.794-9.216l6.291.492 1.361.969 7.681-.124 1.293 1.36 6.604-.405 1.354 1.289s5.679.01 5.818.579c.51 2.079.977 5.045 0 13.53-2.363 20.538-28.793 16.795-34.214 7.654-1.032-1.738-4.858-6.483-4.858-6.483-.01-.014-.017-.029-.028-.043-.613-.549-1.005-1.323-1.107-2.286-.31-2.874-1.012-6.479-2.996-10.706-.736-1.563.32-4.502 3.279-4.229z"/><path fill="#E6B796" d="M10.956 30.988c-.179.679-.143 1.384.111 1.923 1.983 4.226 2.686 7.831 2.995 10.705.103.963.488 2.138 1.062 2.728 2.946 3.035 7.203 14.447 17.488 14.447 11.387 0 16.915-5.157 18.582-7.37C49.918 56.576 44.471 62 32.519 62 21.349 62 18.27 51.925 14.33 47.385c-.744-.857-1.005-1.323-1.107-2.286-.31-2.874-1.012-6.479-2.996-10.706-.457-.971-.223-2.47.729-3.405z"/><path fill="#E6B796" d="M20.053 41.777s-1.262-4.058-1.769-5.968c-.421-1.593-1.936-4.481-4.453-5.607 4.019.528 5.384 3.751 5.87 5.363l.231.782s.674.452 1.301 1.435c0 0-1.329 1.845-1.18 3.995zM28.873 26.922c.202.544.469.965.764 1.398.299.429.615.874.891 1.382.26.51.47 1.095.473 1.703a2.733 2.733 0 0 1-.503 1.664c-.047-.577-.101-1.091-.24-1.567a7.217 7.217 0 0 0-.585-1.374c-.229-.461-.515-.936-.705-1.483-.199-.538-.298-1.175-.095-1.723zM37.988 27.586c.2.545.468.967.763 1.401.299.426.614.872.891 1.379.259.51.469 1.097.472 1.705a2.731 2.731 0 0 1-.502 1.665c-.047-.578-.102-1.091-.24-1.567a7.079 7.079 0 0 0-.586-1.374c-.228-.463-.513-.938-.705-1.484-.199-.54-.298-1.174-.093-1.725zM45.793 28.566c.201.545.468.967.763 1.401.3.428.615.872.892 1.379.259.512.469 1.097.472 1.705a2.738 2.738 0 0 1-.502 1.665c-.048-.58-.102-1.091-.241-1.567a7.048 7.048 0 0 0-.585-1.374c-.228-.463-.514-.936-.706-1.484-.198-.537-.297-1.174-.093-1.725z"/></g></svg>