<svg xmlns="http://www.w3.org/2000/svg" width="64" height="64" viewBox="0 0 64 64"><path fill="#FFE1BD" d="M56.297 33.422l-1.221-18.104-8.313 5.107c-4.074-.686-5.205-.68-8.361-2.251-1.879-.934-4.316-.308-5.498.359-1.797-1.938-13.469.878-14.762 1.467-3.533-.956-8.725-5.051-8.725-5.051L7.65 35.436l2.363.545c.242.72.779 2.406.779 2.406-2.197 2.842.443 6.074 2.887 5.002-1.072 2.77 1.773 5.377 4.065 3.611-.333 2.598 2.444 4.476 4.431 2.669-.91 3.115 2.615 5.415 4.662 2.88 1.492 1.021 2.866 1.811 4.073 2.235l.001-.001c2.076.895 4.402-1.124 4.018-3.631 2.449 2.818 5.993.059 5.201-3.021 2.723 2.074 6.033-1.437 4.254-4.524 3 1.725 5.613-2.923 2.701-5.876l9.212-4.309z"/><path fill="#E6B796" d="M13.926 36.283c1.545.713 2.464 2.951.889 4.991l-.68.822c-.752.976-1.634 1.322-2.449 1.267a2.405 2.405 0 0 0 1.996.02 3.99 3.99 0 0 1 .57-1.021l.682-.823c.408-.53.858-.861 1.314-1.061.815-2.079-.594-4.072-2.322-4.195zM25.35 46.156c1.629.439 2.848 2.493 1.577 4.774l-.558.929c-.607 1.09-1.432 1.582-2.248 1.667 1.063.287 2.293-.108 3.128-1.598l.554-.927c1.498-2.679-.446-5.048-2.453-4.845zM18.328 45.399l1.603-2.474c-.142-1.438-1.252-2.576-2.542-2.668 1.543.712 2.461 2.951.887 4.99l-.68.823c-.753.976-1.638 1.323-2.452 1.267.786.362 1.734.322 2.603-.344a3.904 3.904 0 0 1 .581-1.594zM22.574 40.891c1.604.535 2.727 2.658 1.346 4.861l-1.924 2.965c-.659 1.053-1.507 1.497-2.326 1.533 1.047.348 2.295.025 3.198-1.413l1.919-2.962c1.627-2.59-.2-5.068-2.213-4.984z"/><g fill="#E6B796"><path d="M35.869 43.367c.136-.025 1.256-.211 1.744-.166-1.537-1.506-3.865-.35-5.26-1.055.988 1.705 3.068 1.299 3.316 1.257l2.445 3.085c1.968 2.481.4 5.353-1.695 5.712 2.16.702 4.355-1.579 3.717-4.064-.212-.163-4.267-4.769-4.267-4.769zM38.27 37.617c.031-.001 1.463-.298 2.803-.299-1.527-1.202-3.793-.124-5.262-1.053.641 1.335 1.864 1.336 2.26 1.35l4.57 5.253c2.071 2.381.625 5.327-1.453 5.79 2.429.66 4.746-2.36 3.188-5.057-1.019-.421-6.106-5.984-6.106-5.984zM35.107 49.098c-1.469-1.182-3.563-.348-4.499-.902.546 1.361 2.372 1.133 2.469 1.121 1.695 2.639-.069 5.309-2.166 5.468 2.073.892 4.408-1.118 4.036-3.613-.053-.06-1.529-1.896-1.529-1.896.186-.032 1.273-.219 1.689-.178z"/><path d="M55.169 31.717s-1.698 3.453-8.304 5.373c-.891-1.111-2.764-3.32-4.968-5.174 1.397-.291 2.085-1.416 3.245-1.597-.376-.401-1.848-.152-2.865.229-1.989.748-6.563-2.513-6.563-2.513l-3.821.545c-2.703 2.607-8.489 3.956-8.828.023-.239-2.786 5.914-4.716 7.768-6.536 2.378-2.335 4.496-5.192 8.407-3.246 3.25 1.619 4.529 1.52 8.888 2.27 1.501.258 2.471 1 3.622 2.539-.92-2.119-2.158-2.961-3.772-3.348l6.956-3.307.143-1.658-8.324 4.734c-3.846-.631-5.234-.592-8.313-2.125-2.027-1.008-3.571-.723-4.92.104-2.436-1.38-3.803-1.138-4.724-.851-2.823.886-7.349.986-11.308 2.613.701.246 1.363.406 1.928.41l-.002.004c3.904-1.214 7.996-1.081 9.863-1.793.605-.229 1.809-.243 3.083.479-.797.69-1.55 1.511-2.331 2.278-1.869 1.834-7.689 4.412-7.297 7.681.188 1.563 2.354 5.835 9.695 1.101l3.071-.418s5.718 2.738 11.046 8.861c2.057 2.364.779 4.955-1.271 5.561 2.679.533 4.993-3.266 2.372-5.927l6.299-3.446 1.225-2.866z"/></g><path fill="#3B946F" d="M53.39 16.264l3.281 17.129-2.726 1.193C52.563 30.86 50.468 22 50.906 17.689l2.484-1.425z"/><path fill="#E6B796" d="M11.092 38.023c-.5-1.157-.807-2.819-.807-2.819l-2.47-1.68-.165 1.912 2.119.572a9.152 9.152 0 0 0 1.027 2.373l.296-.358z"/><path fill="#3B946F" d="M6.055 35.098l5.444-18.678 2.519 1.679c.363 2.8-4.209 15.591-5.854 17.477l-2.109-.478z"/><g fill="#47B892"><path d="M53.266 16.238c-.795.474 2.066 17.837 3.27 17.302C60.343 31.846 62 31.299 62 31.299V10.731s-2.267 1.657-8.734 5.507zM2 9v25.48s1.818.254 4.14.771c1.285.287 5.996-18.549 5.673-18.77C8.43 14.17 2 9 2 9z"/></g></svg>