<svg xmlns="http://www.w3.org/2000/svg" width="64" height="64" viewBox="0 0 64 64"><path fill="#FFE1BD" d="M47.787 31.017s-8.635-6.512-9.813-8.512c-1.416-2.405-2.062-6.063 1.916-8.601 4.189-2.673 6.305-6.968 4.98-9.604-1.58-3.157-5.051-3.088-7.719.393-5.85 7.632-12.417 10.946-16.161 16.727-2.169 3.351-5.081 8.624-6.451 12.355-2.023 5.521 2.024 12.357 5.603 14.429l7.191 4.162 20.454-21.349z"/><path fill="#FFE1BD" d="M28.71 52.548c2.356 2.105 8.52 8.096 8.52 8.096 3.717 3.23 8.65-2.208 4.934-5.438l-10.801-9.832c0-.001-6.306 3.91-2.653 7.174z"/><path fill="#E6B796" d="M42.297 55.327c2.938 3.014-1.619 7.788-4.936 4.354-2.599-2.688-5.11-5.512-10.107-8.624-2.88-1.793-5.896-3.479-5.896-3.479-3.578-2.07-7.463-8.265-5.44-13.787 1.367-3.732 4.133-8.793 6.302-12.145 3.743-5.783 10.241-9.462 16.091-17.092.842-1.097 2.473-2.665 4.41-2.35-1.689-.629-3.805.182-5.568 2.484-5.85 7.631-12.418 10.948-16.161 16.728-2.17 3.352-5.082 8.625-6.452 12.356-2.024 5.522 2.023 12.358 5.602 14.43l6.533 3.781c5.503 3.377 7.131 5.928 10.34 8.71 1.658 1.438 4.006 1.934 5.494.212 1.718-1.981 1.317-4.249-.212-5.578z"/><path fill="#FFE1BD" d="M37.688 22.206C49.17 28.614 50.035 33.136 50 35.764c-.07 4.933-6.842 5.038-8.035.804l-.559-5.917c-.488-4.909-8.017-10.844-3.718-8.445z"/><path fill="#E6B796" d="M23.013 31.473c4.286 2.569 9.789 1.354 12.677-2.653a7.429 7.429 0 0 1-.75 1.739c-2.167 3.615-6.835 4.803-10.425 2.651a7.455 7.455 0 0 1-2.467-2.412c.305.241.623.47.965.675z"/><path fill="#FFE1BD" d="M36.85 41.978l-3.551.337-2.754-2.284c-3.261-2.677-7.641 2.688-4.38 5.363l3.911 3.244c.75.575 1.354.827 2.406.717l5.053-.479c4.194-.42 3.506-7.318-.685-6.898z"/><path fill="#E6B796" d="M38.084 48.15l-5.053.479c-1.052.111-1.658-.14-2.407-.716l-3.912-3.243c-1.439-1.183-1.386-2.889-.599-4.195-1.26 1.331-1.687 3.495.041 4.914l3.911 3.243c.75.576 1.354.827 2.406.717l5.053-.479c1.143-.114 1.918-.711 2.365-1.507-.446.42-1.043.711-1.805.787z"/><g><path fill="#FFE1BD" d="M41.309 36.037l-4.145.394-3.217-2.668c-3.809-3.125-8.923 3.14-5.116 6.265l4.569 3.788c.874.672 1.579.965 2.809.837l5.902-.561c4.897-.489 4.094-8.544-.802-8.055z"/><path fill="#E6B796" d="M42.752 43.247l-5.902.56c-1.228.129-1.935-.165-2.81-.837l-4.568-3.789c-1.683-1.381-1.619-3.372-.7-4.898-1.472 1.555-1.97 4.083.048 5.739l4.569 3.787c.874.673 1.581.966 2.809.837l5.902-.56c1.332-.133 2.24-.829 2.762-1.759-.524.49-1.223.831-2.11.92z"/></g><g><path fill="#FFE1BD" d="M45.787 31.721l-4.146.393-3.215-2.668c-3.81-3.125-8.924 3.14-5.117 6.265l4.568 3.788c.875.673 1.582.966 2.811.837l5.9-.56c4.896-.49 4.096-8.545-.801-8.055z"/><path fill="#E6B796" d="M42.125 32.716s1.311-.902 3.572-.725c-1.66-.889-3.678-.244-3.678-.244s-3.947-4.622-7.521-2.729c3.783-.85 7.627 3.698 7.627 3.698zM47.229 38.93l-5.9.56c-1.229.129-1.936-.165-2.811-.837l-4.568-3.788c-1.682-1.381-1.619-3.373-.699-4.898-1.471 1.554-1.969 4.082.049 5.738l4.566 3.787c.875.673 1.582.967 2.811.838l5.902-.56c1.332-.134 2.24-.829 2.762-1.76-.525.491-1.222.831-2.112.92z"/></g></svg>