<svg xmlns="http://www.w3.org/2000/svg" width="64" height="64" viewBox="0 0 64 64"><path fill="#FED0AC" d="M49.291 34.416s2.947 13.642-1.066 20.27c-5.971 9.873-27.4 11.662-33.19-6.756-.618-1.965 8.416-17.788 8.416-17.788l25.84 4.274z"/><path fill="#FED0AC" d="M35.131 30.268c.998 2.046.021 4.482-2.181 5.44l-.033.014c-2.205.959-4.803.078-5.799-1.965L13.405 7.844c-.999-2.046-.02-4.483 2.185-5.444l.034-.011c2.2-.961 4.796-.081 5.794 1.966l13.713 25.913z"/><path fill="#E0A372" d="M34.336 34.088l-.041.019c-2.201.956-4.794.042-5.792-2.005L14.789 6.189a3.835 3.835 0 0 1 .002-3.378c-1.639 1.138-2.271 3.216-1.398 5.002l13.713 25.914c.998 2.048 3.594 2.96 5.797 2l.033-.014c1.007-.438 1.759-1.185 2.179-2.062a4.24 4.24 0 0 1-.779.437z"/><path fill="#E0A372" d="M29.174 28.016c.066 2.399 1.615 3.512 7.494 2.002l.764 2.988-16.019.235 8.385-13.053-.624 7.828z"/><path fill="#FED0AC" d="M24.297 39.433c-.623 2.323-3.156 3.72-5.649 3.119l-.041-.008c-2.497-.603-4.016-2.972-3.391-5.291l8.936-29.159c.625-2.323 2.553-3.715 5.049-3.112l.041.008c2.494.603 4.011 2.971 3.387 5.291l-8.332 29.152z"/><path fill="#E0A372" d="M20.938 42.091l-.047-.013c-2.495-.6-3.986-2.994-3.364-5.319l8.334-29.15c.34-1.259 1.242-2.251 2.393-2.79-2.158-.097-4.152 1.223-4.699 3.252l-8.332 29.15c-.625 2.323.872 4.717 3.368 5.317l.042.012c1.14.274 2.285.13 3.255-.328a5.08 5.08 0 0 1-.95-.131z"/><path fill="#FED0AC" d="M50.992 31.589c.141-2.259-1.494-4.233-3.654-4.413l-.064-.008c-2.158-.18-4.023 1.501-4.164 3.76l-.395 6.315c-.143 2.257 1.49 4.233 3.65 4.414l.064.007c2.162.183 4.025-1.502 4.166-3.758l.397-6.317z"/><path fill="#E0A372" d="M47.635 40.241l-.053-.005c-2.156-.182-3.74-2.127-3.598-4.385l.395-6.319a4.202 4.202 0 0 1 .467-1.676c-.98.667-1.654 1.792-1.738 3.119l-.396 6.321c-.139 2.256 1.438 4.176 3.598 4.357l.047.003c1.58.135 2.996-.718 3.705-2.069a3.754 3.754 0 0 1-2.427.654z"/><path fill="#FED0AC" d="M43.818 26.935c.211-2.751-1.691-5.119-4.252-5.282l-.074-.006c-2.563-.166-4.813 1.935-5.025 4.689l-.592 7.71c-.213 2.755 1.691 5.125 4.252 5.29l.074.002c2.561.168 4.809-1.933 5.021-4.689l.596-7.714z"/><path fill="#E0A372" d="M39.68 37.574l-.057-.005c-2.561-.162-4.426-2.461-4.213-5.219l.598-7.715c.055-.743.26-1.438.58-2.054-1.176.838-2.004 2.229-2.127 3.847l-.945 7.764c-.213 2.754 2.006 4.974 4.564 5.14l.059.002c1.871.124 3.57-.949 4.436-2.619-.827.591-1.835.928-2.895.859z"/><path fill="#E0A372" d="M26.127 31.16c3.521-2.019 4.225 1.164 10.21 1.335 2.621.074 3.789 5.298-.182 7.19-5.525 2.631-5.957-1.095-7.302.357-1.432 1.544-2.779 1.846-3.988 3.636-.877 1.299-7.731-.705-8.454-3.37-1.391-5.115 4.129-5.944 9.716-9.148z"/><path fill="#FED0AC" d="M25.674 32.052c3.658-2.101 4.391 1.21 10.623 1.388 2.725.076 3.939 5.511-.193 7.479-5.746 2.738-6.195-1.14-7.595.373-1.49 1.606-2.893 1.921-4.146 3.781-.912 1.353 1.516 6.459 1.516 6.459s-7.043 4.78-8.482 2.057c-2.671-5.058-1.912-9.044-1.831-12.02.196-6.856 4.292-6.186 10.108-9.517z"/><g><path fill="#E0A372" d="M18.598 35.449c-3.91 1.728-3.722 11.485-.809 16.188 7.252 11.69 21.299 11.364 28.828 5.104-6.98 7.182-22.058 8.026-29.937-4.093-3.157-4.851-4.141-15.969 1.918-17.199z"/></g><g><path fill="#E0A372" d="M25.163 45.208c-.281.417-.246 1.196-.059 2.072-.42-1.333-.699-2.72-.285-3.333 1.256-1.863 1.967-2.246 3.453-3.852 1.402-1.513 1.852 2.365 7.599-.372 2.123-1.013 2.828-2.94 2.646-4.587.805 1.782.404 4.559-2.305 5.851-5.748 2.736-6.195-1.142-7.597.371-1.488 1.606-2.198 1.99-3.452 3.85z"/></g><g fill="#E0A372"><path d="M38.771 53.591c0-6.487-5.023-11.802-11.414-12.343a9.637 9.637 0 0 1 2.438-.325c5.468 0 9.908 4.404 9.908 9.837a9.675 9.675 0 0 1-1.039 4.355 11.82 11.82 0 0 0 .107-1.524z"/><path d="M40.729 41.436a4.765 4.765 0 0 1 3.105.224 6.09 6.09 0 0 0-1.229.189 6.07 6.07 0 0 0-4.393 7.079 4.696 4.696 0 0 1-.85-1.673c-.686-2.532.82-5.136 3.367-5.819z"/></g></svg>