<svg xmlns="http://www.w3.org/2000/svg" width="64" height="64" viewBox="0 0 64 64"><path fill="#FFDD67" d="M56.296 33.423l-1.22-18.104-8.313 5.107c-4.074-.685-5.204-.68-8.361-2.25-1.878-.934-4.315-.308-5.498.359-1.797-1.938-13.468.878-14.761 1.467-3.534-.956-8.725-5.051-8.725-5.051L7.649 35.437l2.363.545c.243.72.78 2.405.78 2.405-2.198 2.843.443 6.074 2.887 5.002-1.072 2.771 1.773 5.378 4.065 3.612-.333 2.598 2.444 4.476 4.431 2.669-.911 3.115 2.614 5.415 4.662 2.88 1.492 1.021 2.866 1.811 4.073 2.235v-.001c2.077.895 4.403-1.124 4.019-3.631 2.448 2.818 5.992.059 5.201-3.021 2.723 2.074 6.032-1.438 4.254-4.524 3 1.725 5.613-2.923 2.701-5.876l9.211-4.309z"/><path fill="#EBA352" d="M13.926 36.283c1.545.714 2.463 2.951.888 4.992l-.68.822c-.752.976-1.634 1.322-2.45 1.267.608.279 1.31.317 1.997.019a4.05 4.05 0 0 1 .569-1.021l.682-.822c.409-.53.859-.861 1.314-1.061.817-2.079-.592-4.073-2.32-4.196zM25.349 46.157c1.628.439 2.848 2.493 1.577 4.774l-.558.929c-.607 1.09-1.432 1.582-2.248 1.667 1.062.287 2.292-.108 3.128-1.598l.554-.927c1.498-2.679-.446-5.048-2.453-4.845zM18.328 45.4l1.603-2.475c-.141-1.437-1.252-2.575-2.542-2.667 1.543.712 2.462 2.951.887 4.99l-.68.823c-.752.976-1.637 1.322-2.452 1.266.787.363 1.734.323 2.602-.343.066-.512.24-1.049.582-1.594zM22.574 40.892c1.604.534 2.726 2.658 1.345 4.861l-1.924 2.965c-.659 1.053-1.506 1.497-2.326 1.533 1.048.348 2.296.025 3.199-1.413l1.918-2.962c1.627-2.59-.2-5.068-2.212-4.984z"/><g fill="#EBA352"><path d="M35.869 43.367c.135-.024 1.256-.211 1.744-.165-1.538-1.506-3.866-.35-5.26-1.055.988 1.705 3.069 1.298 3.317 1.257l2.444 3.084c1.968 2.482.4 5.354-1.695 5.713 2.161.702 4.355-1.579 3.718-4.064-.214-.163-4.268-4.77-4.268-4.77zM38.27 37.617c.03 0 1.462-.297 2.803-.298-1.528-1.202-3.794-.124-5.262-1.054.64 1.336 1.863 1.337 2.259 1.351l4.571 5.253c2.07 2.381.625 5.326-1.453 5.79 2.428.66 4.745-2.36 3.188-5.057-1.02-.421-6.106-5.985-6.106-5.985zM35.107 49.099c-1.47-1.183-3.563-.348-4.5-.903.545 1.362 2.373 1.134 2.468 1.122 1.695 2.639-.068 5.309-2.166 5.468 2.073.892 4.408-1.118 4.037-3.613-.053-.06-1.529-1.896-1.529-1.896.187-.032 1.274-.219 1.69-.178z"/><path d="M55.168 31.717s-1.697 3.454-8.304 5.374c-.89-1.111-2.764-3.32-4.968-5.174 1.397-.291 2.085-1.416 3.245-1.597-.376-.401-1.848-.152-2.864.229-1.99.748-6.563-2.513-6.563-2.513l-3.822.545c-2.703 2.607-8.49 3.956-8.828.023-.24-2.786 5.914-4.715 7.768-6.536 2.377-2.335 4.496-5.192 8.408-3.246 3.25 1.618 4.529 1.519 8.887 2.27 1.502.257 2.471 1 3.622 2.538-.919-2.118-2.157-2.96-3.772-3.347l6.957-3.307.143-1.658-8.324 4.735c-3.846-.631-5.235-.593-8.313-2.125-2.027-1.008-3.571-.723-4.919.104-2.436-1.38-3.804-1.138-4.724-.85-2.824.885-7.349.986-11.308 2.612.702.247 1.363.406 1.928.411l-.002.003c3.903-1.213 7.996-1.081 9.863-1.792.605-.229 1.808-.243 3.083.479-.797.691-1.55 1.511-2.331 2.278-1.869 1.835-7.69 4.413-7.298 7.681.188 1.563 2.354 5.834 9.696 1.1l3.071-.417s5.719 2.738 11.046 8.861c2.058 2.365.78 4.956-1.271 5.561 2.679.534 4.994-3.265 2.373-5.926l6.299-3.446 1.222-2.87z"/></g><path fill="#3B946F" d="M53.389 16.264l3.281 17.129-2.725 1.193C52.563 30.861 50.467 22 50.906 17.69l2.483-1.426z"/><path fill="#EBA352" d="M11.091 38.023c-.5-1.156-.807-2.818-.807-2.818l-2.47-1.68-.166 1.911 2.12.572a9.117 9.117 0 0 0 1.028 2.373l.295-.358z"/><path fill="#3B946F" d="M6.054 35.098l5.445-18.677 2.519 1.679c.363 2.8-4.208 15.591-5.853 17.477l-2.111-.479z"/><g fill="#47B892"><path d="M53.266 16.239c-.795.473 2.066 17.837 3.27 17.302C60.343 31.846 62 31.299 62 31.299V10.732s-2.267 1.656-8.734 5.507zM2 9v25.481s1.818.254 4.139.771c1.285.287 5.996-18.549 5.673-18.77C8.429 14.17 2 9 2 9z"/></g></svg>