<svg xmlns="http://www.w3.org/2000/svg" width="64" height="64" viewBox="0 0 64 64"><path fill="#8A6859" d="M56.297 33.423l-1.221-18.104-8.313 5.107c-4.074-.686-5.205-.68-8.361-2.251-1.879-.934-4.316-.308-5.498.359-1.797-1.938-13.469.878-14.762 1.467-3.533-.956-8.725-5.051-8.725-5.051L7.65 35.437l2.363.545c.242.72.779 2.406.779 2.406-2.197 2.842.443 6.074 2.887 5.002-1.072 2.77 1.773 5.377 4.064 3.611-.332 2.598 2.445 4.476 4.432 2.669-.91 3.115 2.615 5.415 4.662 2.88 1.492 1.021 2.865 1.811 4.072 2.235l.002-.001c2.076.895 4.402-1.124 4.018-3.631 2.449 2.818 5.994.059 5.201-3.021 2.723 2.074 6.033-1.437 4.254-4.524 3 1.725 5.613-2.923 2.701-5.876l9.212-4.309z"/><path fill="#705041" d="M13.926 36.284c1.545.713 2.463 2.951.889 4.991l-.68.822c-.752.976-1.635 1.322-2.449 1.267a2.405 2.405 0 0 0 1.996.02 3.99 3.99 0 0 1 .57-1.021l.682-.823c.408-.53.857-.861 1.314-1.061.815-2.079-.594-4.072-2.322-4.195zM25.35 46.157c1.629.439 2.848 2.493 1.576 4.774l-.557.929c-.607 1.09-1.432 1.582-2.248 1.667 1.063.287 2.293-.108 3.127-1.598l.555-.927c1.498-2.679-.446-5.048-2.453-4.845zM18.328 45.4l1.602-2.474c-.141-1.438-1.252-2.576-2.541-2.668 1.543.712 2.461 2.951.887 4.99l-.68.823c-.754.976-1.639 1.323-2.453 1.267.787.362 1.734.322 2.604-.344a3.904 3.904 0 0 1 .581-1.594zM22.574 40.892c1.604.535 2.727 2.658 1.346 4.861l-1.924 2.965c-.66 1.053-1.508 1.497-2.326 1.533 1.047.348 2.295.025 3.197-1.413l1.92-2.962c1.627-2.59-.201-5.068-2.213-4.984z"/><g fill="#705041"><path d="M35.869 43.368c.137-.025 1.256-.211 1.744-.166-1.537-1.506-3.865-.35-5.26-1.055.988 1.705 3.068 1.299 3.316 1.257l2.445 3.085c1.969 2.481.4 5.353-1.695 5.712 2.16.702 4.355-1.579 3.717-4.064-.212-.163-4.267-4.769-4.267-4.769zM38.27 37.618c.031-.001 1.463-.298 2.803-.299-1.527-1.202-3.793-.124-5.262-1.053.641 1.335 1.865 1.336 2.26 1.35l4.57 5.253c2.072 2.381.625 5.327-1.453 5.79 2.43.66 4.746-2.36 3.188-5.057-1.019-.421-6.106-5.984-6.106-5.984zM35.107 49.099c-1.469-1.182-3.563-.348-4.5-.902.547 1.361 2.373 1.133 2.469 1.121 1.695 2.639-.068 5.309-2.166 5.468 2.074.892 4.408-1.118 4.037-3.613-.053-.06-1.529-1.896-1.529-1.896.186-.032 1.273-.219 1.689-.178z"/><path d="M55.17 31.718s-1.699 3.453-8.305 5.373c-.891-1.111-2.764-3.32-4.967-5.174 1.396-.291 2.084-1.416 3.244-1.597-.375-.401-1.848-.152-2.865.229-1.988.748-6.563-2.513-6.563-2.513l-3.822.545c-2.703 2.607-8.488 3.956-8.828.023-.238-2.786 5.914-4.716 7.768-6.536 2.379-2.335 4.496-5.192 8.408-3.246 3.25 1.619 4.529 1.52 8.889 2.27 1.5.258 2.471 1 3.621 2.539-.92-2.119-2.158-2.961-3.771-3.348l6.955-3.307.143-1.658-8.324 4.734c-3.846-.631-5.234-.592-8.313-2.125-2.027-1.008-3.572-.723-4.92.104-2.436-1.38-3.803-1.138-4.725-.851-2.822.886-7.348.986-11.307 2.613.701.246 1.363.406 1.928.41l-.002.004c3.904-1.214 7.996-1.081 9.863-1.793.605-.229 1.809-.243 3.082.479-.797.69-1.549 1.511-2.33 2.278-1.869 1.834-7.689 4.412-7.297 7.681.188 1.563 2.354 5.835 9.695 1.101l3.07-.418s5.719 2.738 11.047 8.861c2.057 2.364.779 4.955-1.27 5.561 2.678.533 4.992-3.266 2.371-5.927l6.299-3.446 1.226-2.866z"/></g><path fill="#3B946F" d="M53.391 16.265l3.281 17.129-2.727 1.193c-1.383-3.726-3.477-12.586-3.039-16.896l2.485-1.426z"/><path fill="#705041" d="M11.092 38.024c-.5-1.157-.807-2.819-.807-2.819l-2.471-1.68-.164 1.912 2.119.572a9.118 9.118 0 0 0 1.027 2.373l.296-.358z"/><path fill="#3B946F" d="M6.055 35.099l5.443-18.678 2.52 1.679c.363 2.8-4.209 15.591-5.854 17.477l-2.109-.478z"/><g fill="#47B892"><path d="M53.266 16.239c-.795.474 2.066 17.837 3.27 17.302C60.344 31.847 62 31.3 62 31.3V10.732s-2.266 1.657-8.734 5.507zM2 9.001v25.48s1.818.254 4.139.771c1.285.287 5.996-18.549 5.674-18.77C8.43 14.171 2 9.001 2 9.001z"/></g></svg>