<svg xmlns="http://www.w3.org/2000/svg" width="64" height="64" viewBox="0 0 64 64"><path fill="#FFDD67" d="M62 32c0 15.461-10.047 28-28 28C18.536 60 6 47.461 6 32 6 16.536 18.536 4 34 4c15.465 0 28 12.536 28 28z"/><path fill="#FFF" d="M30.422 26.077c0 5.357-4.345 9.692-9.692 9.692a9.687 9.687 0 0 1-9.692-9.692c0-5.348 4.335-9.692 9.692-9.692 5.347 0 9.692 4.344 9.692 9.692z"/><circle fill="#664E27" cx="23.961" cy="28.23" r="3.231"/><path fill="#FFF" d="M54.655 26.078c0 5.352-4.342 9.692-9.691 9.692-5.354 0-9.693-4.34-9.693-9.692s4.34-9.693 9.693-9.693c5.349 0 9.691 4.341 9.691 9.693z"/><circle fill="#664E27" cx="40.656" cy="28.23" r="3.231"/><g><path fill="#664E27" d="M45.736 48.002C44.344 44.408 40.957 42 32.998 42c-7.956 0-11.34 2.408-12.734 6.002-.743 1.918.32 3.998.32 3.998.418 1.217 2.057 2 12.417 2 10.347 0 11.999-.783 12.415-2 0 0 1.064-2.08.32-3.998z"/><path fill="#FFF" d="M41.974 47.094a.744.744 0 0 0-.174-.697s-2.01-1.896-8.802-1.896c-6.79 0-8.799 1.896-8.799 1.896a.746.746 0 0 0-.172.697l.157.494c.068.225.305.412.521.412h16.586c.22 0 .455-.188.527-.412l.156-.494z"/></g><path fill="#EBA352" d="M30.608 39.345c-7.332 1.308-15.73 1.835-23.054 1.238-8.723-.712-6.231-11.194.985-9.589a91.468 91.468 0 0 0 22.069 1.325c4.502-.278 4.543 6.024 0 7.026z"/></svg>