<svg xmlns="http://www.w3.org/2000/svg" width="64" height="64" viewBox="0 0 64 64"><path fill="#42ADE2" d="M62 27.219c0-3.01-1.548-5.639-3.86-7.105a8.92 8.92 0 0 0 .496-2.916c0-4.747-3.689-8.597-8.266-8.669-1.304-2.544-3.889-4.28-6.87-4.28a7.54 7.54 0 0 0-4.063 1.194c-1.62-2.08-4.345-3.445-7.437-3.445-3.093 0-5.817 1.365-7.438 3.444a7.545 7.545 0 0 0-4.063-1.194c-2.981 0-5.566 1.735-6.87 4.28-4.576.073-8.266 3.923-8.266 8.669a8.92 8.92 0 0 0 .496 2.916C3.548 21.58 2 24.209 2 27.219c0 2.046.715 3.918 1.897 5.368a7.264 7.264 0 0 0-.77 3.259c0 2.73 1.491 5.1 3.676 6.292-.03.27-.05.543-.05.821 0 3.929 3.08 7.114 6.882 7.114h36.729c3.802 0 6.882-3.186 6.882-7.114 0-.278-.02-.552-.05-.821 2.185-1.192 3.676-3.562 3.676-6.292 0-1.176-.28-2.281-.77-3.259A8.466 8.466 0 0 0 62 27.219z"/><path fill="#FED0AC" d="M51.757 34.978c-.137.913-.325 1.771-.583 2.256-.464.87-1.41 1.364-1.41 1.364s.255-.935.163-3.404c-1.348-19.901-3.69-10.99-17.925-10.99-14.232 0-16.575-8.909-17.928 10.969-.093 2.481.162 3.426.162 3.426s-.946-.494-1.41-1.364c-.259-.485-.445-1.343-.583-2.256-1.52-.397-3.48-.064-3.48 4.309 0 2.724.999 4.957 4.368 5.196 1.433 11.033 5.709 12.827 14.298 16.743 2.26 1.03 6.885 1.03 9.143 0 8.59-3.916 12.864-5.708 14.299-16.743 3.369-.239 4.367-2.473 4.367-5.196-.001-4.375-1.962-4.708-3.481-4.31z"/><path fill="#F5F5F5" d="M49.087 35.494c-1.303-19.221-3.502-9.914-17.086-9.914s-15.782-9.302-17.088 9.894c-.088 2.364.355 6.669.683 8.874.771 5.19 3.859 12.227 12.046 15.959 2.154.982 6.563.982 8.715 0 8.188-3.732 11.277-10.769 12.048-15.959.326-2.201.769-6.5.682-8.854z"/><path fill="#574137" d="M41.171 49.269c-3.813 3.942-3.285 8.79-9.172 8.827-5.887-.037-5.357-4.885-9.17-8.827-3.727-3.852 5.08.512 9.17.512 4.092-.001 12.897-4.364 9.172-.512z"/><path fill="#FFF" d="M38.94 48.207l-6.941 1.635-6.939-1.635s-.211 1.646.479 2.313c1.041 1.004 4.777 1.537 6.461 1.537 1.686 0 5.422-.533 6.461-1.537.688-.666.479-2.313.479-2.313z"/><path fill="#FF717F" d="M31.999 55.135c-2.771 0-3.73 1.959-3.73 1.959l3.73.609 3.732-.609s-.96-1.959-3.732-1.959z"/><path fill="#CF4350" d="M31.999 49.041c-2.271 0-15.752-5-9.918.563 3.189 3.043 3.236 9.979 9.918 9.979s6.729-6.936 9.92-9.979c5.832-5.563-7.648-.563-9.92-.563zm7.92 1.02c-3.293 3.292-2.836 7.34-7.92 7.371-5.082-.031-4.627-4.079-7.918-7.371-3.217-3.216 4.387.428 7.918.428 3.533-.001 11.137-3.644 7.92-.428z"/><g><circle fill="#FF5263" cx="32" cy="43.352" r="6.618"/></g><path fill="#F5F5F5" d="M27 35.79c0 2.944-8 2.944-8 0 0-9.855 8-9.855 8 0z"/><g><path fill="#3E4347" d="M27.697 36.236c0 3.682-10 3.682-10 0 0-12.318 10-12.318 10 0z"/><path fill="#F5F5F5" d="M27.352 36.289c0 2.945-8 2.945-8 0 0-9.854 8-9.854 8 0z"/><ellipse fill="#0A84A5" cx="23.676" cy="34.496" rx="2.5" ry="3.502"/><circle fill="#231F20" cx="23.675" cy="34.496" r=".75"/><g><path fill="#3E4347" d="M36.301 36.236c0 3.682 10 3.682 10 0 0-12.318-10-12.318-10 0z"/><path fill="#F5F5F5" d="M36.648 36.289c0 2.945 8 2.945 8 0 0-9.854-8-9.854-8 0z"/><ellipse fill="#0A84A5" cx="40.291" cy="34.496" rx="2.5" ry="3.502"/><circle fill="#231F20" cx="40.291" cy="34.496" r=".75"/></g></g></svg>