<svg xmlns="http://www.w3.org/2000/svg" width="64" height="64" viewBox="0 0 64 64"><circle fill="#FFDD67" cx="35" cy="29" r="27"/><g fill="#917524"><path d="M20.513 12.738c-.643.065-.351 2.021.177 1.964a12.807 12.807 0 0 1 10.237 3.726c.369.384 1.847-.927 1.399-1.389a14.78 14.78 0 0 0-11.813-4.301zM49.486 12.738a14.783 14.783 0 0 0-11.813 4.301c-.448.462 1.03 1.772 1.399 1.389a12.814 12.814 0 0 1 10.237-3.726c.529.058.821-1.898.177-1.964z"/></g><path fill="#F5F5F5" d="M33.119 29.298C24.962 32.991 21.231 37.347 2 37.826c0 0 1.952 14.117 12.906 12.246 7.286-1.244 4.322 10.26 4.322 10.26s7.975-10.313 10.013-4.561C31.331 61.662 36.075 62 36.075 62c8.378-11.679 7.134-37.271-2.956-32.702z"/><path fill="#D6D6D6" d="M37.26 34.847c-.367-1.127-7.17 11.159-18.031 25.485 4.612-.605 7.991-7.631 9.193-4.493.641 1.673 3.655 4.284 3.655 4.284s8.701-14.476 5.183-25.276zM32.314 33.477c.899-3.855-12.198 3.588-27.531 11.902 3.921 7.367 9.978 4.177 12.723 4.906 0 0 12.823-8.286 14.808-16.808z"/><g fill="#664E27"><path d="M51.879 19.818a.5.5 0 0 1-.143.938c-2.312.346-4.76.739-7.084 2.026 3.45.572 6.221 2.342 7.725 4.144.338.406-.086.958-.467.819-4.094-1.486-8.305-2.291-13.598-1.747-.416.043-.775-.198-.687-.582 1.414-6.181 9.365-8.513 14.254-5.598zM18.121 19.818a.5.5 0 0 0 .144.938c2.311.346 4.76.739 7.084 2.026-3.451.572-6.221 2.342-7.725 4.144-.34.406.085.958.464.819 4.096-1.486 8.306-2.291 13.599-1.747.417.043.774-.198.687-.582-1.412-6.181-9.363-8.513-14.253-5.598z"/></g></svg>