<svg xmlns="http://www.w3.org/2000/svg" width="64" height="64" viewBox="0 0 64 64"><g fill="#89664C"><path d="M2.145 19.644c-1.022 2.688 3.553 12.111 7.749 13.232C18.665 35.219 32 28.919 32 28.919s-11.25-5.063-15.383-6.638C5.723 18.127 2.82 17.87 2.145 19.644zM61.855 19.644c1.021 2.688-3.553 12.111-7.748 13.232C45.336 35.219 32 28.919 32 28.919s11.25-5.063 15.383-6.638c10.896-4.154 13.799-4.411 14.472-2.637z"/></g><path fill="#FFDD67" d="M55 39c0 12.705-10.293 23-22.999 23C19.294 62 9 51.705 9 39c0-12.706 10.295-23 23.002-23C44.707 16 55 26.294 55 39z"/><path fill="#D3976E" d="M44.084 11.483c-2.139-3.082.256-4.781-1.404-7.576-1.043-1.753-2.021-2.644-3.48-1.152-2.395 2.449-5.156 3.486-7.2 3.486-2.041 0-4.803-1.037-7.197-3.486-1.459-1.492-2.438-.601-3.48 1.152-1.66 2.794.734 4.494-1.404 7.576-1.307 1.882-2.65 9.333-2.65 9.333L32 23.725l14.735-2.909c-.001 0-1.346-7.451-2.651-9.333z"/><path fill="#FED0AC" d="M22.44 5.896s4.499 3.037 4.438 4.551c-.074 1.771-5.619 4.955-5.619 4.955s2.492-3.888 2.586-5.343c.07-1.087-1.405-4.163-1.405-4.163z"/><path fill="#89664C" d="M41.563 5.896s-4.502 3.037-4.439 4.551c.074 1.771 5.619 4.955 5.619 4.955s-2.492-3.888-2.586-5.343c-.069-1.087 1.406-4.163 1.406-4.163z"/><path fill="#3E4347" d="M47.002 20.333C38.4 22.544 32 22.506 32 22.506s-6.4.038-15-2.173l-.681 2.134L32 26.04l15.68-3.572-.678-2.135z"/><path fill="#D3976E" d="M32 24.983s-7.379.25-20.735-4.65c0 0 5.143 3.785 7.781 7.012 5.076 6.206 20.833 6.206 25.91 0 2.637-3.227 7.779-7.012 7.779-7.012C39.379 25.233 32 24.983 32 24.983z"/><path fill="#664E27" d="M39.641 47.936c-4.924 3.6-10.387 3.578-15.281 0-.589-.432-1.12.314-.721 1.004 1.49 2.575 4.503 4.869 8.36 4.869 3.86 0 6.872-2.294 8.362-4.869.401-.69-.131-1.436-.72-1.004z"/><circle fill="#664E27" cx="23.183" cy="36.853" r="3.833"/><circle fill="#664E27" cx="40.816" cy="36.853" r="3.833"/></svg>