<svg xmlns="http://www.w3.org/2000/svg" width="64" height="64" viewBox="0 0 64 64"><path fill="#42ADE2" d="M53.04 60.087c0 1.055-6.119 1.913-13.671 1.913-7.548 0-13.672-.858-13.672-1.913 0-1.054 6.124-1.907 13.672-1.907 7.552 0 13.671.853 13.671 1.907z"/><path fill="#FFDD67" d="M62.001 32c0 16.566-10.766 30-30.001 30C15.432 62 2 48.566 2 32 2 15.432 15.432 2 32 2c16.569 0 30.001 13.432 30.001 30z"/><path fill="#42ADE2" d="M44.239 61.534h-5.2a10.864 10.864 0 0 0 0-8.937h5.2a10.864 10.864 0 0 1 0 8.937z"/><path fill="#664E27" d="M44.474 52.061c-.213 1.689-1.781 4.046-4.129 3.751-1.906-.244-3.761-2.162-6.196-2.471-2.471-.31-4.758 1.06-6.684.816-2.65-.333-3.215-2.944-3.008-4.616.383-3.023 5.172-4.908 10.697-4.212 5.529.696 9.7 3.711 9.32 6.732z"/><circle fill="#FFF" cx="20.5" cy="29" r="10"/><circle fill="#664E27" cx="20.5" cy="29" r="3.5"/><g><circle fill="#FFF" cx="43.501" cy="29" r="10"/><circle fill="#664E27" cx="43.501" cy="29" r="3.5"/></g><g fill="#917524"><path d="M53.204 18.945a14.228 14.228 0 0 0-11.691-3.133c-.58.113-1.09-2.021-.387-2.156a16.417 16.417 0 0 1 13.492 3.615c.541.469-.969 2.061-1.414 1.674zM22.488 11.662c-4.168-.748-8.455.4-11.691 3.133-.443.389-1.955-1.205-1.412-1.674a16.418 16.418 0 0 1 13.492-3.615c.703.135.191 2.269-.389 2.156z"/></g></svg>