<svg xmlns="http://www.w3.org/2000/svg" width="64" height="64" viewBox="0 0 64 64"><circle fill="#C7E755" cx="32" cy="32" r="30"/><circle fill="#425E21" cx="20.502" cy="26.966" r="4.5"/><circle fill="#425E21" cx="43.503" cy="26.966" r="4.5"/><g fill="#425E21"><path d="M37.364 43.229H26.637c-.738 0-.738-2.537 0-2.537h10.728c.739 0 .739 2.537-.001 2.537z"/><path d="M23.658 34.962c1.021 1.961 1.633 4.377 1.633 7 0 2.625-.611 5.041-1.633 7 2.105-.928 3.635-3.711 3.635-7s-1.529-6.07-3.635-7zM40.343 48.962c-1.021-1.959-1.631-4.375-1.631-7 0-2.623.609-5.039 1.631-7-2.105.93-3.633 3.711-3.633 7s1.527 6.072 3.633 7z"/></g><g fill="#75A843"><path d="M25.577 15.906a14.232 14.232 0 0 1-11.693 3.133c-.578-.113-1.088 2.021-.385 2.156a16.42 16.42 0 0 0 13.492-3.615c.541-.469-.97-2.06-1.414-1.674zM50.112 18.887c-4.168.748-8.455-.4-11.691-3.133-.443-.389-1.955 1.205-1.412 1.674a16.418 16.418 0 0 0 13.492 3.615c.703-.135.191-2.27-.389-2.156z"/></g><g opacity=".5" fill="#FF717F"><path opacity=".8" d="M51.687 30.292a8.841 8.841 0 0 1 8.845 8.843 8.842 8.842 0 0 1-8.845 8.842c-4.883 0-8.844-3.959-8.844-8.842a8.844 8.844 0 0 1 8.844-8.843z"/><circle opacity=".8" cx="12.313" cy="39.135" r="8.843"/></g></svg>