<svg xmlns="http://www.w3.org/2000/svg" width="64" height="64" viewBox="0 0 64 64"><path fill="#231F20" d="M33.647 2c18.34 0 28.354 11.355 28.354 26.311V62H5.294V28.311c0-22.23 15.349-21.816 15.349-21.816S21.798 2 33.647 2z"/><path fill="#C28FEF" d="M21.046 52.189h25.205V62H21.046z"/><path fill="#B47D56" d="M54.056 44.848s4.127-1.049 4.127-7.119c0-4.809-3.113-5.633-3.113-5.633-19.15 0-29.33-9.402-29.33-9.402s-6.87 7.716-13.5 9.402c0 0-3.213.589-3.213 5.633 0 6.07 4.285 7.119 4.285 7.119.023 3.824 12.683 16.205 20.294 16.205 7.645 0 20.45-12.381 20.45-16.205z"/><ellipse fill="#664E27" cx="33.604" cy="55.219" rx="4" ry="3"/><path opacity=".3" d="M13.68 17.28s2.881 1.36 3.874 5.295c.589 2.344.876 2.433 1.951 3.209L25.739 13.8c.572-1.057 1.891-1.487 2.926-.935l.008.006c1.041.556 1.402 1.882.816 2.968l.734-1.354c.695-1.291 2.26-1.806 3.486-1.149 1.23.657 1.664 2.238.963 3.525l-.543 1.003c.607-1.124 1.969-1.571 3.039-1l.002.003c1.074.572 1.447 1.946.84 3.071l-1.225 2.264c.564-1.046 1.791-1.478 2.791-.945.992.533 1.598 1.896 1.023 2.932-10.117 18.25-10.742 19.3-15.326 19.916 0 0-3.93 4.363-6.979 17.896l1.592-25.095L13.68 17.28z"/><path fill="#B386E2" d="M23.907 42.03l-8.688-4.657S7.781 47.405 1.999 62h16.296s.102-11.283 5.612-19.97z"/><path fill="#B47D56" d="M11.412 17.272c1.517-1.047 3.851.293 4.845 4.228.588 2.343.712 3.245 1.788 4.022l6.921-12.805c1.795-3.041 4.896-1.134 3.521 1.884l-5.086 9.976 6.432-10.774c1.629-2.996 5.75-1.647 4.066 1.978l-6.152 10.736 5.984-9.246c2.078-3.209 5.016-.921 3.506 1.587l-5.123 9.659 4.83-6.959c1.6-2.479 4.348-.541 3.033 1.766 0 0-8.031 15.504-11.256 18.006-4.811 3.729-16.639-.928-15.655-11.12.196-2.024-.557-4.012-.985-6.235-.519-2.682-2.334-5.554-.669-6.703z"/><path fill="#664E27" d="M38.384 40.826c2.725 5.146 8.213 5.146 10.941 0 .135-.258-.219-.375-.652-.67-2.734 2.148-7.158 1.951-9.639.002-.431.293-.785.41-.65.668z"/></svg>