<svg xmlns="http://www.w3.org/2000/svg" width="64" height="64" viewBox="0 0 64 64"><path fill="#FFB300" d="M33.647 2C51.987 2 62 13.355 62 28.311V62H5.295V28.311c0-22.23 15.348-21.816 15.348-21.816S21.798 2 33.647 2z"/><path fill="#C28FEF" d="M21.046 52.189h25.205V62H21.046z"/><path fill="#FFDD67" d="M54.056 44.848s4.127-1.049 4.127-7.119c0-4.809-3.113-5.633-3.113-5.633-19.149 0-29.329-9.402-29.329-9.402s-6.87 7.716-13.5 9.402c0 0-3.213.589-3.213 5.633 0 6.07 4.285 7.119 4.285 7.119.023 3.824 12.683 16.205 20.293 16.205 7.646 0 20.45-12.381 20.45-16.205z"/><ellipse fill="#937237" cx="33.604" cy="55.219" rx="4" ry="3"/><path opacity=".3" d="M13.681 17.28s2.881 1.36 3.874 5.295c.589 2.344.876 2.433 1.951 3.209L25.74 13.8c.571-1.057 1.89-1.487 2.926-.935l.007.006c1.041.556 1.403 1.882.816 2.968l.735-1.354c.694-1.291 2.259-1.806 3.485-1.149 1.23.657 1.664 2.238.964 3.525l-.543 1.003c.606-1.124 1.968-1.571 3.038-1l.002.003c1.074.572 1.448 1.946.841 3.071l-1.225 2.264c.563-1.046 1.791-1.478 2.79-.945.993.533 1.598 1.896 1.023 2.932-10.117 18.25-10.742 19.3-15.325 19.916 0 0-3.931 4.363-6.979 17.896l1.592-25.095-6.206-19.626z"/><path fill="#B386E2" d="M23.907 42.03l-8.687-4.657S7.782 47.405 2 62h16.295c.001 0 .102-11.283 5.612-19.97z"/><path fill="#FFDD67" d="M11.413 17.272c1.517-1.047 3.851.293 4.845 4.228.588 2.343.711 3.245 1.788 4.022l6.921-12.805c1.796-3.041 4.897-1.134 3.522 1.884l-5.086 9.976 6.432-10.774c1.629-2.996 5.75-1.647 4.065 1.978l-6.152 10.736 5.984-9.246c2.078-3.209 5.017-.921 3.506 1.587l-5.122 9.659 4.83-6.959c1.6-2.479 4.347-.541 3.033 1.766 0 0-8.031 15.504-11.257 18.006-4.811 3.729-16.638-.928-15.654-11.12.196-2.024-.557-4.012-.985-6.235-.52-2.682-2.335-5.554-.67-6.703z"/><path fill="#937237" d="M38.384 40.826c2.726 5.146 8.214 5.146 10.941 0 .135-.258-.219-.375-.652-.67-2.734 2.148-7.157 1.951-9.638.002-.431.293-.786.41-.651.668z"/></svg>