<svg xmlns="http://www.w3.org/2000/svg" width="64" height="64" viewBox="0 0 64 64"><path fill="#EBA352" d="M44.355 9.254c-3.002 3.685-4.284 7.067-12.156 11.645-2.842 1.65-3.219 5.014-4.279 4.794-6.342-1.319-20.436-2.714-20.436-2.714L6.02 31.188c-.785 11.289 18.469 7.369 22.873 5.368 2.723-1.236 4.533-1.358 5.773-3.693 1.189-2.249 3.265.452 15.289-19.943l-5.6-3.666zM46.213 31.485l9.214-7.573 2.97 11.567-9.268 2.715z"/><path fill="#FFDD67" d="M50.48 7.117l-14.83 8.896c-.913 4.226.86 5.83 1.205 7.445.152.719-.841 2.387-1.37 3.264-1.181 1.954 1.763 2.443 2.687 1.945 1.031 1.419.737 2.153 1.521 1.56.723-.549 2.131 2.314 1.892 3.054l10.822-1.479L50.48 7.117z"/><path fill="#FFB300" d="M43.048 2.928c11.924-3.335 16.309 7.236 16.613 15.33.163 4.311-2.816 8.371-4.842 10.129l-9.257-16.762c-1.944-.337-8.45 5.401-9.912 4.389-3.923-2.702.214-11.078 7.398-13.086z"/><path fill="#ED4C5C" d="M41.61 3.896l6.083 12.04c-.285 1.036-.816 2.408-.517 4.216 2.064 12.444 4.751 7.88 8.353 2.579 1.012-1.489 1.464-3.72 1.543-4.797l2.901-1.136c1.006-.449.158-3.462-.847-3.013l-3.079 1.218c-.848-.887-5.326-1.932-6.413-1.423L44.07 2.59c-.694-1.263-3.1-.345-2.46 1.306z"/><path fill="#FFDD67" d="M12.779 5.969l14.74 10.045c.914 4.226-.861 5.83-1.205 7.445-.152.719.842 2.387 1.371 3.264 1.182 1.954-1.764 2.443-2.688 1.945-1.031 1.419-.736 2.153-1.52 1.56-.723-.549-2.314 2.401-1.891 3.054.387.596-.365.782-1.242.246-.865 3.367-2.826 2.713-6.93 1.175-8.523-3.195-.635-28.734-.635-28.734z"/><path fill="#FFB300" d="M20.123 2.928C8.199-.407 3.814 10.164 3.51 18.258c-.164 4.311 1.15 7.449 3.174 9.207l1.377-.491 9.547-15.349c1.945-.337 8.451 5.401 9.912 4.389 3.923-2.702-.213-11.078-7.397-13.086z"/><path fill="#42ADE2" d="M19.1 2.59l-5.563 10.99c-1.088-.509-5.566.536-6.414 1.423l-3.078-1.218c-.949-.424-1.797 2.589-.85 3.013l2.9 1.136c.082 1.077.535 3.308 1.547 4.797 3.604 5.304 6.285 9.868 8.352-2.579.299-1.808-.232-3.18-.516-4.216L21.5 3.88c.656-1.417-1.641-2.49-2.4-1.29z"/><path fill="#E8E8E8" d="M15.58 34.827l-1.801-10.603c-.248-1.413-2.889-.9-2.646.514l1.803 10.601 2.644-.512z"/><g><path fill="#42ADE2" d="M17.416 62s3.629-7.998 3.629-13.558c0-8.298-6.143-10.92-10.447-12.289-4.086-1.3-4.578-4.966-4.578-4.966-1.02 0-6.17 6.752-3.004 16.805C5.502 55.886 2.594 62 2.594 62h14.822z"/><path fill="#EBA352" d="M4.811 62h6.461s4.93-4.768 4.93-13.29c0-12.198-8.25-12.922-10.656-10.359-3.182 3.385-1.494 6.658.209 13.453C6.764 55.84 4.811 62 4.811 62z"/></g><g><path fill="#ED4C5C" d="M46.512 62s-3.628-7.998-3.628-13.558c0-8.298 6.144-10.92 10.446-12.289 4.085-1.3 4.578-4.966 4.578-4.966 1.021 0 6.17 6.752 3.005 16.805-2.486 7.894.422 14.008.422 14.008H46.512z"/><path fill="#EBA352" d="M59.119 62h-6.464s-4.929-4.768-4.929-13.29c0-12.198 8.25-12.922 10.657-10.359 3.182 3.385 1.494 6.658-.209 13.453-1.01 4.036.945 10.196.945 10.196z"/></g><g><path opacity=".3" fill="#3E4347" d="M41.653 32.93s3.674-1.877 7.253-4.768c.516-.416.567-3.844 4.192-6.128 2.108-1.328 3.16.265 3.999-.145.892-.436 2.32-.012 2.32-.012l-6.319 10.709-11.445.344z"/><path fill="#FFDD67" d="M60.749 23.096c-1.534-2.987-4.946.106-4.946.106S55 21 52.662 22.934c-2.653 2.194-2.136 4.742-3.27 5.913-2.707 1.961-5.584 3.898-12.258 5.256-3.182.647-4.508 3.723-5.453 3.169-5.658-3.321-10.676 1.642-15.484-.017-10.129-3.49-12.92 1.605-12.701 6.924.16 3.793 4.807 5.757 8.268 6.617 8.291 2.06 14.111-2.627 18.879-3.097 2.948-.293 3.546.419 5.399-1.402 1.688-1.662 2.862 1.164 17.756-11.771 0 0 2.132.176 6.488-3.502 2.084-1.759 2.303-4.341.463-7.928z"/><path fill="#EBA352" d="M25.078 42.971s4.852.676 7.631-6.044c-4.629 5.652-7.631 6.044-7.631 6.044z"/><g><path opacity=".3" fill="#3E4347" d="M32.305 47.615s-6.51-1.977-12.668-8.747c-1.078-1.184-.664-3.437-3.611-5.414l-3.139.269c-.596-.562-2.668-3.188-4.646-1.167-1.764 1.804-2.641 6.579-1.217 8.381.789 1 7.039 4.998 7.43 5.469 4.697 5.657 5.266 9.372 5.266 9.372s.764-2.232 1.158-5.062l11.427-3.101z"/><path fill="#FFDD67" d="M60.93 41.862c-2.264-5.798-7.867-7.332-13.25-.318-3.127 4.077-9.732 2.394-13.196 7.746-2.179-3.354-7.331-1.999-15.364-9.614 0 0-.19-4.139-3.094-6.222-2.026-1.454-3.139.269-3.139.269s-3.412-3.094-4.947-.105c-1.84 3.586-1.857 6.504.463 7.928 4.068 2.5 6.484 2.786 6.484 2.786 12.775 14.48 13.828 12.053 15.459 13.44 2.927 2.49 3.76 2.121 9.605.442 4.644-1.335 11.602-1.073 17.859-7.219 2.612-2.565 4.489-5.626 3.12-9.133z"/><g fill="#EBA352"><path d="M46.883 42.676s6.291 5.288 10.333 4.188c-3.68 2.063-8.357-.532-10.333-4.188zM44 50.108s-3.546 3.584-9.508-.108c6.866 1.672 9.508.108 9.508.108z"/></g></g></g><path fill="#937237" d="M40.863 22.298c.302 1.107-.083 2.182-.862 2.394-.777.215-1.246-.624-1.551-1.732-.302-1.111 2.109-1.772 2.413-.662zM22.677 22.298c-.302 1.107.083 2.182.862 2.394.777.215 1.246-.624 1.551-1.732.302-1.111-2.109-1.772-2.413-.662zM22.344 29.823s-1.51 1.733-1.438 2.86c0 0-1.802-1.35-1.25-2.392.517-.975 2.688-.468 2.688-.468zM40.783 29.823s1.51 1.733 1.438 2.86c0 0 1.802-1.35 1.25-2.392-.517-.975-2.688-.468-2.688-.468z"/></svg>