<svg xmlns="http://www.w3.org/2000/svg" width="64" height="64" viewBox="0 0 64 64"><path fill="#8A6859" d="M38.58 32.709v-1.643h-4.436v1.643c0 .907-.693 1.641-1.547 1.641h7.533c-.853 0-1.55-.734-1.55-1.641z"/><path fill="#8A6859" d="M30.698 34.26H42.04v5.08H30.698z"/><path fill="#75A843" d="M25.918 34.26c-1.396 0-2.072.795-2.557 1.344L7.305 53.809h3.241c2.535 0 3.275-.928 3.998-1.744L30.256 34.26h-4.338z"/><path fill="#705041" d="M4.936 43.793l4.776 2.879c.878.526 2.046.264 2.594-.584a1.783 1.783 0 0 0-.594-2.505l-4.776-2.878c-.873-.525-2.043-.26-2.594.586a1.785 1.785 0 0 0 .594 2.502z"/><path fill="#3E4347" d="M17.687 48.268c0 .629-.515 1.145-1.143 1.145h-9.14a1.148 1.148 0 0 1-1.143-1.145V27.669c0-.63.514-1.145 1.143-1.145h9.14c.628 0 1.143.515 1.143 1.145v20.599z"/><circle fill="#B2C1C0" cx="11.975" cy="31.102" r="1.143"/><circle fill="#3E4347" cx="11.975" cy="31.102" r=".571"/><path fill="#8A6859" d="M12.832 51.52a2.293 2.293 0 0 1-2.285 2.289h-4.26A2.295 2.295 0 0 1 4 51.52v-7.734a2.294 2.294 0 0 1 2.286-2.289h4.26a2.294 2.294 0 0 1 2.285 2.289v7.734z"/><path fill="#705041" d="M53.379 24.902l-.002 4.187c.002.769.621 1.419 1.377 1.444.76.027 1.379-.58 1.379-1.35l.004-4.187c0-.767-.623-1.417-1.381-1.443a1.336 1.336 0 0 0-1.377 1.349z"/><path fill="#8A6859" d="M60 34.053c0 .943-.771 1.717-1.713 1.717h-3.195a1.723 1.723 0 0 1-1.715-1.717v-5.801c0-.944.773-1.717 1.715-1.717h3.195A1.72 1.72 0 0 1 60 28.252v5.801z"/><path fill="#FFF" d="M16.277 28.725a.286.286 0 0 1-.285.285h-.572a.285.285 0 0 1-.285-.285v-.572c0-.158.127-.287.285-.287h.571c.157 0 .285.129.285.287v.572z"/><path fill="#75A843" d="M54.338 35.604a768.67 768.67 0 0 0-2.691 6.021 906.433 906.433 0 0 0-2.693-6.021c-.301-.666-1.158-1.344-2.555-1.344h-2.598s3.527 7.863 4.697 10.486c.021.051.918 2.012 2.842 2.016h.244c.625-.016 2.4-.215 3.211-2.024l.006-.009 4.088-9.125h-4.551z"/><path fill="#83BF4F" d="M46.377 34.26h-5.566c-.498 2.114-2.295 3.688-4.443 3.688-2.145 0-3.947-1.573-4.443-3.688h-5.561l-.004 25.707S29.809 62 36.368 62c6.549 0 10.008-2.033 10.008-2.033l.001-25.707z"/><path fill="#231F20" d="M22.377 16.65l1.443 2.637H48.9l1.094-2.814c0-10.093-2.348-14.367-13.512-14.471-11.283-.106-14.105 4.375-14.105 14.648z"/><path fill="#8A6859" d="M48.953 16.48c-.09.582-.209 1.13-.371 1.439-.299.555-.9.87-.9.87s.162-1.127.104-2.703c-.627-9.302-1.17-4.833-11.424-4.833-10.246 0-10.793-4.465-11.424 4.82-.059 1.584.105 2.716.105 2.716s-.605-.315-.898-.87c-.166-.31-.285-.857-.371-1.439-.971-.255-2.217-.041-2.217 2.751 0 1.737.635 3.162 2.781 3.317.754 5.815 8.535 9.697 12.023 9.697s11.27-3.882 12.025-9.697c2.146-.155 2.785-1.58 2.785-3.317.001-2.792-1.251-3.005-2.218-2.751z"/><g><circle fill="#574137" cx="31.103" cy="19.51" r="2.151"/><circle fill="#574137" cx="41.623" cy="19.51" r="2.152"/></g><path fill="#574137" d="M40.369 26.725c0 1.523-2 2.285-4.002 2.285-1.998 0-3.998-.762-3.998-2.285 0 0 0-.381.398-.381h7.201c.401 0 .401.381.401.381z"/></svg>