<svg xmlns="http://www.w3.org/2000/svg" width="64" height="64" viewBox="0 0 64 64"><path fill="#705041" d="M26.695 32.826h10.611v6.469H26.695z"/><path fill="#3E4347" d="M54 62l-5-22c-.184-.807-1.162-3.201-3.48-3.371-8.52-.629-8.223-.44-8.223-.44 0 1.627-2.379 2.953-5.309 2.953-2.928 0-5.297-1.326-5.297-2.953 0 0 .309-.189-8.209.438C16.28 36.789 15.227 39.002 15 40l-5 22h6l3-14 1 14h24l1-14 3 14h6z"/><path fill="#FFF" d="M32.002 61.049s8.268-14.473 7.438-19.432c-.176-1.025-1.486-2.779-2.447-3.955-.717 1.459-2.672 2.518-4.998 2.518-2.318 0-4.273-1.059-4.988-2.51-.961 1.174-2.271 2.924-2.443 3.947-.834 4.959 7.438 19.432 7.438 19.432z"/><g fill="#646464"><path d="M32.002 61.049l10.977-13.746-4.073-6.174z"/><path d="M37.307 35.145s4.094 3.465 5.082 6.859l-2.146 2.219-3.25-6.561.314-2.517z"/><g><path d="M32 61.049L21.023 47.303l4.071-6.174z"/><path d="M26.693 35.145s-4.094 3.465-5.08 6.859l2.146 2.219 3.248-6.561-.314-2.517z"/></g></g><path fill="#3E4347" d="M38.416 42.244c.459 1.086-4.807-1.023-4.807-1.023v-2.395s5.119-2.824 4.781-1.695c-.415 1.39-.355 4.215.026 5.113z"/><path fill="#646464" d="M36.219 39.83l-2.17-.17 1.443-1.209-1.883.975v1.219l2.123.617-1.627-.946z"/><g><path fill="#3E4347" d="M25.586 42.244c-.459 1.086 4.805-1.023 4.805-1.023v-2.395s-5.117-2.824-4.779-1.695c.415 1.39.355 4.215-.026 5.113z"/><path fill="#646464" d="M27.781 39.83l2.172-.17-1.443-1.209 1.881.975v1.219l-2.121.617 1.626-.946z"/></g><path fill="#3E4347" d="M33.566 41.553c-.555.537-2.578.537-3.131 0-.555-.539-.555-2.508 0-3.045.553-.539 2.576-.539 3.131 0 .553.537.553 2.506 0 3.045z"/><g fill="#3E4347"><path d="M32 43.746l-1.158 1.125L32 45.998l1.158-1.127zM32 48.82l-1.158 1.127L32 51.072l1.158-1.125zM32 53.895l-1.158 1.126L32 56.148l1.158-1.127z"/></g><g><path fill="#231F20" d="M16.417 18.325l1.607 2.937H45.97l1.217-3.135c0-11.246-2.615-16.01-15.057-16.125-12.569-.116-15.713 4.875-15.713 16.323z"/><path fill="#8A6859" d="M46.027 18.135c-.1.648-.23 1.26-.414 1.604-.33.618-1.002.97-1.002.97s.182-1.256.117-3.012c-.701-10.365-1.307-5.386-12.73-5.386-11.416 0-12.025-4.976-12.729 5.371-.064 1.766.115 3.026.115 3.026s-.672-.352-1-.97c-.184-.345-.316-.956-.413-1.604-1.08-.283-2.471-.046-2.471 3.065 0 1.936.709 3.523 3.101 3.697.84 6.479 9.508 10.806 13.397 10.806 3.885 0 12.557-4.326 13.398-10.806 2.393-.174 3.104-1.762 3.104-3.697 0-3.11-1.395-3.347-2.473-3.064z"/><g><circle fill="#574137" cx="26.138" cy="21.012" r="2.397"/><circle fill="#574137" cx="37.86" cy="21.012" r="2.397"/></g></g><path fill="#574137" d="M36 28.429C36 30.144 34 31 32 31s-4-.856-4-2.571c0 0 0-.429.4-.429h7.199c.401 0 .401.429.401.429z"/></svg>