<svg xmlns="http://www.w3.org/2000/svg" width="64" height="64" viewBox="0 0 64 64"><path fill="#3E4347" d="M15.62 59.043s7.318-3.84 14.857-2.323c7.146 1.438 7.266-3.04 11.133-3.04s3.15-3.372 6.094-3.183c0 0 1.318.063 1.318 1.41 0 0-2.373.132-3.428 2.007s-6.555 1.688-8.768 3.902c-2.67 2.668-10.295.851-13.467 1.227-2.541.303-5.517 2.957-9.805 2.957l2.066-2.957z"/><path fill="#3E4347" d="M27.313 53.563s4.568-.193 7.344 1.786c2.773 1.979 4.785 4.511 8.33 3.315 3.545-1.196 6.826-2.104 10.576-.947 0 0 .527-.664.352-1.472 0 0-2.402-1.394-5.215-.808s-5.566 2.227-7.383 1.641-5.625-4.746-11.719-4.746l-2.285 1.231z"/><path fill="#3E4347" d="M55.755 57.678c.074-.202.059-.393-.037-.428l-3.35-1.183-.27.716 3.346 1.198c.096.036.235-.101.311-.303z"/><path fill="#C94747" d="M14.272 37.646S8.92 19.363 27.415 13.373c16.381-5.302 10.99 10.048-13.143 24.273z"/><path fill="#ED4C5C" d="M27.386 10.605c-8.6 22.194-14.518 21.6-10.493 29.428l-.046.028 1.549 19.837 9.064-5.343c4.816-2.84 14.303-3.498 20.672-7.253 11.264-6.639 17.766-16.676 11.314-28.081-6.443-11.397-24.82-27.305-32.06-8.616z"/><path fill="#C94747" d="M24.422 42.772c-3.177-5.622-8.192-8.743-11.194-6.974L4.163 41.14l11.514 20.363 9.061-5.346c3.005-1.768 2.862-7.76-.316-13.385z"/><path fill="#3E4347" d="M15.358 48.115c3.176 5.623 3.321 11.616.318 13.388-3.006 1.773-8.017-1.352-11.197-6.976C1.302 48.91 1.16 42.909 4.163 41.14c3.001-1.769 8.018 1.352 11.195 6.975z"/><path fill="#ED4C5C" d="M13.621 49.141c2.312 4.087 2.528 8.381.483 9.585-2.043 1.206-5.574-1.131-7.885-5.222-2.314-4.091-2.53-8.382-.488-9.589 2.045-1.201 5.576 1.138 7.89 5.226z"/><path fill="#C94747" d="M13.621 49.141c-1.933-3.414-4.711-5.601-6.768-5.531-.413 1.935.187 4.803 1.759 7.58 1.93 3.417 4.711 5.603 6.766 5.529.414-1.935-.188-4.803-1.757-7.578z"/><path fill="#FF717F" d="M38.729 5.951c2.979-1.756 12.629 5.379 16.98 13.074 4.354 7.697-2.541 9.195-6.895 1.498-4.35-7.693-14.991-11.678-10.085-14.572z"/><path fill="#3E4347" d="M26.173 13.808s-1.965 9.351-8.905 17.137c0 0 4.44-6.983 5.997-15.875l2.908-1.262z"/><path fill="#C94747" d="M29.989 9.871c3.373-.986.135-3.777 2.004-6.014-1.785 1.367-4.134 3.371-5.008 6.705-4.601 17.52-11.271 19.216-11.365 24.773 1.186-.825 3.822-3.313 6.809-2.495 4.292 1.17-4.949-4.485.244-3.849 5.195.639-2.092-3.701 2.578-3.989 4.676-.286-4.045-5.018 2.057-4.913 6.105.104-3.521-4.093 3.486-4.523 7.008-.43-4.95-4.484-.805-5.695z"/><g><path fill="#FFF" d="M9.009 39.916c2.742 1.203 5.549 3.926 7.573 7.507 2.068 3.66 2.923 7.431 2.575 10.394l4.865-2.87c2.011-1.184 2.166-6.189-.825-11.482-2.506-4.435-5.957-6.754-8.071-6.754-.453 0-.842.099-1.185.3l-4.932 2.905z"/></g><path fill="#3E4347" d="M50.954 50.663c-.035-.213-.145-.369-.246-.351l-3.492.649.125.755 3.496-.635c.1-.017.154-.206.117-.418z"/></svg>