<svg xmlns="http://www.w3.org/2000/svg" width="64" height="64" viewBox="0 0 64 64"><path fill="#E84D88" d="M39.949 27.34l-8.47-.561c0 4.771-10.381 6.978-10.381 10.759 0 2.701 2.522 3.449 2.522 3.449s-7.861 2.957-7.861 11.398c0 6.689 5.321 9.613 11.607 9.613h10.27s.699-2.043-.629-9.146c-2.614-13.975 7.472-11.661 2.942-25.512z"/><path fill="#B47D56" d="M20.361 46.721l.616-1.426 1.112-.283c2.741 0 3.55 1.742 4.866 1.742v5.719s-1.063 1.035-5.437 1.035c-2.092 0-3.48-1.402-4.139-4.408-.546-2.504 2.982-2.379 2.982-2.379z"/><path fill="#935E3E" d="M22.089 45.012s-1.157.277-1.157 1.012c0 .377 1.431-.055 2.388 1.014-1.389-.691-2.959-.316-2.959-.316-.614-.605-.111-1.71 1.728-1.71z"/><path opacity=".3" fill="#231F20" d="M26.023 46.158c5.763-1.15 11.608-3.094 11.608-3.094l-.943 7.639.172 1.205s-3.539 1.891-10.789 2.484l.021-.635s-5.364.775-7.063-1.213c2.688 1.215 6.996-.184 6.996-.184l-.002-6.202zM35.764 31.508L39.9 38.73l-1.33 2.434z"/><path fill="#E84D88" d="M42.227 27.325s7.674 11.812 6.686 16.681c-1.129 5.568-22.254 8.848-22.254 8.848l-.337-6.391s13.115-3.131 14.775-5.361c-1.113-2.545-5.332-9.593-5.332-9.593l6.462-4.184z"/><g><path fill="#935E3E" d="M28.35 26.303l8.38-14.836.277 15.313c-3.475 1.487-5.529 0-5.529 0-1.046-1.953-3.128-.477-3.128-.477z"/><path fill="#231F20" d="M40.303 9.065c-3.355-6.748-8.874-6.275-8.874-6.275-6.853-3.082-14.316 3.596-15.717 7.369-2.863 7.723 3.772 10.777 4.669 10.068l14.332-4.455s2.932 2.954 1.59 8.991c-1.316 5.92 4.672 10.338 4.672 10.338s5.894-12.838-.672-26.036z"/><path fill="#B47D56" d="M17.19 12.402c-.205-2.077 4.094-1.683 6.356.64 4.986 5.129 6.508 3.794 6.508 3.794l.018-.01a5.213 5.213 0 0 1-.64-1.444c-.547-2.031.226-3.936 1.73-4.247 1.502-.313 3.166 1.079 3.712 3.111.496 1.833-.09 3.549-1.313 4.099 1.768 5.476.076 5.562-2.465 7.641-5.608 4.592-6.473 3.371-7.098 1.561-.269-.773-.894-.432-1.551-.52 0 0-.132-.5-.556-1.781-.423-1.28-1.677-1.105-1.295-1.771.38-.668.649-1.076.31-1.484-.141-.162-1.414.367-1.789-.254-.697-1.151 1.09-1.449.845-3.607-.132-1.188-2.344-1.413-2.772-5.728z"/><path fill="#C94747" d="M22.358 24.235c-.365-.029-.723-.07-1.028-.166-.294-.099-.565-.258-.638-.771-.158.144-.244.426-.182.715.069.293.271.549.487.72.209.163.427.272.646.351a1.526 1.526 0 0 0-.032.762c.054.275.182.507.322.699a2.4 2.4 0 0 0 .515.482c-.042-.463-.137-.887-.08-1.172.035-.143.067-.253.141-.383.071-.13.163-.27.26-.418l.501-.752-.912-.067z"/><path fill="#664E27" d="M31.334 12.411c-.353.191-.658.51-.838.916a2.19 2.19 0 0 0-.108 1.322c.077.355.229.689.433.979-.167.025-.319.1-.392.246.246.039.389.146.529.248.139.108.264.22.371.344.11.121.198.248.277.394.079.147.132.33.169.587.208-.112.333-.367.323-.648-.003-.282-.142-.557-.323-.764-.187-.202-.423-.354-.679-.4a1.052 1.052 0 0 0-.157-.014c-.068-.758-.103-1.43.146-1.971.119-.297.321-.555.565-.805.243-.245.533-.467.823-.735a2.376 2.376 0 0 0-1.139.301z"/><path fill="#935E3E" d="M20.946 17.778c-.063-.371-.238-.598-.437-.849-.204-.247-.428-.509-.625-.841-.189-.322-.337-.765-.253-1.166.071-.395.311-.68.598-.848-.07.348-.13.658-.097.93s.136.513.296.779c.143.271.351.552.5.902.158.331.235.809.018 1.093z"/><path fill="#664E27" d="M23.668 14.977c-.296.323-.383.684-.551 1.05a5.409 5.409 0 0 1-.573 1.108c-.249.353-.577.695-1.023.876a1.483 1.483 0 0 1-1.382-.104c.849-.299 1.162-.787 1.608-1.416.22-.307.445-.645.742-.951.279-.291.693-.641 1.179-.563z"/></g></svg>