<svg xmlns="http://www.w3.org/2000/svg" width="64" height="64" viewBox="0 0 64 64"><path fill="#FFE1BD" d="M48.18 14.677l-3.313 8.394-6.541 2.831s-10.008 2.68-10.37 2.812L17.77 32.41c-.787.17-1.497.662-1.87 1.422l-4.196 8.571c-1.744-.412-2.059.398-3.404 3.962-1.186 3.128 1.513 4.088 1.996 4.26 2.943 1.061 4.289-.778 4.993-2.297a1.723 1.723 0 0 0 1.427-1.094l.442-1.162a1.65 1.65 0 0 0-.432-1.795l3.5-7.145 2.692-.974c-.38 5.733 2.121 12.83-.087 19.841l19.062-.666c-5.473-6.897-2.006-15.614-1.795-22.636l8.396-5.434a2.544 2.544 0 0 0 1.007-1.206l3.728-9.457-5.049-1.923z"/><path fill="#FFE1BD" d="M32.684 20.648l3.646-1.184-2.237 11.266-7.275-1.444z"/><path fill="#E6B796" d="M26.761 24.857c1.88 1.746.058 4.429.058 4.429 2.984.593 6.217-4.835 6.93-8.427l-6.988 3.998z"/><path fill="#FFE1BD" d="M37.793 6.363L23.889 8.29c-2.246 2.689-1.441 4.509-1.758 5.8-.141.574-1.522 1.398-2.254 1.828-1.633.961.491 2.421 1.395 2.41.292 1.406-1.482 1.831 2.527 1.844 0 0-4.308.904-1.638 2.23-.593 1.504-1.46 4.418 7.269 2.957 2.596-.434 4.318-4.5 4.318-4.5l4.213.098-.168-14.594z"/><path fill="#664E27" d="M25.363 14.766c-.162.815-.759 1.389-1.332 1.273-.573-.114-.605-.81-.443-1.627.162-.815.457-1.446 1.031-1.332.572.114.906.868.744 1.686zM25.182 20.136s-1.834.872-2.436 1.034c-1.277.352-1.4-.052-.636-.443.616-.316 1.688-.555 1.688-.555l1.384-.036z"/><path fill="#FFCE31" d="M56.969 3.082c4.628 2.399 6.381 7.998 3.914 12.518-2.467 4.521-8.215 6.234-12.84 3.839-4.628-2.396-6.383-7.999-3.915-12.514 2.467-4.523 8.217-6.24 12.841-3.843z"/><path fill="#F2B200" d="M59.426 4.922c-4.946.563-8.282 2.432-9.582 3.285a6.449 6.449 0 0 1-.724-1.687c.671-.69 2.892-2.651 7.238-3.716a9.55 9.55 0 0 0-2.72-.73c-2.308.85-3.858 1.902-4.792 2.689-.03-.625.024-1.332.128-2.086a9.538 9.538 0 0 0-1.589.801c-.373 5.574 3.186 7.72 4.454 8.299a5.73 5.73 0 0 1-.15 1.956c-1.397-.629-4.772-2.489-7.601-6.723a9.037 9.037 0 0 0-.682 1.626c2.944 4.039 6.287 5.843 7.75 6.477-.257.475-.619.96-1.088 1.434-.95-.237-3.852-1.209-7.021-4.561.072.915.284 1.817.628 2.67 1.993 1.707 3.792 2.578 4.996 3.006a11.2 11.2 0 0 1-1.906.967c.397.295.817.574 1.276.81.088.044.176.077.261.12 5.027-2.473 5.114-6.604 4.986-7.983a5.728 5.728 0 0 1 1.715-.831c.041 1.579-.105 5.377-2.005 9.752a9.55 9.55 0 0 0 1.725-.247c1.759-4.457 1.827-8.231 1.757-9.757a6.541 6.541 0 0 1 1.844.218c.268.929.86 3.837-.401 8.135a9.302 9.302 0 0 0 1.974-1.796c.464-2.516.324-4.463.1-5.691.604.307 1.235.709 1.893 1.23a9.248 9.248 0 0 0 .093-1.755c-4.732-3.236-8.438-1.216-9.593-.407a5.672 5.672 0 0 1-1.592-1.071c1.339-.841 4.762-2.649 9.736-3.036a9.135 9.135 0 0 0-1.108-1.398z"/><ellipse transform="rotate(-1.985 26.36 36.61)" fill="#E6B796" cx="26.374" cy="36.677" rx="1.108" ry="1.485"/><ellipse transform="rotate(-1.985 33.523 35.164)" fill="#E6B796" cx="33.537" cy="35.19" rx="1.109" ry="1.487"/><path fill="#ED4C5C" d="M23.295 9.178s11.606.514 12.088 14.26c0 0 7.429-2.041 7.118-11.047-.316-9.006-12.491-14.643-19.206-3.213z"/><path opacity=".5" fill="#3E4347" d="M42.167 10.18c-2.889 1.684-3.778 4.92-3.778 4.92-1.425-1.32-2.476-1.205-2.476-1.205-1.037.782-1.3 2.756-1.266 4.728.406 1.394.67 2.984.735 4.815 0 0 7.429-2.041 7.118-11.047a10.009 10.009 0 0 0-.333-2.211z"/><path fill="#ED4C5C" d="M37.942 16.594a2.965 2.965 0 0 1-2.866 3.057 2.96 2.96 0 0 1-3.073-2.85c-.059-1.631 1.226-2.999 2.869-3.058a2.964 2.964 0 0 1 3.07 2.851z"/><g fill="#3E4347"><circle cx="33.931" cy="15.256" r=".492"/><circle cx="35.91" cy="15.186" r=".493"/><path d="M34.016 17.716a.499.499 0 0 0-.479.51c.013.272.24.485.514.476a.493.493 0 1 0-.035-.986z"/><circle cx="36.013" cy="18.14" r=".493"/><circle cx="32.991" cy="16.767" r=".493"/><circle cx="34.972" cy="16.697" r=".492"/><circle cx="36.951" cy="16.629" r=".492"/></g><g><path fill="#75D6FF" d="M57.715 51.683c-2.369 0-2.719-1.206-4.285-1.206s-1.92 1.206-4.287 1.206-2.719-1.206-4.285-1.206-1.918 1.206-4.285 1.206c-2.369 0-2.721-1.206-4.287-1.206S34.367 51.683 32 51.683s-2.721-1.206-4.287-1.206c-1.566.001-1.916 1.206-4.283 1.206s-2.721-1.206-4.287-1.206-1.918 1.206-4.285 1.206-2.719-1.206-4.285-1.206-1.918 1.206-4.287 1.206C3.92 51.683 2 50.477 2 50.477V62h60V50.477s-1.918 1.206-4.285 1.206z"/><g fill="#42ADE2"><path d="M23.766 59.977c-6.818.68-11.443-3.522-18.459-1.148 5.404-.254 13.593 3.009 18.459 1.148-1.489.147 0 0 0 0zM35.408 55.412c-6.803.669-11.482-3.598-18.459-1.147 5.424-.289 13.584 3.033 18.459 1.147-1.402.138 0 0 0 0zM47.051 59.977c-6.816.684-11.447-3.532-18.459-1.148 5.383-.252 13.623 3.019 18.459 1.148-1.488.149 0 0 0 0zM58.693 55.412c-6.805.666-11.477-3.584-18.461-1.147 5.44-.29 13.569 3.028 18.461 1.147-1.402.137 0 0 0 0z"/></g></g></svg>