<svg xmlns="http://www.w3.org/2000/svg" width="64" height="64" viewBox="0 0 64 64"><path fill="#D6A57C" d="M33.505 17.984l-3.131-1.752v10.752h6.942z"/><path fill="#B58360" d="M38.178 22.928c-2.045 1.26-.861 4.056-.861 4.056-2.848 0-4.827-5.572-4.827-9l5.688 4.944z"/><path fill="#D6A57C" d="M31.417 3.936l12.418 4.303c1.572 2.88.502 4.402.557 5.647.023.553 1.143 1.562 1.736 2.089 1.324 1.181-.893 2.133-1.721 1.96-.525 1.236 1.027 1.95-2.658 1.231 0 0 3.791 1.616 1.1 2.347.27 1.489.533 4.322-7.215 1.39-2.305-.871-3.145-4.919-3.145-4.919l-3.887-.679 2.815-13.369z"/><path fill="#594640" d="M40.225 2.884C32.068.169 27.619 4.399 26.844 6.278c-2.065 4.998-.291 10.567 3.53 14.755 0 0 1.792-.758 2.116-3.049 0 0-2.022.909-2.918-3.375-.76-3.641 3.099-5.508 5.012-.55h.521c1.077-2.469-.882-5.598 2.001-6.559 2.541-.848 7.051 1.387 7.051 1.387.808-1.575-.6-4.892-3.932-6.003z"/><path fill="#664E27" d="M41.301 13.917c0 .779.443 1.412.99 1.412s.705-.633.705-1.412-.158-1.412-.705-1.412-.99.632-.99 1.412z"/><path fill="#B58360" d="M33.487 14.913c0-1.523-1.269-2.829-2.537-2.829 0 0 2.181 1.794 1.623 4.236.001 0 .914-.352.914-1.407z"/><path fill="#664E27" d="M40.488 18.88s1.525 1.136 2.049 1.395c1.107.555 1.295.208.664-.292-.508-.402-1.451-.816-1.451-.816l-1.262-.287z"/><path fill="#D6A57C" d="M25.143 22.922l-2.563-5.955-3.544 1.512 2.886 6.713c.36.965 3.949 2.115 3.949 2.115l1.867-.908v-2.445l-2.595-1.032z"/><path fill="#3E4347" d="M17.893 58.623l.889-4.091c-.896-.774-1.199-.789-1.217-.798a1.327 1.327 0 0 0-1.744.597L12 61.792c1.427.682 4.336-.292 5.893-3.169zM31.642 54.926l1.489-3.822c-.972-.686-3.269-1.699-3.269-1.699L25.825 58.2c1.494.541 4.379-.392 5.817-3.274z"/><g fill="#D6A57C"><path d="M18.782 54.532l-.889 4.091s4.881-1.473 8.256-2.023c3.397-.555 6.154-7.499 6.154-7.499l-5.759-1.195s-1.308 4.693-2.271 4.672c-1.86-.039-3.916 2.292-5.491 1.954zM31.642 54.926l1.489-3.822c1.414.383 2.043-.331 3.471.358 1.498.722.449-2.28.449-2.28l6.111-.806s-.441 10.329-5.646 8.286c-3.188-1.252-5.874-1.736-5.874-1.736z"/></g><path fill="#B5DE24" d="M15.959 8.777c-3.079 1.753-4.132 5.634-2.356 8.673 1.778 3.039 5.711 4.076 8.787 2.322 3.075-1.752 4.132-5.633 2.354-8.671-1.776-3.04-5.709-4.078-8.785-2.324z"/><path fill="#C94747" d="M38.443 26.5l4.332 1.61-.513 4.068-5.116-1.67z"/><path fill="#D6A57C" d="M51.723 38.768c-1.082-2.514-1.289-3.104-2.518-2.764 0 0-2.75-5.552-3.502-6.253-.828-.773-2.928-1.641-2.928-1.641l-.514 4.068.754.246 2.664 5.053c-.938.931.066 2.811 1.123 2.88 1.624 3.743 6.391 1.827 4.921-1.589z"/><path fill="#ED4C5C" d="M42.68 40.718s-2.643-9.788-3.748-13.62c-.918-3.182-8.894-2.352-9.128-2.326l-2.064-.818a4.217 4.217 0 0 1-1.867 3.354s3.665 1.441 3.741 1.461l-.502 11.95-3.614 6.973 7.064 1.464c.361-.729.712-1.433 1.048-2.077.654-1.25 1.893-1.075 2.367.324.221.635.426 1.242.617 1.841l6.828-.904-.742-7.622z"/><path fill="#FFCE31" d="M25.497 47.69l1.077.224 1.731-2.324v2.682l1.051.218v-6.077zM41.67 48.569l1.088-.143.478-1.997-.302-3.112zM35.637 29.194l-1.869-4.482a18.886 18.886 0 0 0-1.161-.051l.676 1.621-2.304-1.594a23.81 23.81 0 0 0-1.176.084l-1.322-.525 7.156 4.947zM39.125 27.78c-.066-.24-.135-.473-.193-.682a2.141 2.141 0 0 0-.586-.941l-1.266 3.037 2.045-1.414zM36.535 26.721l.742-1.266c-.662-.299-1.447-.492-2.266-.613l1.524 1.879z"/><path fill="#3E4347" d="M25.854 49.579a7.387 7.387 0 0 1-2.404 2.69c.361 4.027 2.619 4.514 2.619 4.514 1.69 0 3.355-1.142 3.787-2.705-.295-1.164-1.434-3.015-4.002-4.499zM37.283 51.038a1.59 1.59 0 0 1-.402.342c-.428 4.169.529 5.531.529 5.531 3.387 1.064 4.68-2.322 4.68-2.322-.838-2.31-3.135-3.551-4.807-3.551z"/><path fill="#ED4C5C" d="M16.153 8.678c.336.383.824.852 1.525 1.443 2.708 2.287 3.099 1.799 3.593 1.205.494-.592.901-1.066-1.804-3.352-.016-.015-.031-.026-.047-.039a6.45 6.45 0 0 0-3.267.743zM16.861 20.196c.188-.496.372-1.215.556-2.264.613-3.506-.002-3.602-.76-3.736s-1.369-.252-1.983 3.25c-.078.447-.135.836-.178 1.18a6.429 6.429 0 0 0 2.365 1.57zM25.575 13.694c-.468.109-1.051.287-1.797.561-3.322 1.217-3.098 1.803-2.834 2.529.262.729.467 1.32 3.787.104l.358-.135a6.304 6.304 0 0 0 .486-3.059z"/><g><path fill="#42ADE2" d="M25.577 13.766c-.002-.023 0-.049-.002-.072-.092.02-.189.047-.288.072h.29z"/></g><path fill="#E8E8E8" d="M36.193 37.45c-5.398 0-5.398-4.762 0-4.762 5.401 0 5.401 4.762 0 4.762z"/></svg>