<svg xmlns="http://www.w3.org/2000/svg" width="64" height="64" viewBox="0 0 64 64"><path fill="#FED0AC" d="M33.504 17.983l-3.131-1.752v10.752h6.942z"/><path fill="#E0A372" d="M38.177 22.928c-2.045 1.26-.861 4.056-.861 4.056-2.847 0-4.826-5.572-4.826-9l5.687 4.944z"/><path fill="#FED0AC" d="M31.418 3.936l12.417 4.303c1.572 2.88.502 4.402.557 5.647.023.553 1.143 1.562 1.736 2.089 1.324 1.181-.893 2.133-1.721 1.96-.524 1.236 1.027 1.95-2.657 1.231 0 0 3.791 1.616 1.099 2.347.27 1.489.534 4.322-7.215 1.39-2.304-.871-3.145-4.919-3.145-4.919l-3.886-.679 2.815-13.369z"/><path fill="#DBB471" d="M40.224 2.884C32.069.169 27.62 4.399 26.843 6.278c-2.065 4.998-.291 10.567 3.53 14.755 0 0 1.792-.758 2.116-3.049 0 0-2.022.909-2.917-3.375-.76-3.641 3.098-5.508 5.012-.55h.52c1.077-2.469-.882-5.598 2.001-6.559 2.541-.848 7.051 1.387 7.051 1.387.809-1.575-.6-4.893-3.932-6.003z"/><path fill="#664E27" d="M41.3 13.916c0 .779.443 1.412.99 1.412.548 0 .705-.633.705-1.412s-.157-1.412-.705-1.412c-.547 0-.99.633-.99 1.412z"/><path fill="#E0A372" d="M33.486 14.912c0-1.523-1.269-2.829-2.536-2.829 0 0 2.181 1.794 1.624 4.236 0 0 .912-.351.912-1.407z"/><path fill="#664E27" d="M40.487 18.88s1.525 1.136 2.049 1.395c1.108.555 1.295.208.664-.292-.508-.402-1.45-.816-1.45-.816l-1.263-.287z"/><path fill="#FED0AC" d="M25.143 22.922l-2.563-5.955-3.543 1.512 2.885 6.713c.361.965 3.949 2.115 3.949 2.115l1.867-.908v-2.445l-2.595-1.032z"/><path fill="#3E4347" d="M17.893 58.622l.889-4.091c-.896-.774-1.199-.789-1.217-.798a1.327 1.327 0 0 0-1.744.597L12 61.791c1.428.682 4.336-.292 5.893-3.169zM31.643 54.925l1.487-3.822c-.972-.686-3.269-1.699-3.269-1.699L25.824 58.2c1.494.54 4.379-.393 5.819-3.275z"/><g fill="#FED0AC"><path d="M18.781 54.531l-.889 4.091s4.881-1.473 8.256-2.023c3.398-.555 6.154-7.499 6.154-7.499l-5.758-1.195s-1.309 4.693-2.271 4.672c-1.861-.039-3.916 2.292-5.492 1.954zM31.643 54.925l1.487-3.822c1.414.383 2.043-.331 3.472.358 1.498.722.449-2.28.449-2.28l6.11-.806s-.44 10.329-5.646 8.286c-3.188-1.252-5.872-1.736-5.872-1.736z"/></g><path fill="#B5DE24" d="M15.959 8.776c-3.078 1.753-4.131 5.634-2.355 8.673 1.777 3.039 5.711 4.076 8.787 2.322 3.074-1.752 4.131-5.633 2.354-8.671-1.776-3.039-5.71-4.078-8.786-2.324z"/><path fill="#C94747" d="M38.443 26.5l4.331 1.609-.512 4.069-5.116-1.67z"/><path fill="#FED0AC" d="M51.722 38.767c-1.082-2.514-1.288-3.104-2.518-2.764 0 0-2.749-5.552-3.501-6.253-.828-.773-2.929-1.641-2.929-1.641l-.513 4.068.753.246 2.665 5.053c-.938.931.066 2.811 1.122 2.88 1.625 3.743 6.392 1.827 4.921-1.589z"/><path fill="#ED4C5C" d="M42.68 40.717s-2.644-9.787-3.748-13.619c-.918-3.182-8.895-2.352-9.129-2.326l-2.064-.818a4.217 4.217 0 0 1-1.867 3.354s3.666 1.441 3.742 1.461l-.502 11.949-3.615 6.973 7.064 1.464c.361-.729.713-1.433 1.049-2.077.654-1.25 1.893-1.075 2.366.324.222.635.426 1.242.618 1.841l6.828-.904-.742-7.622z"/><path fill="#FFCE31" d="M25.496 47.689l1.078.224 1.731-2.324v2.682l1.05.218v-6.077zM41.67 48.568l1.088-.143.478-1.997-.302-3.112zM35.637 29.193l-1.869-4.482a18.889 18.889 0 0 0-1.16-.051l.675 1.621-2.304-1.594c-.664.033-1.121.078-1.176.084l-1.322-.525 7.156 4.947zM39.125 27.779c-.067-.24-.135-.473-.193-.682a2.15 2.15 0 0 0-.586-.941l-1.267 3.037 2.046-1.414zM36.535 26.721l.742-1.266c-.662-.299-1.447-.492-2.266-.613l1.524 1.879z"/><path fill="#3E4347" d="M25.854 49.578a7.387 7.387 0 0 1-2.404 2.69c.361 4.027 2.619 4.514 2.619 4.514 1.691 0 3.355-1.142 3.787-2.705-.295-1.164-1.434-3.014-4.002-4.499zM37.283 51.037c-.114.135-.25.251-.402.342-.428 4.169.529 5.531.529 5.531 3.386 1.064 4.679-2.322 4.679-2.322-.837-2.31-3.134-3.551-4.806-3.551z"/><path fill="#ED4C5C" d="M16.152 8.678c.336.383.824.852 1.525 1.443 2.709 2.287 3.1 1.799 3.594 1.205.494-.592.9-1.066-1.805-3.352-.016-.015-.031-.026-.047-.039a6.452 6.452 0 0 0-3.267.743zM16.861 20.195c.188-.496.371-1.215.555-2.264.613-3.506-.002-3.602-.76-3.736s-1.369-.252-1.982 3.25c-.078.447-.136.836-.178 1.18a6.429 6.429 0 0 0 2.365 1.57zM25.574 13.693a15.65 15.65 0 0 0-1.797.561c-3.322 1.217-3.098 1.803-2.834 2.529.262.729.467 1.32 3.787.104l.359-.135a6.291 6.291 0 0 0 .485-3.059z"/><g><path fill="#42ADE2" d="M25.576 13.766c-.002-.023 0-.049-.002-.072-.092.02-.189.047-.287.072h.289z"/></g><path fill="#E8E8E8" d="M36.193 37.449c-5.398 0-5.398-4.762 0-4.762 5.401.001 5.401 4.762 0 4.762z"/></svg>