<svg xmlns="http://www.w3.org/2000/svg" width="64" height="64" viewBox="0 0 64 64"><path fill="#FFDD67" d="M33.504 17.984l-3.13-1.752v10.752h6.941z"/><path fill="#EBA352" d="M38.177 22.928c-2.045 1.26-.861 4.056-.861 4.056-2.848 0-4.826-5.572-4.826-9l5.687 4.944z"/><path fill="#FFDD67" d="M31.417 3.936l12.417 4.303c1.573 2.88.502 4.402.557 5.647.024.553 1.144 1.562 1.737 2.089 1.323 1.181-.893 2.133-1.722 1.96-.524 1.236 1.028 1.95-2.657 1.231 0 0 3.791 1.616 1.099 2.347.271 1.489.534 4.322-7.214 1.39-2.305-.871-3.144-4.919-3.144-4.919l-3.887-.679 2.814-13.369z"/><path fill="#FFB300" d="M40.223 2.884C32.068.169 27.619 4.399 26.844 6.278c-2.065 4.998-.291 10.567 3.53 14.755 0 0 1.792-.758 2.116-3.049 0 0-2.022.909-2.918-3.375-.76-3.641 3.099-5.508 5.011-.55h.521c1.077-2.469-.882-5.598 2.001-6.559 2.541-.848 7.051 1.387 7.051 1.387.808-1.575-.601-4.892-3.933-6.003z"/><path fill="#937237" d="M41.3 13.917c0 .779.443 1.412.99 1.412s.704-.633.704-1.412-.157-1.412-.704-1.412-.99.632-.99 1.412z"/><path fill="#EBA352" d="M33.486 14.913c0-1.523-1.268-2.829-2.536-2.829 0 0 2.18 1.794 1.623 4.236.001 0 .913-.352.913-1.407z"/><path fill="#937237" d="M40.487 18.88s1.525 1.136 2.048 1.395c1.108.555 1.296.208.664-.292-.507-.402-1.45-.816-1.45-.816l-1.262-.287z"/><path fill="#FFDD67" d="M25.143 22.922l-2.563-5.955-3.544 1.512 2.886 6.713c.36.965 3.949 2.115 3.949 2.115l1.867-.908v-2.445l-2.595-1.032z"/><path fill="#3E4347" d="M17.893 58.623l.889-4.091c-.896-.774-1.199-.789-1.217-.798a1.327 1.327 0 0 0-1.744.597L12 61.792c1.428.682 4.336-.292 5.893-3.169zM31.642 54.926l1.488-3.822c-.971-.686-3.268-1.699-3.268-1.699L25.825 58.2c1.494.541 4.379-.392 5.817-3.274z"/><g fill="#FFDD67"><path d="M18.782 54.532l-.889 4.091s4.881-1.473 8.256-2.023c3.397-.555 6.154-7.499 6.154-7.499l-5.759-1.195s-1.308 4.693-2.271 4.672c-1.86-.039-3.916 2.292-5.491 1.954zM31.642 54.926l1.488-3.822c1.414.383 2.043-.331 3.471.358 1.498.722.449-2.28.449-2.28l6.111-.806s-.441 10.329-5.646 8.286c-3.188-1.252-5.873-1.736-5.873-1.736z"/></g><path fill="#B5DE24" d="M15.959 8.777c-3.079 1.753-4.131 5.634-2.356 8.673 1.778 3.039 5.71 4.076 8.787 2.322 3.075-1.752 4.132-5.633 2.354-8.671-1.776-3.04-5.709-4.078-8.785-2.324z"/><path fill="#C94747" d="M38.442 26.5l4.332 1.61-.513 4.068-5.115-1.67z"/><path fill="#FFDD67" d="M51.722 38.768c-1.082-2.514-1.289-3.104-2.518-2.764 0 0-2.75-5.552-3.502-6.253-.828-.773-2.928-1.641-2.928-1.641l-.514 4.068.754.246 2.664 5.053c-.938.931.066 2.811 1.123 2.88 1.624 3.743 6.391 1.827 4.921-1.589z"/><path fill="#ED4C5C" d="M42.679 40.718s-2.643-9.788-3.748-13.62c-.918-3.182-8.893-2.352-9.127-2.326l-2.064-.818a4.217 4.217 0 0 1-1.867 3.354s3.665 1.441 3.741 1.461l-.502 11.95-3.614 6.973 7.064 1.464c.361-.729.711-1.433 1.047-2.077.654-1.25 1.893-1.075 2.367.324.221.635.426 1.242.617 1.841l6.828-.904-.742-7.622z"/><path fill="#FFCE31" d="M25.497 47.69l1.077.224 1.731-2.324v2.682l1.051.218v-6.077zM41.669 48.569l1.088-.143.478-1.997-.302-3.112zM35.636 29.194l-1.869-4.482a18.854 18.854 0 0 0-1.16-.051l.675 1.621-2.303-1.594a23.81 23.81 0 0 0-1.176.084l-1.322-.525 7.155 4.947zM39.124 27.78c-.066-.24-.135-.473-.193-.682a2.141 2.141 0 0 0-.586-.941l-1.266 3.037 2.045-1.414zM36.534 26.721l.742-1.266c-.662-.299-1.447-.492-2.266-.613l1.524 1.879z"/><path fill="#3E4347" d="M25.854 49.579a7.387 7.387 0 0 1-2.404 2.69c.361 4.027 2.619 4.514 2.619 4.514 1.69 0 3.355-1.142 3.787-2.705-.295-1.164-1.434-3.015-4.002-4.499zM37.282 51.038a1.59 1.59 0 0 1-.402.342c-.428 4.169.529 5.531.529 5.531 3.387 1.064 4.68-2.322 4.68-2.322-.838-2.31-3.135-3.551-4.807-3.551z"/><path fill="#ED4C5C" d="M16.153 8.678c.336.383.824.852 1.525 1.443 2.708 2.287 3.099 1.799 3.593 1.205.494-.592.901-1.066-1.804-3.352-.016-.015-.031-.026-.047-.039a6.45 6.45 0 0 0-3.267.743zM16.861 20.196c.188-.496.372-1.215.556-2.264.613-3.506-.002-3.602-.76-3.736s-1.369-.252-1.983 3.25c-.078.447-.136.836-.178 1.18a6.429 6.429 0 0 0 2.365 1.57zM25.575 13.694c-.468.109-1.051.287-1.797.561-3.322 1.217-3.098 1.803-2.834 2.529.262.729.467 1.32 3.787.104l.358-.135a6.304 6.304 0 0 0 .486-3.059z"/><g><path fill="#42ADE2" d="M25.577 13.766c-.002-.023 0-.049-.002-.072-.092.02-.189.047-.288.072h.29z"/></g><path fill="#E8E8E8" d="M36.192 37.45c-5.397 0-5.397-4.762 0-4.762 5.401 0 5.401 4.762 0 4.762z"/></svg>