<svg xmlns="http://www.w3.org/2000/svg" width="64" height="64" viewBox="0 0 64 64"><path fill="#FFB300" d="M8.326 38.322h47.346c0-25.493-3.631-30.961-23.668-30.961-20.035 0-23.678 5.468-23.678 30.961z"/><path fill="#FFDD67" d="M53.68 32.747c-.156.996-.352 1.925-.645 2.44-.506.947-1.541 1.484-1.541 1.484s.283-1.912.176-4.579c-1.074-15.778-2.021-11.443-19.666-11.443-17.644 0-18.58-4.325-19.664 11.414-.107 2.687.176 4.608.176 4.608s-1.035-.537-1.553-1.484c-.283-.516-.488-1.444-.635-2.44-1.67-.43-3.817-.068-3.817 4.667 0 2.949 1.094 5.361 4.794 5.625 1.221 9.266 6.61 14.051 15.681 18.111 2.48 1.133 7.558 1.133 10.038 0 9.061-4.061 14.461-8.846 15.682-18.111 3.689-.264 4.803-2.676 4.803-5.625-.001-4.735-2.169-5.097-3.829-4.667z"/><path fill="#937237" d="M40.197 50.859c0 3.424-4.092 5.141-8.193 5.141s-8.191-1.717-8.191-5.141c0 0 0-.859.82-.859h14.744c.82 0 .82.859.82.859z"/><path fill="#F5F5F5" d="M21.078 31.547c-4.55 0-6.376 1.649-6.376 3.291 0 1.639 0 4.002 6.015 4.002 5.819 0 6.737-.723 6.737-3.184 0-1.638-1.825-4.109-6.376-4.109z"/><path fill="#664E27" d="M25.629 34.34c0 2.264-1.836 4.1-4.092 4.1a4.1 4.1 0 0 1-4.101-4.1 4.096 4.096 0 1 1 8.193 0z"/><path fill="#231F20" d="M22.895 34.34c0 .76-.605 1.365-1.357 1.365a1.358 1.358 0 0 1-1.367-1.365c0-.753.605-1.368 1.367-1.368.751 0 1.357.615 1.357 1.368z"/><path fill="#664E27" d="M14.702 34.799c0-6.377 12.752-6.377 12.752.906-1.825-5.457-10.926-5.457-12.752-.906z"/><path fill="#F5F5F5" d="M42.93 31.547c4.551 0 6.377 1.649 6.377 3.291 0 1.639 0 4.002-6.025 4.002-5.818 0-6.727-.723-6.727-3.184 0-1.638 1.826-4.109 6.375-4.109z"/><path fill="#664E27" d="M38.381 34.34c0 2.264 1.836 4.1 4.09 4.1a4.1 4.1 0 0 0 4.102-4.1 4.096 4.096 0 1 0-8.192 0z"/><path fill="#231F20" d="M41.104 34.34c0 .76.625 1.365 1.367 1.365.762 0 1.367-.605 1.367-1.365 0-.753-.605-1.368-1.367-1.368-.742 0-1.367.615-1.367 1.368z"/><path fill="#664E27" d="M49.307 34.799c0-6.377-12.752-6.377-12.752.906 1.826-5.457 10.925-5.457 12.752-.906z"/><path fill="#EBA352" d="M32.004 47c-3.344 0-5.016-3-3.344-3h6.688c1.673 0 0 3-3.344 3z"/><g><g fill="#D9A000"><path d="M22 8l-4-4-4 4h2v4h6zM50.039 8L46 4l-4 4v4h6V8z"/></g><path fill="#9450E0" d="M54.004 16h-44c0-13.333 44-13.333 44 0z"/><path fill="#7E44BF" d="M48 16H12c0-10.667 36-10.667 36 0z"/><path fill="#D9A000" d="M8 20h48v6H8z"/><path fill="#FFCE31" d="M50 10l2 2v2H36v-2l2-2-5.996-8L26 10l2 2v2H12v-2l2-2-8-6.096L8 24h48l2-20.096z"/><path fill="#66CAF2" d="M32.027 22v-3.063H34z"/><path fill="#428BC1" d="M32.027 22L30 18.937h2.027zM34 18.937h-1.973V16z"/><path fill="#66CAF2" d="M32.027 16v2.937H30zM14.777 22v-3.063h1.969z"/><path fill="#428BC1" d="M14.777 22l-2.031-3.063h2.031zM16.746 18.937h-1.969V16z"/><path fill="#66CAF2" d="M14.777 16v2.937h-2.031z"/><g><path fill="#66CAF2" d="M23.419 22v-3.063h1.964z"/><path fill="#428BC1" d="M23.419 22l-2.036-3.063h2.036zM25.383 18.937h-1.964V16z"/><path fill="#66CAF2" d="M23.419 16v2.937h-2.036z"/></g><g><path fill="#66CAF2" d="M40.691 22v-3.063h1.965z"/><path fill="#428BC1" d="M40.691 22l-2.035-3.063h2.035zM42.656 18.937h-1.965V16z"/><path fill="#66CAF2" d="M40.691 16v2.937h-2.035z"/></g><g><path fill="#66CAF2" d="M49.324 22v-3.063h1.973z"/><path fill="#428BC1" d="M49.324 22l-2.027-3.063h2.027zM51.297 18.937h-1.973V16z"/><path fill="#66CAF2" d="M49.324 16v2.937h-2.027z"/></g><g><path fill="#428BC1" d="M8 22l-2-3.063h2z"/><path fill="#66CAF2" d="M8 16v2.937H6z"/></g><g><path fill="#66CAF2" d="M56 22v-3.063h2z"/><path fill="#428BC1" d="M58 18.937h-2V16z"/></g></g></svg>