<svg xmlns="http://www.w3.org/2000/svg" width="64" height="64" viewBox="0 0 64 64"><ellipse fill="#D93D3D" cx="31.917" cy="12.986" rx="19.717" ry="10.987"/><ellipse fill="#E2E9ED" cx="31.86" cy="16.799" rx="24.005" ry="10.987"/><path fill="#FF4848" d="M61.835 62H2c0-11.796 13.395-12.917 29.917-12.917 16.521 0 29.918 1.121 29.918 12.917z"/><path fill="#FFF" d="M51.677 50.707c0 1.358-3.707 1.359-4.868 2.504-.903.89-.091 4.609-1.544 5.295-1.198.566-3.778-2.32-5.27-1.933-1.319.343-2.077 4.142-3.568 4.318-1.377.162-3.027-3.342-4.51-3.342-1.48 0-3.131 3.504-4.508 3.342-1.493-.177-2.25-3.976-3.57-4.318-1.49-.389-4.074 2.498-5.273 1.931-1.452-.686-.639-4.404-1.542-5.294-1.16-1.144-4.867-1.145-4.867-2.503 0-1.359 39.52-1.358 39.52 0z"/><path fill="#B47D56" d="M54.312 25.913c-13.843-13.868-31.1-13.931-44.918 0l.085 15.393c0 6.702 6.569 14.047 22.805 14.047 15.378 0 22.043-6.004 22.043-14.047l-.015-15.393z"/><path fill="#454749" d="M38.323 46.233a.808.808 0 0 1 .188.543c.002 1.504-2.978 3.349-6.65 3.349-3.674 0-6.652-1.832-6.652-3.336 0-.203.058-.415.158-.556 0 0 2.875 1.297 6.494 1.297 3.61 0 6.462-1.297 6.462-1.297z"/><path fill="#8B9FA5" d="M31.911 8.323C4.979 8.323.322 29.53 9.534 36.812c0 0 4.616-7.811 14.303-11.559 3.188-1.234 5.857-2.427 8.074-3.568 2.217 1.142 4.887 2.334 8.074 3.568 9.687 3.748 14.317 11.559 14.317 11.559 9.215-7.282 4.541-28.489-22.391-28.489z"/><path fill="#454749" d="M41.517 48.578c-.512.003-.997-.135-1.455-.328a5.067 5.067 0 0 1-1.269-.783c-.754-.646-1.378-1.566-1.414-2.596.688.736 1.292 1.339 1.985 1.918.68.59 1.403 1.119 2.153 1.789zM22.202 48.578c.748-.67 1.471-1.199 2.15-1.789.693-.579 1.298-1.182 1.987-1.918-.038 1.029-.66 1.949-1.413 2.596-.389.32-.813.592-1.271.783-.456.193-.941.331-1.453.328zM19.282 36.666l-.297-2.651c.689-.077 1.652-.264 2.767-.479 5.216-1.012 13.946-2.703 23.381.543l-.864 2.523c-8.762-3.015-17.057-1.408-22.012-.447-1.17.226-2.18.421-2.975.511z"/><ellipse fill="#454749" cx="21.017" cy="35.42" rx="7.958" ry="8.003"/><ellipse fill="#B4D7EE" cx="21.018" cy="35.42" rx="5.47" ry="5.5"/><ellipse fill="#454749" cx="42.816" cy="35.42" rx="7.959" ry="8.003"/><g><ellipse fill="#B4D7EE" cx="42.816" cy="35.42" rx="5.47" ry="5.5"/></g><g><path fill="#FF4848" d="M59.978 26.086c0 13.301.729-6.818-28.068-6.818-28.798 0-28.07 20.119-28.07 6.818C3.839 12.781 16.408 7 31.909 7c15.5 0 28.069 5.781 28.069 19.086z"/></g><path fill="#FFF" d="M6.792 33.578s-5.978-2.39-4.345-6.208c.633-1.482 4.311-1.101 5.684-2.005 1.739-1.145 3.56-5.567 5.579-6.149 1.159-.334 3.285 1.892 4.485 1.75 1.871-.22 4.249-3.936 6.103-4.266 2.32-.414 6.762 2.523 9.114 2.353 1.993-.146 5.343-3.316 7.327-3.089 2.152.246 4.877 4.314 6.904 5.05 1.875.68 6.49-.73 7.994.546.979.831.292 3.886 1.018 4.93.893 1.285 5.345 1.886 5.345 3.433 0 3.565-5.175 4.029-5.175 4.029s.874-2.614.509-3.108c-.847-1.146-4.616-1.206-5.25-2.475-.579-1.16 1.045-3.188.118-4.115-1.375-1.375-4.828.906-6.756.465-1.735-.396-3.917-4.01-5.695-4.142-1.865-.138-4.727 3.294-6.594 3.415-1.791.115-4.945-2.693-6.72-2.433-1.972.29-4.297 4.672-6.29 4.726-1.635.045-4.292-3.287-5.888-2.942-1.901.41-1.7 4.92-3.387 5.858-1.007.56-3.837-.801-4.649 0-.778.768.569 4.377.569 4.377z"/></svg>