<svg xmlns="http://www.w3.org/2000/svg" width="64" height="64" viewBox="0 0 64 64"><path fill="#E84D88" d="M39.948 27.34l-8.47-.561c0 4.771-10.381 6.979-10.381 10.76 0 2.701 2.522 3.449 2.522 3.449s-7.861 2.957-7.861 11.398c0 6.689 5.321 9.613 11.607 9.613h10.271s.699-2.043-.63-9.146c-2.614-13.976 7.472-11.663 2.942-25.513z"/><path fill="#FED0AC" d="M20.36 46.72l.616-1.425 1.112-.283c2.741 0 3.55 1.742 4.866 1.742v5.718s-1.063 1.036-5.437 1.036c-2.092 0-3.48-1.403-4.139-4.408-.546-2.505 2.982-2.38 2.982-2.38z"/><path fill="#E0A372" d="M22.089 45.012s-1.157.277-1.157 1.012c0 .377 1.431-.056 2.388 1.014-1.389-.691-2.959-.317-2.959-.317-.615-.605-.111-1.709 1.728-1.709z"/><path opacity=".3" fill="#231F20" d="M26.022 46.158c5.763-1.15 11.608-3.094 11.608-3.094l-.943 7.639.172 1.205s-3.539 1.891-10.789 2.484l.021-.636s-5.364.776-7.063-1.212c2.688 1.215 6.996-.184 6.996-.184l-.002-6.202zM35.763 31.508L39.9 38.73l-1.33 2.434z"/><path fill="#E84D88" d="M42.227 27.324s7.673 11.813 6.686 16.682c-1.13 5.568-22.255 8.848-22.255 8.848l-.337-6.392s13.115-3.13 14.774-5.36c-1.113-2.545-5.332-9.594-5.332-9.594l6.464-4.184z"/><g><path fill="#E0A372" d="M28.35 26.303l8.381-14.836.276 15.313c-3.475 1.487-5.528 0-5.528 0-1.047-1.954-3.129-.477-3.129-.477z"/><path fill="#DBB471" d="M40.303 9.064c-3.356-6.748-8.874-6.275-8.874-6.275-6.853-3.082-14.316 3.596-15.717 7.369-2.863 7.723 3.772 10.777 4.669 10.068l14.331-4.455s2.933 2.954 1.59 8.991c-1.315 5.92 4.672 10.339 4.672 10.339s5.895-12.838-.671-26.037z"/><path fill="#FED0AC" d="M17.189 12.401c-.205-2.077 4.094-1.683 6.356.64 4.986 5.129 6.508 3.794 6.508 3.794l.018-.01a5.213 5.213 0 0 1-.64-1.444c-.547-2.031.226-3.936 1.73-4.247 1.502-.313 3.165 1.079 3.713 3.111.496 1.833-.091 3.549-1.313 4.099 1.769 5.476.077 5.562-2.465 7.641-5.608 4.592-6.473 3.371-7.098 1.561-.269-.773-.894-.432-1.551-.52 0 0-.132-.5-.556-1.781-.423-1.28-1.677-1.105-1.295-1.771.38-.668.649-1.076.31-1.484-.141-.162-1.414.367-1.789-.254-.697-1.151 1.09-1.449.845-3.607-.133-1.188-2.345-1.412-2.773-5.728z"/><path fill="#C94747" d="M22.357 24.234c-.365-.029-.723-.07-1.028-.166-.294-.099-.565-.258-.638-.771-.158.144-.244.426-.182.715.069.293.271.549.487.72.209.163.427.272.646.351a1.526 1.526 0 0 0-.032.762c.054.275.182.507.322.699a2.4 2.4 0 0 0 .515.482c-.042-.463-.137-.887-.08-1.172.035-.143.067-.253.141-.383.071-.13.163-.27.26-.418l.501-.752-.912-.067z"/><path fill="#664E27" d="M31.334 12.41c-.353.191-.658.51-.838.916a2.19 2.19 0 0 0-.108 1.322c.077.355.229.689.433.979-.167.025-.319.1-.392.246.246.039.389.146.529.248.139.108.264.22.371.344.11.121.198.248.277.394.079.147.132.33.169.587.208-.112.333-.367.323-.648-.003-.282-.142-.557-.323-.764-.187-.202-.423-.354-.679-.4a1.052 1.052 0 0 0-.157-.014c-.068-.758-.103-1.43.146-1.971.119-.297.321-.555.565-.805.243-.245.533-.467.823-.735a2.384 2.384 0 0 0-1.139.301z"/><path fill="#E0A372" d="M20.945 17.777c-.063-.371-.238-.598-.437-.849-.204-.247-.428-.509-.625-.841-.189-.322-.337-.765-.253-1.166.071-.395.311-.68.598-.848-.07.348-.13.658-.097.93s.136.513.296.779c.143.271.351.552.5.902.159.332.235.809.018 1.093z"/><path fill="#664E27" d="M23.668 14.977c-.296.323-.383.684-.551 1.05a5.409 5.409 0 0 1-.573 1.108c-.249.353-.577.695-1.023.876a1.483 1.483 0 0 1-1.382-.104c.849-.299 1.162-.787 1.608-1.416.22-.307.445-.645.742-.951.279-.292.693-.642 1.179-.563z"/></g></svg>