<svg xmlns="http://www.w3.org/2000/svg" width="64" height="64" viewBox="0 0 64 64"><path fill="#594640" d="M8.326 38.322h47.346c0-25.492-3.631-30.961-23.668-30.961-20.035 0-23.678 5.469-23.678 30.961z"/><path fill="#FFE1BD" d="M53.68 32.748c-.156.996-.352 1.924-.645 2.439-.506.947-1.541 1.484-1.541 1.484s.283-1.912.176-4.578C50.596 16.314 49.648 20.65 32.004 20.65c-17.644 0-18.58-4.326-19.664 11.414-.107 2.686.176 4.607.176 4.607s-1.035-.537-1.553-1.484c-.283-.516-.488-1.443-.635-2.439-1.67-.43-3.817-.068-3.817 4.666 0 2.949 1.094 5.361 4.794 5.625 1.221 9.266 6.61 14.051 15.681 18.111 2.48 1.133 7.557 1.133 10.038 0 9.061-4.061 14.461-8.846 15.682-18.111 3.689-.264 4.803-2.676 4.803-5.625-.001-4.734-2.169-5.096-3.829-4.666z"/><path fill="#664E27" d="M40.197 50.859c0 3.424-4.092 5.141-8.193 5.141-4.1 0-8.192-1.717-8.192-5.141 0 0 0-.859.82-.859h14.745c.82 0 .82.859.82.859z"/><path fill="#F5F5F5" d="M21.078 31.547c-4.549 0-6.375 1.65-6.375 3.291 0 1.639 0 4.002 6.014 4.002 5.82 0 6.738-.723 6.738-3.184 0-1.638-1.827-4.109-6.377-4.109z"/><path fill="#664E27" d="M25.628 34.34c0 2.264-1.836 4.1-4.092 4.1a4.1 4.1 0 0 1-4.1-4.1 4.097 4.097 0 0 1 8.192 0z"/><path fill="#231F20" d="M22.894 34.34c0 .76-.605 1.365-1.357 1.365a1.358 1.358 0 0 1-1.367-1.365 1.362 1.362 0 0 1 2.724 0z"/><path fill="#664E27" d="M14.702 34.799c0-6.377 12.752-6.377 12.752.906-1.826-5.457-10.926-5.457-12.752-.906z"/><path fill="#F5F5F5" d="M42.93 31.547c4.551 0 6.377 1.65 6.377 3.291 0 1.639 0 4.002-6.025 4.002-5.818 0-6.727-.723-6.727-3.184 0-1.638 1.826-4.109 6.375-4.109z"/><path fill="#664E27" d="M38.381 34.34c0 2.264 1.836 4.1 4.09 4.1a4.1 4.1 0 0 0 4.102-4.1 4.097 4.097 0 0 0-8.192 0z"/><path fill="#231F20" d="M41.104 34.34c0 .76.625 1.365 1.367 1.365.762 0 1.367-.605 1.367-1.365 0-.752-.605-1.367-1.367-1.367-.742 0-1.367.615-1.367 1.367z"/><path fill="#664E27" d="M49.307 34.799c0-6.377-12.752-6.377-12.752.906 1.826-5.457 10.925-5.457 12.752-.906z"/><path fill="#E6B796" d="M32.004 47c-3.344 0-5.016-3-3.344-3h6.688c1.673 0 0 3-3.344 3z"/><g><g fill="#D9A000"><path d="M22 8l-4-4-4 4h2v4h6zM50.039 8L46 4l-4 4v4h6V8z"/></g><path fill="#9450E0" d="M54.004 16h-44c0-13.332 44-13.332 44 0z"/><path fill="#7E44BF" d="M48 16H12c0-10.666 36-10.666 36 0z"/><path fill="#D9A000" d="M8 20h48v6H8z"/><path fill="#FFCE31" d="M50 10l2 2v2H36v-2l2-2-5.996-8L26 10l2 2v2H12v-2l2-2-8-6.096L8 24h48l2-20.096z"/><path fill="#66CAF2" d="M32.027 22v-3.062H34z"/><path fill="#428BC1" d="M32.027 22L30 18.938h2.027zM34 18.938h-1.973V16z"/><path fill="#66CAF2" d="M32.027 16v2.938H30zM14.777 22v-3.062h1.969z"/><path fill="#428BC1" d="M14.777 22l-2.031-3.062h2.031zM16.746 18.938h-1.969V16z"/><path fill="#66CAF2" d="M14.777 16v2.938h-2.031z"/><g><path fill="#66CAF2" d="M23.419 22v-3.062h1.963z"/><path fill="#428BC1" d="M23.419 22l-2.037-3.062h2.037zM25.382 18.938h-1.963V16z"/><path fill="#66CAF2" d="M23.419 16v2.938h-2.037z"/></g><g><path fill="#66CAF2" d="M40.691 22v-3.062h1.965z"/><path fill="#428BC1" d="M40.691 22l-2.035-3.062h2.035zM42.656 18.938h-1.965V16z"/><path fill="#66CAF2" d="M40.691 16v2.938h-2.035z"/></g><g><path fill="#66CAF2" d="M49.324 22v-3.062h1.973z"/><path fill="#428BC1" d="M49.324 22l-2.027-3.062h2.027zM51.297 18.938h-1.973V16z"/><path fill="#66CAF2" d="M49.324 16v2.938h-2.027z"/></g><g><path fill="#428BC1" d="M8 22l-2-3.062h2z"/><path fill="#66CAF2" d="M8 16v2.938H6z"/></g><g><path fill="#66CAF2" d="M56 22v-3.062h2z"/><path fill="#428BC1" d="M58 18.938h-2V16z"/></g></g></svg>