<svg xmlns="http://www.w3.org/2000/svg" width="64" height="64" viewBox="0 0 64 64"><path fill="#E84D88" d="M39.949 27.34l-8.471-.561c0 4.771-10.381 6.978-10.381 10.759 0 2.701 2.523 3.449 2.523 3.449s-7.862 2.957-7.862 11.398c0 6.689 5.321 9.613 11.608 9.613h10.27s.699-2.043-.629-9.146c-2.614-13.975 7.472-11.661 2.942-25.512z"/><path fill="#FFE1BD" d="M20.361 46.721l.615-1.426 1.113-.283c2.74 0 3.549 1.742 4.865 1.742v5.719s-1.063 1.035-5.436 1.035c-2.092 0-3.481-1.402-4.139-4.408-.546-2.504 2.982-2.379 2.982-2.379z"/><path fill="#E6B796" d="M22.09 45.012s-1.158.277-1.158 1.012c0 .377 1.432-.055 2.389 1.014-1.389-.691-2.959-.316-2.959-.316-.616-.605-.112-1.71 1.728-1.71z"/><path opacity=".3" fill="#231F20" d="M26.023 46.158c5.762-1.15 11.607-3.094 11.607-3.094l-.943 7.639.172 1.205s-3.539 1.891-10.789 2.484l.021-.635s-5.365.775-7.064-1.213c2.689 1.215 6.996-.184 6.996-.184v-6.202zM35.764 31.508L39.9 38.73l-1.33 2.434z"/><path fill="#E84D88" d="M42.227 27.325s7.674 11.812 6.686 16.681c-1.129 5.568-22.254 8.848-22.254 8.848l-.338-6.391s13.115-3.131 14.775-5.361c-1.113-2.545-5.332-9.593-5.332-9.593l6.463-4.184z"/><g><path fill="#E6B796" d="M28.35 26.303l8.381-14.836.277 15.313c-3.475 1.487-5.529 0-5.529 0-1.047-1.953-3.129-.477-3.129-.477z"/><path fill="#594640" d="M40.303 9.065C36.947 2.317 31.43 2.79 31.43 2.79c-6.854-3.082-14.317 3.596-15.717 7.369-2.863 7.723 3.772 10.777 4.668 10.068l14.332-4.455s2.932 2.954 1.59 8.991c-1.316 5.92 4.672 10.338 4.672 10.338s5.894-12.838-.672-26.036z"/><path fill="#FFE1BD" d="M17.19 12.402c-.205-2.077 4.093-1.683 6.357.64 4.986 5.129 6.508 3.794 6.508 3.794l.018-.01a5.215 5.215 0 0 1-.641-1.444c-.547-2.031.227-3.936 1.73-4.247 1.502-.313 3.166 1.079 3.713 3.111.496 1.833-.09 3.549-1.313 4.099 1.768 5.476.076 5.562-2.465 7.641-5.609 4.592-6.473 3.371-7.098 1.561-.27-.773-.895-.432-1.551-.52 0 0-.133-.5-.557-1.781-.422-1.28-1.676-1.105-1.295-1.771.381-.668.65-1.076.311-1.484-.141-.162-1.414.367-1.789-.254-.698-1.151 1.09-1.449.844-3.607-.132-1.188-2.344-1.413-2.772-5.728z"/><path fill="#C94747" d="M22.357 24.235c-.365-.029-.723-.07-1.027-.166-.295-.099-.566-.258-.639-.771-.158.144-.244.426-.182.715.07.293.271.549.488.72.209.163.426.272.646.351a1.537 1.537 0 0 0-.033.762c.055.275.182.507.322.699.156.186.316.35.516.482-.043-.463-.137-.887-.08-1.172.035-.143.066-.253.141-.383.07-.13.162-.27.26-.418l.5-.752-.912-.067z"/><path fill="#664E27" d="M31.334 12.411c-.352.191-.658.51-.838.916a2.182 2.182 0 0 0-.107 1.322c.076.355.229.689.432.979-.166.025-.318.1-.391.246.246.039.389.146.529.248.139.108.264.22.371.344.109.121.197.248.277.394.078.147.131.33.168.587.209-.112.334-.367.324-.648-.004-.282-.143-.557-.324-.764a1.247 1.247 0 0 0-.678-.4 1.054 1.054 0 0 0-.158-.014c-.068-.758-.102-1.43.146-1.971.119-.297.322-.555.566-.805.242-.245.533-.467.822-.735a2.379 2.379 0 0 0-1.139.301z"/><path fill="#E6B796" d="M20.945 17.778c-.063-.371-.238-.598-.436-.849-.205-.247-.428-.509-.625-.841-.189-.322-.338-.765-.254-1.166.072-.395.311-.68.598-.848-.07.348-.129.658-.096.93s.135.513.295.779c.143.271.352.552.5.902.159.331.235.809.018 1.093z"/><path fill="#664E27" d="M23.668 14.977c-.295.323-.383.684-.551 1.05a5.404 5.404 0 0 1-.572 1.108c-.25.353-.578.695-1.023.876a1.485 1.485 0 0 1-1.383-.104c.85-.299 1.162-.787 1.609-1.416.219-.307.445-.645.742-.951.278-.291.692-.641 1.178-.563z"/></g></svg>