<svg xmlns="http://www.w3.org/2000/svg" width="64" height="64" viewBox="0 0 64 64"><ellipse fill="#D93D3D" cx="31.917" cy="12.986" rx="19.772" ry="10.987"/><ellipse fill="#E2E9ED" cx="31.859" cy="16.799" rx="24.071" ry="10.987"/><path fill="#FF4848" d="M61.917 62h-60c0-11.797 13.432-12.918 30-12.918 16.566 0 30 1.121 30 12.918z"/><path fill="#FFF" d="M51.731 50.707c0 1.357-3.717 1.359-4.881 2.504-.906.889-.092 4.609-1.549 5.295-1.202.566-3.789-2.32-5.283-1.934-1.324.344-2.084 4.143-3.58 4.318-1.381.162-3.035-3.342-4.521-3.342-1.485 0-3.14 3.504-4.521 3.342-1.497-.176-2.257-3.975-3.58-4.318-1.495-.389-4.085 2.498-5.288 1.932-1.456-.686-.641-4.404-1.546-5.295-1.163-1.143-4.88-1.145-4.88-2.502.001-1.359 39.629-1.359 39.629 0z"/><path fill="#FFDD67" d="M54.374 25.913c-13.881-13.868-31.187-13.93-45.043 0l.085 15.392c0 6.703 6.588 14.047 22.868 14.047 15.42 0 22.104-6.004 22.104-14.047l-.014-15.392z"/><path fill="#454749" d="M38.341 46.232a.808.808 0 0 1 .188.543c.002 1.504-2.985 3.35-6.669 3.35s-6.67-1.832-6.67-3.336c0-.203.058-.416.158-.557 0 0 2.883 1.297 6.512 1.297 3.62 0 6.481-1.297 6.481-1.297z"/><path fill="#8B9FA5" d="M31.911 8.323C4.904 8.323.234 29.53 9.472 36.811c0 0 4.629-7.81 14.343-11.558 3.197-1.234 5.874-2.427 8.097-3.569 2.223 1.142 4.899 2.334 8.098 3.569 9.712 3.748 14.355 11.558 14.355 11.558 9.239-7.281 4.552-28.488-22.454-28.488z"/><path fill="#454749" d="M41.544 48.578c-.515.002-1.001-.135-1.459-.328a5.054 5.054 0 0 1-1.273-.783c-.756-.646-1.381-1.566-1.418-2.596.69.736 1.297 1.338 1.991 1.918.682.59 1.407 1.119 2.159 1.789zM22.175 48.578c.75-.67 1.475-1.199 2.157-1.789.694-.58 1.301-1.182 1.992-1.918-.038 1.029-.662 1.949-1.417 2.596a5.12 5.12 0 0 1-1.275.783c-.457.193-.944.33-1.457.328zM19.247 36.666l-.298-2.652c.691-.076 1.657-.264 2.774-.479 5.229-1.012 13.984-2.703 23.445.543l-.865 2.523c-8.787-3.016-17.104-1.408-22.073-.447-1.173.227-2.186.422-2.983.512z"/><ellipse fill="#454749" cx="20.987" cy="35.42" rx="7.98" ry="8.002"/><path fill="#B4D7EE" d="M15.437 35.42c0 .947.236 1.838.652 2.619l3.041-7.861a5.565 5.565 0 0 0-3.693 5.242zM21.771 40.926a5.558 5.558 0 0 0 4.766-5.506 5.55 5.55 0 0 0-1.219-3.479l-3.547 8.985zM22.432 30.048L18.44 40.363a5.508 5.508 0 0 0 1.918.586l3.942-9.99a5.518 5.518 0 0 0-1.868-.911z"/><path fill="#FFF" d="M20.987 29.852a5.53 5.53 0 0 0-1.857.326l-3.041 7.861a5.579 5.579 0 0 0 2.352 2.324l3.991-10.315a5.562 5.562 0 0 0-1.445-.196zM24.301 30.959l-3.942 9.99c.206.023.417.039.629.039.267 0 .527-.025.784-.063l3.547-8.985a5.664 5.664 0 0 0-1.018-.981z"/><g><ellipse fill="#454749" cx="42.847" cy="35.42" rx="7.98" ry="8.002"/><path fill="#B4D7EE" d="M37.296 35.42c0 .994.264 1.926.719 2.732l3.174-8.047a5.568 5.568 0 0 0-3.893 5.315zM44.021 40.861A5.564 5.564 0 0 0 47.37 32.2l-3.349 8.661zM42.848 29.852c-.052 0-.104.006-.156.008l-3.753 9.511c.262.262.553.496.863.701l3.923-10.144a5.52 5.52 0 0 0-.877-.076z"/><path fill="#FFF" d="M43.725 29.928l-3.923 10.144a5.52 5.52 0 0 0 4.219.789l3.349-8.662a5.543 5.543 0 0 0-3.645-2.271zM41.188 30.105l-3.174 8.047c.252.447.563.859.924 1.219l3.753-9.511a5.58 5.58 0 0 0-1.503.245z"/></g><g><path fill="#FF4848" d="M60.056 26.085c0 13.301.73-6.818-28.146-6.818-28.878 0-28.148 20.12-28.148 6.818C3.761 12.781 16.365 7 31.909 7c15.543 0 28.147 5.781 28.147 19.085z"/></g><path fill="#FFF" d="M6.723 33.578s-5.994-2.39-4.356-6.208c.635-1.482 4.322-1.101 5.699-2.004 1.744-1.145 3.569-5.568 5.594-6.15 1.162-.334 3.294 1.892 4.498 1.75 1.876-.22 4.261-3.936 6.119-4.266 2.326-.414 6.78 2.523 9.14 2.353 1.999-.145 5.357-3.316 7.349-3.089 2.158.247 4.889 4.314 6.923 5.05 1.88.68 6.509-.731 8.016.546.981.831.294 3.885 1.021 4.93.896 1.286 5.359 1.886 5.359 3.433 0 3.566-5.189 4.029-5.189 4.029s.877-2.613.512-3.107c-.85-1.147-4.629-1.207-5.266-2.476-.58-1.16 1.048-3.188.118-4.115-1.379-1.375-4.841.906-6.774.465-1.74-.396-3.928-4.01-5.711-4.142-1.871-.138-4.739 3.294-6.611 3.415-1.797.116-4.96-2.693-6.739-2.432-1.977.29-4.309 4.671-6.308 4.725-1.639.045-4.304-3.287-5.904-2.942-1.906.411-1.704 4.92-3.396 5.859-1.01.559-3.848-.802-4.662 0-.783.766.568 4.376.568 4.376z"/></svg>