<svg xmlns="http://www.w3.org/2000/svg" width="64" height="64" viewBox="0 0 64 64"><path fill="#FFDD67" d="M48.179 14.677l-3.313 8.394-6.541 2.831s-10.008 2.68-10.369 2.812L17.769 32.41c-.787.17-1.497.662-1.87 1.422l-4.197 8.571c-1.744-.412-2.058.398-3.404 3.962-1.186 3.128 1.513 4.088 1.996 4.26 2.943 1.061 4.289-.778 4.993-2.297a1.723 1.723 0 0 0 1.427-1.094l.442-1.162a1.65 1.65 0 0 0-.432-1.795l3.5-7.145 2.691-.974c-.379 5.733 2.122 12.83-.086 19.841l19.061-.666c-5.473-6.897-2.005-15.614-1.794-22.636l8.396-5.434a2.555 2.555 0 0 0 1.007-1.206l3.727-9.457-5.047-1.923z"/><path fill="#FFDD67" d="M32.684 20.648l3.645-1.184-2.236 11.266-7.276-1.444z"/><path fill="#EBA352" d="M26.761 24.857c1.879 1.746.057 4.429.057 4.429 2.984.593 6.218-4.835 6.93-8.427l-6.987 3.998z"/><path fill="#FFDD67" d="M37.793 6.363L23.889 8.29c-2.247 2.689-1.442 4.509-1.759 5.8-.141.574-1.521 1.398-2.254 1.828-1.633.961.492 2.421 1.396 2.41.292 1.406-1.483 1.831 2.527 1.844 0 0-4.308.904-1.638 2.23-.594 1.504-1.461 4.418 7.269 2.957 2.595-.434 4.317-4.5 4.317-4.5l4.213.098-.167-14.594z"/><path fill="#937237" d="M25.362 14.766c-.162.815-.758 1.389-1.331 1.273-.573-.114-.606-.81-.444-1.627.162-.815.458-1.446 1.031-1.332s.907.868.744 1.686zM25.181 20.136s-1.834.872-2.436 1.034c-1.277.352-1.4-.052-.635-.443.615-.316 1.688-.555 1.688-.555l1.383-.036z"/><path fill="#FFCE31" d="M56.968 3.082c4.629 2.399 6.381 7.998 3.914 12.518-2.467 4.521-8.215 6.234-12.84 3.839-4.627-2.396-6.383-7.999-3.914-12.514 2.467-4.523 8.217-6.24 12.84-3.843z"/><path fill="#F2B200" d="M59.425 4.922c-4.945.563-8.281 2.432-9.582 3.285a6.415 6.415 0 0 1-.723-1.687c.67-.69 2.891-2.651 7.238-3.716a9.565 9.565 0 0 0-2.721-.73c-2.307.85-3.857 1.902-4.791 2.689-.031-.625.023-1.332.127-2.086a9.567 9.567 0 0 0-1.588.801c-.373 5.574 3.186 7.72 4.453 8.299a5.703 5.703 0 0 1-.15 1.956c-1.396-.629-4.771-2.489-7.6-6.723a8.894 8.894 0 0 0-.682 1.626c2.943 4.039 6.287 5.843 7.75 6.477-.258.475-.619.96-1.088 1.434-.951-.237-3.852-1.209-7.021-4.561.072.915.285 1.817.629 2.67 1.992 1.707 3.791 2.578 4.996 3.006-.543.35-1.174.673-1.906.967.396.295.816.574 1.275.81.088.044.176.077.262.12 5.027-2.473 5.113-6.604 4.986-7.983a5.716 5.716 0 0 1 1.715-.831c.041 1.579-.105 5.377-2.006 9.752a9.538 9.538 0 0 0 1.725-.247c1.76-4.457 1.828-8.231 1.758-9.757a6.541 6.541 0 0 1 1.844.218c.268.929.859 3.837-.402 8.135a9.307 9.307 0 0 0 1.975-1.796c.463-2.516.324-4.463.1-5.691a11.36 11.36 0 0 1 1.893 1.23 9.165 9.165 0 0 0 .092-1.755c-4.732-3.236-8.438-1.216-9.592-.407a5.644 5.644 0 0 1-1.592-1.071c1.338-.841 4.762-2.649 9.736-3.036a9.148 9.148 0 0 0-1.11-1.398z"/><ellipse transform="rotate(-1.985 26.36 36.61)" fill="#EBA352" cx="26.374" cy="36.677" rx="1.108" ry="1.485"/><path fill="#EBA352" d="M34.646 35.151c.027.821-.447 1.502-1.059 1.524-.611.021-1.131-.626-1.158-1.447-.031-.819.443-1.503 1.057-1.523.609-.021 1.128.627 1.16 1.446z"/><path fill="#ED4C5C" d="M23.294 9.178s11.607.514 12.088 14.26c0 0 7.43-2.041 7.119-11.047-.316-9.006-12.492-14.643-19.207-3.213z"/><path opacity=".5" fill="#3E4347" d="M42.167 10.18c-2.889 1.684-3.779 4.92-3.779 4.92-1.424-1.32-2.475-1.205-2.475-1.205-1.037.782-1.301 2.756-1.266 4.728.406 1.394.67 2.984.734 4.815 0 0 7.43-2.041 7.119-11.047a10.068 10.068 0 0 0-.333-2.211z"/><path fill="#ED4C5C" d="M37.942 16.594a2.966 2.966 0 0 1-2.867 3.057 2.96 2.96 0 0 1-3.072-2.85c-.059-1.631 1.225-2.999 2.869-3.058a2.964 2.964 0 0 1 3.07 2.851z"/><g fill="#3E4347"><circle cx="33.93" cy="15.256" r=".492"/><circle cx="35.909" cy="15.186" r=".493"/><path d="M34.015 17.716a.5.5 0 0 0-.479.51c.014.272.24.485.514.476s.488-.238.477-.51a.492.492 0 0 0-.512-.476z"/><circle cx="36.013" cy="18.14" r=".493"/><path d="M32.974 16.274a.493.493 0 0 0 .033.986.498.498 0 0 0 .48-.51.497.497 0 0 0-.513-.476z"/><circle cx="34.971" cy="16.697" r=".492"/><path d="M36.935 16.137a.492.492 0 1 0 .031.985.492.492 0 1 0-.031-.985z"/></g><g><path fill="#75D6FF" d="M57.714 51.683c-2.368 0-2.719-1.206-4.285-1.206s-1.919 1.206-4.286 1.206c-2.368 0-2.719-1.206-4.285-1.206s-1.919 1.206-4.286 1.206c-2.368 0-2.72-1.206-4.286-1.206S34.367 51.683 32 51.683s-2.721-1.206-4.287-1.206c-1.566.001-1.916 1.206-4.284 1.206-2.367 0-2.72-1.206-4.286-1.206s-1.918 1.206-4.285 1.206-2.719-1.206-4.285-1.206-1.919 1.206-4.287 1.206C3.919 51.683 2 50.477 2 50.477V62h60V50.477s-1.919 1.206-4.286 1.206z"/><g fill="#42ADE2"><path d="M23.766 59.977c-6.818.68-11.443-3.522-18.459-1.148 5.404-.254 13.593 3.009 18.459 1.148-1.489.147 0 0 0 0zM35.407 55.412c-6.802.669-11.482-3.598-18.458-1.147 5.423-.289 13.584 3.033 18.458 1.147-1.402.138 0 0 0 0zM47.05 59.977c-6.815.684-11.446-3.532-18.459-1.148 5.384-.252 13.623 3.019 18.459 1.148-1.487.149 0 0 0 0zM58.693 55.412c-6.806.666-11.477-3.584-18.461-1.147 5.44-.29 13.569 3.028 18.461 1.147-1.402.137 0 0 0 0z"/></g></g></svg>