<svg xmlns="http://www.w3.org/2000/svg" width="64" height="64" viewBox="0 0 64 64"><path fill="#E84D88" d="M39.948 27.34l-8.47-.561c0 4.771-10.381 6.979-10.381 10.76 0 2.702 2.522 3.449 2.522 3.449s-7.861 2.957-7.861 11.398c0 6.689 5.321 9.613 11.607 9.613h10.271s.699-2.042-.63-9.146c-2.614-13.976 7.472-11.662 2.942-25.513z"/><path fill="#FFDD67" d="M20.36 46.721l.616-1.426 1.112-.283c2.741 0 3.55 1.743 4.866 1.743v5.718s-1.063 1.035-5.437 1.035c-2.092 0-3.48-1.402-4.139-4.408-.546-2.504 2.982-2.379 2.982-2.379z"/><path fill="#EBA352" d="M22.089 45.012s-1.157.277-1.157 1.013c0 .377 1.431-.056 2.388 1.013-1.389-.691-2.959-.316-2.959-.316-.615-.605-.111-1.71 1.728-1.71z"/><path opacity=".3" fill="#231F20" d="M26.022 46.158c5.763-1.15 11.608-3.093 11.608-3.093l-.943 7.638.172 1.206s-3.539 1.89-10.789 2.483l.021-.635s-5.364.775-7.063-1.212c2.688 1.214 6.996-.185 6.996-.185l-.002-6.202zM35.763 31.508L39.9 38.73l-1.33 2.434z"/><path fill="#E84D88" d="M42.227 27.325s7.673 11.812 6.686 16.681c-1.13 5.568-22.255 8.849-22.255 8.849l-.337-6.392s13.115-3.131 14.774-5.36c-1.113-2.546-5.332-9.595-5.332-9.595l6.464-4.183z"/><g><path fill="#EBA352" d="M28.35 26.303l8.381-14.835.276 15.312c-3.475 1.488-5.528 0-5.528 0-1.047-1.954-3.129-.477-3.129-.477z"/><path fill="#FFB300" d="M40.303 9.065c-3.356-6.748-8.874-6.276-8.874-6.276-6.853-3.082-14.316 3.595-15.717 7.369-2.863 7.723 3.772 10.777 4.669 10.068l14.331-4.455s2.933 2.954 1.59 8.992c-1.315 5.92 4.672 10.338 4.672 10.338s5.895-12.837-.671-26.036z"/><path fill="#FFDD67" d="M17.189 12.402c-.205-2.077 4.094-1.682 6.356.64 4.986 5.129 6.508 3.794 6.508 3.794l.018-.01a5.213 5.213 0 0 1-.64-1.444c-.547-2.031.226-3.935 1.73-4.247 1.502-.314 3.165 1.08 3.713 3.111.496 1.833-.091 3.549-1.313 4.099 1.769 5.476.077 5.562-2.465 7.64-5.608 4.592-6.473 3.371-7.098 1.561-.269-.773-.894-.432-1.551-.519 0 0-.132-.501-.556-1.781-.423-1.28-1.677-1.106-1.295-1.772.38-.668.649-1.075.31-1.484-.141-.161-1.414.367-1.789-.254-.697-1.15 1.09-1.449.845-3.607-.133-1.187-2.345-1.412-2.773-5.727z"/><path fill="#C94747" d="M22.357 24.234c-.365-.028-.723-.07-1.028-.166-.294-.098-.565-.257-.638-.771-.158.145-.244.427-.182.715.069.293.271.55.487.721.209.162.427.271.646.351a1.522 1.522 0 0 0-.032.761c.054.275.182.508.322.7.155.185.316.35.515.482-.042-.464-.137-.887-.08-1.173.035-.142.067-.252.141-.383a6.41 6.41 0 0 1 .26-.417l.501-.752-.912-.068z"/><path fill="#664E27" d="M31.334 12.411a1.929 1.929 0 0 0-.838.916 2.19 2.19 0 0 0-.108 1.322c.077.356.229.69.433.979-.167.025-.319.099-.392.246.246.039.389.146.529.248.139.108.264.22.371.344.11.12.198.247.277.393.079.147.132.33.169.587.208-.113.333-.368.323-.649-.003-.282-.142-.557-.323-.764-.187-.202-.423-.354-.679-.4a1.204 1.204 0 0 0-.157-.014c-.068-.758-.103-1.43.146-1.97.119-.297.321-.555.565-.805.243-.245.533-.466.823-.735a2.385 2.385 0 0 0-1.139.302z"/><path fill="#EBA352" d="M20.945 17.777c-.063-.37-.238-.598-.437-.848-.204-.248-.428-.509-.625-.84-.189-.323-.337-.765-.253-1.167a1.22 1.22 0 0 1 .598-.847c-.07.348-.13.657-.097.93.033.271.136.512.296.778.143.272.351.552.5.903.159.331.235.808.018 1.091z"/><path fill="#664E27" d="M23.668 14.977c-.296.324-.383.685-.551 1.05-.148.373-.325.75-.573 1.108-.249.353-.577.696-1.023.876a1.48 1.48 0 0 1-1.382-.105c.849-.298 1.162-.787 1.608-1.416.22-.307.445-.645.742-.951.279-.29.693-.64 1.179-.562z"/></g></svg>