<svg xmlns="http://www.w3.org/2000/svg" width="64" height="64" viewBox="0 0 64 64"><path fill="#FFF" d="M60.718 52.739c0-34.41-7.861-43.114-7.861-43.114-12.193-6.121-14.686-6.39-20.055-6.529a42.83 42.83 0 0 0-1.603 0c-5.369.14-7.861.408-20.055 6.529 0 0-7.861 8.704-7.861 43.114 0 0 3.949-1.197 11.551 0 0 0-.801 2.992-2.887 7.072 0 0 8.174 2.676 19.297-1.467 12.308 4.715 20.81 1.467 20.81 1.467-2.086-4.08-2.887-7.072-2.887-7.072 7.602-1.197 11.551 0 11.551 0z"/><path fill="#3E4347" d="M47.146 34.001s5.016-1.088 8.533.74c0 0-5.336-1.063-8.758 1.911l.225-2.651zM61.646 43.839s-3.842-1.373-9.389 0c0 0 6.184-.066 9.578 2.811l-.189-2.811zM48.659 47.843s3.068-1.643 7.24-1.193c0 0-3.965-1.49-7.705-.883l.465 2.076z"/><path fill="#3E4347" d="M49.399 20.654l-2.09 2.602s-.215-1.24-1.336-3.022c0 0 1.143 4.864 0 11.273-1.227 6.892-.336 20.756 4.441 28.736l1.711-2.17s-6.09-16.852-4.215-26.018c1.464-7.149-.597-6.749 1.489-11.401zM28.113 41.202s-5.059 2.102-9.854 11.516c0 0 2.266.711 4.406 1.344 0 0 3.83-7.365 9.473-12.148l-4.025-.712z"/><path fill="#3E4347" d="M33.835 40.112s5.059 2.104 9.854 11.518c0 0-2.266.711-4.406 1.344 0 0-3.83-7.365-9.472-12.148l4.024-.714zM18.697 5.953s2.076 6.104 7.646 14.358c0 0-4.359-10.881-5.059-15.706l-2.587 1.348z"/><path fill="#3E4347" d="M30.664 37.504s-5.678 3.69-5.014 4.255c.666.563 4.32 4.441 5.004 3.863.682-.58 5.692-4.225 4.983-4.828-.71-.602-4.055-3.857-4.973-3.29zM17.973 34.001s-5.016-1.088-8.533.74c0 0 5.336-1.063 8.76 1.911l-.227-2.651zM3.473 43.839s3.844-1.373 9.389 0c0 0-6.184-.066-9.578 2.811l.189-2.811zM16.461 47.843s-3.07-1.643-7.24-1.193c0 0 3.963-1.49 7.703-.883l-.463 2.076z"/><path fill="#3E4347" d="M14.834 20.654l2.09 2.602s.215-1.24 1.336-3.022c0 0-1.141 4.864 0 11.273 1.227 6.892.338 20.756-4.439 28.736l-1.713-2.17s6.092-16.852 4.215-26.018c-1.464-7.149.597-6.749-1.489-11.401z"/><path fill="#3E4347" d="M17.24 39.89v2.77c16.364 1.996 29.202 0 29.202 0v-2.77c-17.751-2.227-29.202 0-29.202 0zM45.595 5.953s-2.076 6.104-7.646 14.358c0 0 4.359-10.881 5.059-15.706l2.587 1.348z"/><path fill="#D0D0D0" d="M25.199 3.727s2.684 11.225 7.416 19.684c0 0 5.823-13.643 6.187-19.684 0 0-7.679-1.577-13.603 0z"/><path fill="#94989B" d="M26.344 4.597s2.707 5.232 6.299 7.862c0 0 3.378-2.33 5.306-7.74L32.75 24.254l-5.768-13.76-.638-5.897z"/><path fill="#3E4347" d="M32.254 25.037c-5.883-8.082-8.482-20.061-8.59-20.566l2.523-.387c.025.119 2.627 12.084 8.249 19.809l-2.182 1.144z"/><path fill="#3E4347" d="M28.498 40.298l-2.375-.818C32.209 26.785 38.067 4.27 38.126 4.043l2.508.467c-.059.228-5.965 22.926-12.136 35.788z"/><path fill="#3E4347" d="M44.407 61.999c-3.518 0-8.012-.564-13.171-2.467-11.207 4-19.402 1.408-19.752 1.295l-1.246-.41.531-1.039a44.108 44.108 0 0 0 2.463-5.764c-6.209-.785-9.488.141-9.521.15l-1.703.498L2 52.739C2 18.355 9.793 9.33 10.125 8.963l.152-.167.213-.107c12.41-6.23 15.146-6.537 20.668-6.68a43.023 43.023 0 0 1 1.685 0c5.521.143 8.256.449 20.668 6.68l.213.107.152.167c.332.367 8.125 9.393 8.125 43.776v1.545l-1.717-.521c-.027-.008-3.307-.934-9.516-.148a44.108 44.108 0 0 0 2.463 5.764l.504.984-1.154.441c-.213.08-3.228 1.195-8.174 1.195zm-12.094-4.443c8.735 3.205 15.417 2.223 18.024 1.602-1.711-3.559-2.391-6.063-2.422-6.178l-.297-1.104 1.314-.207c5.037-.793 8.568-.572 10.498-.297-.189-29.962-6.514-39.638-7.477-40.937-12.118-6.068-14.347-6.126-19.191-6.251-.379-.01-1.143-.01-1.523 0-4.844.125-7.07.184-19.191 6.253-.948 1.274-7.288 10.936-7.476 40.935 1.93-.275 5.459-.496 10.496.297l1.313.207-.295 1.104c-.031.113-.705 2.594-2.395 6.121 2.514.49 8.506 1.158 16.006-1.385-.889-2.689-3.313-10.43-3.313-14.77h2.568c.001 4.274 2.667 12.533 3.361 14.61z"/></svg>