<svg xmlns="http://www.w3.org/2000/svg" width="64" height="64" viewBox="0 0 64 64"><ellipse fill="#D93D3D" cx="31.917" cy="12.986" rx="19.717" ry="10.987"/><ellipse fill="#E2E9ED" cx="31.858" cy="16.799" rx="24.004" ry="10.987"/><path fill="#FF4848" d="M61.834 62H2c0-11.796 13.395-12.917 29.917-12.917 16.521 0 29.917 1.121 29.917 12.917z"/><path fill="#FFF" d="M51.677 50.707c0 1.358-3.708 1.359-4.869 2.504-.901.89-.09 4.609-1.543 5.295-1.199.566-3.778-2.32-5.271-1.933-1.318.343-2.076 4.142-3.568 4.318-1.377.162-3.026-3.342-4.509-3.342-1.481 0-3.132 3.504-4.509 3.342-1.492-.177-2.249-3.976-3.57-4.318-1.489-.389-4.072 2.498-5.272 1.931-1.452-.686-.639-4.404-1.542-5.294-1.16-1.144-4.866-1.145-4.866-2.503-.001-1.359 39.519-1.358 39.519 0z"/><path fill="#FFE1BD" d="M54.311 25.913c-13.843-13.868-31.1-13.931-44.917 0l.085 15.393c0 6.702 6.569 14.047 22.805 14.047 15.378 0 22.043-6.004 22.043-14.047l-.016-15.393z"/><path fill="#454749" d="M38.323 46.233a.808.808 0 0 1 .188.543c.002 1.504-2.979 3.349-6.651 3.349-3.674 0-6.652-1.832-6.652-3.336 0-.203.059-.415.158-.556 0 0 2.875 1.297 6.494 1.297 3.61 0 6.463-1.297 6.463-1.297z"/><path fill="#8B9FA5" d="M31.911 8.323C4.979 8.323.322 29.53 9.533 36.812c0 0 4.616-7.811 14.303-11.559 3.188-1.234 5.859-2.427 8.075-3.568 2.217 1.142 4.885 2.334 8.073 3.568 9.687 3.748 14.318 11.559 14.318 11.559 9.214-7.282 4.541-28.489-22.391-28.489z"/><path fill="#454749" d="M41.516 48.578c-.513.003-.997-.135-1.455-.328a5.08 5.08 0 0 1-1.268-.783c-.754-.646-1.377-1.566-1.414-2.596.688.736 1.291 1.339 1.984 1.918.68.59 1.403 1.119 2.153 1.789zM22.202 48.578c.748-.67 1.471-1.199 2.15-1.789.693-.579 1.297-1.182 1.986-1.918-.037 1.029-.66 1.949-1.412 2.596-.39.32-.813.592-1.271.783-.456.193-.942.331-1.453.328zM19.282 36.666l-.298-2.651c.689-.077 1.653-.264 2.768-.479 5.215-1.012 13.946-2.703 23.381.543l-.865 2.523c-8.761-3.015-17.056-1.408-22.011-.447-1.171.226-2.18.421-2.975.511z"/><ellipse fill="#454749" cx="21.018" cy="35.42" rx="7.959" ry="8.003"/><ellipse fill="#B4D7EE" cx="21.018" cy="35.42" rx="5.47" ry="5.5"/><ellipse fill="#454749" cx="42.816" cy="35.42" rx="7.959" ry="8.003"/><g><ellipse fill="#B4D7EE" cx="42.816" cy="35.42" rx="5.47" ry="5.5"/></g><g><path fill="#FF4848" d="M59.977 26.086c0 13.301.73-6.818-28.066-6.818-28.799 0-28.071 20.119-28.071 6.818C3.839 12.781 16.408 7 31.91 7c15.499 0 28.067 5.781 28.067 19.086z"/></g><path fill="#FFF" d="M6.792 33.578s-5.978-2.39-4.345-6.208c.634-1.482 4.311-1.101 5.684-2.005 1.739-1.145 3.56-5.567 5.579-6.149 1.158-.334 3.284 1.892 4.485 1.75 1.87-.22 4.248-3.936 6.103-4.266 2.319-.414 6.761 2.523 9.113 2.353 1.994-.146 5.343-3.316 7.327-3.089 2.152.246 4.877 4.314 6.905 5.05 1.875.68 6.489-.73 7.993.546.979.831.292 3.886 1.019 4.93.893 1.285 5.345 1.886 5.345 3.433 0 3.565-5.175 4.029-5.175 4.029s.874-2.614.508-3.108c-.847-1.146-4.616-1.206-5.249-2.475-.58-1.16 1.044-3.188.117-4.115-1.375-1.375-4.827.906-6.755.465-1.735-.396-3.917-4.01-5.695-4.142-1.866-.138-4.728 3.294-6.593 3.415-1.792.115-4.947-2.693-6.722-2.433-1.971.29-4.297 4.672-6.289 4.726-1.635.045-4.293-3.287-5.889-2.942-1.901.41-1.699 4.92-3.387 5.858-1.008.56-3.838-.801-4.649 0-.777.768.57 4.377.57 4.377z"/></svg>