<svg xmlns="http://www.w3.org/2000/svg" width="64" height="64" viewBox="0 0 64 64"><path fill="#ED4C5C" d="M60.125 52.083L32 58.493l-28.125-6.41V34.162h56.25z"/><path fill="#B2C1C0" d="M32 37.683S8.562 37.052 2 27.279v5.676s3.221 8.512 30 8.512c26.777 0 30-8.512 30-8.512v-5.676c-6.562 9.773-30 10.404-30 10.404z"/><path fill="#E8E8E8" d="M32 16.873c-16.57 0-30 4.658-30 10.405s13.43 10.404 30 10.404c16.568 0 30-4.657 30-10.404S48.568 16.873 32 16.873z"/><path fill="#B2C1C0" d="M32 56.602S8.562 55.971 2 46.197v5.676s3.221 8.514 30 8.514c26.777 0 30-8.514 30-8.514v-5.676c-6.562 9.774-30 10.405-30 10.405z"/><path fill="#E8E8E8" d="M60.125 42.622v3.574c0 .016 0 0 0 0 0 5.224-12.593 9.46-28.125 9.46-15.533 0-28.125-4.236-28.125-9.46v-3.625C2.664 43.7 2 44.921 2 46.196c0 5.746 13.43 10.405 30 10.405 16.568 0 30-4.659 30-10.405 0-1.256-.699-2.46-1.875-3.574z"/><path opacity=".5" fill="#3E4347" d="M25.248 38.489c-.025.022-.051.045-.082.066a.788.788 0 0 0 .082-.066z"/><path fill="#B2C1C0" d="M32 21.602c13.687 0 25.085 3.29 27.603 7.646.379-.612.58-1.251.58-1.91 0-5.161-12.132-9.518-28.183-9.518S3.875 22.176 3.875 27.337c0 .643.188 1.266.547 1.864C6.992 24.868 18.36 21.602 32 21.602z"/><path fill="#FFF" d="M32 36.39c13.999 0 25.015-2.96 27.603-7.143-2.518-4.355-13.916-7.645-27.603-7.645-13.64 0-25.008 3.267-27.578 7.6C6.946 33.407 17.949 36.39 32 36.39z"/><path fill="#D3976E" d="M46.504 23.392c-.577-.326-1.18-.473-1.683-.45L8.557 2.019c-.442-.254-1.849 2.125-1.403 2.371l36.697 20.19c.231.437.663.873 1.24 1.198 3.5 1.973 4.912-.417 1.413-2.386z"/><path fill="#89664C" d="M33.701 18.995l2.19-1.204-1.662-.96L32 18.06z"/><path fill="#D3976E" d="M55.441 2.019L19.178 22.941c-.504-.022-1.106.125-1.684.45-3.498 1.97-2.086 4.359 1.413 2.387.577-.326 1.009-.762 1.24-1.199L56.845 4.39c.446-.246-.962-2.625-1.404-2.371z"/><path fill="#B2C1C0" d="M3.875 53.291v3.783c0 1.521 5.625 1.521 5.625 0v-3.783H3.875z"/><ellipse fill="#E8E8E8" cx="6.688" cy="53.292" rx="2.813" ry=".946"/><path fill="#8A8E91" d="M5.75 38.629v14.646c0 .271.42.488.938.488s.938-.217.938-.488V38.629H5.75z"/><path fill="#B2C1C0" d="M3.875 34.373v3.782c0 1.52 5.625 1.52 5.625 0v-3.782H3.875z"/><ellipse fill="#E8E8E8" cx="6.688" cy="34.372" rx="2.813" ry=".946"/><g><path fill="#B2C1C0" d="M54.5 53.291v3.783c0 1.521 5.625 1.521 5.625 0v-3.783H54.5z"/><ellipse fill="#E8E8E8" cx="57.313" cy="53.292" rx="2.813" ry=".946"/><path fill="#8A8E91" d="M56.375 38.629v14.646c0 .271.42.488.938.488s.938-.217.938-.488V38.629h-1.876z"/><path fill="#B2C1C0" d="M54.5 34.373v3.782c0 1.52 5.625 1.52 5.625 0v-3.782H54.5z"/><ellipse fill="#E8E8E8" cx="57.313" cy="34.372" rx="2.813" ry=".946"/></g><g><path fill="#B2C1C0" d="M38.563 57.076v3.783c0 1.521 5.625 1.521 5.625 0v-3.783h-5.625z"/><ellipse fill="#E8E8E8" cx="41.375" cy="57.077" rx="2.813" ry=".946"/><path fill="#8A8E91" d="M40.438 42.414V57.06c0 .271.42.488.938.488s.938-.217.938-.488V42.414h-1.876z"/><path fill="#B2C1C0" d="M38.563 38.158v3.783c0 1.52 5.625 1.52 5.625 0v-3.783h-5.625z"/><ellipse fill="#E8E8E8" cx="41.375" cy="38.158" rx="2.813" ry=".946"/></g><g><path fill="#B2C1C0" d="M19.813 57.076v3.783c0 1.521 5.625 1.521 5.625 0v-3.783h-5.625z"/><ellipse fill="#E8E8E8" cx="22.625" cy="57.077" rx="2.813" ry=".946"/><path fill="#8A8E91" d="M21.688 42.414V57.06c0 .271.42.488.938.488s.938-.217.938-.488V42.414h-1.876z"/><path fill="#B2C1C0" d="M19.813 38.158v3.783c0 1.52 5.625 1.52 5.625 0v-3.783h-5.625z"/><ellipse fill="#E8E8E8" cx="22.625" cy="38.158" rx="2.813" ry=".946"/></g></svg>