<svg xmlns="http://www.w3.org/2000/svg" width="64" height="64" viewBox="0 0 64 64"><path fill="#231F20" d="M32.002 2c-13.445 0-20.781 8.512-20.781 19.727V44.42h41.558V21.727c0-16.669-11.246-16.357-11.246-16.357S40.688 2 32.002 2z"/><path fill="#C28FEF" d="M51.064 36.701C45.926 32.01 32.115 40.967 32 41.041c-.113-.074-13.924-9.031-19.064-4.34-4.84 4.416.791 25.299.791 25.299h36.546s5.631-20.883.791-25.299z"/><path fill="#8A6859" d="M17.682 33.229s-3.115-.248-3.908-4.732c-.621-3.547 1.514-4.554 1.514-4.554C23 20 34.588 9.572 34.588 9.572S40 15 46.207 18.488c0 0 2.396.028 3.053 3.75.793 4.483-2.168 5.805-2.168 5.805 1.154 6.771-6.494 16.529-12.018 17.504-5.519.974-16.198-5.555-17.392-12.318z"/><path fill="#574137" d="M28.643 40.939c-.109-.049-.184-.127-.201-.232-.129-.719 2.152-2.664 5.248-3.209 3.102-.547 5.836.51 5.963 1.227a.35.35 0 0 1-.084.289s-2.648-1.055-5.703-.518c-3.046.537-5.223 2.443-5.223 2.443zM18.147 23c-.09-.053-.142-.121-.146-.211-.039-.602 2.027-1.469 4.626-1.625 2.602-.158 4.754.449 4.791 1.053a.29.29 0 0 1-.098.228s-2.068-.396-4.631-.239c-2.556.151-4.542.794-4.542.794zM42.779 16.699c.061-.084.08-.166.047-.25-.215-.564-2.453-.496-4.885.438-2.432.937-4.139 2.382-3.924 2.942.029.076.1.141.188.168 0 0 1.713-1.217 4.113-2.141 2.389-.915 4.461-1.157 4.461-1.157z"/><path fill="#705041" d="M36.951 34.387c.18 1.021-2.77 1.848-3.461 1.969-.697.123-3.766.291-3.945-.732 0-.001 7.314-1.747 7.406-1.237z"/><path fill="#F5F5F5" d="M27.141 29.75c.863-.152.354-2.365.354-2.365-3.691-5.454-8.927-.665-8.927-.665-2.107 1.429 1.779 4.079 2.335 4.131 2.618.235 6.238-1.101 6.238-1.101z"/><path fill="#574137" d="M26.027 27.147a2.86 2.86 0 1 1-5.636.994 2.861 2.861 0 1 1 5.636-.994z"/><path fill="#231F20" d="M24.191 27.473a.996.996 0 0 1-.807 1.16.998.998 0 0 1-1.162-.813.997.997 0 0 1 .814-1.159.996.996 0 0 1 1.155.812z"/><path fill="#231F20" d="M28.387 28.108c-.877-.754-1.742-1.476-2.684-1.974-.939-.495-1.941-.736-2.955-.623-1.025.08-2.037.479-3.094.877-.527.203-1.071.406-1.654.543-.563.125-1.264.18-1.746-.188.575.121 1.085-.086 1.566-.33.49-.24.964-.541 1.466-.814.988-.563 2.104-1.076 3.355-1.202a5.303 5.303 0 0 1 1.871.174 5.433 5.433 0 0 1 1.652.829c.982.719 1.709 1.671 2.223 2.708z"/><g><path fill="#F5F5F5" d="M37.131 27.988c-.863.151-1.143-2.101-1.143-2.101 1.605-6.39 8.162-3.681 8.162-3.681 2.473.621-.277 4.441-.783 4.682-2.377 1.118-6.236 1.1-6.236 1.1z"/><path fill="#574137" d="M42.926 24.17a2.866 2.866 0 0 1-2.322 3.322 2.87 2.87 0 0 1-3.318-2.328 2.87 2.87 0 0 1 2.322-3.319 2.866 2.866 0 0 1 3.318 2.325z"/><path fill="#231F20" d="M41.092 24.492a1 1 0 0 1-.814 1.16.99.99 0 0 1-1.152-.811.999.999 0 0 1 1.966-.349z"/><path fill="#231F20" d="M35.4 26.873c.127-1.15.482-2.293 1.158-3.306a5.396 5.396 0 0 1 1.27-1.344 5.326 5.326 0 0 1 1.697-.804c1.221-.312 2.441-.209 3.563-.021.568.087 1.115.207 1.658.267.537.063 1.088.082 1.588-.226-.33.511-1.006.698-1.58.772-.594.072-1.174.065-1.742.058-1.123-.017-2.215-.043-3.201.229-.992.24-1.852.812-2.564 1.6-.716.795-1.278 1.769-1.847 2.775z"/></g><g><path opacity=".2" fill="#231F20" d="M16.604 49.947L15.77 62h11.148l-1.295-12.805h-.795c-.094-.662-.24-1.391-1.107-3.242-1.533-3.277-7.445-2.09-9.682-1.535l-2.017 5.557c3.623.443 4.582-.028 4.582-.028z"/><path fill="#8A6859" d="M17.423 50.418l.046-1.061S7.294 51.488 3.453 47.939c-4.834-4.463 3.431-1.992 9.585-3.521 2.237-.557 8.149-1.742 9.682 1.535 1.656 3.537 1.256 4.463 1.256 4.463h-6.553v.002z"/><path fill="#C28FEF" d="M16.321 62l.744-12.318h7.71L25.918 62z"/></g><g><path opacity=".2" fill="#231F20" d="M47.396 49.947L48.23 62H37.082l1.295-12.805h.797c.092-.662.24-1.391 1.105-3.242 1.533-3.277 7.445-2.09 9.684-1.535l2.016 5.557c-3.624.443-4.583-.028-4.583-.028z"/><path fill="#8A6859" d="M46.578 50.418l-.047-1.061s10.176 2.131 14.016-1.418c4.834-4.463-3.43-1.992-9.584-3.521-2.238-.557-8.15-1.742-9.684 1.535-1.654 3.537-1.256 4.463-1.256 4.463h6.555v.002z"/><path fill="#C28FEF" d="M47.68 62l-.744-12.318h-7.711L38.082 62z"/></g></svg>