<svg xmlns="http://www.w3.org/2000/svg" width="64" height="64" viewBox="0 0 64 64"><path fill="#FED0AC" d="M38.58 32.709v-1.643h-4.436v1.643c0 .907-.693 1.641-1.547 1.641h7.532c-.852 0-1.549-.734-1.549-1.641z"/><path fill="#FED0AC" d="M30.698 34.26H42.04v5.08H30.698z"/><path fill="#75A843" d="M25.917 34.26c-1.396 0-2.072.795-2.556 1.344L7.305 53.809h3.241c2.535 0 3.275-.928 3.998-1.744L30.255 34.26h-4.338z"/><path fill="#E0A372" d="M4.936 43.793l4.776 2.879c.878.526 2.046.264 2.594-.584a1.783 1.783 0 0 0-.594-2.505l-4.776-2.878c-.873-.525-2.043-.26-2.594.586a1.785 1.785 0 0 0 .594 2.502z"/><path fill="#3E4347" d="M17.687 48.268c0 .629-.515 1.145-1.143 1.145h-9.14a1.148 1.148 0 0 1-1.143-1.145V27.669c0-.63.514-1.145 1.143-1.145h9.14c.628 0 1.143.515 1.143 1.145v20.599z"/><circle fill="#B2C1C0" cx="11.975" cy="31.102" r="1.143"/><circle fill="#3E4347" cx="11.975" cy="31.102" r=".571"/><path fill="#FED0AC" d="M12.831 51.52a2.293 2.293 0 0 1-2.285 2.289h-4.26A2.294 2.294 0 0 1 4 51.52v-7.734a2.294 2.294 0 0 1 2.286-2.289h4.26a2.294 2.294 0 0 1 2.285 2.289v7.734z"/><path fill="#E0A372" d="M53.379 24.902l-.002 4.187c.002.769.62 1.419 1.377 1.444a1.334 1.334 0 0 0 1.379-1.35l.003-4.187c0-.767-.623-1.417-1.38-1.443s-1.377.582-1.377 1.349z"/><path fill="#FED0AC" d="M60 34.053c0 .943-.771 1.717-1.714 1.717h-3.195a1.722 1.722 0 0 1-1.714-1.717v-5.801c0-.944.772-1.717 1.714-1.717h3.195A1.72 1.72 0 0 1 60 28.252v5.801z"/><path fill="#FFF" d="M16.276 28.725a.286.286 0 0 1-.285.285h-.571a.285.285 0 0 1-.285-.285v-.572c0-.158.127-.287.285-.287h.571c.157 0 .285.129.285.287v.572z"/><path fill="#75A843" d="M54.338 35.604a771.167 771.167 0 0 0-2.692 6.021 813.39 813.39 0 0 0-2.693-6.021c-.301-.666-1.157-1.344-2.554-1.344h-2.598s3.527 7.863 4.697 10.486c.021.051.917 2.012 2.842 2.016h.243c.625-.016 2.4-.215 3.212-2.024l.005-.009 4.088-9.125h-4.55z"/><path fill="#83BF4F" d="M46.377 34.26h-5.566c-.499 2.114-2.296 3.688-4.443 3.688-2.145 0-3.948-1.573-4.443-3.688h-5.561l-.005 25.707S29.809 62 36.368 62c6.549 0 10.008-2.033 10.008-2.033l.001-25.707z"/><path fill="#DBB471" d="M22.377 16.65l1.442 2.637H48.9l1.094-2.814c0-10.093-2.348-14.367-13.513-14.471-11.282-.106-14.104 4.375-14.104 14.648z"/><path fill="#FED0AC" d="M48.952 16.48c-.089.582-.208 1.13-.371 1.439-.298.555-.899.87-.899.87s.162-1.127.104-2.703c-.628-9.302-1.171-4.833-11.424-4.833-10.247 0-10.794-4.465-11.424 4.82-.059 1.584.104 2.716.104 2.716s-.604-.315-.898-.87c-.165-.31-.285-.857-.37-1.439-.971-.255-2.218-.041-2.218 2.751 0 1.737.636 3.162 2.782 3.317.754 5.815 8.534 9.697 12.023 9.697 3.487 0 11.27-3.882 12.025-9.697 2.146-.155 2.784-1.58 2.784-3.317.001-2.792-1.25-3.005-2.218-2.751z"/><g><circle fill="#664E27" cx="31.103" cy="19.51" r="2.151"/><circle fill="#664E27" cx="41.623" cy="19.51" r="2.152"/></g><path fill="#664E27" d="M40.368 26.725c0 1.523-2 2.285-4.001 2.285-1.999 0-3.999-.762-3.999-2.285 0 0 0-.381.399-.381h7.2c.401 0 .401.381.401.381z"/></svg>