<svg xmlns="http://www.w3.org/2000/svg" width="64" height="64" viewBox="0 0 64 64"><path fill="#8A6859" d="M38.945 14.96l2.141-.969-.602 7.018-4.531-.388z"/><path fill="#705041" d="M35.619 17.927c1.264.937.334 2.694.334 2.694 1.859.159 3.463-3.368 3.654-5.604l-3.988 2.91z"/><path fill="#8A6859" d="M41.092 5.907l-8.346 2.115c-1.188 1.792-.572 2.845-.68 3.654-.045.359-.832.957-1.25 1.268-.93.696.465 1.441 1.016 1.375.271.836-.781 1.216 1.664.952 0 0-2.564.844-.848 1.471-.26.957-.59 2.791 4.631 1.31 1.553-.44 2.328-3.035 2.328-3.035l2.572-.226-1.087-8.884z"/><path fill="#231F20" d="M35.402 4.729c5.475-1.316 8.143 1.692 8.545 2.963 1.066 3.377-.402 6.912-3.129 9.432 0 0-1.127-.594-1.211-2.107 0 0 1.268.705 2.092-2.04.699-2.335-1.715-3.768-3.24-.639l-.34-.029c-.564-1.672.889-3.604-.939-4.392-1.611-.695-4.68.511-4.68.511-.439-1.074.666-3.16 2.902-3.699z"/><path fill="#574137" d="M34.084 11.871c-.043.507-.369.896-.727.865s-.424-.453-.381-.96c.045-.51.182-.914.537-.883.36.031.614.468.571.978z"/><path fill="#705041" d="M39.127 12.956c.084-.993.986-1.775 1.814-1.705 0 0-1.523 1.049-1.297 2.675.001 0-.576-.28-.517-.97z"/><path fill="#574137" d="M34.336 15.154s-1.059.656-1.414.797c-.756.301-.857.063-.418-.228.355-.234.992-.452.992-.452l.84-.117z"/><g fill="#3E4347"><path d="M39.643 16.98l-1.014.022-1.033-6.742 1.013-.024z"/><path d="M39.391 17.148l-.832-.552 3.507-3.41.832.552z"/><path d="M38.642 15.843l1.308.328-.906 3.614-1.308-.328z"/></g><path fill="#F15744" d="M44.494 14.695c-.641 1.199-4.027-2.504-6.414-3.779-2.619-1.4-7.193-2.246-6.674-3.217 1.891-3.531 6.35-4.828 9.963-2.896 3.613 1.933 5.012 6.361 3.125 9.892z"/><path fill="#3B946F" d="M36.109 20.959l-4.777 3.217-1.184-.145.061 1.184 2.51.949 4.951-3.812z"/><path fill="#94989B" d="M43.123 29.168s-9.002 1.869-9.705 2.174c-.705.307-1.223.627-2.131 1.713l2.037 2.424s9.307-4.817 9.799-6.311z"/><g><path fill="#89664C" d="M59.344 35.31c2.143-4.306-8.539-5.166-12.043.915l.15 1.317s8.252-3.428 6.85 1.649C52.74 44.843 62 48.382 62 48.382s-5.666-7.03-2.656-13.072zM19.955 5.893s-.002-1.662 1.5-3.893c0 0 1.211 2.1 1.088 5.52l-2.588-1.627z"/><path fill="#574137" d="M5.934 48.431l2.412-3.697s-.773-.352-1.508-.984a25.818 25.818 0 0 0-2.508 3.12c.785 1.076 1.604 1.561 1.604 1.561z"/><path fill="#89664C" d="M20.564 45.895c-.854.17-1.883.404-2.67.678l-2.676-2.42s4.947-2.986 13.139-2.572c0 0-6.287-6.521-10.646-4.055 0 0-5.895 3.445-7.641 4.102-1.75.654-1.059 2.33-.561 2.793.498.461 8.289 5.07 8.289 5.07s1.566-.402 3.223-.271c.026-1.57-.232-2.677-.457-3.325z"/><path fill="#574137" d="M22.209 45.607s-.721.105-1.645.287c.225.648.482 1.756.457 3.324.793.063 1.604.248 2.273.654.001.001.054-2.786-1.085-4.265z"/><path fill="#89664C" d="M44.027 40.71l-3.209 4.125s4.113 3.323 7.959 2.872c0 0 1.992 3.196 7.238 6.598.283-.668.607-1.714.736-3.234-2.01-.961-4.936-3.483-6.309-6.36.001-.001-3.749-1.418-6.415-4.001z"/><path fill="#574137" d="M56.016 54.305c.699.459 1.443.873 2.213 1.217 0 0 .521-1.812.344-3.803 0 0-.732-.125-1.82-.648-.13 1.52-.454 2.566-.737 3.234z"/><path fill="#B7805C" d="M45.32 32.792c-8.875 2.31-15.621-1.405-15.004-5.95C32.84 8.277 21.846 6.09 21.846 6.09c-.713-2.875-2.318-4.078-2.318-4.078-1.125 1.963-1.168 4.063-1.168 4.063-1.756 2.34-10.055 8.504-11.027 9.42s1.107 4.336 1.107 4.336c.686.184 1.324-.754 2.725-.035.354.18-1.254.957-.936 1.27.59.578 2.453-1.066 4.295-1.158 6.93-.346 6.059-3.195 6.059-3.195 1.49 2.652-1.43 5.436-3.262 6.742-4.314 3.08-4.895 10.396-4.895 10.396-3.043.645-7.646-1.08-7.646-1.08-5 5.068-2.041 11.909-.449 14.101a25.927 25.927 0 0 1 2.508-3.121c-3.111-3.062-.5-6.781-.5-6.781 5.49 3.516 9.566 2.929 14.242 3.917 4.684.992 8.92 4.294 13.158 5.823C50.137 52.625 53.748 30.6 45.32 32.792z"/><path fill="#B7805C" d="M38.738 47.179c3.846 6.799 9.875 5.232 9.875 5.232 1.961 4.498 6.43 6.381 8.24 8.203 1.031-.847 1.463-2.337 1.635-3.207-6.236-2.733-7.736-8.496-7.736-8.496-5.084.331-4.354-5.963-4.354-5.963l-7.66 4.231z"/><path fill="#574137" d="M58.582 62c1.48-.395 1.174-3.85 1.174-3.85a7.41 7.41 0 0 1-1.268-.743c-.172.87-.604 2.36-1.635 3.207.958.961 1.729 1.386 1.729 1.386zM31.125 40.002s-.691 2.154-3.34 4.145c0 0 1.072.467 1.953 1.064 0 0 1.193-.504 3.309-4.031l-1.922-1.178z"/><path fill="#89664C" d="M30.332 27.914s1.008 3.326-1.238 4.689c-3.082 1.875-.031 9.455 7.52 9.684 5.406.168 3.479-6.793 6.336-7.658-.001 0-8.253-1.949-12.618-6.715z"/><g><path fill="#333" d="M10.805 16.066l-.211-.709c7.404-2.256 9.523-3.713 9.547-3.727l.42.609c-.088.062-2.239 1.538-9.756 3.827z"/><path fill="#333" d="M20.848 13.143a22.617 22.617 0 0 0-1.057-4.137c-.48-1.326-1.199-2.34-1.432-2.932.002.004-.311.389-.537.625.219.574.875 1.465 1.277 2.566.67 1.846 1.184 4.936 1.088 8.869.199-.031.705-.305.777-.316.034-1.638.128-3.148-.116-4.675zM10.598 19.578c.215-.002.615.297.615.297.334-3.348-.461-6.068-.928-6.752l-.566.449c.148.229.287.475.494 1.07.297.852.596 2.936.385 4.936z"/></g><path fill="#89664C" d="M15.268 11.055s.703.805 1.67.355c.973-.451 1.498-2.465 1.498-2.465s-1.659.371-3.168 2.11zM8.262 15.527s1.287.426.174 1.629c-1.116 1.199-.475-1.17-.174-1.629z"/></g><path fill="#333" d="M24.928 23.727c-2.803-1.41-5.449-3.846-7.176-5.641-1.879-1.953-3.102-3.59-3.115-3.605l-.48.359c.012.018 1.254 1.68 3.158 3.658a37.136 37.136 0 0 0 3.344 3.104c1.268 1.033 2.502 1.873 3.686 2.5.276-.094.583-.375.583-.375z"/><g><path fill="#47B892" d="M32.271 25.244s-5.754-1.816-6.482-1.928c0 0-.111.393-.855.963l7.367 4.303 5.748-3.422 5.074 4.008s2.625 1.438 6.529.172c0 0-2.514-8.131-8.973-10.734 0 0-2.035 1.586-4.514 1.605l-3.894 5.033z"/><path fill="#D0D0D0" d="M43.123 29.168s-7.396 1.877-9.742 3.986c-1.588 1.43-.955 5.002-1.021 6.027 0 0 1.918 1.184 3.646.545 0 0 .537-.92.262-3.996 0 0 6.115.648 9.066-.191 2.947-.838 4.354-2.379 4.318-6.199l-6.529-.172z"/><path fill="#333" d="M30.592 45.045s-4.182.156-4.609.629c-.43.473.172 1.066.172 1.066s2.76 1.76 6.371 2.508l3.73-9.746s-1.307.717-4.039-.375l-1.625 5.918z"/><path fill="#8A6859" d="M25.631 23.877l.469-.957a.692.692 0 0 0-.326-.924l-.469-.229a.7.7 0 0 0-.736.074c-.645-.262-1.574-.436-2.133.709-.092.188-.604 1.234.65 1.846 1.85.901 1.85.901 2.545-.519z"/></g><path fill="#C9150D" d="M39.506 11.842s-9.357-1.555-10.531-2.357c-1.174-.799 1.611-1.592 2.416-1.738s7.861 3.191 8.115 4.095z"/></svg>