<svg xmlns="http://www.w3.org/2000/svg" width="64" height="64" viewBox="0 0 64 64"><path fill="#E84D88" d="M39.947 27.34l-8.468-.561c0 4.771-10.381 6.979-10.381 10.76 0 2.701 2.521 3.449 2.521 3.449s-7.861 2.957-7.861 11.398c0 6.689 5.322 9.613 11.607 9.613h10.271s.699-2.043-.631-9.146c-2.614-13.976 7.472-11.663 2.942-25.513z"/><path fill="#D6A57C" d="M20.36 46.72l.617-1.425 1.111-.283c2.742 0 3.551 1.742 4.867 1.742v5.718s-1.063 1.036-5.438 1.036c-2.092 0-3.48-1.403-4.138-4.408-.547-2.505 2.981-2.38 2.981-2.38z"/><path fill="#B58360" d="M22.088 45.012s-1.156.277-1.156 1.012c0 .377 1.43-.056 2.387 1.014-1.389-.691-2.959-.317-2.959-.317-.613-.605-.11-1.709 1.728-1.709z"/><path opacity=".3" fill="#231F20" d="M26.022 46.158c5.764-1.15 11.609-3.094 11.609-3.094l-.943 7.639.172 1.205s-3.539 1.891-10.789 2.484l.02-.636s-5.363.776-7.063-1.212c2.688 1.215 6.996-.184 6.996-.184l-.002-6.202zM35.762 31.508L39.9 38.73l-1.33 2.434z"/><path fill="#E84D88" d="M42.227 27.324s7.672 11.813 6.686 16.682c-1.131 5.568-22.255 8.848-22.255 8.848l-.336-6.392s13.115-3.13 14.773-5.36c-1.113-2.545-5.332-9.594-5.332-9.594l6.464-4.184z"/><g><path fill="#B58360" d="M28.35 26.303l8.38-14.836.275 15.313c-3.475 1.487-5.527 0-5.527 0-1.046-1.954-3.128-.477-3.128-.477z"/><path fill="#594640" d="M40.303 9.064c-3.357-6.748-8.875-6.275-8.875-6.275-6.852-3.082-14.316 3.596-15.716 7.369-2.863 7.723 3.773 10.777 4.669 10.068l14.33-4.455s2.934 2.954 1.59 8.991c-1.314 5.92 4.672 10.339 4.672 10.339s5.896-12.838-.67-26.037z"/><path fill="#D6A57C" d="M17.189 12.401c-.205-2.077 4.094-1.683 6.356.64 4.986 5.129 6.508 3.794 6.508 3.794l.018-.01a5.21 5.21 0 0 1-.639-1.444c-.547-2.031.225-3.936 1.73-4.247 1.502-.313 3.164 1.079 3.712 3.111.496 1.833-.092 3.549-1.314 4.099 1.77 5.476.078 5.562-2.464 7.641-5.607 4.592-6.473 3.371-7.098 1.561-.268-.773-.893-.432-1.551-.52 0 0-.131-.5-.555-1.781-.424-1.28-1.678-1.105-1.295-1.771.379-.668.648-1.076.309-1.484-.141-.162-1.414.367-1.789-.254-.697-1.151 1.09-1.449.846-3.607-.134-1.188-2.346-1.412-2.774-5.728z"/><path fill="#C94747" d="M22.358 24.234c-.365-.029-.723-.07-1.029-.166-.293-.099-.564-.258-.637-.771-.158.144-.244.426-.182.715.068.293.271.549.486.72.209.163.428.272.646.351a1.515 1.515 0 0 0-.031.762c.053.275.182.507.322.699.154.186.316.35.514.482-.041-.463-.137-.887-.08-1.172.035-.143.068-.253.141-.383s.164-.27.26-.418l.502-.752-.912-.067z"/><path fill="#664E27" d="M31.334 12.41c-.354.191-.658.51-.838.916a2.197 2.197 0 0 0-.109 1.322c.078.355.229.689.434.979-.168.025-.32.1-.393.246.246.039.389.146.529.248.139.108.264.22.371.344.111.121.199.248.277.394.08.147.133.33.17.587.207-.112.332-.367.322-.648-.002-.282-.141-.557-.322-.764-.188-.202-.424-.354-.68-.4-.053-.01-.105-.012-.156-.014-.068-.758-.104-1.43.146-1.971.119-.297.32-.555.564-.805.244-.245.533-.467.824-.735a2.38 2.38 0 0 0-1.139.301z"/><path fill="#B58360" d="M20.946 17.777c-.064-.371-.238-.598-.438-.849-.203-.247-.428-.509-.625-.841-.189-.322-.336-.765-.252-1.166.07-.395.311-.68.598-.848-.07.348-.131.658-.098.93s.137.513.297.779c.143.271.35.552.5.902.158.332.235.809.018 1.093z"/><path fill="#664E27" d="M23.668 14.977c-.297.323-.383.684-.551 1.05a5.414 5.414 0 0 1-.574 1.108c-.248.353-.576.695-1.023.876a1.481 1.481 0 0 1-1.381-.104c.848-.299 1.162-.787 1.607-1.416.221-.307.445-.645.742-.951.28-.292.694-.642 1.18-.563z"/></g></svg>