<svg xmlns="http://www.w3.org/2000/svg" width="64" height="64" viewBox="0 0 64 64"><path fill="#42ADE2" d="M47.988 5.987a3.991 3.991 0 0 1-3.99 3.989 3.992 3.992 0 0 1-3.986-3.989 3.989 3.989 0 0 1 7.976 0z"/><circle fill="#C28FEF" cx="5.988" cy="29.984" r="3.988"/><path fill="#ED4C5C" d="M17 10.002a3.991 3.991 0 0 1-3.988 3.988 3.99 3.99 0 0 1-3.988-3.988 3.99 3.99 0 0 1 3.988-3.989A3.991 3.991 0 0 1 17 10.002z"/><path fill="#FFCE31" d="M62 23.98a3.991 3.991 0 0 1-3.988 3.989 3.99 3.99 0 0 1-3.988-3.989 3.991 3.991 0 0 1 3.988-3.988A3.993 3.993 0 0 1 62 23.98z"/><circle fill="#83BF4F" cx="53.988" cy="53.01" r="3.988"/><path fill="#B58360" d="M57.029 56.138l-1.277 2.555 2.535 1.527s.848-2.379.975-3.206c.224-1.454-1.428-2.297-2.233-.876z"/><path fill="#3B946F" d="M18.033 56.303c2.197 0 3.033-1.584 3.473-2.571 1.143-2.578 4.119-10.5 4.119-10.5h-2.734c-1.471 0-2.383.71-2.691 1.416l-2.752 7.313h-3.32l1.205 2.631c.327.619 1.122 1.711 2.7 1.711zM50.26 61.583c-2.197 0-2.488-.848-3.121-2.67l-.002-.004-5.525-15.678h2.736c1.469 0 2.381.71 2.691 1.416l3.807 12.594h3.32l-1.203 2.63c-.328.621-1.125 1.712-2.703 1.712z"/><path fill="#B58360" d="M13.156 47.59l1.279 2.559-2.537 1.526s-.846-2.378-.973-3.208c-.224-1.452 1.429-2.296 2.231-.877z"/><path fill="#D6A57C" d="M11.727 51.454v-2.615c.275-1.898 9.428-1.898 9.146 0v2.615c-.281 1.9-9.422 1.902-9.146 0zM58.461 59.999v-2.614c-.277-1.899-9.43-1.899-9.146 0v2.614c.281 1.899 9.421 1.902 9.146 0zM35.992 41.602v-1.729h-4.67v1.729c0 .955-.73 1.725-1.627 1.725h7.928c-.896-.001-1.631-.77-1.631-1.725z"/><path fill="#D6A57C" d="M27.505 43.231h12.316v7.063H27.505z"/><path fill="#47B892" d="M44.205 43.231h-5.863c-.523 2.227-2.418 3.88-4.68 3.88-2.258 0-4.156-1.653-4.68-3.88h-5.855L23.123 62h21.078l.004-18.769z"/><g><path fill="#594640" d="M20.078 26.327l1.4 2.561h24.355l1.063-2.733c0-9.801-2.279-13.951-13.123-14.053C22.818 12 20.078 16.351 20.078 26.327z"/><path fill="#D6A57C" d="M45.887 26.162c-.088.564-.205 1.098-.363 1.398-.289.538-.873.844-.873.844s.158-1.094.102-2.624c-.609-9.033-1.137-4.693-11.094-4.693-9.951 0-10.482-4.337-11.094 4.681-.059 1.539.102 2.637.102 2.637s-.588-.306-.873-.844c-.16-.301-.277-.834-.359-1.398-.943-.248-2.154-.039-2.154 2.671 0 1.688.619 3.071 2.703 3.222.732 5.648 8.289 9.418 11.676 9.418s10.945-3.77 11.68-9.418c2.084-.15 2.701-1.534 2.701-3.222-.002-2.711-1.217-2.92-2.154-2.672z"/><g><circle fill="#664E27" cx="28.551" cy="27.104" r="2.09"/><circle fill="#664E27" cx="38.768" cy="27.104" r="2.09"/></g></g><path fill="#664E27" d="M37.658 34.695c0 1.523-2 2.285-4 2.285s-4-.762-4-2.285c0 0 0-.381.4-.381h7.199c.401 0 .401.381.401.381z"/></svg>