<svg xmlns="http://www.w3.org/2000/svg" width="64" height="64" viewBox="0 0 64 64"><ellipse fill="#D93D3D" cx="31.917" cy="12.986" rx="19.718" ry="10.987"/><ellipse fill="#E2E9ED" cx="31.859" cy="16.799" rx="24.004" ry="10.987"/><path fill="#FF4848" d="M61.834 62H2c0-11.796 13.395-12.917 29.917-12.917 16.521 0 29.917 1.121 29.917 12.917z"/><path fill="#FFF" d="M51.678 50.707c0 1.358-3.709 1.359-4.869 2.504-.902.89-.09 4.609-1.543 5.295-1.199.566-3.779-2.32-5.27-1.933-1.32.343-2.078 4.142-3.57 4.318-1.377.162-3.025-3.342-4.508-3.342-1.481 0-3.131 3.504-4.508 3.342-1.493-.177-2.251-3.976-3.57-4.318-1.491-.389-4.074 2.498-5.274 1.931-1.452-.686-.639-4.404-1.542-5.294-1.16-1.144-4.867-1.145-4.867-2.503 0-1.359 39.521-1.358 39.521 0z"/><path fill="#8A6859" d="M54.313 25.913c-13.844-13.868-31.1-13.931-44.919 0l.085 15.393c0 6.702 6.569 14.047 22.804 14.047 15.377 0 22.043-6.004 22.043-14.047l-.013-15.393z"/><path fill="#454749" d="M38.324 46.233a.817.817 0 0 1 .186.543c.002 1.504-2.977 3.349-6.65 3.349-3.673 0-6.651-1.832-6.651-3.336 0-.203.057-.415.158-.556 0 0 2.874 1.297 6.493 1.297 3.611 0 6.464-1.297 6.464-1.297z"/><path fill="#8B9FA5" d="M31.912 8.323C4.979 8.323.322 29.53 9.534 36.811c0 0 4.616-7.811 14.304-11.559 3.188-1.234 5.857-2.427 8.074-3.568 2.217 1.142 4.885 2.334 8.075 3.568C49.673 29 54.303 36.811 54.303 36.811c9.213-7.281 4.541-28.488-22.391-28.488z"/><path fill="#454749" d="M41.518 48.578c-.514.003-.998-.135-1.455-.328a5.055 5.055 0 0 1-1.27-.783c-.754-.646-1.377-1.566-1.414-2.596.689.736 1.293 1.339 1.986 1.918.68.59 1.403 1.119 2.153 1.789zM22.203 48.578c.747-.67 1.47-1.199 2.15-1.789.692-.579 1.297-1.182 1.986-1.918-.037 1.029-.66 1.949-1.412 2.596-.389.32-.813.592-1.272.783-.456.193-.942.331-1.452.328zM19.283 36.666l-.297-2.651c.69-.077 1.653-.264 2.766-.479 5.216-1.012 13.946-2.703 23.381.543l-.863 2.523c-8.762-3.015-17.057-1.408-22.012-.447-1.171.226-2.18.421-2.975.511z"/><ellipse fill="#454749" cx="21.018" cy="35.42" rx="7.958" ry="8.003"/><ellipse fill="#B4D7EE" cx="21.018" cy="35.42" rx="5.47" ry="5.5"/><path fill="#454749" d="M50.775 35.42c0 4.42-3.564 8.003-7.957 8.003-4.396 0-7.961-3.583-7.961-8.003s3.564-8.003 7.961-8.003c4.393 0 7.957 3.583 7.957 8.003z"/><g><path fill="#B4D7EE" d="M48.287 35.42c0 3.037-2.451 5.5-5.469 5.5-3.021 0-5.471-2.463-5.471-5.5s2.449-5.5 5.471-5.5c3.018 0 5.469 2.463 5.469 5.5z"/></g><g><path fill="#FF4848" d="M59.977 26.086c0 13.301.73-6.818-28.067-6.818-28.798 0-28.071 20.119-28.071 6.818C3.839 12.781 16.408 7 31.91 7c15.5 0 28.067 5.781 28.067 19.086z"/></g><path fill="#FFF" d="M6.792 33.578s-5.978-2.39-4.345-6.208c.633-1.482 4.311-1.101 5.684-2.005 1.739-1.145 3.56-5.567 5.579-6.149 1.159-.334 3.285 1.892 4.485 1.75 1.871-.22 4.25-3.936 6.103-4.266 2.319-.414 6.761 2.523 9.114 2.353 1.994-.146 5.344-3.316 7.328-3.089 2.152.246 4.875 4.314 6.904 5.05 1.875.68 6.49-.73 7.994.546.979.831.291 3.886 1.018 4.93.893 1.285 5.344 1.886 5.344 3.433 0 3.565-5.176 4.029-5.176 4.029s.875-2.614.51-3.108c-.848-1.146-4.615-1.206-5.25-2.475-.58-1.16 1.045-3.188.119-4.115-1.377-1.375-4.828.906-6.756.465-1.736-.396-3.918-4.01-5.695-4.142-1.867-.138-4.727 3.294-6.594 3.415-1.792.115-4.947-2.693-6.721-2.433-1.971.29-4.297 4.672-6.29 4.726-1.634.045-4.292-3.287-5.888-2.942-1.901.41-1.7 4.92-3.387 5.858-1.007.56-3.837-.801-4.649 0-.777.768.569 4.377.569 4.377z"/></svg>