<svg xmlns="http://www.w3.org/2000/svg" width="64" height="64" viewBox="0 0 64 64"><path fill="#594640" d="M32 2c-13.444 0-20.78 8.512-20.78 19.727V44.42h41.559V21.727c0-16.669-11.248-16.357-11.248-16.357S40.688 2 32 2z"/><path fill="#C28FEF" d="M51.064 36.701c-5.14-4.691-18.951 4.266-19.064 4.34-.115-.074-13.925-9.031-19.065-4.34-4.84 4.416.791 25.299.791 25.299h36.547s5.631-20.883.791-25.299z"/><path fill="#D6A57C" d="M17.681 33.229s-3.115-.248-3.908-4.732c-.621-3.547 1.514-4.554 1.514-4.554C23 20 34.588 9.572 34.588 9.572S40 15 46.207 18.488c0 0 2.396.028 3.053 3.75.793 4.483-2.168 5.805-2.168 5.805 1.154 6.771-6.494 16.529-12.018 17.504-5.519.974-16.199-5.555-17.393-12.318z"/><path fill="#664E27" d="M28.643 40.939c-.109-.049-.186-.127-.201-.232-.129-.719 2.152-2.664 5.248-3.209 3.1-.547 5.836.51 5.963 1.227a.35.35 0 0 1-.084.289s-2.648-1.055-5.703-.518c-3.046.537-5.223 2.443-5.223 2.443zM18.146 23c-.09-.053-.142-.121-.146-.211-.039-.602 2.028-1.469 4.627-1.625 2.602-.158 4.754.449 4.791 1.053a.29.29 0 0 1-.098.228s-2.068-.396-4.631-.239c-2.556.151-4.543.794-4.543.794zM42.779 16.699c.061-.084.08-.166.047-.25-.215-.564-2.453-.496-4.885.438-2.432.937-4.139 2.382-3.924 2.942a.29.29 0 0 0 .186.168s1.715-1.217 4.115-2.141c2.389-.915 4.461-1.157 4.461-1.157z"/><path fill="#B58360" d="M36.951 34.387c.18 1.021-2.77 1.848-3.461 1.969-.697.123-3.766.291-3.945-.732 0-.001 7.314-1.747 7.406-1.237z"/><path fill="#F5F5F5" d="M27.141 29.75c.861-.152.354-2.365.354-2.365-3.693-5.454-8.928-.665-8.928-.665-2.107 1.429 1.78 4.079 2.336 4.131 2.618.235 6.238-1.101 6.238-1.101z"/><path fill="#664E27" d="M26.027 27.147a2.86 2.86 0 1 1-5.636.994 2.862 2.862 0 1 1 5.636-.994z"/><path fill="#231F20" d="M24.191 27.473a.999.999 0 1 1-1.969.347.997.997 0 0 1 .814-1.159.996.996 0 0 1 1.155.812z"/><path fill="#231F20" d="M28.385 28.108c-.877-.754-1.74-1.476-2.684-1.974-.938-.495-1.939-.736-2.955-.623-1.023.08-2.037.479-3.092.877-.529.203-1.072.406-1.655.543-.563.125-1.264.18-1.746-.188.575.121 1.085-.086 1.566-.33.49-.24.964-.541 1.467-.814.988-.563 2.104-1.076 3.355-1.202a5.307 5.307 0 0 1 1.871.174 5.456 5.456 0 0 1 1.652.829c.982.719 1.709 1.671 2.221 2.708z"/><g><path fill="#F5F5F5" d="M37.131 27.988c-.863.151-1.143-2.101-1.143-2.101 1.604-6.39 8.162-3.681 8.162-3.681 2.471.621-.279 4.441-.785 4.682-2.375 1.118-6.234 1.1-6.234 1.1z"/><path fill="#664E27" d="M42.924 24.17a2.866 2.866 0 0 1-2.32 3.322 2.868 2.868 0 0 1-3.318-2.328 2.87 2.87 0 0 1 2.322-3.319 2.863 2.863 0 0 1 3.316 2.325z"/><path fill="#231F20" d="M41.09 24.492a.997.997 0 0 1-.813 1.16.994.994 0 0 1-1.154-.811.997.997 0 0 1 .809-1.157.996.996 0 0 1 1.158.808z"/><path fill="#231F20" d="M35.4 26.873c.127-1.15.48-2.293 1.158-3.306a5.425 5.425 0 0 1 1.268-1.344 5.337 5.337 0 0 1 1.699-.804c1.221-.312 2.439-.209 3.563-.021.568.087 1.115.207 1.656.267.539.063 1.09.082 1.588-.226-.328.511-1.006.698-1.578.772-.596.072-1.176.065-1.742.058-1.123-.017-2.215-.043-3.201.229-.992.24-1.852.812-2.566 1.6-.714.795-1.278 1.769-1.845 2.775z"/></g><g><path opacity=".2" fill="#231F20" d="M16.603 49.947L15.769 62h11.149l-1.295-12.805h-.797c-.092-.662-.24-1.391-1.105-3.242-1.533-3.277-7.446-2.09-9.683-1.535l-2.017 5.557c3.623.443 4.582-.028 4.582-.028z"/><path fill="#D6A57C" d="M17.422 50.418l.046-1.061S7.293 51.488 3.452 47.939c-4.834-4.463 3.431-1.992 9.585-3.521 2.237-.557 8.15-1.742 9.683 1.535 1.654 3.537 1.256 4.463 1.256 4.463h-6.554v.002z"/><path fill="#C28FEF" d="M16.32 62l.744-12.318h7.711L25.918 62z"/></g><g><path opacity=".2" fill="#231F20" d="M47.396 49.947L48.23 62H37.082l1.295-12.805h.795c.094-.662.24-1.391 1.107-3.242 1.533-3.277 7.445-2.09 9.682-1.535l2.018 5.557c-3.624.443-4.583-.028-4.583-.028z"/><path fill="#D6A57C" d="M46.576 50.418l-.045-1.061s10.174 2.131 14.016-1.418c4.834-4.463-3.432-1.992-9.586-3.521-2.236-.557-8.148-1.742-9.682 1.535-1.656 3.537-1.256 4.463-1.256 4.463h6.553v.002z"/><path fill="#C28FEF" d="M47.68 62l-.744-12.318h-7.711L38.082 62z"/></g></svg>