<svg xmlns="http://www.w3.org/2000/svg" width="64" height="64" viewBox="0 0 64 64"><path fill="#B58360" d="M26.693 32.826h10.613v6.469H26.693z"/><path fill="#3E4347" d="M54 62l-5-22c-.184-.807-1.164-3.201-3.48-3.371-8.52-.629-8.223-.44-8.223-.44 0 1.627-2.379 2.953-5.309 2.953s-5.299-1.326-5.299-2.953c0 0 .311-.189-8.208.438-2.202.162-3.255 2.375-3.481 3.373l-5 22h6l3-14 1 14h24l1-14 3 14h6z"/><path fill="#FFF" d="M32 61.049s8.27-14.473 7.439-19.432c-.176-1.025-1.486-2.779-2.447-3.955-.717 1.459-2.672 2.518-5 2.518-2.316 0-4.273-1.059-4.986-2.51-.961 1.174-2.271 2.924-2.443 3.947C23.729 46.576 32 61.049 32 61.049z"/><g fill="#646464"><path d="M32 61.049l10.979-13.746-4.073-6.174z"/><path d="M37.307 35.145s4.094 3.465 5.082 6.859l-2.146 2.219-3.25-6.561.314-2.517z"/><g><path d="M31.998 61.049L21.021 47.303l4.073-6.174z"/><path d="M26.693 35.145s-4.094 3.465-5.082 6.859l2.146 2.219 3.25-6.561-.314-2.517z"/></g></g><path fill="#3E4347" d="M38.416 42.244c.459 1.086-4.807-1.023-4.807-1.023v-2.395s5.119-2.824 4.781-1.695c-.415 1.39-.355 4.215.026 5.113z"/><path fill="#646464" d="M36.219 39.83l-2.17-.17 1.443-1.209-1.883.975v1.219l2.123.617-1.627-.946z"/><g><path fill="#3E4347" d="M25.586 42.244c-.461 1.086 4.805-1.023 4.805-1.023v-2.395s-5.119-2.824-4.781-1.695c.415 1.39.355 4.215-.024 5.113z"/><path fill="#646464" d="M27.781 39.83l2.17-.17-1.443-1.209 1.883.975v1.219l-2.121.617 1.625-.946z"/></g><path fill="#3E4347" d="M33.564 41.553c-.553.537-2.576.537-3.131 0-.553-.539-.553-2.508 0-3.045.555-.539 2.578-.539 3.131 0 .555.537.555 2.506 0 3.045z"/><g fill="#3E4347"><path d="M32 43.746l-1.158 1.125L32 45.998l1.158-1.127zM32 48.82l-1.158 1.127L32 51.072l1.158-1.125zM32 53.895l-1.158 1.126L32 56.148l1.158-1.127z"/></g><g><path fill="#594640" d="M16.417 18.325l1.607 2.937h27.947l1.217-3.135c0-11.246-2.615-16.01-15.059-16.125-12.568-.116-15.712 4.875-15.712 16.323z"/><path fill="#D6A57C" d="M46.027 18.135c-.1.648-.23 1.26-.414 1.604-.33.618-1.002.97-1.002.97s.182-1.256.117-3.012c-.701-10.365-1.307-5.386-12.73-5.386-11.418 0-12.027-4.976-12.73 5.371-.064 1.766.117 3.026.117 3.026s-.673-.352-1.001-.97c-.184-.345-.316-.956-.413-1.604-1.081-.282-2.471-.045-2.471 3.066 0 1.936.709 3.523 3.101 3.697.839 6.479 9.509 10.806 13.398 10.806 3.885 0 12.557-4.326 13.398-10.806 2.393-.174 3.104-1.762 3.104-3.697-.001-3.111-1.396-3.348-2.474-3.065z"/><g><circle fill="#664E27" cx="26.138" cy="21.012" r="2.397"/><circle fill="#664E27" cx="37.86" cy="21.012" r="2.397"/></g></g><path fill="#664E27" d="M36 28.429C36 30.144 34 31 32 31s-4-.856-4-2.571c0 0 0-.429.4-.429h7.199c.401 0 .401.429.401.429z"/></svg>