<svg xmlns="http://www.w3.org/2000/svg" width="64" height="64" viewBox="0 0 64 64"><path fill="#B47D56" d="M33.504 17.984l-3.131-1.752v10.752h6.943z"/><path fill="#935E3E" d="M38.178 22.928c-2.045 1.26-.861 4.056-.861 4.056-2.848 0-4.827-5.572-4.827-9l5.688 4.944z"/><path fill="#B47D56" d="M31.417 3.936l12.418 4.303c1.572 2.88.502 4.402.557 5.647.023.553 1.143 1.562 1.736 2.089 1.324 1.181-.893 2.133-1.721 1.96-.525 1.236 1.027 1.95-2.658 1.231 0 0 3.791 1.616 1.1 2.347.27 1.489.533 4.322-7.215 1.39-2.305-.871-3.145-4.919-3.145-4.919l-3.887-.679 2.815-13.369z"/><path fill="#231F20" d="M40.225 2.884C32.068.169 27.619 4.399 26.844 6.278c-2.066 4.998-.291 10.567 3.529 14.755 0 0 1.793-.758 2.117-3.049 0 0-2.023.909-2.918-3.375-.76-3.641 3.098-5.508 5.012-.55h.52c1.078-2.469-.881-5.598 2.002-6.559 2.541-.848 7.051 1.387 7.051 1.387.808-1.575-.6-4.892-3.932-6.003z"/><path fill="#664E27" d="M41.301 13.917c0 .779.443 1.412.99 1.412s.705-.633.705-1.412-.158-1.412-.705-1.412-.99.632-.99 1.412z"/><path fill="#935E3E" d="M33.486 14.913c0-1.523-1.268-2.829-2.536-2.829 0 0 2.18 1.794 1.623 4.236.001 0 .913-.352.913-1.407z"/><path fill="#664E27" d="M40.488 18.88s1.525 1.136 2.049 1.395c1.107.555 1.295.208.664-.292-.508-.402-1.451-.816-1.451-.816l-1.262-.287z"/><path fill="#B47D56" d="M25.142 22.922l-2.563-5.955-3.543 1.512 2.885 6.713c.361.965 3.949 2.115 3.949 2.115l1.867-.908v-2.445l-2.595-1.032z"/><path fill="#3E4347" d="M17.892 58.623l.889-4.091c-.896-.774-1.199-.789-1.217-.798a1.327 1.327 0 0 0-1.744.597L12 61.792c1.427.682 4.335-.292 5.892-3.169zM31.642 54.926l1.489-3.822c-.973-.686-3.27-1.699-3.27-1.699L25.824 58.2c1.494.541 4.379-.392 5.818-3.274z"/><g fill="#B47D56"><path d="M18.781 54.532l-.889 4.091s4.881-1.473 8.256-2.023c3.398-.555 6.154-7.499 6.154-7.499l-5.758-1.195s-1.309 4.693-2.271 4.672c-1.861-.039-3.916 2.292-5.492 1.954zM31.642 54.926l1.489-3.822c1.414.383 2.043-.331 3.471.358 1.498.722.449-2.28.449-2.28l6.111-.806s-.441 10.329-5.646 8.286c-3.188-1.252-5.874-1.736-5.874-1.736z"/></g><path fill="#B5DE24" d="M15.958 8.777c-3.078 1.753-4.131 5.634-2.355 8.673 1.777 3.039 5.711 4.076 8.787 2.322 3.074-1.752 4.131-5.633 2.354-8.671-1.776-3.04-5.709-4.078-8.786-2.324z"/><path fill="#C94747" d="M38.443 26.5l4.332 1.61-.513 4.068-5.116-1.67z"/><path fill="#B47D56" d="M51.723 38.768c-1.082-2.514-1.289-3.104-2.518-2.764 0 0-2.75-5.552-3.502-6.253-.828-.773-2.928-1.641-2.928-1.641l-.514 4.068.754.246 2.664 5.053c-.938.931.066 2.811 1.123 2.88 1.624 3.743 6.391 1.827 4.921-1.589z"/><path fill="#ED4C5C" d="M42.68 40.718s-2.643-9.788-3.748-13.62c-.918-3.182-8.895-2.352-9.129-2.326l-2.064-.818a4.217 4.217 0 0 1-1.867 3.354s3.666 1.441 3.742 1.461l-.502 11.95-3.615 6.973 7.064 1.464c.361-.729.713-1.433 1.049-2.077.654-1.25 1.893-1.075 2.367.324.221.635.426 1.242.617 1.841l6.828-.904-.742-7.622z"/><path fill="#FFCE31" d="M25.496 47.69l1.078.224 1.73-2.324v2.682l1.051.218v-6.077zM41.67 48.569l1.088-.143.478-1.997-.302-3.112zM35.637 29.194l-1.869-4.482a18.92 18.92 0 0 0-1.161-.051l.676 1.621-2.305-1.594c-.664.033-1.121.078-1.176.084l-1.322-.525 7.157 4.947zM39.125 27.78c-.066-.24-.135-.473-.193-.682a2.141 2.141 0 0 0-.586-.941l-1.266 3.037 2.045-1.414zM36.535 26.721l.742-1.266c-.662-.299-1.447-.492-2.266-.613l1.524 1.879z"/><path fill="#3E4347" d="M25.853 49.579a7.387 7.387 0 0 1-2.404 2.69c.361 4.027 2.619 4.514 2.619 4.514 1.691 0 3.355-1.142 3.787-2.705-.295-1.164-1.434-3.015-4.002-4.499zM37.283 51.038a1.59 1.59 0 0 1-.402.342c-.428 4.169.529 5.531.529 5.531 3.387 1.064 4.68-2.322 4.68-2.322-.838-2.31-3.135-3.551-4.807-3.551z"/><path fill="#ED4C5C" d="M16.152 8.678c.336.383.824.852 1.525 1.443 2.709 2.287 3.1 1.799 3.594 1.205.494-.592.9-1.066-1.805-3.352-.016-.015-.031-.026-.047-.039a6.452 6.452 0 0 0-3.267.743zM16.861 20.196c.188-.496.371-1.215.555-2.264.613-3.506-.002-3.602-.76-3.736s-1.369-.252-1.982 3.25c-.078.447-.135.836-.178 1.18a6.413 6.413 0 0 0 2.365 1.57zM25.574 13.694a15.65 15.65 0 0 0-1.797.561c-3.322 1.217-3.098 1.803-2.834 2.529.262.729.467 1.32 3.787.104l.359-.135a6.303 6.303 0 0 0 .485-3.059z"/><g><path fill="#42ADE2" d="M25.576 13.766c-.002-.023 0-.049-.002-.072-.092.02-.189.047-.287.072h.289z"/></g><path fill="#E8E8E8" d="M36.193 37.45c-5.399 0-5.399-4.762 0-4.762 5.401 0 5.401 4.762 0 4.762z"/></svg>