<svg xmlns="http://www.w3.org/2000/svg" width="64" height="64" viewBox="0 0 64 64"><g fill="#D6A57C"><path d="M44.645 33.732l6.697 3.726 6.65 6.807-3.691 2.464-5.506-5.969-5.268-2.764z"/><path d="M55.236 44.983l-1.906 1.674a1.714 1.714 0 0 0-.203 2.349l.77.953c.41.505 1.047.691 1.627.54 1.111 1.192 2.902 2.462 5.18.46.377-.329 2.461-2.157.398-4.701-3.038-3.756-3.038-3.756-5.866-1.275z"/></g><path fill="#D6A57C" d="M22.594 58.849c-2.031 1.471-4.568 1.263-4.568 2.207s1.622.944 3.857.944c2.131 0 4.467-1.889 5.582-.946 1.119.946 2.437.946 3.859.946 1.42 0 1.32-2.101-.002-2.101-1.318 0-3.029-2.833-3.316-4.026-.676-2.834-1.529-8.525-1.529-8.525s-.496 1.456 2.684-4.325c0 0 2.42-5.013.799-6.687-1.785-1.85-3.656-.171-5.752 5.34-2.072 5.449-1.984 5.485-1.984 5.485l1.359 7.856c.241 1.396 1.04 2.363-.989 3.832z"/><path fill="#D6A57C" d="M28.639 38.92c0-1.986 2.393-3.598 5.34-3.597 2.953-.001 5.342 1.609 5.342 3.597.002 1.986-2.391 3.598-5.342 3.598-2.95 0-5.34-1.612-5.34-3.598z"/><path fill="#3E4347" d="M29.16 43.022s.514-.755 2.838-.806c-.027-.193-.057-.384-.059-.584 0-2.29 1.795-4.147 4.008-4.147 1.41 0 2.646.757 3.359 1.896l2.127-.733 2.873.105s2.076-2.718 3.178-5.384c0 0-6.184.534-9.869-6.227l-5.039-2.382-4.279 3.392s-2.309 3.788-2.309 9.668c0 0 3.17.765 3.172 5.202zM49.553 6.509l-3.818-1.082c-.373-1.426-.23-1.773-.23-1.799.001-.882.694-1.608 1.556-1.628h8.215c-.233 2.191-3.442 4.241-5.723 4.509z"/><path fill="#D6A57C" d="M45.734 5.427l3.818 1.082s-1.918 5.143-2.938 8.938c-.324 1.188-1.236 1.587-1.619 2.082-2.4 3.074-7.119 6.369-7.119 6.369l-4.113-4.623s3.447-3.331 6.979-5.204c.35-.186 1.713-1.251 1.898-2.437.366-2.286 2.641-4.259 3.094-6.207z"/><path fill="#3E4347" d="M9.322 15.438l2.609-3.028c-.453-1.401-.762-1.611-.773-1.634a1.595 1.595 0 0 0-2.184-.496L2 14.693c1.379 1.704 5.271 1.789 7.322.745z"/><path fill="#D6A57C" d="M11.932 12.41l-2.609 3.028s4.072 2.783 6.494 5.864c.764.966 1.76.97 2.305 1.271 3.406 1.874 9.031 3.028 9.031 3.028l1.975-5.882s-5.332-1.853-9.311-2.172c-.393-.03-1-.024-1.797-.914-1.54-1.71-4.655-2.845-6.088-4.223z"/><path fill="#428BC1" d="M22.559 25.13s.6-4.288 4.01-7.038c0 0 4.316 1.909 5.322 1.806 1.018-.107 4.543-3.425 4.543-3.425s3.404 1.924 5.811 5.788l-4.629 4.882s-2.578-1.254-9.318 1.01c-.001-.001-2.595-.818-5.739-3.023z"/><path fill="#3E4347" d="M23.135 42.518s3.725.797 4.914 3.575c0 0 .756-2.72 2.563-5.429l-4.309-3.812c0 .001-1.608 2.101-3.168 5.666z"/><g><path fill="#594640" d="M48.729 47.184l-1.607-1.346-16.302 6.374.006 2.106c2.564 6.559 5.176 8.74 12.459 5.97 7.36-2.799 8.053-6.428 5.444-13.104z"/><path fill="#D6A57C" d="M31.502 54.049c-.092-.4-.152-.787-.125-1.029.053-.437.363-.794.363-.794s.18.773.619 1.782c2.771 5.886 1.99 2.843 8.652.237 6.658-2.604 8.148.159 6.199-6.035-.365-1.045-.758-1.738-.758-1.738s.473.051.805.337c.186.159.402.484.605.841.695-.081 1.451-.537.742-2.351-.441-1.13-1.217-1.894-2.65-1.449-1.969-3.588-8.012-4.133-10.279-3.246-2.266.887-6.336 5.387-5.35 9.358-1.355.646-1.408 1.733-.967 2.863.71 1.815 1.58 1.635 2.144 1.224z"/><circle fill="#664E27" cx="42.331" cy="47.543" r="1.5"/><circle fill="#664E27" cx="35.494" cy="50.218" r="1.502"/><path fill="#664E27" d="M35.016 45.501c1.002-1.682 2.602-2.3 4.469-1.747.225.065.289-.228.088-.396-.748-.628-1.908-.996-3.035-.556s-1.732 1.499-1.855 2.469c-.035.26.213.43.333.23z"/></g></svg>