<svg xmlns="http://www.w3.org/2000/svg" width="64" height="64" viewBox="0 0 64 64"><path fill="#231F20" d="M32.001 2c-13.444 0-20.78 8.512-20.78 19.727V44.42H52.78V21.727C52.78 5.058 41.533 5.37 41.533 5.37S40.688 2 32.001 2z"/><path fill="#C28FEF" d="M51.064 36.701c-5.14-4.691-18.95 4.266-19.064 4.34-.114-.074-13.925-9.031-19.064-4.34-4.84 4.416.791 25.299.791 25.299h36.547c-.001 0 5.63-20.883.79-25.299z"/><path fill="#B47D56" d="M17.682 33.229s-3.115-.248-3.908-4.732c-.621-3.547 1.514-4.554 1.514-4.554C23 20 34.588 9.572 34.588 9.572S40 15 46.207 18.488c0 0 2.396.028 3.053 3.75.793 4.483-2.168 5.805-2.168 5.805 1.154 6.771-6.494 16.529-12.018 17.504-5.519.974-16.198-5.555-17.392-12.318z"/><path fill="#664E27" d="M28.643 40.939c-.109-.049-.185-.127-.201-.232-.129-.719 2.152-2.664 5.248-3.209 3.101-.547 5.836.51 5.963 1.227a.35.35 0 0 1-.084.289s-2.648-1.055-5.703-.518c-3.046.537-5.223 2.443-5.223 2.443zM18.146 23c-.09-.053-.142-.121-.146-.211-.039-.602 2.027-1.469 4.627-1.625 2.602-.158 4.754.449 4.791 1.053a.29.29 0 0 1-.098.228s-2.068-.396-4.631-.239c-2.556.151-4.543.794-4.543.794zM42.779 16.699c.061-.084.08-.166.047-.25-.215-.564-2.453-.496-4.885.438-2.432.937-4.139 2.382-3.924 2.942.028.076.1.141.187.168 0 0 1.714-1.217 4.114-2.141 2.389-.915 4.461-1.157 4.461-1.157z"/><path fill="#935E3E" d="M36.951 34.387c.18 1.021-2.77 1.848-3.461 1.969-.697.123-3.766.291-3.945-.732 0-.001 7.314-1.747 7.406-1.237z"/><path fill="#F5F5F5" d="M27.141 29.75c.862-.152.354-2.365.354-2.365-3.692-5.454-8.928-.665-8.928-.665-2.107 1.429 1.779 4.079 2.336 4.131 2.618.235 6.238-1.101 6.238-1.101z"/><path fill="#664E27" d="M26.027 27.147a2.86 2.86 0 1 1-5.636.994 2.862 2.862 0 0 1 5.636-.994z"/><path fill="#231F20" d="M24.191 27.473a.998.998 0 0 1-.808 1.16.998.998 0 0 1-1.161-.813.997.997 0 0 1 .814-1.159.996.996 0 0 1 1.155.812z"/><path fill="#231F20" d="M28.386 28.108c-.877-.754-1.741-1.476-2.684-1.974-.938-.495-1.94-.736-2.955-.623-1.024.08-2.037.479-3.093.877-.528.203-1.071.406-1.654.543-.563.125-1.264.18-1.746-.188.575.121 1.085-.086 1.566-.33.49-.24.964-.541 1.467-.814.988-.563 2.104-1.076 3.355-1.202a5.305 5.305 0 0 1 1.871.174 5.444 5.444 0 0 1 1.652.829c.981.719 1.708 1.671 2.221 2.708z"/><g><path fill="#F5F5F5" d="M37.131 27.988c-.863.151-1.143-2.101-1.143-2.101 1.604-6.39 8.162-3.681 8.162-3.681 2.472.621-.278 4.441-.784 4.682-2.376 1.118-6.235 1.1-6.235 1.1z"/><path fill="#664E27" d="M42.925 24.17a2.866 2.866 0 0 1-2.321 3.322 2.869 2.869 0 0 1-3.318-2.328 2.87 2.87 0 0 1 2.322-3.319 2.865 2.865 0 0 1 3.317 2.325z"/><path fill="#231F20" d="M41.091 24.492a.999.999 0 1 1-1.967.351.999.999 0 0 1 1.967-.351z"/><path fill="#231F20" d="M35.4 26.873c.127-1.15.481-2.293 1.158-3.306a5.41 5.41 0 0 1 1.269-1.344 5.332 5.332 0 0 1 1.698-.804c1.221-.312 2.44-.209 3.563-.021.568.087 1.115.207 1.657.267.538.063 1.089.082 1.588-.226-.329.511-1.006.698-1.579.772-.595.072-1.175.065-1.742.058-1.123-.017-2.215-.043-3.201.229-.992.24-1.852.812-2.565 1.6-.715.795-1.278 1.769-1.846 2.775z"/></g><g><path opacity=".2" fill="#231F20" d="M16.604 49.947L15.77 62h11.148l-1.295-12.805h-.796c-.093-.662-.24-1.391-1.106-3.242-1.533-3.277-7.445-2.09-9.683-1.535l-2.017 5.557c3.624.443 4.583-.028 4.583-.028z"/><path fill="#B47D56" d="M17.423 50.418l.046-1.061S7.294 51.488 3.453 47.939c-4.834-4.463 3.431-1.992 9.585-3.521 2.237-.557 8.149-1.742 9.683 1.535 1.655 3.537 1.256 4.463 1.256 4.463h-6.554v.002z"/><path fill="#C28FEF" d="M16.32 62l.744-12.318h7.711L25.918 62z"/></g><g><path opacity=".2" fill="#231F20" d="M47.396 49.947L48.23 62H37.082l1.295-12.805h.796c.093-.662.24-1.391 1.106-3.242 1.533-3.277 7.445-2.09 9.683-1.535l2.017 5.557c-3.624.443-4.583-.028-4.583-.028z"/><path fill="#B47D56" d="M46.577 50.418l-.046-1.061s10.175 2.131 14.016-1.418c4.834-4.463-3.431-1.992-9.585-3.521-2.237-.557-8.149-1.742-9.683 1.535-1.655 3.537-1.256 4.463-1.256 4.463h6.554v.002z"/><path fill="#C28FEF" d="M47.68 62l-.744-12.318h-7.711L38.082 62z"/></g></svg>