<svg xmlns="http://www.w3.org/2000/svg" width="64" height="64" viewBox="0 0 64 64"><path fill="#D6A57C" d="M38.58 32.709v-1.643h-4.436v1.643c0 .907-.693 1.641-1.547 1.641h7.531c-.851 0-1.548-.734-1.548-1.641z"/><path fill="#D6A57C" d="M42.037 39.34H30.695l.004-5.08h11.34z"/><path fill="#75A843" d="M25.916 34.26c-1.396 0-2.072.795-2.555 1.344L7.304 53.809h3.241c2.535 0 3.275-.928 3.998-1.744l15.71-17.805h-4.337z"/><path fill="#B58360" d="M4.935 43.793l4.776 2.879c.878.526 2.046.264 2.594-.584a1.783 1.783 0 0 0-.594-2.505l-4.776-2.878c-.873-.525-2.043-.26-2.594.586a1.785 1.785 0 0 0 .594 2.502z"/><path fill="#3E4347" d="M17.686 48.268c0 .629-.515 1.145-1.143 1.145h-9.14a1.148 1.148 0 0 1-1.143-1.145V27.669c0-.63.514-1.145 1.143-1.145h9.14c.628 0 1.143.515 1.143 1.145v20.599z"/><circle fill="#B2C1C0" cx="11.974" cy="31.102" r="1.143"/><circle fill="#3E4347" cx="11.974" cy="31.102" r=".571"/><path fill="#D6A57C" d="M12.831 51.52a2.293 2.293 0 0 1-2.285 2.289h-4.26A2.294 2.294 0 0 1 4 51.52v-7.734a2.294 2.294 0 0 1 2.286-2.289h4.26a2.294 2.294 0 0 1 2.285 2.289v7.734z"/><path fill="#B58360" d="M53.379 24.902l-.002 4.187c.002.769.619 1.419 1.377 1.444a1.335 1.335 0 0 0 1.379-1.35l.002-4.187c0-.767-.623-1.417-1.379-1.443a1.335 1.335 0 0 0-1.377 1.349z"/><path fill="#D6A57C" d="M60 34.053c0 .943-.771 1.717-1.715 1.717H55.09a1.721 1.721 0 0 1-1.713-1.717v-5.801a1.72 1.72 0 0 1 1.713-1.717h3.195A1.72 1.72 0 0 1 60 28.252v5.801z"/><path fill="#FFF" d="M16.276 28.725a.286.286 0 0 1-.285.285h-.571a.285.285 0 0 1-.285-.285v-.572c0-.158.127-.287.285-.287h.571c.157 0 .285.129.285.287v.572z"/><path fill="#75A843" d="M54.338 35.604a773.68 773.68 0 0 0-2.693 6.021 737.668 737.668 0 0 0-2.693-6.021c-.301-.666-1.156-1.344-2.553-1.344h-2.598s3.527 7.863 4.697 10.486c.021.051.916 2.012 2.842 2.016h.242c.625-.016 2.4-.215 3.213-2.024 0-.003.004-.006.004-.009l4.088-9.125h-4.549z"/><path fill="#83BF4F" d="M46.377 34.26h-5.566c-.5 2.114-2.297 3.688-4.443 3.688-2.145 0-3.949-1.573-4.443-3.688h-5.561l-.006 25.707S29.809 62 36.368 62c6.549 0 10.008-2.033 10.008-2.033l.001-25.707z"/><path fill="#594640" d="M22.377 16.65l1.441 2.637H48.9l1.094-2.814c0-10.093-2.348-14.367-13.514-14.471-11.281-.106-14.103 4.375-14.103 14.648z"/><path fill="#D6A57C" d="M48.951 16.48c-.088.582-.207 1.13-.371 1.439-.297.555-.898.87-.898.87s.162-1.127.104-2.703c-.629-9.302-1.172-4.833-11.424-4.833-10.248 0-10.795-4.465-11.424 4.82-.059 1.584.104 2.716.104 2.716s-.604-.315-.898-.87c-.164-.31-.285-.857-.369-1.439-.971-.255-2.219-.041-2.219 2.751 0 1.737.637 3.162 2.783 3.317.754 5.815 8.533 9.697 12.023 9.697 3.486 0 11.27-3.882 12.025-9.697 2.146-.155 2.783-1.58 2.783-3.317 0-2.792-1.25-3.005-2.219-2.751z"/><g><circle fill="#664E27" cx="31.103" cy="19.51" r="2.151"/><circle fill="#664E27" cx="41.623" cy="19.51" r="2.152"/></g><path fill="#664E27" d="M40.367 26.725c0 1.523-2 2.285-4 2.285s-4-.762-4-2.285c0 0 0-.381.4-.381h7.199c.401 0 .401.381.401.381z"/></svg>