<svg xmlns="http://www.w3.org/2000/svg" width="64" height="64" viewBox="0 0 64 64"><path fill="#D0D0D0" d="M41.923 38.397c-3.313-3.313-5.575-5.574-10.413-10.414-3.14-3.138-.436-11.01-8.597-19.174C17.115 3.012 7.606-.18 3.712 3.711-.183 7.607 3.013 17.117 8.81 22.914c8.163 8.161 16.034 5.456 19.174 8.597 4.839 4.836 7.101 7.097 10.414 10.412 4.34 4.34 4.608 5.768 11.296 14.822 3.307 4.48 6.475 7.331 10.429 3.376 3.953-3.952 1.103-7.12-3.378-10.427-9.054-6.687-10.482-6.956-14.822-11.297z"/><path fill="#FFF" d="M15.628 5.899c5.392 6.947 7.131 14.925 4.379 20.102.185.045.361.083.543.127 1.908.017 3.59-.535 4.792-1.738 1.207-1.208 1.976-2.91 1.738-4.819-.356-2.849-1.871-5.997-5.185-9.309a21.995 21.995 0 0 0-6.267-4.363z"/><path fill="#94989B" d="M13.152 23.729C6.261 16.836 3.964 7.897 7.74 3.291c-1.295.122-2.386.542-3.147 1.302-3.115 3.114-.588 11.752 5.098 17.44 2.298 2.296 4.558 3.668 6.7 4.564-.022-.044-.042-.087-.065-.127a29.322 29.322 0 0 1-3.174-2.741z"/></svg>