<svg xmlns="http://www.w3.org/2000/svg" width="64" height="64" viewBox="0 0 64 64"><path opacity=".8" fill="#A1B8C7" d="M29.319 5.658s-2.164-1.934-6.158-3.01c-3.998-1.076-6.834-.488-6.834-.488s-.412-.201-1.953 3.982c-2.861 7.781-4.16 14.537-1.982 27.42.574 3.395.607 4.332-.781 9.541-1.1 4.123-2.421 6.959-3.187 8.404-3.359-.621-6.076-.283-6.394.91-.371 1.396 2.666 3.422 6.789 4.531 4.119 1.109 7.762.879 8.133-.514.326-1.227-1.985-2.946-5.354-4.098.059-1.643.328-4.75 1.422-8.852 1.389-5.211 1.887-6.008 4.072-8.654 8.303-10.066 10.539-16.57 11.934-24.746.75-4.396.293-4.426.293-4.426z"/><path fill="#FFF" d="M9.267 55.268c-5.117-1.379-5.578-2.402-5.578-2.402.338 1.938 4.736 3.076 5.354 3.244.658.176 4.996 1.387 6.252-.121-.001-.001-.909.654-6.028-.721z"/><path opacity=".33" fill="#3E4347" d="M8.739 52.369c-.182.334-.102.84.408.979.588.156.707-.377 1.006-1.691.516-2.277 2.705-9.85 2.705-9.85s-1.974 6.642-4.119 10.562z"/><path fill="#FED0AC" d="M19.899 13.742c-2.568 0-5.902.166-6.984 3.133-.453 3.536-.451 7.439.137 12.296.438 3.611 3.559 4.313 5.459 1.786 6.017-8.001 7.984-13.742 9.229-20.979.333-2.789-3.534 3.764-7.841 3.764z"/><path opacity=".33" fill="#3E4347" d="M25.452 9.48c.352-2.377 1.383-1.711 1.201-.029-.182 1.684-1.867 9.297-6.006 16.092-4.132 6.785 3.448-6.865 4.805-16.063z"/><g><path opacity=".8" fill="#A1B8C7" d="M55.97 56.764c-.317-1.191-3.033-1.529-6.393-.907-.766-1.445-2.087-4.281-3.186-8.403-1.391-5.209-1.357-6.146-.781-9.541 2.176-12.885.877-19.643-1.984-27.422-1.541-4.184-1.953-3.982-1.953-3.982s-2.836-.588-6.832.49c-3.994 1.072-6.16 3.006-6.16 3.006s-.457.033.293 4.432c1.395 8.172 3.631 14.676 11.934 24.74 2.186 2.652 2.684 3.449 4.072 8.658 1.094 4.104 1.364 7.213 1.423 8.854-3.368 1.151-5.681 2.869-5.354 4.096.371 1.395 4.014 1.623 8.135.516 4.12-1.112 7.159-3.141 6.786-4.537z"/><path fill="#FFF" d="M48.733 59.615c5.119-1.379 5.578-2.402 5.578-2.402-.338 1.938-4.736 3.078-5.352 3.242-.66.178-4.996 1.389-6.254-.121.001 0 .909.658 6.028-.719z"/><path opacity=".33" fill="#3E4347" d="M49.263 56.717c.18.33.1.84-.41.975-.588.162-.705-.373-1.006-1.688-.516-2.275-2.705-9.852-2.705-9.852s1.974 6.645 4.121 10.565z"/><path fill="#FED0AC" d="M38.103 18.088c2.566 0 5.9.168 6.982 3.137.452 3.528.452 7.42-.133 12.264-.438 3.617-3.998 3.84-5.967 1.142-5.599-7.673-7.516-13.272-8.725-20.302-.333-2.794 3.534 3.759 7.843 3.759z"/><g fill="#FFF"><path opacity=".5" d="M22.511 5.627c-4.457-1.197-5.994-2.514-5.994-2.514.062.327.36.676.796 1.022-.594 1.278-3.809 8.541-3.987 16.181-.098 3.973.314 9.713.816 13.793-.088-5.191.65-13.605 1.734-18.822 1.326-6.397 2.593-9.169 3.116-10.12 1.172.594 2.487 1.086 3.296 1.304l.055.014c-.305 2.302-1.979 13.607-7.014 26.721 0 0 7.657-15.152 9.104-26.336 1.818.232 3.94.267 4.521-.408 0-.001-1.988.366-6.443-.835zM31.347 13.801c.184 1.684 1.869 9.295 6.006 16.09 4.133 6.787-3.447-6.863-4.805-16.061-.352-2.377-1.383-1.715-1.201-.029z"/><path opacity=".5" d="M33.566 11.217c1.448 11.197 9.169 27.205 9.169 27.205-5.058-13.165-6.774-25.205-7.08-27.589l.059-.015c1.676-.453 5.527-2.076 5.77-3.357 0 0-1.537 1.314-5.992 2.516-4.457 1.199-6.445.832-6.445.832.579.674 2.7.64 4.519.408z"/></g><path opacity=".33" fill="#3E4347" d="M40.909 12.201c-.828-2.295.441-2.193 1.088-.604.65 1.592 2.793 9.203 2.289 17.254-.504 8.042-.164-7.783-3.377-16.65z"/></g><g fill="#42ADE2"><path d="M47.652 18.076L62 14.74l-3.031-5.732zM49.26 21.098L57.645 28l2.55-4.912zM46 13.299l7.48-8.692L48.381 2z"/></g></svg>