<svg xmlns="http://www.w3.org/2000/svg" width="64" height="64" viewBox="0 0 64 64"><path fill="#428BC1" d="M46.063 2l-11.25 16.875h5.625L53 2z"/><path fill="#E8E8E8" d="M40.438 2l-11.25 16.875h5.625L46.063 2z"/><path fill="#ED4C5C" d="M34.813 2l-11.25 16.875h5.625L40.438 2z"/><circle fill="#B2C1C0" cx="32" cy="41.375" r="20.625"/><path fill="#B2C1C0" d="M21.688 15.125a.942.942 0 0 0-.938.938V24.5a.94.94 0 0 0 .938.938h20.625a.942.942 0 0 0 .938-.938v-8.438a.943.943 0 0 0-.938-.938H21.688zm19.687 6.563a.942.942 0 0 1-.938.938H23.563a.94.94 0 0 1-.938-.938v-3.75c0-.514.422-.938.938-.938h16.875c.514 0 .938.424.938.938v3.75z"/><path opacity=".5" fill="#3E4347" d="M14.309 43.813c0-11.167 8.626-20.293 19.566-21.107a19.312 19.312 0 0 0-1.588-.081c-10.513 0-19.037 8.538-19.037 19.069 0 3.142.771 6.098 2.115 8.71a21.214 21.214 0 0 1-1.056-6.591z"/><path opacity=".33" fill="#FFF" d="M39.926 57.314c9.265-6.227 12.07-18.358 6.698-27.745.327.404.646.814.943 1.251 5.812 8.585 3.439 20.302-5.298 26.177a19.268 19.268 0 0 1-8.395 3.128 21.428 21.428 0 0 0 6.052-2.811z"/><path fill="#ED4C5C" d="M23.563 18.875h5.625L17.938 2H11z"/><path fill="#E8E8E8" d="M29.188 18.875h5.625L23.563 2h-5.625z"/><path opacity=".5" fill="#3E4347" d="M32.938 4.813l-2.813 4.218 6.563 9.844h3.75l.937-1.406z"/><path fill="#428BC1" d="M34.813 18.875h5.625L29.188 2h-5.625z"/><path opacity=".5" fill="#3E4347" d="M31.531 31.531a3.751 3.751 0 0 0-3.75 3.75h-2.748c-.038.309-.064.62-.064.938h3.75a3.751 3.751 0 0 1 3.75-3.75c.796 0 1.531.251 2.138.675a3.742 3.742 0 0 0-3.076-1.613zM39.031 54.031H24.969v.938h15v-3.75h-.938zM31.531 42.781a3.751 3.751 0 0 0-3.75 3.75v3.75h.938v-2.813a3.751 3.751 0 0 1 3.75-3.75 7.499 7.499 0 0 0 4.812-13.25 7.499 7.499 0 0 1-5.75 12.313z"/><path opacity=".33" fill="#FFF" d="M28.719 50.281h10.313v.938H28.719zM32.469 39.969a3.745 3.745 0 1 0 2.138-6.825c.424.606.675 1.342.675 2.138a3.751 3.751 0 0 1-3.75 3.75 7.499 7.499 0 0 0-7.5 7.5v7.5h.938v-6.563a7.497 7.497 0 0 1 7.499-7.5zM32.469 28.719c1.832 0 3.508.66 4.813 1.75a7.499 7.499 0 0 0-13.25 4.812h1.002c.462-3.699 3.612-6.562 7.435-6.562z"/></svg>