<svg xmlns="http://www.w3.org/2000/svg" width="64" height="64" viewBox="0 0 64 64"><path fill="#428BC1" d="M46.063 2l-11.25 16.875h5.625L53 2z"/><path fill="#E8E8E8" d="M40.438 2l-11.25 16.875h5.625L46.063 2z"/><path fill="#ED4C5C" d="M34.813 2l-11.25 16.875h5.625L40.438 2z"/><circle fill="#D3976E" cx="32" cy="41.375" r="20.625"/><path fill="#D3976E" d="M21.688 15.125a.941.941 0 0 0-.938.938V24.5c0 .515.422.938.938.938h20.625a.941.941 0 0 0 .938-.938v-8.438a.942.942 0 0 0-.938-.938H21.688zm19.687 6.563a.942.942 0 0 1-.938.938H23.563a.941.941 0 0 1-.938-.938v-3.75c0-.515.422-.938.938-.938h16.875c.515 0 .938.422.938.938v3.75z"/><path opacity=".5" fill="#3E4347" d="M14.309 43.813c0-11.167 8.626-20.293 19.566-21.108a18.878 18.878 0 0 0-1.587-.081c-10.514 0-19.038 8.537-19.038 19.068 0 3.142.772 6.098 2.116 8.71a21.167 21.167 0 0 1-1.057-6.589z"/><path opacity=".33" fill="#FFF" d="M39.926 57.313c9.265-6.227 12.069-18.358 6.699-27.744.327.403.646.813.943 1.25 5.811 8.584 3.439 20.302-5.3 26.176a19.252 19.252 0 0 1-8.394 3.129 21.4 21.4 0 0 0 6.052-2.811z"/><path fill="#ED4C5C" d="M23.563 18.875h5.625L17.938 2H11z"/><path fill="#E8E8E8" d="M29.188 18.875h5.625L23.563 2h-5.625z"/><path opacity=".5" fill="#3E4347" d="M32.938 4.813l-2.813 4.218 6.563 9.844h3.75l.937-1.406z"/><path fill="#428BC1" d="M34.813 18.875h5.625L29.188 2h-5.625z"/><path opacity=".5" fill="#3E4347" d="M31.531 31.531a3.75 3.75 0 0 0-3.75 3.75h-2.747a7.436 7.436 0 0 0-.065.938h3.75a3.75 3.75 0 0 1 3.75-3.75c.797 0 1.531.251 2.138.675a3.742 3.742 0 0 0-3.076-1.613zM37.418 41.844a7.475 7.475 0 0 0 2.551-5.625 7.48 7.48 0 0 0-2.688-5.75 7.472 7.472 0 0 1 1.75 4.812c0 2.242-.99 4.251-2.551 5.625a7.477 7.477 0 0 1 2.551 5.625 7.499 7.499 0 0 1-12.312 5.75 7.499 7.499 0 0 0 13.25-4.812c0-2.242-.99-4.25-2.551-5.625z"/><path opacity=".33" fill="#FFF" d="M32.469 28.719c1.831 0 3.509.659 4.813 1.75a7.5 7.5 0 0 0-13.25 4.812h1.003c.461-3.698 3.61-6.562 7.434-6.562zM36.219 36.219a3.742 3.742 0 0 0-1.612-3.075c.424.606.675 1.341.675 2.138 0 2.07-1.68 3.75-3.75 3.75v3.75c.326 0 .636.055.938.132V39.97a3.753 3.753 0 0 0 3.749-3.751zM32.469 51.219c2.07 0 3.75-1.68 3.75-3.75a3.742 3.742 0 0 0-1.612-3.075c.424.606.675 1.341.675 2.138 0 2.07-1.68 3.75-3.75 3.75a3.716 3.716 0 0 1-2.138-.675 3.74 3.74 0 0 0 3.075 1.612zM27.914 47.469a3.72 3.72 0 0 1-.132-.938h-3.75a7.48 7.48 0 0 0 2.688 5.75 7.472 7.472 0 0 1-1.75-4.813h2.944z"/></svg>