<svg xmlns="http://www.w3.org/2000/svg" width="64" height="64" viewBox="0 0 64 64"><path fill="#428BC1" d="M46.063 2l-11.25 16.875h5.625L53 2z"/><path fill="#E8E8E8" d="M40.438 2l-11.25 16.875h5.625L46.063 2z"/><path fill="#ED4C5C" d="M34.813 2l-11.25 16.875h5.625L40.438 2z"/><circle fill="#FFCE31" cx="32" cy="41.375" r="20.625"/><path fill="#FFCE31" d="M21.688 15.125a.94.94 0 0 0-.938.938V24.5a.94.94 0 0 0 .938.938h20.625a.941.941 0 0 0 .938-.938v-8.438a.942.942 0 0 0-.938-.938H21.688zm19.687 6.563a.942.942 0 0 1-.938.938H23.563a.94.94 0 0 1-.938-.938v-3.75a.94.94 0 0 1 .938-.938h16.875c.514 0 .938.421.938.938v3.75z"/><path opacity=".5" fill="#89664C" d="M14.307 43.815c0-11.169 8.628-20.296 19.568-21.109a19.357 19.357 0 0 0-1.588-.081c-10.515 0-19.037 8.536-19.037 19.069a19 19 0 0 0 2.115 8.71 21.192 21.192 0 0 1-1.058-6.589z"/><path opacity=".33" fill="#FFF" d="M39.925 57.314c9.264-6.227 12.07-18.36 6.699-27.743.327.402.646.811.943 1.248 5.812 8.586 3.439 20.305-5.299 26.178a19.26 19.26 0 0 1-8.394 3.128 21.518 21.518 0 0 0 6.051-2.811z"/><path fill="#ED4C5C" d="M23.563 18.875h5.625L17.938 2H11z"/><path fill="#E8E8E8" d="M29.188 18.875h5.625L23.563 2h-5.625z"/><path opacity=".5" fill="#3E4347" d="M32.938 4.813l-2.813 4.218 6.563 9.844h3.75l.937-1.406z"/><path fill="#428BC1" d="M34.813 18.875h5.625L29.188 2h-5.625z"/><path opacity=".5" fill="#89664C" d="M26.844 35.219v1c.996 0 1.943-.2 2.813-.556V34.27c-.849.492-1.8.819-2.813.949zM33.406 28.719h.938v21.563h-.938zM37.156 51.219v2.812H26.844v.938h11.25v-3.75z"/><path opacity=".33" fill="#FFF" d="M34.344 50.281h2.813v.938h-2.813zM30.594 28.719h2.813v-.938h-3.75a3.75 3.75 0 0 1-3.75 3.75v3.75c.317 0 .629-.022.938-.063v-2.75a3.748 3.748 0 0 0 3.749-3.749zM30.594 51.219V35.208a7.96 7.96 0 0 1-.938.455v14.618h-3.75v3.75h.938v-2.813h3.75z"/></svg>