<svg xmlns="http://www.w3.org/2000/svg" width="64" height="64" viewBox="0 0 64 64"><path fill="#E8E8E8" d="M57.003 58.267C56.808 60.32 54.942 62 52.856 62H11.143c-2.086 0-3.951-1.68-4.146-3.733L2.017 5.733C1.821 3.68 3.369 2 5.455 2h53.089c2.086 0 3.635 1.68 3.439 3.733l-4.98 52.534z"/><path fill="#B2C1C0" d="M54.069 46.063c-6.309 0-12.209 3.75-12.209 3.75s11.443-1.777 10.322-.938c-8.547 6.404-34.01 6.223-38.958.469-2.688-3.125 17.189 4.319 21.122-3.281H9.931c-1.034 0-1.759.835-1.613 1.855l1.348 9.414c.146 1.021 1.11 1.855 2.144 1.855h40.38c1.033 0 1.998-.835 2.145-1.855l1.348-9.414c.144-1.021.017-1.855-1.614-1.855z"/><path fill="#89664C" d="M56.946 31.055c.096-1.027-.676-1.867-1.721-1.867H8.773c-1.044 0-1.816.84-1.72 1.867L8.122 42.32c.097 1.027 1.03 1.867 2.073 1.867h43.608c1.043 0 1.977-.84 2.074-1.867l1.069-11.265z"/><path fill="#E8E8E8" d="M18.529 55.32c-3.578-.688-7.407-4.111-7.154-1.172.434 5.039 1.641 3.047 12.656 3.047s-4.291-1.641-5.502-1.875zM46.142 55.32c3.578-.688 7.408-4.111 7.154-1.172-.434 5.039-1.641 3.047-12.656 3.047s4.291-1.641 5.502-1.875z"/><path opacity=".67" fill="#594640" d="M53.562 41.375c0-.518 0-.938-21.562-.938-21.702 0-21.562.42-21.562.938s-.14.938 21.562.938c21.562 0 21.562-.42 21.562-.938z"/><path opacity=".67" fill="#FF8736" d="M51.733 40.396c1.039.224 1.984-.471 2.104-1.539l.65-5.872c.119-1.069-.654-1.932-1.715-1.922H10.309c-1.061.013-1.08.273-.043.494 0 0 5.691.253 11.296 1.449 3.924.834 5.328 2.096 9.883 3.066 4.408.938 6.646.457 10.656 1.311 5.078 1.082 9.632 3.013 9.632 3.013z"/><path opacity=".5" fill="#FFF" d="M45.126 40.439c-.023 1.029.764 1.873 1.748 1.873h5.48c.984 0 1.895-.837 2.02-1.858.979-7.976 2.881-25.808 3.861-33.783.125-1.021-.574-1.858-1.557-1.858h-9.061c-.982 0-1.807.844-1.828 1.873-.167 7.969-.497 25.784-.663 33.753z"/><path opacity=".5" fill="#B2C1C0" d="M31.898 27.749c.262-1.12.002-2.86-.58-3.866l-3.705-6.44c-.58-1.007-1.943-1.595-3.033-1.307l-7.333 1.936c-1.089.287-2.364 1.374-2.833 2.417l-2.761 6.131c-.32.712-.352 1.701-.141 2.568h20.049l.337-1.439z"/><path opacity=".5" fill="#FF8736" d="M16.536 37.241c.637.971 2.05 1.532 3.139 1.247l8.371-2.188c1.09-.284 2.191-1.436 2.453-2.555l1.063-4.559H11.513c.099.402.243.781.446 1.09l4.577 6.965z"/><path opacity=".67" fill="#89664C" d="M14.104 31.748c1.341 2.281 3.087 5.982 4.819 5.524l7.403-1.954c.889-.234 1.244-1.764-3.52-.506-4.762 1.257-5.962-.81-7.681-3.518-1.72-2.704-2.35-1.804-1.021.454z"/><path opacity=".5" fill="#B2C1C0" d="M51.042 27.707l-4.725-4.879c-.703-.725-2.102-1.232-3.107-1.127l-5.918.611c-1.008.104-2.207.956-2.668 1.896l-2.443 4.979h19.49c-.051-.562-.264-1.103-.629-1.48z"/><path opacity=".5" fill="#FF8736" d="M31.748 33.982l5.376 5.577c.699.726 2.07 1.07 3.043.769l5.213-1.618c.975-.304 2.193-1.296 2.707-2.206l3.295-5.826c.248-.438.336-.973.289-1.49h-19.49l-.867 1.768c-.463.939-.268 2.302.434 3.026z"/><path opacity=".67" fill="#89664C" d="M34.446 26.559c-1.154 2.085-3.218 5.132-2.101 6.283 1.117 1.152 4.201 4.334 4.771 4.924.574.59 1.902.176-1.17-2.99-3.068-3.167-2.016-5.046-.701-7.62 1.311-2.576.344-2.664-.799-.597z"/><path opacity=".5" fill="#FFCE31" d="M42.948 31.902c.049 1.875-5.537 7.287-3.846 7.464 1.156.121 3.316-5.064 5.379-6.674 1.287-1.001 3.381-1.298 5.064-2.129 2.137-1.052.498-1.497-2.156-.405-1.477.607-2.943-.165-3.957-.971h-1.836c.76.928 1.329 1.863 1.352 2.715z"/><path fill="#FFF" d="M42.101 27.877s-3.789-5.01-4.686-4.086c-.813.841 2.295 3.097 4.182 5.396h1.836c-.811-.644-1.332-1.31-1.332-1.31z"/><g><path opacity=".5" fill="#FFCE31" d="M28.978 34.258c.477-.661-.779-2.827-1.893-5.07h-1.23c1.223 2.684 2.373 6.112 3.123 5.07z"/><path fill="#FFF" d="M26.466 19.178c.203-2.675-1.15-1.314-1.605 1.887-.457 3.202-5.17 3.917-5.17 3.917s-6.93.946-6.553 2.331c.481 1.771 7.999-2.496 10.879-.938.604.328 1.229 1.479 1.838 2.813h1.23c-.68-1.373-1.305-2.773-1.447-3.878-.23-1.814.67-4.027.828-6.132z"/></g><g opacity=".5"><path fill="#FFF" d="M11.12 42.472c1.181 0 .74-8.429-.157-18.872C10.067 13.158 8.688 4.674 7.88 4.653c-1.427 0-.74 8.429.157 18.872.896 10.442 2.276 18.926 3.083 18.947z"/></g></svg>