<svg xmlns="http://www.w3.org/2000/svg" width="64" height="64" viewBox="0 0 64 64"><path fill="#D0D0D0" d="M58.336 39.798l2.926-3.121v-4.161l-2.926-3.121 2.926-3.121v-4.161l-2.926-3.121 2.926-3.124v-4.162l-2.926-3.121 2.926-3.121v-.297h-3.623l-1.254 1.336-1.253-1.336h-7.247l-1.253 1.336-1.253-1.336h-7.248l-1.254 1.336-1.253-1.336h-7.248l-1.253 1.336-1.253-1.336h-7.248l-1.253 1.336-1.253-1.336H8.865l-1.25 1.336-1.253-1.336H2.738v.296l2.926 3.121-2.926 3.121v4.162l2.926 3.124-2.926 3.121v4.161l2.926 3.121-2.926 3.121v4.161l2.926 3.121-2.926 3.121V45h1.948l2.929-3.121L10.541 45h3.902l2.926-3.121L20.295 45h3.902l2.926-3.121L30.049 45h3.902l2.926-3.121L39.803 45h3.903l2.926-3.121L49.557 45h3.902l2.926-3.121L59.313 45h1.948v-2.081l-2.925-3.121zm.977-15.606l-2.929 3.121-2.926-3.121 2.926-3.121 2.929 3.121zm-43.895 5.203l-2.926 3.121-2.925-3.121 2.925-3.121 2.926 3.121zM9.567 18.991l2.925-3.124 2.926 3.124-2.926 3.121-2.925-3.121zm4.876 5.201l2.926-3.121 2.926 3.121-2.926 3.121-2.926-3.121zm4.877-5.201l2.926-3.124 2.926 3.124-2.926 3.121-2.926-3.121zm2.926 7.282l2.926 3.121-2.926 3.121-2.926-3.121 2.926-3.121zm1.951-2.081l2.926-3.121 2.926 3.121-2.926 3.121-2.926-3.121zm4.877-5.201L32 15.867l2.926 3.124L32 22.112l-2.926-3.121zM32 26.273l2.926 3.121L32 32.516l-2.926-3.121L32 26.273zm1.951-2.081l2.926-3.121 2.926 3.121-2.926 3.121-2.926-3.121zm4.877-5.201l2.926-3.124 2.926 3.124-2.926 3.121-2.926-3.121zm2.926 7.282l2.926 3.121-2.926 3.121-2.926-3.121 2.926-3.121zm1.952-2.081l2.926-3.121 2.925 3.121-2.925 3.121-2.926-3.121zm4.877-5.201l2.926-3.124 2.928 3.124-2.928 3.121-2.926-3.121zm2.926 7.282l2.928 3.121-2.928 3.121-2.926-3.121 2.926-3.121zm4.876-15.608l2.929 3.121-2.929 3.121-2.926-3.121 2.926-3.121zm-4.876-5.202l2.928 3.121-2.928 3.121-2.926-3.121 2.926-3.121zm-4.877 5.202l2.925 3.121-2.925 3.121-2.926-3.121 2.926-3.121zm-4.878-5.202l2.926 3.121-2.926 3.121-2.926-3.121 2.926-3.121zm-4.877 5.202l2.926 3.121-2.926 3.121-2.926-3.121 2.926-3.121zM32 5.463l2.926 3.121L32 11.705l-2.926-3.121L32 5.463zm-4.877 5.202l2.926 3.121-2.926 3.121-2.926-3.121 2.926-3.121zm-4.877-5.202l2.926 3.121-2.926 3.121-2.926-3.121 2.926-3.121zm-4.877 5.202l2.926 3.121-2.926 3.121-2.926-3.121 2.926-3.121zm-4.877-5.202l2.926 3.121-2.926 3.121-2.925-3.121 2.925-3.121zm-7.805 8.323l2.929-3.121 2.926 3.121-2.926 3.121-2.929-3.121zm0 10.406l2.929-3.121 2.926 3.121-2.926 3.121-2.929-3.121zm0 10.405l2.929-3.121 2.926 3.121-2.926 3.121-2.929-3.121zm7.805 8.322l-2.925-3.121 2.925-3.121 2.926 3.121-2.926 3.121zm1.951-8.322l2.926-3.121 2.926 3.121-2.926 3.121-2.926-3.121zm7.803 8.322l-2.926-3.121 2.926-3.121 2.926 3.121-2.926 3.121zm1.951-8.322l2.926-3.121 2.926 3.121-2.926 3.121-2.926-3.121zM32 42.919l-2.926-3.121L32 36.677l2.926 3.121L32 42.919zm1.951-8.322l2.926-3.121 2.926 3.121-2.926 3.121-2.926-3.121zm7.803 8.322l-2.926-3.121 2.926-3.121 2.926 3.121-2.926 3.121zm1.952-8.322l2.926-3.121 2.925 3.121-2.925 3.121-2.926-3.121zm7.803 8.322l-2.926-3.121 2.926-3.121 2.928 3.121-2.928 3.121zm1.95-8.322l2.926-3.121 2.929 3.121-2.929 3.121-2.926-3.121z" opacity=".6"/><path fill="#D0D0D0" d="M58.266 2H5.733C3.675 2 2 3.795 2 6v39c0 .553.835 1 1.866 1s1.867-.447 1.867-1V6h52.532v39c0 .553.835 1 1.867 1S62 45.553 62 45V6c0-2.205-1.675-4-3.734-4z"/><circle fill="#FFF" cx="41.004" cy="49" r="12.678"/><path fill="#4A4E51" d="M53.97 48.997c.009-.31.091-4.725-2.522-7.6-.116-.257-.667-1.293-2.444-2.559a18.078 18.078 0 0 0-2.503-1.63l-.002-.002c-.112-.059-2.28-1.206-4.911-1.206-.199 0-.396.012-.592.025v-.003c-2.006-.044-3.998.472-5.199 1.014-1.065.481-2.248 1.288-2.334 1.35-1.475.825-4.271 4.137-4.493 5.892-.894 1.143-1.642 6.275.001 9.401 1.152 4.346 5.488 6.52 5.834 6.687.209.134 2.572 1.595 5.475 1.595.123 0 .858.04 1.121.04 3.138 0 7.787-2.211 8.76-3.943 2.673-1.957 4.06-6.998 3.809-9.061zm-19.142 6.526c-1.244-2.01-1.951-4.639-2.104-5.242.394-.589 2.334-3.45 3.441-4.312.625.115 3.24.595 5.706 1.042.31.802 1.669 4.346 2.058 5.713-.429.508-2.113 2.471-3.772 4.007-1.762.009-4.759-1.006-5.329-1.208zm15.628-14.072a4.975 4.975 0 0 1-.384 1.685c-.658-.337-2.314-1.058-4.586-1.18-.343-.507-1.637-2.276-3.678-3.503.279-.548.668-1.215.895-1.418.074-.021.189-.039.363-.039 1.095 0 2.986.717 3.152.78.175.093 3.574 1.924 4.238 3.675zm-18.222 8.421c-1.482-.253-2.365-.714-2.629-.87-.551-2.001-.107-4.163-.038-4.473.544-.973 2.094-3.454 3.116-3.925 1.06-.216 2.381.053 2.918.184-.051.7-.147 2.655.143 4.707-1.174.943-3.029 3.66-3.51 4.377zm8.629-13.208c.332.024.82.097 1.155.196-.333.443-.676 1.102-.837 1.426-.681.112-3.265.605-5.292 1.92-.409-.107-1.643-.397-2.812-.297.289-.561.723-.976.769-1.018.161-.115 3.257-2.28 7.017-2.233v.006zm8.274 16.506a26.19 26.19 0 0 1-4.602-.635c-.41-1.431-1.766-4.959-2.075-5.762a249.49 249.49 0 0 1 3.002-4.184c2.466.136 4.194 1.034 4.53 1.223 1.428 2.296 1.74 4.642 1.784 5.033-.758 2.36-2.257 3.95-2.639 4.325zm-20.42-5.678c.036.549.123 1.126.283 1.697a5.102 5.102 0 0 0-.295 1.148c-.098-.979-.08-1.968.012-2.845zm4.179 10.122c.652-.63 1.458-1.242 1.771-1.475.706.249 3.606 1.23 5.456 1.23.314.422 1.345 1.745 2.607 2.756-.786.77-1.92 1.134-2.121 1.193-3.521.096-6.951-1.884-7.713-3.704zm9.3 3.699a4.773 4.773 0 0 0 1.161-.927c.561-.076 2.973-.492 5.152-2.094.143.017.381.035.645.027-1.306 1.284-4.497 2.714-6.958 2.994zm6.683-3.628c.783-2.04.75-3.578.711-4.069.431-.421 1.905-1.993 2.724-4.383.441.073.729.186.864.249.048.173.127.574.081 1.181-.333 2.185-1.485 5.459-3.503 6.907-.201.103-.559.126-.877.115z"/></svg>