<svg xmlns="http://www.w3.org/2000/svg" width="64" height="64" viewBox="0 0 64 64"><path fill="#7B853D" d="M38.663 15.888c-.15-3.451-1.318-6.953-3.857-9.499-1.257-1.258-2.859-2.24-4.622-2.687a8.408 8.408 0 0 0-5.246.33c-1.617.651-2.96 1.773-3.986 3.092-1.038 1.319-1.778 2.833-2.326 4.4-1.141 3.144-1.358 6.422-.739 9.666.597 3.25 1.865 6.465 3.184 9.717 1.33 3.251 2.718 6.558 3.885 9.958 2.378 6.789 3.757 13.958 3.952 21.134h-6.096c.23-6.721-.625-13.435-2.491-20.032-.914-3.307-2.063-6.588-3.205-9.937-1.122-3.348-2.268-6.792-2.712-10.444-.465-3.636 0-7.47 1.536-10.881.769-1.703 1.76-3.363 3.115-4.824 1.341-1.457 3.089-2.72 5.169-3.384 2.066-.676 4.414-.659 6.417.026 2.017.67 3.68 1.904 4.904 3.345 2.466 2.926 3.274 6.572 3.118 10.02z"/><path fill="#9CA84D" d="M3.924 23.455c4.881-7.081 11.758-5.266 11.758-5.266s4.16 3.938-2.31 9.971c-4.455 4.156-6.4 12.333-6.4 12.333s-8.737-8.785-3.048-17.038zM38.408 52.424c-6.894-3.626-5.127-8.735-5.127-8.735s3.834-3.092 9.707 1.715c4.046 3.311 12.011 4.756 12.011 4.756s-8.555 6.494-16.591 2.264z"/><path fill="#803C3C" d="M47.951 16.964c-6.962-5.664-10.308-8.709-14.315-6.632-4.01 2.078-2.004 17.19 6.459 18.028 8.293.822 11.718 6.224 11.718 6.224s7.446-8.417-3.862-17.62z"/><path fill="#663030" d="M34.839 21.8c-1.489-8.107-3.807-12.079.201-14.156 4.009-2.078 22.005 9.785 17.12 15.548-6.049 7.131-5.785 11.619-5.785 11.619s-9.31-.908-11.536-13.011z"/><path fill="#994848" d="M38.309 27.937c1.889 2.82 14.068-.314 18.862 3.104 0 0 2.229-6.9-2.698-10.228-2.738-1.848-22.527-2.374-16.164 7.124z"/><path fill="#B35454" d="M42.316 22.533C29.543 16.551 29.2 9.16 34.472 6.428c5.271-2.731 15.042.179 18.22 7.833C55.888 21.957 62 26.716 62 26.716s-9.921.387-19.684-4.183z"/><path fill="#CC6060" d="M48.703 20.186C50.23 7.833 39.363 3.893 34.092 6.625c-5.271 2.731-5.658 10.667-.867 17.725 4.793 7.058 6.097 12.228 6.097 12.228s8.292-7.59 9.381-16.392z"/><path fill="#7B853D" d="M35.955 9.689c-8.063 4.348-7.001-1.193-1.73-3.925 12.967-6.719 21.308 6.704 21.308 6.704S43.11 5.828 35.955 9.689z"/><path fill="#9CA84D" d="M35.955 9.689c1.486-2.171 6.188-6.584.23-5.103-11.771 2.93-5.753 20.267-5.753 20.267s1.108-8.723 5.523-15.164z"/><path fill="#594640" d="M16.33 46.632l6.986-3.116.619 3.978zM23.935 25.385l-4.625 3.372-1.076-2.814z"/></svg>