<svg xmlns="http://www.w3.org/2000/svg" width="64" height="64" viewBox="0 0 64 64"><path fill="#94989B" d="M37.362 36.697a3.06 3.06 0 0 0 1.063-.271c1.05-.467 1.112-1.558.882-2.553-.126-.545.729-.676.854-.135.272 1.172.15 2.342-.826 3.141-.49.401-1.205.641-1.837.673-.552.028-.693-.826-.136-.855z"/><path fill="#D0D0D0" d="M5.089 2.839l.953-.151a.867.867 0 0 1 .99.719l.151.953 25.096 18.233 10.737 7.801c.093.067.192.151.293.249.958-.313 2.059-.189 3.004.293.492.251.191 1.063-.305.811-.658-.336-1.425-.494-2.122-.366.414.709.604 1.645-.052 2.549l-3.451 2.663s-1.704-2.931-5.322-5.559l-5.835-4.24 1.018-1.4L2 4.875l2.035-2.801 1.054.765zM42.02 46.407a2.166 2.166 0 0 0 2.634-.069 2.166 2.166 0 0 0 .331-3.029l-3.793-5.459-.711.494 3.82 5.496c.45.557.364 1.375-.191 1.826a1.3 1.3 0 0 1-1.817-.182l-4.362-6.223-.709.497 4.39 6.26c.119.151.258.281.408.389z"/><path fill="#D0D0D0" d="M35.015 34.656c.982-1.352 3.09-1.5 4.698-.331 1.609 1.169 2.119 3.22 1.138 4.57-.982 1.352-3.09 1.5-4.698.331-1.61-1.167-2.12-3.218-1.138-4.57zm.7.509c-.701.965-.277 2.474.946 3.361 1.223.889 2.787.826 3.489-.14.701-.965.276-2.473-.946-3.361s-2.788-.826-3.489.14z"/><path fill="#89664C" d="M62 52.122s-3.69 1.152-7.123 9.804L40.383 36.594l3.451-2.663s3.863 4.867 5.471 6.827c.992 1.212 2.216-.351 3.383.498C53.854 42.104 62 52.122 62 52.122zM14.898 16.082l13.819 11.413 2.883-3.968-14.472-10.514z"/><path fill="#D0D0D0" d="M17.157 14.936l1.369.994-2.486 3.422-1.37-.994z"/><path fill="#94989B" d="M31.903 25.441c-.233.321-.109.813.276 1.092l4.668 3.392c.385.28.891.246 1.124-.075s.108-.813-.276-1.092l-4.668-3.392c-.385-.28-.891-.246-1.124.075z"/></svg>