<svg xmlns="http://www.w3.org/2000/svg" width="64" height="64" viewBox="0 0 64 64"><path fill="#FBD399" d="M28.75 54.45c-11.19.773-21.18 1.087-24.745-1.521-5.128-3.752.712-19.193 4.885-24.556l50.863-12.799c6.375 11.481-1.736 15.781-12.799 23.449C36.96 45.95 33.153 54.146 28.75 54.45z"/><path fill="#FBBF67" d="M30.905 44.526c-8.736 8.258-34.123 14.126-27.548-7.109 2.92-9.429 8.548-10.671 9.34-12.45 2.179-4.894 8.379-7.226 10.572-7.87 5.192-1.524 2.317-5.972 15.693-5.405 1.221.051 3.791-2.088 6.666-2.51 7.938-1.167 12.975 3.554 14.125 6.392 5.348 13.185-9.037 10.226-28.848 28.952z"/><path fill="#FFF3E3" d="M7.48 53.087c-8.546-1.094-3.779-19.338 2.412-23.826 6.189-4.485 14.941-1.914 19.548 5.744 4.605 7.657 4.667 17.837-2.818 18.562-6.298.608-11.989.435-19.142-.48z"/><path fill="#D3976E" d="M14.421 24.95c4.45-.876 8.18-3.814 16.068.874 5.671 4.709 6.777 8.603 7.031 5.674.879-4.033-6.92-11.09-14.2-10.515-7.199-.582-13.877 6.468-8.899 3.967z"/><path fill="#89664C" d="M13.426 25.074c.193-.65 7.902-5.09 13.264-2.713 5.082 2.164 6.706 4.204 9.514 8.281.375.645.643 1.113.889 1.504.059-.031.096-.229.047-.815.516-3.146-4.917-9.788-11.404-10.258-6.285-1.312-13.623 3.546-12.31 4.001z"/><path fill="#D3976E" d="M26.888 16.455c3.361-.663 6.18-2.881 12.138.66 4.283 3.556 5.117 6.498 5.311 4.286.662-3.047-5.229-8.377-10.726-7.944-5.439-.439-10.482 4.886-6.723 2.998z"/><path fill="#89664C" d="M26.138 16.547c.146-.49 5.968-3.844 10.017-2.048 3.838 1.635 5.064 3.175 7.186 6.255.285.487.486.842.672 1.137.045-.024.074-.173.035-.617.391-2.375-3.713-7.392-8.612-7.749-4.748-.991-10.29 2.68-9.298 3.022z"/><path fill="#D3976E" d="M41.198 11.738c2.486-.201 4.695-1.577 8.752 1.483 2.84 2.935 3.227 5.138 3.531 3.548.709-2.154-3.164-6.507-7.184-6.647-3.911-.768-7.966 2.675-5.099 1.616z"/><path fill="#89664C" d="M40.647 11.743c.143-.343 4.615-2.292 7.418-.655 2.66 1.502 3.434 2.721 4.742 5.13.17.376.291.651.402.879.035-.014.066-.12.07-.444.463-1.69-2.139-5.668-5.666-6.331-3.366-1.112-7.659 1.092-6.966 1.421z"/><path fill="#EDE0D1" d="M7.078 47.157l1.101-1.158-1.101-1.16-1.101 1.16zM12.17 32.146l1.102-1.158-1.102-1.16-1.1 1.16zM7.744 39.33l1.1-1.159-1.1-1.158-1.101 1.159zM10.496 40.489l1.1-1.159-1.1-1.158-1.102 1.159zM16.548 49.476l1.101-1.161-1.101-1.158-1.1 1.159zM19.641 47.157l1.101-1.158-1.101-1.16-1.1 1.16zM26.687 37.604l1.101-1.16-1.101-1.158-1.101 1.159zM21.262 33.788l1.101-1.16-1.101-1.158-1.101 1.159zM29.214 48.317l1.101-1.16-1.101-1.158-1.101 1.159zM28.113 45.569l1.1-1.159-1.1-1.159-1.102 1.16zM23.445 38.751l1.651-1.738-1.651-1.739-1.651 1.739zM19.3 51.794l1.651-1.739-1.651-1.739-1.651 1.74zM5.978 43.966l1.65-1.738-1.65-1.739-1.651 1.739z"/></svg>