<svg xmlns="http://www.w3.org/2000/svg" width="64" height="64" viewBox="0 0 64 64"><path fill="#B2C1C0" d="M2 33.162C2 46.435 15.432 62 32 62c16.57 0 30-15.565 30-28.838H2z"/><path fill="#E8E8E8" d="M62 33.162c0 8.494-13.43 15.38-30 15.38-16.568 0-30-6.886-30-15.38 0-8.491 13.432-15.378 30-15.378 16.57 0 30 6.887 30 15.378z"/><path fill="#B2C1C0" d="M32 46.621c-15.244 0-28.125-6.162-28.125-13.459 0-7.293 12.881-13.454 28.125-13.454 15.246 0 28.125 6.161 28.125 13.454 0 7.297-12.879 13.459-28.125 13.459z"/><path fill="#699635" d="M12.541 16.402c.097 1.699.866 7.391.223 9.963 4.299.863 1.017-7.701-.223-9.963z"/><path fill="#83BF4F" d="M55.646 27.656c2.042-4.591-1.146-9.39-3.139-6.588-1.99 2.798-.456 4.557-5.602 3.568-1.142-1.859 1.627-7.723.014-8.773-2.586-1.682-2.615 4.686-5.607 1.037-2.994-3.648-3.119 4.851-7.555 4.851-2.23 0 .938-6.607-4.064-7.947-5.002-1.341-3.559 4.398-9.574 1.1-6.016-3.302-9.096 1.682-6.338 3.761 2.725 2.056.486 6.305.127 7.85-3.363-1.575-3.18 5.335-3.127 6.448-2.406.757-6.314 2.517-6.439 2.574C6.764 41.747 18.441 46.621 32 46.621c15.246 0 28.125-6.162 28.125-13.459 0-7.426-7.823 2.014-4.479-5.506z"/><path fill="#699635" d="M38.314 35.966c2.474-5.293-3.629-3.079-5.875-.835-.001-.002-.003-.005-.003-.009-.08-3.764 1.868-6.218 3.577-8.757-2.816 2.044-5.84 4.326-9.109 5.495 1.941 2.215 2.93 5.171 3.299 8.112 8.025.775 6.213 4.58 5.799 6.503 9.541-.683-.131-5.284 2.312-10.509z"/><path fill="#ED4C5C" d="M17.266 22.81c-1.551 1.554-2.061 3.594-1.141 4.563.922.966 2.926.494 4.477-1.058 1.551-1.553 2.063-3.594 1.141-4.561-.921-.969-2.927-.495-4.477 1.056zM38.401 41.557c-1.551 1.555-2.061 3.594-1.141 4.563.922.966 2.926.494 4.477-1.058 1.551-1.553 2.063-3.594 1.141-4.562-.92-.967-2.926-.493-4.477 1.057z"/><path fill="#699635" d="M26.148 20.015c-3.947.209-5.705 10.292-8.529 9.671 2.338 2.185 3.482 5.467 3.482 8.704.629.122 1.535-1.56 1.992.183-.728-5.463-.52-11.499 3.055-18.558z"/><path fill="#ED4C5C" d="M42.409 23.281c1.021 1.958.91 4.063-.254 4.701-1.162.639-2.934-.433-3.957-2.392-1.023-1.96-.91-4.064.252-4.7 1.164-.639 2.936.432 3.959 2.391z"/><path fill="#699635" d="M50.124 24.956c-8.5-1.019-9.821-1.21-2.666 5.901 1.854 2.44-5.341 7.456-7.925 7.95 3.341 6.252 3.948 6.863 8.541 5.315 6.393-2.152 3.228-9.677 6.189-8.135-1.659-2.307-10.658-3.361-4.139-11.031z"/><path fill="#C7E755" d="M55.256 30.125c-.186-1.067 2.193-3.573 1.655-7.111-.481-3.163-4.219-5.109-5.304-1.376-.981 3.376-4.202 2.586-4.202 2.586 2.084-8.183 1.021-12.193-3.642-7.32-2.421 2.53-.209-8.523-7.835 3.226-3.906 6.018-2.285-13.716-9.336-6.532-5.643 5.749-9.948-5.388-13.594 1.319-1.907 3.51 2.152 3.974 1.069 10.809 0 0-4.215-2.552-3.779 6.017.078 1.546-7.394 1.812-5.746 4.263 1.656-.725 12.4-5.771 11.758-1.063-.186 1.372-1.129 5.887 1.395 5.702 2.738-.205 5.176-4.424 5.275.369.07 3.654 1.924 3.878 4.479 1.631.727-.636 1.23-1.647 2.152-2.004 1.803-.691 3.494.261 5.17.872 3.172 1.154 2.252-3.266.08-4.098-.385-.146-2.854-.527-2.738-.894.369-1.189 1.777-1.999 2.795-2.453.885-.394 1.889-.703 2.861-.668 1.436.055.879 1.001.637 2.055-.291 1.261-.098 2.957 1.277 3.412 1.611.538 2.879-.965 3.957-1.933.787-.706 6.139-4.123 4.309-.475-1.064 2.124-6.402 2.757-3.973 5.854 1.561 1.991 3.807 1.079 4.986-.762.971-1.515 1.412-3.334 1.783-5.089.293-1.389.404-2.233 1.826-1.508 1.898.976 4.262 3.218 4.412-.374.1-2.387 1.018-6.786 3.059-2.59-.725-5.585-4.538-.429-4.786-1.865zm-12.961 6.784c-.117.12-2.564 1.89-3.01.199-.34-1.303 1.006-2.769.197-3.928-1.355-1.941-5.145-.074-6.506.917-.779.565-2.789 2.474-1.346 3.423 1.137.748 2.756.289 3.777 1.333.83.846 1.012 2.254-.445 1.705-1.844-.692-3.633-1.562-5.609-.845-1.146.417-3.809 4.358-5.072 3.607-.734-.446-.367-3.241-.463-3.977-.295-2.271-1.938-1.887-3.422-.955-.59.371-2.359 1.733-3.1 1.234-.738-.491-.287-2.721-.209-3.42.484-4.347-2.297-4.69-5.854-3.734-.029-1.3-.074-6.503 2.299-5.602 1.422.538 4.996 4.9 6.281 2.363 1.38-2.721 7.612-14.57 7.612-5.658 0 2.443-2.11 7.537-.427 8.706 1.483 1.029 5.344-3.198 6.26-3.822 2.5-1.7 5.291-3.295 6.582.472.867 2.536 1.125 5.818 4.166 6.477a15.76 15.76 0 0 0-1.711 1.505zm4.766-4.183c-.346 1.838-2.354 2.247-3.832 1.374-2.871-1.69-1.338-7.605-4.875-8.495-4.324-1.09-9.912 6.432-10.742 5.586-1.032-1.052 1.116-5.67.764-8.718-.896-7.747-6.933-.232-9.256 6.002-.465 1.244-4.203-1.99-4.203-1.99 1.938-8.235-2.562-8.1-1.229-10.719 2.938-5.773 7.193 5.386 13.146-.68 6.392-6.512 3.969 14.551 10.031 5.668 5.529-8.103 4.584-1.396 5.78-1.791 2.095-.692 5.657-7.634 3.766 5.087-11.849-2.172 1.317 5.145.65 8.676zm8.816 3.075c-1.541-.308-3.148-2.903-4.898-2.026-1.484.727-1.641 4.652-2.25 6.147-.699 1.723-2.965 3.844-4.365 1.26-.318-.595 4.002-3.305 4.512-4.481.994-2.298-1.086-2.549-.867-3.953.721-4.581-10.269-9.166-.42-7.46 5.62.975 4.276-5.935 6.852-4.351 4.953 3.047-3.716 10.515 1.857 10.584-.329 1.414-.099 2.874-.421 4.28z"/><path fill="#ED4C5C" d="M8.63 34.625c1.553 1.55 2.063 3.593 1.143 4.561-.922.966-2.926.493-4.477-1.059-1.551-1.551-2.063-3.593-1.141-4.561.92-.967 2.924-.493 4.475 1.059z"/></svg>