<svg xmlns="http://www.w3.org/2000/svg" width="64" height="64" viewBox="0 0 64 64"><path fill="#FBBF67" d="M52.413 5.128c7.854-.792 15.24 8.001 3.355 13.974a82.036 82.036 0 0 0-21.303 15.337l-16.96-16.946c7.369-7.207 18.491-10.709 34.908-12.365z"/><path fill="#D99634" d="M5.102 52.402c1.377-16.655 4.992-27.657 12.403-34.909l16.961 16.946a82.033 82.033 0 0 0-15.379 21.314c-6.018 11.96-14.638 4.425-13.985-3.351z"/><path fill="#FFEBB8" d="M53.35 8.993c-12.688.221-22.603 1.687-30.427 5.042 6.963-4.084 16.186-6.415 28.315-7.756 4.326-.479 8.473 1.977 9.282 5.286-1.803-1.592-4.402-2.619-7.17-2.572z"/><path fill="#D99634" d="M11.705 54.742c4.273 1.766 8.574 1.025 9.834-1.516a65.738 65.738 0 0 1 29.952-29.928c2.545-1.261 3.285-5.558 1.516-9.827l-1.46-3.394c-1.764-4.265-6.112-6.605-9.53-4.92A84.765 84.765 0 0 0 3.386 43.76c-1.687 3.414.656 7.76 4.924 9.521 1.131.487 2.264.972 3.395 1.461z"/><path fill="#FBBF67" d="M10.349 52.069c4.104 1.571 8.326.696 9.646-1.829a71.281 71.281 0 0 1 30.286-30.26c2.526-1.32 3.402-5.538 1.83-9.639-.436-1.086-.869-2.171-1.304-3.258-1.567-4.096-5.726-6.224-9.12-4.458a91.896 91.896 0 0 0-39.061 39.03c-1.767 3.39.363 7.546 4.463 9.112 1.087.434 2.174.87 3.26 1.302z"/><path fill="#FFEBB8" d="M42.177 7.193A101.062 101.062 0 0 0 19.409 20.2 88.929 88.929 0 0 1 41.258 4.548c3.423-1.738 7.69.5 9.358 4.696l.872 2.105c-1.999-3.64-5.866-5.568-9.311-4.156z"/><path fill="#FBBF67" d="M16.685 45.547c4 1.533 8.287.091 10.088-2.898a45.68 45.68 0 0 1 15.909-15.896c2.993-1.801 4.434-6.086 2.9-10.08l-3.907-9.428c-1.521-3.981-7.18-5.5-12.125-2.558A71.33 71.33 0 0 0 4.689 29.529c-2.944 4.94-1.424 10.595 2.561 12.112 3.144 1.302 6.289 2.605 9.435 3.906z"/><path fill="#D99634" d="M17.899 48.435c4.212 1.595 8.57.117 10.281-2.965a43.783 43.783 0 0 1 15.645-16.371c3.004-1.852 4.277-6.271 2.493-10.399l-4.514-9.743c-1.77-4.115-7.696-5.698-12.66-2.674a68.37 68.37 0 0 0-24.45 25.584C1.9 36.96 3.755 42.803 7.952 44.379c3.314 1.353 6.632 2.706 9.947 4.056z"/><path fill="#FBBF67" d="M16.382 45.244c4 1.531 8.286.092 10.088-2.897a45.672 45.672 0 0 1 15.909-15.896c2.993-1.801 4.434-6.086 2.9-10.081l-3.908-9.428c-1.519-3.98-7.179-5.5-12.124-2.559A71.349 71.349 0 0 0 4.386 29.226c-2.944 4.941-1.424 10.596 2.562 12.113l9.434 3.905z"/><path fill="#FFEBB8" d="M43.403 19.038c-1.357-2.834-2.716-5.667-4.075-8.501-1.602-3.593-6.865-4.8-11.241-1.946A63.31 63.31 0 0 0 6.621 32.133c-1.035 1.96-1.318 4.009-1.026 5.817-1.297-2.308-1.318-5.636.494-8.677A66.095 66.095 0 0 1 29.124 6.254c4.582-2.726 9.826-1.318 11.234 2.372l3.619 8.735c.738 1.921.729 3.912.165 5.618a8.43 8.43 0 0 0-.739-3.941z"/><path fill="#D99634" d="M27.875 30.897c3.704 3.704.097-24.555-4.999-23.41-5.778 1.294-14.163 9.671-15.458 15.448-1.147 5.089 10.833-1.662 20.457 7.962z"/><path fill="#FBBF67" d="M26.123 27.876c5.575 5.576 1.096-23.735-3.903-22.39-5.667 1.521-14.188 10.035-15.711 15.7-1.346 4.991 10.299-2.625 19.614 6.69z"/><path fill="#FFEBB8" d="M20.612 10.819c-3.555.953-8.394 6.652-10.59 10.619-.342-.624-.473-1.246-.312-1.836 1.135-4.227 7.491-10.579 11.722-11.712 3.728-1.005 6.049 9.583 6.113 14.735-1.569-4.536-3.831-12.642-6.933-11.806z"/><path fill="#FFEBB8" d="M18.502 17.791l.907-.905.907.908-.908.905zM21.508 17.493l.908-.908.907.908-.908.907zM9.086 31.51l.907-.907.907.908-.907.907zM7.828 35.346l.907-.907.907.907-.907.907zM3.151 44.583l.906-.907.909.907-.906.907zM4.06 47.074l.906-.906.906.907-.907.906z"/><path fill="#FBBF67" d="M10.446 57.07l.907-.905.906.907-.907.906zM9.086 58.882l.907-.907.907.907-.907.907z"/><path fill="#FFEBB8" d="M34.863 9.785l.906-.906.908.907-.907.907zM36.678 13.999l.907-.907.908.908-.908.907zM49.044 13.093l.908-.907.907.908-.908.907zM48.136 10.128l.908-.908.907.908-.908.907zM47.23 12.186l.907-.907.907.908-.908.907zM57.303 12.188l.91-.907.905.908-.91.907zM56.393 14.452l.907-.907.908.908-.907.906zM19.411 14.905l1.362-1.36 1.36 1.361-1.36 1.361zM9.539 37.124l1.361-1.36 1.361 1.36-1.36 1.361z"/><path fill="#FBBF67" d="M7.728 55.71l1.362-1.36 1.36 1.361-1.36 1.361z"/></svg>