<svg xmlns="http://www.w3.org/2000/svg" width="64" height="64" viewBox="0 0 64 64"><path fill="#E88F27" d="M40.117 30.085c-1.362-.803-6.11-5.551-6.913-6.913-1.842-3.13-4.94 1.307-5.677 2.571-.734 1.267-2.059 3.237-3.225 4.087-1.168.851-3.357 2.549-4.102 4.794-.746 2.247-3.518 4.37-4.252 5.497-.735 1.126-1.915 3.234-3.815 4.791-1.896 1.559-3.288 3.457-3.667 5.07-.378 1.612-2.553 2.053-2.932 3.667-.377 1.61-1.789 4.365-2.595 5.281-2.131 2.428-.299 4.261 2.128 2.129.917-.806 4.48-5.121 6.093-5.501 1.613-.38 4.232-2.492 5.791-4.389 1.557-1.9 5.64-4.121 7.244-5.806 2.521-2.646 6.241-3.037 9.264-6.378 2.783-3.075 12.068-5.714 6.658-8.9z"/><g fill="#FFCE31"><path d="M9.279 53.327c1.128.341-1.442-1.834-2.006-.611-.563 1.223-1.31 1.804-1.673 3.008-.362 1.205-2.014 2.848-2.496 4.001-.481 1.151-.274 2.044.822.131 1.095-1.914 1.517-2.641 2.613-3.688 1.097-1.047.739-3.449 2.74-2.841zM11.027 51.795c.495-.495-1.104-.746-.579-1.491.673-.956 1.987-1.671 3.417-4.598.043.028 1.945 1.509 2.395.907.588-.791-1.795-2.415-2.374-2.248-1.101.317-1.504 2.663-4.368 5.495-1.038 1.026.757 2.688 1.509 1.935zM27.951 32.953c.649-.741-1.669-2.661-2.269-2.555-1.139.203-1.701 2.552-4.798 5.13-1.122.933.597 2.827 1.411 2.142.536-.451-1.074-.884-.493-1.587.747-.902 2.129-1.486 3.772-4.316.043.032 1.882 1.752 2.377 1.186zM20.408 39.585c-.237.475-.982-.645-1.416-.093-.555.707-.697 1.83-2.609 3.53.037.026 1.891 1.095 1.547 1.559-.447.605-2.58-.782-2.639-1.244-.111-.879 1.672-1.696 3.024-4.431.49-.989 2.456-.04 2.093.679zM31.513 24.417c-.925-.045-1.475 1.853-4.071 3.458-.941.582.363 2.525 1.047 2.096.449-.281-.828-.958-.332-1.445.638-.627 1.775-.862 3.214-2.964.032.036 1.442 1.854 1.864 1.466.552-.509-1.234-2.59-1.722-2.611z"/></g><path fill="#699635" d="M62 14.023c-13.055.943-6.16-8.104-6.16-8.104s-5.136 2.664-6.424 1.621L49.623 2s-4.152 3.085-5.732 3.021l-5.084-1.753s.611 2.873.258 4.685l-3.823.177c9.46 7.87.295 5.482.295 5.482 8.17 5.681 1.976 11.734-.294 13.714-.86.751 1.256 2.676 1.703 2.063 2.083-2.854 8.197-11.474 13.621-1.571 0 0-.398-7.796 5.43-1.749-2.514-7.534 5.133-5.133 5.133-5.133l-3.67-2.657c-.001-.002.886-2.458 4.54-4.256z"/><path fill="#83BF4F" d="M61.129 20.935s-.367-3.728-3.756-4.936C55.896 15.473 62 14.023 62 14.023c-3.189-2.127-7.31-.599-6.013-2.593 1.975-3.035-.147-5.512-.147-5.512s-5.154 4.093-5.01 1.945C51.084 4.104 49.623 2 49.623 2s-3.367 4.502-4.32 3.352c-2.017-2.438-6.496-2.084-6.496-2.084s4.186 4.665 1.146 4.512c-2.414-.121-4.712.35-4.712.35s7.072 4.932 4.917 4.651c-2.206-.288-4.622.831-4.622.831s6.207 1.916 4.301 8.182c-.478 1.566-2.395 4.173-4.771 6.189.441 1.281 1.252 1.424 1.252 1.424s3.73-4.504 5.053-5.476c6.613-4.856 9.195 3.886 9.195 3.886s1.723-1.989 1.855-5.334c.118-2.972 3.574 3.585 3.574 3.585s1.288-2.907.257-5.412c-1.113-2.706 4.877.279 4.877.279z"/><path fill="#699635" d="M48.437 5.455c-.044 6.809-3.773 12.791-3.773 12.791 6.69-6.337 3.773-12.791 3.773-12.791zM41.174 8.946c1.731 5.97.024 12.176.024 12.176 4.208-7.287-.024-12.176-.024-12.176zM56.99 18.077c-8.945-1.062-17.168 5.901-17.168 5.901 9.233-10.477 17.168-5.901 17.168-5.901zM47.188 16.801s5.06-3.008 10.02-2.704c-.001 0-4.351-2.916-10.02 2.704z"/></svg>