<svg xmlns="http://www.w3.org/2000/svg" width="64" height="64" viewBox="0 0 64 64"><path opacity=".8" fill="#A1B8C7" d="M32 2c-9.939 0-18 3.751-18 8.375v.001S14 38.41 21.733 54.1C22.453 58.563 26.769 62 32 62c5.232 0 9.547-3.437 10.267-7.9C50 38.41 50 10.376 50 10.376v-.001C50 5.751 41.943 2 32 2z"/><path opacity=".3" fill="#555E63" d="M32 58.302c-4.304 0-8.083-1.676-10.267-4.202.72 4.463 5.036 7.9 10.267 7.9 5.232 0 9.547-3.437 10.267-7.9-2.184 2.526-5.962 4.202-10.267 4.202z"/><path opacity=".3" fill="#555E63" d="M32 59.041c-3.382 0-6.354-.908-8.069-2.278.565 2.42 3.957 4.283 8.069 4.283 4.113 0 7.504-1.863 8.07-4.283-1.715 1.37-4.686 2.278-8.07 2.278z"/><path fill="#FFF" d="M32 14.215c-8.6 0-15 2.935-15 7.154 0 0 .822 18.529 6.123 31.01 1.887 2.307 5.155 3.836 8.877 3.836s6.99-1.529 8.877-3.836C46.178 39.898 47 21.369 47 21.369c0-4.22-6.4-7.154-15-7.154z"/><path fill="#F2ECE3" d="M32 14.215c-9.207 0-14.994 2.955-14.994 7.272 0 4.318 6.344 8.037 14.994 8.037s14.994-3.719 14.994-8.037c0-4.317-5.787-7.272-14.994-7.272z"/><path fill="#F2ECE3" d="M37.785 30.054c-1.236 0-2.19-.603-2.272-1.433-.048-.473.202-.942.685-1.288.419-.299.981-.491 1.584-.542.109-.01.216-.015.319-.015 1.234 0 2.191.604 2.273 1.434.046.472-.203.942-.687 1.289-.416.298-.978.49-1.584.541-.106.01-.214.014-.318.014z"/><path fill="#F2ECE3" d="M41.561 29.267c-.52 0-.963-.218-1.183-.585-.194-.323-.192-.725.008-1.1.168-.316.466-.596.836-.787.316-.16.657-.246.989-.246.521 0 .965.22 1.185.586.372.623 0 1.45-.845 1.886-.316.16-.658.246-.99.246zM33.524 30.481c-.852 0-1.523-.465-1.599-1.104-.043-.363.12-.73.451-1.004a2.032 2.032 0 0 1 1.084-.432c.082-.009.159-.012.234-.012.853 0 1.528.464 1.605 1.102.084.712-.593 1.343-1.539 1.438a2.073 2.073 0 0 1-.236.012zM30.162 30.801c-.354 0-.678-.139-.89-.38a.994.994 0 0 1-.225-.871c.06-.286.234-.551.488-.745.254-.189.563-.295.872-.295.354 0 .677.138.89.379.412.471.294 1.193-.263 1.616a1.454 1.454 0 0 1-.872.296z"/><path fill="#FFF" d="M44.728 25.612c-.3-.338-.895-.343-1.334-.012-.211.16-.342.37-.392.581a2.197 2.197 0 0 0-.791-.154h-.002c-.426 0-.862.108-1.261.312a2.582 2.582 0 0 0-.746.596c-.513-.417-1.243-.68-2.102-.68-.12 0-.244.006-.368.016-.712.062-1.378.291-1.878.649a2.233 2.233 0 0 0-.749.896 2.52 2.52 0 0 0-1.41-.407 2.62 2.62 0 0 0-.292.015c-.536.055-1.032.254-1.402.561a1.863 1.863 0 0 0-.391.462 1.776 1.776 0 0 0-1.201-.457c-.438 0-.876.146-1.229.413a1.936 1.936 0 0 0-.388.412c-.028-.071-.053-.146-.109-.209-.297-.337-.895-.342-1.332-.011-.074.056-.124.123-.179.189a.603.603 0 0 0-.133-.292c-.271-.305-.807-.308-1.203-.011-.393.299-.495.788-.227 1.093.269.306.806.311 1.199.011.057-.043.096-.098.14-.147a.656.656 0 0 0 .149.37c.298.339.895.343 1.331.011.016-.009.021-.024.033-.034.005.354.133.695.374.969.317.362.802.57 1.324.57.439 0 .877-.146 1.229-.413.196-.149.354-.326.471-.52.396.379.985.614 1.663.614.099 0 .198-.005.299-.016.847-.086 1.521-.517 1.841-1.091.514.418 1.259.678 2.121.678.12 0 .243-.005.369-.015.709-.061 1.377-.292 1.879-.649.172-.124.32-.265.443-.412.31.181.677.29 1.084.29.428 0 .863-.108 1.263-.313 1.059-.543 1.521-1.585 1.133-2.438.18-.033.358-.093.518-.213.441-.333.551-.876.256-1.214zm-14.051 4.489a.862.862 0 0 1-.516.179.596.596 0 0 1-.453-.188c-.216-.245-.133-.64.185-.88a.87.87 0 0 1 .517-.18c.178 0 .344.063.453.188.213.245.134.638-.186.881zm3.023-.151c-.06.006-.118.009-.176.009-.545 0-.994-.266-1.037-.639-.052-.41.415-.796 1.037-.86.058-.006.115-.008.171-.008.549 0 1 .265 1.046.639.049.411-.417.797-1.041.859zm4.352-.429c-.089.007-.18.011-.267.011-.914 0-1.656-.399-1.712-.957-.06-.61.728-1.177 1.761-1.265.09-.007.179-.01.267-.01.915 0 1.657.399 1.713.957.06.61-.73 1.176-1.762 1.264zm4.225-.958a1.593 1.593 0 0 1-.717.181c-.305 0-.565-.107-.69-.315-.217-.362.064-.89.625-1.177.238-.123.488-.181.714-.181.307 0 .568.107.692.317.216.36-.062.887-.624 1.175z"/><path opacity=".3" fill="#555E63" d="M32 2c-9.939 0-18 3.751-18 8.375 0 4.626 8.061 8.376 18 8.376 9.943 0 18-3.75 18-8.376C50 5.751 41.943 2 32 2zm0 14.618c-9.088 0-16.455-3.021-16.455-6.742 0-3.723 7.367-7.178 16.455-7.178 9.091 0 16.456 3.455 16.456 7.178 0 3.722-7.365 6.742-16.456 6.742z"/></svg>