<svg xmlns="http://www.w3.org/2000/svg" width="64" height="64" viewBox="0 0 64 64"><circle fill="#3E4347" cx="32" cy="32" r="30"/><path fill="#3E4347" d="M6.272 17.971L3.561 15.26a5.337 5.337 0 0 1 0-7.543l4.156-4.156a5.339 5.339 0 0 1 7.543 0l2.711 2.711-3.143 3.143-2.711-2.713a.89.89 0 0 0-1.257 0L6.701 10.86a.892.892 0 0 0 0 1.258l2.714 2.711-3.143 3.142zM57.728 46.029l2.712 2.711a5.337 5.337 0 0 1 0 7.543l-4.156 4.156a5.339 5.339 0 0 1-7.543 0l-2.711-2.711 3.143-3.143 2.711 2.713a.89.89 0 0 0 1.257 0L57.3 53.14a.892.892 0 0 0 0-1.258l-2.714-2.711 3.142-3.142z"/><circle fill="#F2B200" cx="32" cy="32" r="23.438"/><path fill="#B47D56" d="M39.592 11.35c-4.977-2.644-12.928 2.365-12.03 6.585.9 4.222 11.226 7.248 14.001 13.1 2.781 5.853 4.078 7.805 9.055 3.782 4.973-4.021 7.279-13.743-11.026-23.467z"/><g fill="#89664C"><path d="M38.807 13.811c3.396 0-2.087 1.861-5.35 4.679-1.586 1.368-.827-4.679 5.35-4.679zM46.114 18.691c3.397 0-2.085 1.858-5.352 4.682-1.58 1.366-.827-4.682 5.352-4.682zM50.646 26.182c3.396 0-2.087 1.861-5.354 4.683-1.584 1.368-.823-4.683 5.354-4.683z"/></g><path fill="#B47D56" d="M10.674 38.026c-1.931-4.752 4.358-10.687 8.505-9.157 4.156 1.531 5.669 10.947 11.192 14.387 5.524 3.438 7.313 4.902 2.473 8.458-4.835 3.557-15.064 3.793-22.17-13.688z"/><g fill="#89664C"><path d="M13.403 39.272c-.519 2.919 2.205-1.461 5.564-3.763 1.63-1.113-4.633-1.551-5.564 3.763zM16.806 45.382c-.515 2.915 2.205-1.461 5.564-3.764 1.631-1.116-4.629-1.554-5.564 3.764zM22.846 49.853c-.512 2.915 2.205-1.462 5.564-3.765 1.629-1.114-4.627-1.552-5.564 3.765z"/></g><path fill="#699635" d="M25.553 13.018c-2.232-2.069-2.232-2.069-8.551 4.588-3.487 3.672-5.316 7.574-4.08 8.719 2.235 2.068 2.235 2.068 8.545-4.584 3.49-3.675 5.316-7.58 4.086-8.723zM51.505 40.156c-1.764-2.413-1.764-2.413-9.102 2.812-4.059 2.888-6.55 6.307-5.575 7.644 1.757 2.414 1.757 2.414 9.102-2.814 4.052-2.885 6.549-6.309 5.575-7.642zM38.567 33.157c1.331-2.96 1.331-2.96-7.485-7.068-4.861-2.271-9.403-2.791-10.142-1.155-1.33 2.954-1.33 2.954 7.483 7.066 4.865 2.27 9.407 2.786 10.144 1.157z"/><path fill="#ED4C5C" d="M43.456 37.837c.208-2.163-1.551-1.055-4.867-1.248-3.321-.192-2.355 2.421-2.221 4.509.134 2.085 1.409.37 6.178.549 1.85.072.697-1.647.91-3.81z"/><path fill="#FFCE31" d="M29.942 34.123c-2.497-.859-1.74.807-3.024 3.211-1.282 2.407 2.121 2.54 4.637 3.117 2.515.577.888-.925 2.619-4.414.667-1.351-1.732-1.055-4.232-1.914z"/><path fill="#ED4C5C" d="M24.519 18.92c-2.497-.859-1.74.807-3.024 3.211-1.282 2.407 2.121 2.54 4.637 3.117 2.515.577.888-.925 2.619-4.414.666-1.352-1.732-1.055-4.232-1.914z"/><path fill="#FFCE31" d="M13.983 26.178c-2.497-.859-1.74.807-3.024 3.211-1.282 2.407 2.121 2.54 4.637 3.117 2.515.577.888-.925 2.619-4.414.667-1.352-1.732-1.055-4.232-1.914z"/></svg>