<svg xmlns="http://www.w3.org/2000/svg" width="64" height="64" viewBox="0 0 64 64"><path fill="#C94747" d="M2 44.813c1.754 3.415 2.833 4.184 8.323 4.796 6.361.709 1.731 4.328 12.104 5.179 9.712-3.999 5.234-5.785 12.583-9.058 11.169-4.975 8.304-7.53 14.606-10.852C59.91 29.455 55.938 26.547 62 23.352c-1.959-3.813-5.022-2.433-6.372-5.06-2.215-4.313-5.351-1.903-5.41-7.286-7.727 4.99-4.656 7.334-15.271 12.405-7.756 3.705-4.99 7.741-16.632 11.27C10.735 36.977 12.03 42.827 2 44.813z"/><path fill="#FFA6AF" d="M3.291 46.944c11.747-1.113 6.946-8.568 17.291-10.513 8.623-1.622 10.044-8.371 17.755-10.317 7.105-1.794 2.578-5.593 12.719-11.899 1.635 1.376 3.179 1.229 4.066 3.224-6.715 3.118-5.295 8.481-14.133 11.849-11.055 4.213-6.737 5.443-17.477 9.91-8.974 3.731-8.454 8.321-15.376 10.118 0-.001-3.416-.045-4.845-2.372z"/><path fill="#FED0AC" d="M13.691 50.8c9.388-1.711 7.651-8.198 13.281-9.295 10.317-2.01 10.287-7.055 17.103-9.994 8.862-3.82 8.469-7.955 13.396-11.576 0 0 2.037.236 3.307 1.737-5.736 3.401-2.887 7.806-13.426 11.906-6.641 2.585-5.468 6.633-15.947 10.416-6.554 2.367-4.183 6.624-13.887 9.902-2.196-.477-3.827-3.096-3.827-3.096z"/><path fill="#FFF" d="M56.106 22.986s-1.523 1.259-2.502 3.686c-1.066 2.445-5.186 2.447-8.516 6.161 0 0 2.637-1.778 5.768-2.611 5.938-1.599 2.997-4.223 5.25-7.236zM48.468 22.448c-1.428 1.379-3.359 3.09-10.307 5.167-4.419 1.307-7.068 4.161-8.717 6.255-.655.819-2.389 2.51-5.51 3.737 0 0 4.537-1.131 7.043-4.08 2.958-3.563 4.568-4.192 10.449-5.991 5.387-1.671 7.042-5.088 7.042-5.088zM22.74 42.434c-4.457.875-5.039 4.927-9.954 6.644 0 0 3.605-.795 6.137-3.587 1.717-1.956 3.817-3.057 3.817-3.057z"/><path opacity=".7" fill="#3E4347" d="M15.962 35.633s-.95.515-1.761 1.144c3.054 8.979 8.147 8.979 12.659 15.781 1.145-.715 1.496-1.155 1.496-1.155 3.368-8.17-12.394-15.77-12.394-15.77z"/><g><path fill="#C94747" d="M47.215 40.036c-11.868-8.118-7.313-11.684-14.739-18.62C22.314 11.924 26.608 10.374 19.674 2c-1.981 6.047-4.659 2.215-8.69 6.288C8.527 10.77 5.565 8.124 2 11.726c5.698 5.758.185 7.623 9.859 17.399 5.923 5.986 1.784 7.848 12.604 17.428 7.119 6.304 1.438 6.725 10.962 14.688 11.995 2.731 8.063-2.995 15.485-1.531 6.406 1.263 7.896.779 11.089-2.445-10.598-5.809-7.057-11.944-14.784-17.229z"/><path fill="#FFA6AF" d="M59.788 59.206c-12.846-5.434-4.783-12.129-15.752-18.002-9.143-4.896-8.344-13.01-16.344-17.947-7.373-4.55-.916-7.221-10.105-17.938-2.333.971-4.02.255-5.73 2.188 6.46 5.903 2.952 11.445 11.715 18.385 10.964 8.682 5.659 8.533 16.176 17.388 8.788 7.399 6.569 12.389 13.733 16.877 0-.002 3.868 1.162 6.307-.951z"/><path fill="#FED0AC" d="M46.692 59.852c-9.973-5.269-5.709-11.963-11.664-15.201-10.916-5.937-9.086-11.614-15.723-17.351-8.631-7.46-6.717-11.98-10.981-17.816 0 0-2.381-.458-4.346.782 5.256 5.875.477 9.825 10.897 18.197 6.567 5.277 3.805 9.423 14.271 17.416 6.546 4.999 2.358 8.955 12.132 16.103 2.644.243 5.414-2.13 5.414-2.13z"/><path fill="#FFF" d="M8.773 13.409s1.271 1.962 1.51 5.045c.333 3.136 4.976 4.604 7.407 9.975 0 0-2.34-2.942-5.573-4.995-6.124-3.914-1.875-5.827-3.344-10.025zM17.576 15.521c1.119 2.063 2.688 4.679 9.781 9.491 4.516 3.045 6.486 7.205 7.6 10.152.447 1.156 1.801 3.679 4.881 6.173 0 0-4.711-2.889-6.486-7.104-2.066-5.068-3.658-6.352-9.646-10.471-5.481-3.801-6.13-8.241-6.13-8.241zM39.468 47.202c4.712 2.571 3.928 7.346 8.856 11.03 0 0-3.781-2.179-5.643-6.227-1.238-2.814-3.213-4.803-3.213-4.803z"/></g></svg>