<svg xmlns="http://www.w3.org/2000/svg" width="64" height="64" viewBox="0 0 64 64"><path fill="#FFC294" d="M42.577 40.229c3.962-4.581 8.508-4.523 13.561-9.565 6.578-6.56 7.699-16.276 2.964-22.702-.141-1.558-.441-3.927-1.023-4.773-.305-.445-1.305-1.189-1.84-1.126-.567.068-1.385.906-2.036 1.691C47.847.415 39.243 1.878 33.26 7.845c-5.082 5.071-4.498 10.095-9.088 14.1-5.647 4.929-11.289 2.118-16.798 7.614-7.302 7.283-7.143 19.249.355 26.728 7.498 7.477 19.496 7.637 26.797.354 5.546-5.531 3.115-10.704 8.051-16.412z"/><path fill="#DBA780" d="M56.312 2.492c-.577 0-1.708 1.553-1.708 1.553l3.06 2.578s.319-1.604-.061-2.665c-.325-.908-1.091-1.466-1.291-1.466z"/><path fill="#E8B188" d="M41.979 3.908c-.164.162 1.64 1.178 2.286 1.214 1.211.067 4.81-1.48 4.512-1.777-.742-.741-5.366-.851-6.798.563zM39.233 5.108c.808-.124 3.032.595 3.088 1.065.054.45-3.593 4.117-4.424 4.412-.778.275-3.631-1.47-3.502-1.896.207-.684 3.35-3.353 4.838-3.581z"/><path fill="#DBA780" d="M32.291 10.431c.464-.313 3.851 1.1 3.875 1.726.019.484-3.59 4.841-4.177 4.823-.678-.021-2.004-.696-2.201-1.367-.165-.559 1.938-4.798 2.503-5.182zM28.867 17.361c-.529.204-2.485 3.479-2.559 3.89-.123.693 1.271 1.721 1.972 1.646.399-.044 3.168-3.334 3.288-3.868.131-.58-1.964-1.953-2.701-1.668z"/><path fill="#E8B188" d="M22.438 27.583c.56-.03 3.543-2.39 3.758-2.734.365-.583-.545-1.903-1.216-2.038-.382-.077-4.115 2.062-4.419 2.502-.33.48 1.097 2.311 1.877 2.27zM14.371 30.961c.668.079 4.689-2.095 5.014-2.458.553-.614-.249-2.363-1.014-2.662-.436-.17-5.298 1.588-5.747 2.046-.49.499.816 2.96 1.747 3.074z"/><path fill="#DBA780" d="M8.503 35.97c.688-.062 3.862-3.416 4.049-3.896.32-.813-1.501-2.869-2.366-3.028-.493-.091-3.92 3.607-4.196 4.224-.302.669 1.551 2.787 2.513 2.7z"/><path fill="#CF9D78" d="M7.138 38.56c.155-.649-1.468-2.714-2.231-2.975-.435-.148-1.652 4.614-1.641 5.396.009.554 1.211 1.946 2.021 2.011.581.045 1.76-4.048 1.851-4.432zM4.956 45.078c.128-.531-1.173-1.783-1.798-1.998-.354-.121.376 5.979 1.039 6.031.475.037.685-3.718.759-4.033zM8.186 49.713c.128-.531-1.315-2.989-1.977-2.957-.755.035-1.111 4.377-.064 5.422.793.792 1.966-2.151 2.041-2.465zM8.403 40.1c-.96-.067-2.146 4.045-1.918 4.529.141.3 2.16 3.203 2.482 3.277.643.149 2.728-3.288 2.627-3.806-.165-.845-2.456-3.949-3.191-4z"/><path fill="#E8B188" d="M23.188 32.973c.067-.957-2.259-3.813-2.744-3.586-.3.141-5.044 2.843-5.118 3.167-.149.641 2.476 3.936 2.994 3.833.847-.163 4.816-2.681 4.868-3.414zM29.772 28.329c.067-.958-1.964-2.669-2.448-2.441-.301.141-4.438 2.798-4.513 3.119-.149.641 1.802 3.273 2.319 3.173.849-.166 4.591-3.118 4.642-3.851z"/><path fill="#DBA780" d="M35.909 22.624c.068-.958-2.713-2.97-3.197-2.742-.301.141-3.493 3.906-3.568 4.229-.148.642 1.799 2.962 2.316 2.862.849-.166 4.397-3.617 4.449-4.349zM41.146 16.049c.067-.957-3.194-3.131-3.68-2.904-.3.142-3.609 4.57-3.685 4.893-.148.64 2.563 2.896 3.08 2.794.849-.165 4.232-4.05 4.285-4.783z"/><path fill="#E8B188" d="M47.491 9.958c.068-.958-3.118-3.069-3.602-2.842-.301.142-4.418 3.96-4.493 4.284-.148.64 2.847 3.021 3.365 2.921.847-.165 4.677-3.63 4.73-4.363zM53.467 5.22c.067-.957-2.362-1.726-2.848-1.498-.3.141-4.466 2.097-4.54 2.42-.149.64 2.498 2.912 3.017 2.811.847-.164 4.319-2.999 4.371-3.733z"/><path fill="#DBA780" d="M13.767 33.487c-.96-.067-4.414 3.612-4.374 4.521.029.658 2.376 3.75 3.271 3.921.646.126 4.092-3.329 4.053-4.435-.032-.861-2.215-3.955-2.95-4.007z"/><g><path fill="#DBA780" d="M60.211 22.091c-.164.164-1.182-1.636-1.218-2.28-.067-1.208 1.484-4.796 1.781-4.5.743.74.854 5.353-.563 6.78zM59.008 24.829c.124-.805-.598-3.022-1.069-3.079-.451-.054-4.128 3.583-4.423 4.412-.277.776 1.474 3.621 1.899 3.493.687-.205 3.363-3.341 3.593-4.826z"/><path fill="#CF9D78" d="M53.669 31.753c.313-.462-1.102-3.84-1.729-3.865-.486-.019-4.854 3.58-4.835 4.166.021.676.697 1.999 1.37 2.196.559.164 4.809-1.932 5.194-2.497zM46.722 35.17c-.204.526-3.489 2.478-3.9 2.551-.695.122-1.725-1.268-1.648-1.967.043-.398 3.343-3.161 3.877-3.28.581-.13 1.956 1.96 1.671 2.696z"/><path fill="#DBA780" d="M36.473 41.581c.03-.558 2.396-3.533 2.742-3.748.584-.364 1.908.545 2.043 1.214.077.381-2.066 4.104-2.509 4.406-.481.329-2.316-1.094-2.276-1.872zM33.086 49.626c-.08-.666 2.101-4.676 2.464-5 .615-.552 2.37.248 2.669 1.012.171.435-1.592 5.283-2.052 5.732-.5.487-2.967-.815-3.081-1.744z"/><path fill="#CF9D78" d="M28.063 55.48c.063-.688 3.425-3.854 3.906-4.039.815-.319 2.878 1.496 3.037 2.359.09.493-3.617 3.911-4.235 4.186-.671.3-2.794-1.547-2.708-2.506zM25.467 56.842c.651-.156 2.722 1.463 2.983 2.225.148.434-4.626 1.648-5.411 1.637-.556-.008-1.952-1.208-2.017-2.016-.044-.58 4.059-1.755 4.445-1.846zM18.933 59.017c.532-.128 1.788 1.17 2.002 1.794.122.353-5.995-.375-6.047-1.036-.037-.474 3.728-.684 4.045-.758zM14.284 55.797c.533-.129 2.997 1.311 2.966 1.971-.035.752-4.39 1.107-5.436.064-.794-.793 2.156-1.962 2.47-2.035zM23.923 55.578c.068.959-4.056 2.141-4.541 1.914-.3-.141-3.211-2.154-3.285-2.477-.149-.641 3.297-2.721 3.814-2.62.849.166 3.96 2.451 4.012 3.183z"/><path fill="#DBA780" d="M31.067 40.833c.961-.067 3.824 2.254 3.596 2.738-.141.299-2.851 5.029-3.175 5.104-.642.148-3.945-2.47-3.844-2.986.166-.845 2.689-4.803 3.423-4.856zM35.725 34.266c.96-.067 2.677 1.959 2.448 2.441-.141.301-2.805 4.428-3.128 4.502-.643.148-3.282-1.797-3.181-2.314.165-.846 3.126-4.578 3.861-4.629z"/><path fill="#CF9D78" d="M41.444 28.144c.961-.067 2.978 2.706 2.75 3.189-.142.3-3.917 3.485-4.241 3.56-.642.147-2.97-1.794-2.868-2.311.166-.845 3.625-4.386 4.359-4.438zM48.036 22.923c.96-.067 3.141 3.185 2.912 3.669-.141.299-4.582 3.6-4.905 3.675-.642.147-2.903-2.555-2.802-3.072.165-.847 4.061-4.221 4.795-4.272z"/><path fill="#DBA780" d="M54.144 16.593c.961-.067 3.078 3.11 2.85 3.594-.141.3-3.971 4.405-4.295 4.48-.642.147-3.03-2.84-2.929-3.355.166-.847 3.639-4.666 4.374-4.719zM58.894 10.633c.96-.067 1.73 2.356 1.503 2.84-.142.3-2.103 4.454-2.426 4.529-.643.147-2.92-2.492-2.819-3.009.165-.845 3.006-4.308 3.742-4.36z"/><path fill="#CF9D78" d="M30.553 50.229c.067.957-3.621 4.402-4.532 4.362-.66-.029-3.759-2.369-3.932-3.261-.126-.646 3.339-4.081 4.447-4.042.863.031 3.965 2.209 4.017 2.941z"/></g><g><path fill="#CF9D78" d="M9.436 50.955c-.96-.067-2.015 2.682-1.786 3.163.141.302 1.913 2.157 2.236 2.23.642.149 3.086-1.449 2.986-1.966-.166-.846-2.702-3.375-3.436-3.427zM13.268 45.915c-1.291-.065-3.256 3.188-2.962 3.832.183.4 3.47 3.802 3.903 3.894.86.183 3.737-2.062 3.597-3.2-.143-1.143-3.55-4.474-4.538-4.526z"/><path fill="#E8B188" d="M25.258 43.639c1.48.024 3.87-3.792 3.558-4.521-.193-.454-3.833-4.229-4.328-4.317-.981-.175-4.376 2.521-4.26 3.819.116 1.31 3.896 5 5.03 5.019zM30.257 37.082c1.249-.207 3.859-3.802 3.707-4.372-.093-.353-2.588-2.986-2.993-2.985-.803.003-4.091 2.805-4.193 3.887-.104 1.088 2.524 3.629 3.479 3.47z"/><path fill="#DBA780" d="M35.953 31.402c1.355-.314 4.418-4.361 4.296-4.959-.073-.372-2.559-3.017-2.992-2.985-.862.061-4.594 3.304-4.784 4.473-.19 1.174 2.444 3.709 3.48 3.471zM42.554 17.417c-1.41.261-4.421 4.358-4.262 4.993.096.395 2.845 3.303 3.299 3.292.903-.021 4.659-3.239 4.798-4.459.139-1.226-2.759-4.025-3.835-3.826z"/><path fill="#E8B188" d="M48.921 11.134c-1.463.207-5.204 3.965-5.009 4.638.12.417 3.729 4.211 4.205 4.221.945.022 4.455-3.857 4.543-5.129.088-1.277-2.62-3.886-3.739-3.73zM54.755 6.439c-1.165.276-4.402 3.523-4.302 4.036.062.318 2.592 3.012 2.966 2.981.739-.058 3.806-3.382 3.975-4.386.169-1.009-1.748-2.844-2.639-2.631z"/><path fill="#DBA780" d="M18.532 39.865c-1.513-.082-4.134 3.178-4.009 3.974.133.858 4.451 5.475 5.486 5.508 1.008.031 4.026-2.828 3.856-4.161-.17-1.34-4.175-5.257-5.333-5.321z"/></g><g opacity=".2" fill="#3E4347"><path d="M42.582 3.487c-.233.122-.44.261-.604.421-.164.162 1.64 1.178 2.286 1.214 1.211.067 4.81-1.48 4.512-1.777-.138-.137-.409-.252-.77-.342-1.068.545-2.938 1.22-3.745 1.174-.374-.02-1.134-.369-1.679-.69zM37.886 9.649c-.6.214-2.424-.771-3.175-1.429-.167.195-.282.359-.315.47-.129.426 2.724 2.171 3.502 1.896.831-.295 4.478-3.962 4.424-4.412-.014-.11-.147-.234-.353-.356-.921 1.172-3.414 3.594-4.083 3.831zM31.969 16.053c-.586-.018-1.651-.524-2.06-1.094-.103.314-.152.55-.121.653.197.671 1.523 1.346 2.201 1.367.587.018 4.195-4.339 4.177-4.823-.005-.109-.116-.243-.291-.387-.849 1.298-3.419 4.3-3.906 4.284zM28.252 21.976c-.521.056-1.422-.496-1.802-1.067-.078.16-.131.282-.142.342-.123.693 1.271 1.721 1.972 1.646.399-.044 3.168-3.334 3.288-3.868.031-.139-.067-.322-.241-.519-.679 1.04-2.733 3.428-3.075 3.466zM20.561 25.312c-.329.481 1.098 2.312 1.877 2.271.56-.03 3.543-2.39 3.758-2.734.14-.223.091-.553-.058-.885-.331.426-3.188 2.677-3.735 2.707-.525.027-1.344-.793-1.722-1.479a.832.832 0 0 0-.12.12zM14.327 30.056c-.631-.076-1.433-1.23-1.732-2.123-.391.58.869 2.916 1.776 3.028.668.079 4.689-2.095 5.014-2.458.226-.251.223-.692.092-1.145a.637.637 0 0 1-.131.235c-.325.365-4.35 2.543-5.019 2.463zM8.503 35.97c.688-.062 3.862-3.416 4.049-3.896.079-.203.026-.481-.11-.787-.486.748-3.341 3.729-3.99 3.789-.716.064-1.922-1.09-2.37-1.962a1.197 1.197 0 0 0-.092.156c-.302.669 1.551 2.787 2.513 2.7zM5.286 42.992c.582.045 1.761-4.048 1.852-4.433.034-.143-.021-.357-.133-.605-.289 1.022-1.266 4.189-1.777 4.15-.667-.053-1.588-1-1.901-1.645a3.389 3.389 0 0 0-.061.521c.008.555 1.211 1.948 2.02 2.012zM4.843 44.631c-.104 1.065-.317 3.628-.71 3.598-.434-.034-.893-2.645-1.061-4.42.058 1.59.61 5.264 1.125 5.303.475.037.685-3.719.759-4.033.028-.12-.022-.278-.113-.448zM8.042 49.07c-.292.773-1.271 2.914-1.963 2.224-.309-.307-.493-.907-.583-1.595.021 1.031.212 2.043.648 2.479.794.792 1.967-2.15 2.041-2.465.031-.125-.03-.361-.143-.643zM8.908 47.02c-.293-.067-1.968-2.444-2.39-3.121-.063.355-.081.627-.033.73.141.3 2.16 3.203 2.482 3.277.643.149 2.728-3.288 2.627-3.806a1.882 1.882 0 0 0-.167-.436c-.427 1.083-1.98 3.48-2.519 3.356zM18.273 35.485c-.408.08-2.12-1.946-2.756-3.124-.111.088-.185.156-.192.192-.149.641 2.476 3.936 2.994 3.833.848-.164 4.816-2.682 4.868-3.415.012-.167-.053-.394-.164-.649-.666.94-3.981 3.014-4.75 3.163zM22.812 29.006c-.149.641 1.802 3.273 2.319 3.173.849-.165 4.59-3.117 4.642-3.851.013-.185-.053-.396-.169-.615-.673 1.023-3.749 3.406-4.509 3.556-.396.077-1.626-1.44-2.119-2.446-.093.081-.157.148-.164.183zM31.431 26.054c-.4.078-1.646-1.285-2.128-2.207-.093.132-.15.224-.159.264-.148.642 1.799 2.962 2.316 2.862.332-.064 1.08-.637 1.869-1.35.422-.48.947-.994 1.483-1.467.619-.673 1.079-1.273 1.097-1.533.012-.159-.062-.35-.184-.552-.708 1.146-3.547 3.837-4.294 3.983zM36.841 19.906c-.412.08-2.204-1.325-2.85-2.229-.12.184-.199.315-.21.36-.148.64 2.563 2.896 3.08 2.794.849-.164 4.231-4.05 4.284-4.782.01-.146-.064-.321-.187-.511-.705 1.246-3.377 4.223-4.117 4.368zM42.749 13.384c-.409.08-2.359-1.386-3.089-2.322-.153.168-.254.292-.265.338-.148.64 2.847 3.021 3.365 2.921.848-.165 4.678-3.63 4.73-4.362.011-.153-.069-.339-.2-.536-.795 1.164-3.801 3.818-4.541 3.961zM49.093 8.008c-.395.077-2.017-1.217-2.707-2.124-.178.116-.296.207-.307.258-.149.64 2.498 2.912 3.017 2.811.848-.164 4.319-2.999 4.371-3.732.014-.185-.068-.362-.21-.527-.769 1.057-3.435 3.172-4.164 3.314zM12.61 41.035c-.756-.145-2.536-2.361-3.095-3.449-.081.17-.127.316-.123.422.029.658 2.376 3.75 3.271 3.921.646.126 4.092-3.329 4.053-4.435-.005-.124-.058-.299-.142-.5-.535 1.364-3.382 4.153-3.964 4.041zM59.054 19.182c-.046.243-.07.461-.061.629.036.645 1.054 2.444 1.218 2.28.864-.872 1.158-2.925 1.089-4.563-.062 1.415-.389 2.909-1.094 3.619-.142.144-.922-1.187-1.152-1.965zM55.402 28.721c-.331.1-1.451-1.583-1.812-2.709a.901.901 0 0 0-.075.149c-.277.776 1.474 3.621 1.899 3.493.687-.205 3.363-3.341 3.593-4.826.03-.195.01-.475-.044-.786-.371 1.538-2.897 4.478-3.561 4.679zM53.598 30.88c-.591.634-4.602 2.604-5.145 2.444-.491-.144-.98-.884-1.22-1.539-.078.113-.132.21-.129.269.021.676.697 1.999 1.37 2.196.56.164 4.81-1.932 5.194-2.497.084-.123.043-.455-.07-.873zM46.634 34.346c-.492.636-3.451 2.386-3.841 2.455-.503.09-1.175-.611-1.482-1.271-.081.1-.134.179-.138.225-.076.699.953 2.089 1.648 1.967.411-.073 3.696-2.024 3.9-2.551.078-.2.031-.499-.087-.825zM38.749 43.453c.442-.303 2.586-4.025 2.509-4.406-.024-.126-.102-.259-.197-.391-.505 1.138-1.987 3.639-2.348 3.885-.384.263-1.623-.587-2.092-1.337-.088.164-.144.297-.148.377-.04.778 1.795 2.201 2.276 1.872zM33.199 49.102c-.079.234-.125.423-.113.524.114.929 2.581 2.231 3.081 1.744.46-.449 2.223-5.298 2.052-5.732a.967.967 0 0 0-.133-.226c-.368 1.461-1.591 4.69-1.962 5.053-.435.426-2.355-.503-2.925-1.363zM35.007 53.801a1.535 1.535 0 0 0-.236-.511c-.747 1.041-3.522 3.564-4.051 3.8-.544.243-2.038-.921-2.542-1.882a.778.778 0 0 0-.114.272c-.087.959 2.036 2.806 2.708 2.506.618-.274 4.325-3.692 4.235-4.185zM28.049 58.471c-1.09.533-4.424 1.354-5.068 1.344-.423-.007-1.328-.7-1.768-1.388-.124.094-.196.184-.19.261.064.808 1.461 2.008 2.017 2.016.785.012 5.56-1.203 5.411-1.637-.058-.168-.206-.376-.402-.596zM20.413 60.015c-.969.005-3.247-.273-4.578-.627-.556.104-.959.229-.947.387.052.661 6.169 1.389 6.047 1.036-.074-.214-.274-.508-.522-.796zM17.25 57.768c.007-.159-.132-.364-.352-.58-.933.493-3.906.631-4.979-.107-.246.259-.337.521-.105.752 1.046 1.042 5.401.687 5.436-.065zM16.097 55.016c.074.322 2.985 2.336 3.285 2.477.485.227 4.609-.955 4.541-1.914-.009-.12-.107-.288-.261-.479-.822.85-3.922 1.699-4.339 1.504-.241-.112-2.151-1.423-2.943-2.107-.2.209-.313.392-.283.519zM31.443 47.772c-.531.123-2.888-1.651-3.623-2.558-.092.2-.154.364-.176.475-.102.517 3.202 3.135 3.844 2.986.324-.075 3.034-4.806 3.175-5.104.05-.105-.052-.3-.242-.534-.661 1.178-2.698 4.671-2.978 4.735zM35.009 40.298c-.515.119-2.308-1.104-2.95-1.861-.104.189-.174.35-.194.458-.102.518 2.538 2.463 3.181 2.314.323-.074 2.987-4.201 3.128-4.502.061-.128-.02-.37-.186-.65-.6.976-2.695 4.175-2.979 4.241zM39.926 33.974c-.507.116-2.052-1.059-2.64-1.817-.109.175-.182.322-.201.426-.102.517 2.227 2.458 2.868 2.311.324-.075 4.1-3.26 4.241-3.56.057-.122-.028-.389-.203-.719-.77.774-3.778 3.292-4.065 3.359zM43.429 26.828c-.1.146-.17.274-.188.367-.102.518 2.16 3.22 2.802 3.072.323-.075 4.765-3.376 4.905-3.675.055-.115-.031-.392-.201-.739-.856.774-4.435 3.419-4.725 3.487-.508.118-2.034-1.557-2.593-2.512zM52.688 23.731c-.519.12-2.171-1.797-2.738-2.816a1.48 1.48 0 0 0-.18.397c-.102.516 2.287 3.503 2.929 3.355.324-.075 4.154-4.181 4.295-4.48.053-.113-.025-.376-.184-.708-.773.93-3.834 4.186-4.122 4.252zM57.967 17.057c-.517.12-2.091-1.565-2.633-2.498a1.752 1.752 0 0 0-.183.435c-.101.517 2.177 3.156 2.819 3.009.323-.075 2.284-4.229 2.426-4.529.068-.146.045-.47-.046-.849-.335.708-2.079 4.363-2.383 4.432zM30.553 50.229c-.007-.106-.085-.245-.205-.402-.706 1.313-3.588 3.902-4.38 3.869-.569-.024-2.958-1.771-3.709-2.823-.121.199-.188.361-.17.458.173.892 3.271 3.231 3.932 3.261.911.04 4.599-3.405 4.532-4.363zM12.632 53.876c-.564.67-2.288 1.712-2.812 1.592-.285-.066-1.694-1.515-2.12-2.063-.084.327-.108.594-.051.714.141.302 1.913 2.157 2.236 2.23.642.149 3.086-1.449 2.986-1.966-.025-.133-.113-.309-.239-.507zM17.806 50.44a1.44 1.44 0 0 0-.142-.405c-.482 1.189-2.765 2.878-3.516 2.718-.392-.083-3.098-2.85-3.759-3.688-.105.303-.145.55-.084.682.183.4 3.47 3.802 3.903 3.894.861.182 3.738-2.062 3.598-3.201zM25.213 42.735c-1.029-.016-4.225-3.047-4.899-4.59-.063.172-.1.334-.086.475.116 1.31 3.896 5 5.03 5.019 1.48.024 3.87-3.792 3.558-4.521a1.357 1.357 0 0 0-.134-.199c-.478 1.342-2.271 3.836-3.469 3.816zM30.221 36.172c-.81.135-2.808-1.659-3.344-2.876a1.037 1.037 0 0 0-.1.316c-.104 1.088 2.524 3.629 3.479 3.47 1.249-.207 3.859-3.802 3.707-4.372-.015-.056-.094-.171-.209-.32-.6 1.202-2.518 3.612-3.533 3.782zM35.925 30.482c-.872.202-2.859-1.55-3.366-2.813a1.188 1.188 0 0 0-.086.262c-.189 1.175 2.444 3.71 3.48 3.472 1.355-.314 4.418-4.361 4.296-4.959-.012-.062-.094-.188-.218-.352-.681 1.298-2.98 4.128-4.106 4.39zM46.272 20.634c-.615 1.384-3.869 4.121-4.701 4.141-.389.008-2.444-2.105-3.098-2.97-.138.277-.21.495-.182.604.096.395 2.845 3.303 3.299 3.292.903-.021 4.659-3.239 4.798-4.459.02-.173-.026-.382-.116-.608zM48.106 19.056c-.411-.008-3.151-2.83-3.973-3.874-.167.265-.255.475-.222.59.12.417 3.729 4.211 4.205 4.221.945.022 4.455-3.857 4.543-5.129a1.401 1.401 0 0 0-.103-.565c-.569 1.524-3.584 4.778-4.45 4.757zM53.416 12.512c-.304.025-2.027-1.744-2.699-2.581-.182.253-.283.447-.264.544.062.318 2.592 3.012 2.966 2.981.739-.058 3.806-3.382 3.975-4.386.032-.191-.011-.412-.106-.641-.574 1.244-3.195 4.029-3.872 4.083zM19.957 48.452c-.93-.028-4.489-3.737-5.312-5.124-.092.212-.141.391-.122.511.133.858 4.451 5.475 5.486 5.508 1.008.031 4.026-2.828 3.856-4.161a1.497 1.497 0 0 0-.116-.367c-.453 1.441-2.903 3.66-3.792 3.633z"/><path d="M33.329 25.624a22.611 22.611 0 0 0 1.483-1.467c-.536.472-1.061.986-1.483 1.467z"/></g></svg>