<svg xmlns="http://www.w3.org/2000/svg" width="64" height="64" viewBox="0 0 64 64"><path fill="#B2C1C0" d="M1.999 45.636h60v2.729h-60z"/><ellipse fill="#B2C1C0" cx="31.999" cy="48.364" rx="30" ry="13.636"/><ellipse fill="#E8E8E8" cx="31.999" cy="45.636" rx="30" ry="13.638"/><ellipse fill="#FED0AC" cx="31.062" cy="42.909" rx="25.313" ry="12.272"/><path fill="#D3976E" d="M55.437 41.545c0 6.024-10.916 10.91-24.375 10.91-13.461 0-24.375-4.886-24.375-10.91 0-6.023 10.914-10.909 24.375-10.909 13.459 0 24.375 4.885 24.375 10.909z"/><path opacity=".5" fill="#594640" d="M59.187 37.455c0 6.023-10.916 12.271-24.375 12.271-17.813 0-24.375-6.248-24.375-12.271 0-6.024 10.914-9.546 24.375-9.546 13.459 0 24.375 3.522 24.375 9.546z"/><ellipse fill="#FED0AC" cx="35.749" cy="36.091" rx="25.313" ry="12.273"/><path fill="#D3976E" d="M60.124 34.727c0 6.025-10.916 10.909-24.375 10.909-13.461 0-24.375-4.884-24.375-10.909 0-6.024 10.914-10.908 24.375-10.908 13.459-.001 24.375 4.883 24.375 10.908z"/><path opacity=".5" fill="#594640" d="M55.437 30.636c0 6.024-10.076 12.273-22.5 12.273-16.443 0-26.25-6.249-26.25-12.273s13.826-9.545 26.25-9.545 22.5 3.52 22.5 9.545z"/><ellipse fill="#FED0AC" cx="30.124" cy="29.273" rx="25.313" ry="12.271"/><path fill="#D3976E" d="M54.499 27.909c0 6.024-10.916 10.909-24.375 10.909-13.461 0-24.375-4.885-24.375-10.909S16.663 17 30.124 17c13.459 0 24.375 4.885 24.375 10.909z"/><path opacity=".5" fill="#594640" d="M54.03 22.455c0 6.023-10.307 13.636-22.969 13.636-16.76 0-25.781-7.612-25.781-13.636 0-6.024 13.154-9.546 25.816-9.546s22.934 3.522 22.934 9.546z"/><g><ellipse fill="#FED0AC" cx="29.187" cy="21.091" rx="25.313" ry="12.273"/><path fill="#D3976E" d="M53.562 19.727c0 6.025-10.916 10.909-24.375 10.909-13.461 0-24.375-4.884-24.375-10.909 0-6.024 10.914-10.908 24.375-10.908 13.459-.001 24.375 4.883 24.375 10.908z"/></g><path opacity=".5" fill="#594640" d="M56.374 17.17c0 5.271-10.076 10.739-22.5 10.739-16.443 0-26.25-5.468-26.25-10.739 0-5.27 13.826-8.352 26.25-8.352s22.5 3.082 22.5 8.352z"/><g><ellipse fill="#FED0AC" cx="32.937" cy="14.273" rx="25.313" ry="12.271"/><path fill="#D3976E" d="M57.312 12.909c0 6.024-10.916 10.909-24.375 10.909-13.461 0-24.375-4.885-24.375-10.909S19.476 2 32.937 2c13.459 0 24.375 4.885 24.375 10.909z"/></g><g opacity=".8"><path fill="#C76A00" d="M35.531 2.47c-23.192 0-32.067 11.938-23.556 11.938 3.789 0-3.838 6.849.052 9.229 1.125.687 2.829-1.219 4.125-1.219 4.125 0-4.204 22.946 2.129 22.946 5.412 0-.963-15.394 2.579-22.269.502-.974 3.46-3.77 3.877-.404.82 6.631 5.187 5.493 9.159 1.427 5.577-5.709 4.544 1.524 8.504 1.524 2.593 0 3.414-3.297 5.71-3.297 4.877 0-3.292 16.875 2.445 16.875 4.701 0-.695-18.814 3.627-18.814 2.191 0-1.156-3.998 1.656-3.998 5.464-.001.536-13.938-20.307-13.938z"/></g><path opacity=".5" fill="#FFF6D1" d="M11.766 11.703c-.894.485-.817 1.426 1.881 1.069s-.495 4.619-.577 7.697c-.082 3.062 11.178-6.343 12.486-.635 1.308 5.709 2.792 8.365 7.846 2.855 3.93-4.282 5.325-1.627 8.018.572s6.624-5.688 10.468-6.639c3.843-.952 4.089-3.688 2.862-5.354-1.228-1.664-2.161-1.209-1.228 1.428.935 2.638-4.086 1.546-6.623 4.282-2.535 2.736-4.171 3.449-6.379 1.428-2.208-2.022-6.271-.04-8.913 2.974-4.904 5.59-4.005-5.829-8.014-5.829-4.007 0-8.594 3.909-7.898 1.792.594-1.813 2.613-9.208-3.929-5.64z"/><path opacity=".7" fill="#A13E14" d="M19.263 7.419c0 2.112 8.862-1.5 12.671-1.5 12.589 0 19.233 6.815 19.233 3.224 0-.726-8.204-4.896-16.289-5.009-7.863-.108-15.615 1.752-15.615 3.285z"/><path opacity=".5" fill="#FFF6D1" d="M51.527 25.928s1.413 12.275-1 12.275c-1.296 0 1-12.275 1-12.275zM18.796 30.47s2.308 14.075-.061 14.075c-1.965 0 .061-14.075.061-14.075z"/><g><path fill="#FFF" d="M25.905 5.961v2.946l4.5 4.684 10.5-4.433V5.78l-4.246-1.735z"/><path opacity=".5" fill="#DBB471" d="M30.358 9.273l.047 4.318 10.5-4.433V5.78z"/><path opacity=".25" fill="#DBB471" d="M30.358 9.273l-4.453-3.312v2.946l4.5 4.684z"/></g></svg>