<svg xmlns="http://www.w3.org/2000/svg" width="64" height="64" viewBox="0 0 64 64"><path fill="#FED0AC" d="M2.313 41.955c2.188 4.633 7.048 9.576 16.471 10.969 9.425 1.395 19.838 4.486 27.599 2.34 7.759-2.148 14.83-6.338 15.601-10.152.771-3.813-25.77-28.498-30.721-35.299-4.954-6.803-10.438 7.443-14.481 11.455C12.737 25.279-.166 36.705 2.313 41.955z"/><path fill="#FED0AC" d="M55.75 39.109c-1.875-2.225-5.788-8.273-7.651-9.443s-8.275-7.834-8.275-7.834c-4.591-6.223-6.969-8.121-9.361-10.738-2.227-2.438-2.368-1.762-3.931-.594-1.562 1.166-5.313 6.666-6.719 9.5-1.406 2.832-3.78 4.313-5.625 6-5.469 5-9.844 12-9.844 12S.75 43.666 6.063 39.832c5.312-3.834 17.031-22.666 19.375-22.666 3.125 0 6.094 6 8.645 10.256 2.551 4.254 6.512 6.244 9.48 10.688 2.968 4.441 6.25 14.057 8.874 13.057S59.969 47 60.425 45c.457-2-2.8-3.668-4.675-5.891z"/><path opacity=".67" fill="#FFF" d="M55.75 39.109c-1.875-2.225-5.788-8.273-7.651-9.443s-8.275-7.834-8.275-7.834c-4.591-6.223-6.969-8.121-9.361-10.738-2.227-2.438-2.368-1.762-3.931-.594-1.562 1.166-5.313 6.666-6.719 9.5-1.406 2.832-3.78 4.313-5.625 6-5.469 5-9.844 12-9.844 12S.75 43.666 6.063 39.832c5.312-3.834 17.031-22.666 19.375-22.666 3.125 0 6.094 6 8.645 10.256 2.551 4.254 6.512 6.244 9.48 10.688 2.968 4.441 6.25 14.057 8.874 13.057S59.969 47 60.425 45c.457-2-2.8-3.668-4.675-5.891z"/><path fill="#D3976E" d="M13.719 27.75c-.892-.377-4.57-1.75-5.156-.875s.352 3.479-1.875 3.238C4.461 29.875 4.93 31.25 4.227 32s-1.205 2-1.071 2.375 1.071 5.252 2.126 4.375c1.054-.875 9.745-10.447 8.437-11z"/><path fill="#83BF4F" d="M12.781 28.75s-2.109-4.25-1.172-5.25 2.344.5 2.93-1.125-.229-4.25 1.875-3.75c2.104.498 2.142-1.969 3.047-2.125s4.336-.127 3.398.811c-.938.939-5.039 5.064-6.211 7.064s-3.171 5.973-3.867 4.375z"/><path fill="#C94747" d="M38.183 26.152s5.086-5.619 10.106-1.564c4.688 3.787 3.695 9.625 1.438 14.268L38.183 26.152z"/><path fill="#ED4C5C" d="M49.702 37.688c1.51-4.188 1.632-8.883-2.351-12.1-2.979-2.404-5.97-1.404-7.919-.195l10.27 12.295z"/><path fill="#83BF4F" d="M35.281 20.25c1.853 0 4.198-4.848 4.599-1.896s3.409.854 3.604 2.896-.57 3.754.82 3.941c1.391.189 1.055-.691 1.055 6.809 0 0 .49 2.121-1.055 1.5s-12.491-13.25-9.023-13.25z"/><path fill="#D3976E" d="M43.836 31c1.302-.225 2.93-1.875 4.336 0s.427 4.535 2.813 4.75 3.047 2.25 3.047 4 1.992 1.75 2.695 2.375-.82 3.125-1.289 3.75-1.172 2.25-1.992 1.125-1.875-6.625-5.625-9.25-7.243-6.189-3.985-6.75zM27.313 14.129S31.376 10 34.032 9.5c2.656-.5 1.848 1.793 2.344 2.832.871 1.822.938 1.414 1.875 2.457s-.597 5.639-.689 7.508c-.092 1.869-.405 3.691-1.498 2.531-1.094-1.162-1.938-5.691-4.25-6.676-2.314-.986-6.122-2.521-4.501-4.023zM47.174 52.979c-.26.206-5.57-6.95-11.859-15.98-6.29-9.033-11.178-16.522-10.919-16.728.26-.206 5.569 6.948 11.859 15.98 6.29 9.034 11.178 16.523 10.919 16.728z"/><path fill="#D3976E" d="M9.861 48.843c.214.257 5.239-4.873 11.225-11.456 5.986-6.585 10.667-12.132 10.455-12.39-.213-.256-5.237 4.872-11.225 11.456C14.33 43.039 9.65 48.584 9.861 48.843zM18.223 47.981c.175.285 3.965-3.342 8.468-8.102 4.502-4.762 8.011-8.854 7.837-9.141-.175-.284-3.965 3.342-8.468 8.102-4.502 4.764-8.012 8.853-7.837 9.141z"/><path fill="#D3976E" d="M41.549 53.979c-.26.206-3.65-4.193-7.571-9.822-3.922-5.632-6.891-10.365-6.63-10.57.259-.206 3.649 4.191 7.571 9.822 3.921 5.633 6.889 10.365 6.63 10.57z"/><path fill="#D3976E" d="M39.565 36.045c.235.236-2.391 3.606-5.862 7.525-3.475 3.92-6.482 6.904-6.717 6.668-.235-.237 2.39-3.607 5.863-7.527 3.476-3.918 6.482-6.902 6.716-6.666zM26.549 51.979c-.26.206-2.915-3.138-5.93-7.466-3.016-4.33-5.249-8.008-4.989-8.213.259-.206 2.915 3.137 5.931 7.466 3.014 4.332 5.247 8.008 4.988 8.213zM19.049 50.979c-.26.206-2.378-2.367-4.731-5.744-2.353-3.38-4.049-6.286-3.79-6.491.26-.206 2.378 2.365 4.731 5.744 2.352 3.38 4.049 6.286 3.79 6.491zM25.322 23.322c.234.237-1.772 2.909-4.482 5.968-2.712 3.06-5.1 5.346-5.334 5.109-.236-.237 1.771-2.909 4.48-5.969 2.713-3.057 5.102-5.344 5.336-5.108zM44.072 41.322c.234.237-1.772 2.909-4.482 5.968-2.712 3.06-5.1 5.346-5.334 5.109-.236-.237 1.771-2.909 4.48-5.969 2.713-3.057 5.102-5.344 5.336-5.108z"/><path fill="#D3976E" d="M34.049 52.979c-.26.206-4.171-4.941-8.735-11.494-4.565-6.556-8.054-12.037-7.795-12.242.26-.206 4.171 4.94 8.735 11.495 4.565 6.556 8.054 12.036 7.795 12.241z"/><path fill="#89664C" d="M12.017 28.606c.66-.907-2.359.246-2.556 1.873-.198 1.627-3.106 3.529-3.395 4.577-.285 1.049-1.308 1.555-1.172 2.376.136.821 5.171-6.143 7.123-8.826zM28.309 14.75c.212.859 2.168 1.625 3.691 2.25s3.175 4.299 3.785 5.774c.609 1.476 1.195 1.524.844.531S35.246 17 32.738 16c-2.988-1.19-4.722-2.437-4.429-1.25zM44.898 32.438c-.835-.813-1.433.131-.808.94.624.81 2.56 2.524 3.877 3.542s3.075 2.018 4.364 5.705 2.051 4.313 2.402 3.125-1.406-1.92-2.227-4.554-3.867-4.47-4.805-5.583-2.032-2.425-2.803-3.175z"/><path opacity=".67" fill="#89664C" d="M36.735 20.268c-.418-1.585-1.376-5.144-4.735-5.997s-1.68-1.563.234-1.271 4.023 2.292 4.805 5.583c.587 2.473-.022 2.757-.304 1.685z"/><path fill="#89664C" d="M34.306 11.542c-1.111-.482-2.12-.166-1.567.625.551.791 2.677.209 3.997 3.125s.734-2.375-2.43-3.75z"/></svg>