<svg xmlns="http://www.w3.org/2000/svg" width="64" height="64" viewBox="0 0 64 64"><path fill="#75A843" d="M59.86 21.295c-9.454-11.967-25.976-6.408-25.976-6.408-2.296 2.471-4.614 5.213-6.923 8.15-1.536-.484-2.79 1.473-2.029 2.625-2.123 2.788-4.315 5.338-6.455 7.688-1.794-.385-2.243 1.213-2.02 2.184-1.536 1.634-3.022 3.174-4.417 4.638 0 0-13.428 17.938 12.487 16.315a89.066 89.066 0 0 0 3.438-2.025c1.39 1.717 2.926-.645 2.732-1.754a124.372 124.372 0 0 0 5.652-3.974c.811.229 1.873.18 2.014-1.528a161.922 161.922 0 0 0 4.723-3.783 65 65 0 0 0 5.494-5.117c1.057.061 2.921-.207 2.591-2.869 2.28-2.695 4.198-5.435 5.759-8.13.771-.113 2.265-.561 1.266-2.32a43.093 43.093 0 0 0 1.664-3.692z"/><path opacity=".8" fill="#C7E755" d="M39.898 33.49c-1.365 1.23-4.211.672-5.477 1.77-4.512 3.912-4.053 6.673-4.852 7.568-.813.873-3.293-.188-3.733 4.055 1.029-1.883 3.21-1.989 4.321-4.092 1.781-3.369 7.307-4.588 9.771-9.332-.012.01-.019.021-.03.031z"/><path fill="#558730" d="M13.372 38.777c-1.471 1.535-2.869 3-4.128 4.386-1.406-.683-2.894 1.267-2.634 3.075-2.495 3.14-4.018 5.996-3.9 8.854-1.147 1.67-1.03 3.057 1.3 4.019 1.579 2.538 4.794 3.132 9.107 2.146.761.722 2.22 1.586 3.297-.976l.001-.006c2.968-1.063 6.297-2.691 9.862-4.797-1.312-1.856-12.389 3.673-5.158-1.778 8.544-6.441-9.986 3.023-2.135-4.359 7.854-7.379-10.639 4.138-4.712-1.625 5.931-5.76 2.024-5.205-2.605-2.594-3.33 1.876-.272-3.296 1.705-6.345z"/><path fill="#C7E755" d="M58.15 3.11c-4.514-2.576-10.271-.5-16.512 4.464-1.547-.784-2.896-.047-3.538 3.065-.103.095-3.479 3.421-5.083 5.19 0 0 .438 1.176.375 1.576-.253 1.699-1.229 3.32-2.223 4.664-.977 1.355-2.057 2.709-3.171 3.852-1.106 1.146-9.739 12.402-10.026 12.732.608.18 1.775 1.174 5.364-5.41.609-1.119 2.351-1.517 3.206-2.707.855-1.188.868-3.086 1.701-4.461.831-1.377 2.977-1.832 3.974-3.176.996-1.342 2.012-4.896 3.218-6.129 2.389-2.442 3.098-1.915 2.889-.34-.34 2.553 3.933-2.831 3.303.538-.588 3.14-3.167 5.121-4.258 6.681-5.695 8.146-10.705 9.498-10.979 10.919-.93 4.82-3.801 4.539-5.132 8.07 4.327-1.438 3.454-3.345 8.099-5.25 1.345-.552.082-4.401 5.582-8.439 3.51-2.576 2.354-4.67 7.494-8.518.992-.743 5.1-7.793 2.59-1.449-1.126 2.85 7.75-5.262 6.269-2.041-5.538 12.041-7.349 7.197-10.71 15.791 4.018-5.844 6.744-4.629 10.967-12.398 2.791-5.132 5.611 1.482 2.91 4.689-3.491 4.146-4.461 5.908-5.662 7.076-1.199 1.175-4.385 1.357-7.158 7.871 4.084-4.051 3.851-.934 7.624-7.341 4.483-7.615 8.198-6.146 9.911-9.717C63.262 13.725 62.91 5.76 58.15 3.11z"/><path opacity=".8" fill="#75A843" d="M45.063 9.547c.223.225.055.766-.373 1.206-.426.437-.951.608-1.174.382-.219-.227-.055-.766.374-1.204.428-.44.954-.612 1.173-.384zM51.646 6.34c.265.272.098.887-.375 1.373-.469.481-1.064.655-1.33.38-.266-.271-.1-.885.373-1.369.472-.483 1.069-.657 1.332-.384zM51.781 12.286c.182.188.066.609-.258.943-.323.333-.732.452-.916.264-.184-.188-.068-.611.255-.943.324-.334.734-.449.919-.264zM57.656 7.478c.334.34.172 1.058-.358 1.603-.528.543-1.23.711-1.558.369-.332-.341-.172-1.059.357-1.604.531-.544 1.23-.709 1.559-.368z"/></svg>