<svg xmlns="http://www.w3.org/2000/svg" width="64" height="64" viewBox="0 0 64 64"><path fill="#FFC294" d="M53.559 29.805C51.11 11.766 39.666 1.998 31.999 1.998c-7.667 0-19.11 9.768-21.559 27.807-2.453 18.035 5.412 32.193 21.559 32.193 16.147 0 24.013-14.158 21.56-32.193z"/><path opacity=".33" fill="#D3976E" d="M53.559 29.805c-1.934-14.252-9.483-23.336-16.35-26.523 4.725 4.659 8.864 12.124 10.225 22.148 2.453 18.035-5.413 32.193-21.56 32.193-3.468 0-6.55-.657-9.233-1.86 3.685 3.931 8.848 6.235 15.358 6.235 16.147 0 24.013-14.158 21.56-32.193z"/></svg>