<svg xmlns="http://www.w3.org/2000/svg" width="64" height="64" viewBox="0 0 64 64"><path fill="#BF906C" d="M38.749 2.007c-12.358 0-14.635 10.912-24.003 17.047C3.108 26.675.003 35.497 3.158 45.123 7.234 57.558 18.692 66.157 31.95 59.321c13.257-6.829 18.294-19.114 25.121-25.512 8.375-7.844 7.377-31.802-18.322-31.802z"/><path fill="#805F47" d="M59.405 12.087c.691 4.041.807 11.654-1.756 15.461-1.113 1.653-3.037 4.071-4.108 5.454 2.698-6.096 1.384-9.676 1.384-9.676-3.07 14.296-11.997 15.183-17.803 26.147 0 0 5.229-3.063 8.593-6.647 0 0-4.673 11.476-15.89 12.92-10.424 1.342-11.029 4.63-13.866 4.616 4.255 2.781 10.548 1.766 15.992-1.041 13.257-6.829 18.294-19.114 25.121-25.512 5.835-5.465 6.325-15.699 2.333-21.722z"/><g fill="#CC9A72"><path d="M27.466 51.179c.252 1.433-1.497 2.942-3.905 3.365-2.412.426-4.571-.393-4.822-1.827-.254-1.433 2.111.555 4.522.13 2.408-.426 3.951-3.103 4.205-1.668zM12.776 50.673c-1.075.844-3.026-.313-4.364-2.58-1.336-2.27-1.55-4.789-.475-5.633 1.076-.844.411 2.365 1.747 4.634 1.338 2.266 4.167 2.736 3.092 3.579zM8.725 37.587c-1.316.016-2.333-2.169-2.271-4.879.064-2.714 1.179-4.922 2.49-4.935 1.317-.016-.871 2.205-.932 4.917-.063 2.709 2.027 4.881.713 4.897zM37.408 42.768c.204 1.492-1.661 2.959-4.163 3.275-2.502.315-4.696-.635-4.899-2.117-.199-1.497 2.158.67 4.661.354 2.5-.318 4.199-3.001 4.401-1.512zM46.86 13.357c1.318.06 2.141 2.282 1.831 4.967-.313 2.691-1.632 4.821-2.945 4.764-1.323-.062 1.073-2.145 1.381-4.831.311-2.686-1.585-4.956-.267-4.9zM28.563 10.814c-.648-.756.131-2.353 1.743-3.567 1.618-1.216 3.452-1.589 4.097-.837.649.759-1.713.516-3.326 1.731-1.614 1.214-1.866 3.427-2.514 2.673zM18.409 21.757c-.586-1.273 1.079-3.128 3.723-4.14 2.654-1.013 5.271-.804 5.857.463.585 1.277-2.514.03-5.158 1.045-2.647 1.012-3.834 3.903-4.422 2.632zM26.276 33.806c1.131 1.568-.143 4.645-2.841 6.861-2.7 2.219-5.802 2.746-6.926 1.181-1.131-1.575 2.89-.819 5.591-3.04 2.697-2.219 3.048-6.577 4.176-5.002zM42.564 5.326c1.265 1.235.597 4.213-1.491 6.64-2.09 2.43-4.806 3.396-6.063 2.161-1.267-1.239 2.479-1.194 4.568-3.626 2.087-2.429 1.724-6.415 2.986-5.175zM44.384 29.423c1 1.301-.006 3.958-2.246 5.932-2.24 1.973-4.867 2.518-5.867 1.215-1-1.301 2.443-.784 4.683-2.76 2.239-1.973 2.43-5.691 3.43-4.387zM22.301 27.561c.189 1.392-1.676 2.927-4.168 3.424-2.489.498-4.663-.227-4.853-1.619-.189-1.391 2.138.469 4.63-.031 2.491-.499 4.203-3.167 4.391-1.774zM55.366 12.63c1.289.578 1.616 2.982.73 5.37-.885 2.385-2.648 3.85-3.938 3.27-1.287-.579 1.525-1.571 2.41-3.959.886-2.386-.491-5.262.798-4.681zM38.239 23.021c.304 1.475-1.855 3.439-4.818 4.381-2.961.946-5.608.52-5.909-.952-.303-1.475 2.586.155 5.553-.789 2.963-.95 4.873-4.114 5.174-2.64z"/></g></svg>