<svg xmlns="http://www.w3.org/2000/svg" width="64" height="64" viewBox="0 0 64 64"><path fill="#9E7658" d="M37.654 62c-47.54 0-47.54-60 0-60v60z"/><ellipse fill="#89664C" cx="37.655" cy="32" rx="24.344" ry="30"/><ellipse fill="#B2D921" cx="37.655" cy="32" rx="22.93" ry="28.257"/><ellipse fill="#C7E755" cx="37.655" cy="32" rx="20.047" ry="24.703"/><path fill="#B2D921" d="M53.406 37.275c-.313 1.425-6.157-.022-6.731 1.197-.595 1.26 3.302 6.802 2.48 7.807-.833 1.016-5.304-3.835-6.314-3.121-1.012.713.119 7.922-1.013 8.292-1.118.366-3.025-6.581-4.209-6.588-1.143-.006-3.09 6.937-4.245 6.549-1.157-.388.018-7.588-.972-8.296-1.022-.734-5.52 4.068-6.334 3.056-.825-1.026 3.11-6.535 2.531-7.783-.579-1.245-6.428.149-6.729-1.249-.297-1.377 5.339-3.727 5.345-5.185.005-1.409-5.629-3.809-5.313-5.233.314-1.425 6.156.021 6.731-1.197.595-1.261-3.302-6.802-2.48-7.805.833-1.018 5.305 3.833 6.315 3.121 1.012-.715-.118-7.922 1.015-8.292 1.118-.364 3.024 6.583 4.206 6.59 1.146.004 3.089-6.937 4.246-6.551 1.156.388-.016 7.59.972 8.298 1.022.732 5.521-4.068 6.335-3.058.825 1.026-3.11 6.537-2.53 7.782.578 1.248 6.426-.146 6.727 1.25.295 1.377-5.341 3.727-5.347 5.184-.004 1.41 5.63 3.808 5.314 5.232z"/><path fill="#ECFFAD" d="M50.971 32l-8.062 1.739 6.277 6.47-7.685-3.471 2.817 9.469-5.251-7.732-1.411 9.932-1.41-9.932-5.252 7.732 2.817-9.469-7.687 3.469 6.276-6.468L24.34 32l8.06-1.739-6.275-6.47 7.684 3.471-2.813-9.472 5.25 7.735 1.41-9.935 1.411 9.935 5.249-7.735-2.814 9.472 7.685-3.469-6.278 6.468z"/><g fill="#3E4347"><path d="M34.902 17.381l-.444 2.419 1.302 1.888.445-2.417zM32.359 14.005l-.444 2.419 1.302 1.889.446-2.417zM41.394 16.857l-1.703 1.323-.162 2.471 1.7-1.321z"/><g><path d="M40.407 46.617l.446-2.419-1.303-1.888-.445 2.417zM42.95 49.992l.446-2.416-1.303-1.89-.446 2.418zM33.917 47.141l1.702-1.321.162-2.47-1.7 1.32z"/></g></g><g fill="#3E4347"><path d="M49.517 28.606l-1.962-.547-1.533 1.604 1.961.548zM52.257 25.474l-1.962-.548-1.534 1.604 1.964.55zM49.941 36.605l-1.071-2.097-2.005-.199 1.073 2.095z"/><g><path d="M25.793 35.391l1.963.548 1.532-1.605-1.961-.548zM23.054 38.524l1.964.548 1.531-1.604-1.961-.55zM25.367 27.392l1.074 2.098 2.006.199-1.073-2.095z"/></g></g><g fill="#3E4347"><path d="M47.163 22.624l-1.963.552-.819 2.262 1.962-.549zM48.534 18.338l-1.959.553-.823 2.262 1.964-.549z"/></g><path fill="#3E4347" d="M26.775 45.659l1.961-.552.82-2.262-1.96.55z"/><g><g fill="#3E4347"><path d="M30.048 20.283l.446 2.418 1.837 1.01-.446-2.417zM26.569 18.592l.449 2.416 1.836 1.012-.446-2.419z"/></g><path fill="#3E4347" d="M48.739 45.406l-.447-2.417-1.836-1.01.445 2.418z"/></g></svg>