<svg xmlns="http://www.w3.org/2000/svg" width="64" height="64" viewBox="0 0 64 64"><path fill="#89664C" d="M52.207 7.865l2.455 2.585 5.355-3.451c2.166-.271 3.237-4.999-2.771-3.458-1.591.407-3.816 1.474-5.039 4.324z"/><path fill="#594640" d="M61.057 7.02c1.753-.688.525-2.764.525-2.764s.436 1.536-2.43 1.922c-4.07.549-5.19 3.532-5.19 3.532l.7.739c0 .001 2.412-1.866 6.395-3.429z"/><path fill="#699635" d="M53.496 6.015c8.82 9.293 1.211 23.294-7.6 39.507a646.537 646.537 0 0 0-2.2 4.069C37.503 61.123 28.385 62.283 23.5 61.954 18.028 61.578 12.525 59 8.785 55.06c-3.741-3.94-6.25-9.802-6.709-15.679-.407-5.244.489-15.067 11.088-21.954 1.24-.804 2.484-1.623 3.726-2.438 14.906-9.803 27.78-18.27 36.606-8.974z"/><path fill="#C7E755" d="M14.978 19.918C29.523 10.466 44.291-.477 52.007 7.65c7.714 8.127-7.468 18.635-15.96 34.467-8.498 15.828-18.925 18.52-25.774 11.308-6.845-7.214-9.845-24.052 4.705-33.507z"/><path fill="#C7E755" d="M11.763 51.791c1.562 1.643 3.292 2.511 5.281 2.645 5.526.378 11.593-4.805 16.651-14.215 2.934-5.476 6.64-10.309 9.908-14.575 5.158-6.727 10.026-13.08 6.908-16.362-5.281-5.567-18.979 3.44-29.987 10.678-1.242.819-2.488 1.641-3.732 2.448-9.094 5.906-9.887 14.008-9.552 18.313.328 4.232 2.062 8.474 4.523 11.068z"/><path opacity=".33" fill="#FFCE31" d="M11.763 51.791c1.562 1.643 3.292 2.511 5.281 2.645 5.526.378 11.593-4.805 16.651-14.215 2.934-5.476 6.64-10.309 9.908-14.575 5.158-6.727 10.026-13.08 6.908-16.362-5.281-5.567-18.979 3.44-29.987 10.678-1.242.819-2.488 1.641-3.732 2.448-9.094 5.906-9.887 14.008-9.552 18.313.328 4.232 2.062 8.474 4.523 11.068z"/><path fill="#89664C" d="M17.194 27.022c6.015-6.591 14.832-5.989 16.599-2.021 1.812 3.997-.791 9.958-4.808 14.442-4.089 4.41-9.58 7.328-13.333 5.459-3.727-1.822-4.466-11.287 1.542-17.88z"/><path fill="#D3976E" d="M16.546 33.641c2.594-3.845 5.329-4.809 4.842-3.881-.354.922-1.826 3.111-2.64 5.079-.899 1.955-1.415 3.652-2.416 4.291-1.023.794-2.332-1.468.214-5.489z"/><path fill="#594640" d="M26.362 36.682c-3.477 3.746-7.748 6.634-11.681 7.482.295.303.616.565.97.738 3.753 1.869 9.245-1.049 13.333-5.459 4.017-4.484 6.619-10.445 4.808-14.442-.164-.377-.419-.715-.705-1.029-.71 4.244-3.311 8.897-6.725 12.71z"/></svg>