<svg xmlns="http://www.w3.org/2000/svg" width="64" height="64" viewBox="0 0 64 64"><path fill="#838E96" d="M25.658 25.578s5.459 1.758 5.459 6.021c2.959.001.531-6.021-5.459-6.021z"/><path fill="#FFDD67" d="M27.041 35.627s-1.87-.846-4.014-2.988l4.988-4.672c1.997 1.996 2.899 3.785 2.899 3.785l-3.873 3.875z"/><path fill="#EBA352" d="M28.095 28.047s-.53 2.232-2.16 3.863c-1.426 1.424-.48 2.768-.48 2.768s-2.024-1.232-2.593-2.205c-.001 0 4.199-4.352 5.233-4.426z"/><path fill="#E8E8E8" d="M21.759 26.363c-1.871 1.805-1.534 5.164-.397 6.32 1.136 1.154 2.638-.34 4.509-2.143 1.874-1.803 3.321-3.336 2.183-4.49-1.135-1.154-4.421-1.493-6.295.313z"/><path fill="#B2C1C0" d="M24.798 25.125c-.417.543-1.143 1.689-.017 1.824 1.472.182 3.916.379 2.124 2.557-.321.336-.664.682-1.035 1.035-1.871 1.803-3.373 3.297-4.509 2.143-1.137-1.156-1.474-4.516.397-6.32.837-.809 1.954-1.169 3.04-1.239z"/><path fill="#838E96" d="M24.186 27.252L2 6.512l21.878 21.877c.441-.422.546-.899.308-1.137z"/><path fill="#3E4347" d="M22.592 28.787L2 6.512l21.878 21.877c-.442.427-1.052.638-1.286.398z"/><path fill="#FFF" d="M22.8 32.525c.021.236-.66.439-1.064.035-1.69-1.689-.718-4.586-.718-4.586s-.354 2.764 1.061 4.178c.253.254.708.217.721.373z"/><path fill="#E8E8E8" d="M30.45 30.807c4.292 3.166 5.792 2.479 7.459 4.063 2.114-4.486 5.427-6.291 5.427-6.291 1.031-4.967 5.646-5.594 5.646-5.594L47.43 34.678s-5.318 6.994-9.875 6.994c-1.25 0-11.896-6.406-11.896-6.406 4.124-1.334 4.791-4.459 4.791-4.459zM58.771 23.611s-.078-2.027 1.67-5.035c1.995-3.43 4.273-16.025-8.443-16.025v20.955l6.773.105z"/><path fill="#B2C1C0" d="M45.084 12.277c0 5.678 3.568 10.279 6.4 10.279 2.836 0 5.131-4.602 5.131-10.279C56.615 6.604 54.49 2 51.655 2c-2.832 0-6.571 4.604-6.571 10.277z"/><path fill="#3E4347" d="M44.532 12.277c0 4.967 2.938 8.996 5.061 8.996s3.841-4.029 3.841-8.996c0-4.965-1.719-8.992-3.841-8.992s-5.061 4.028-5.061 8.992z"/><g fill="#B2C1C0"><path d="M50.027 11.807l1.272 1.818-1.272 1.818-1.273-1.818zM50.287 18.34l-.895 1.281-.898-1.281.898-1.279zM47.076 15.994l-.637.908-.633-.908.633-.906zM48.158 15.996l-.634-.91.634-.906.637.906zM50.923 9.881l-.637.91-.634-.91.634-.906zM50.027 6.555l.634-.907.637.907-.637.91zM48.159 4.951l.634-.906.637.906-.637.908zM51.765 11.371l.636.906-.636.909-.634-.909zM51.934 17.188l-.637.91-.634-.91.634-.907zM46.889 11.965l.633-.906.637.906-.637.908zM46.813 9.883l-.446-.643.446-.638.45.638zM46.722 6.287l.446-.639.449.639-.449.643zM45.357 13.539l.447-.639.449.639-.449.643zM47.711 18.34l-.449.64-.447-.64.447-.639zM47.399 8.279l.946-1.349.949 1.349-.949 1.358z"/></g><path fill="#E8E8E8" d="M53.887 62H42.111s.839-5.568 6.871-13.025c0 0 7.384-14.061 7.384-28.34 0 0 3.667.639 5.634 2.668v38.238c-1.716-1.568-3.041-3.582-3.041-3.582l-2.128-.244S56.075 59.85 53.887 62z"/><path fill="#B2C1C0" d="M46.439 23.578c3.604-3.805 12.064-.564 13.886.771 0 0-1.634 9.15 1.675 20.705v6.752c-1.376.979-3.311 4.135-3.041 6.152a6.788 6.788 0 0 1-2.128-.244c-5.195-4.512-8.047-8.783-8.047-8.783-4.495-11.316-5.946-21.546-2.345-25.353z"/></svg>