<svg xmlns="http://www.w3.org/2000/svg" width="64" height="64" viewBox="0 0 64 64"><path fill="#FFDD67" d="M38.944 14.96l2.141-.969-.601 7.018-4.532-.388z"/><path fill="#EBA352" d="M35.618 17.927c1.264.937.334 2.694.334 2.694 1.859.159 3.463-3.368 3.654-5.604l-3.988 2.91z"/><path fill="#FFDD67" d="M41.091 5.907l-8.346 2.115c-1.188 1.792-.572 2.845-.679 3.654-.046.359-.833.957-1.25 1.268-.931.696.464 1.441 1.015 1.375.271.836-.781 1.216 1.665.952 0 0-2.564.844-.848 1.471-.26.957-.591 2.791 4.631 1.31 1.552-.44 2.327-3.035 2.327-3.035l2.573-.226-1.088-8.884z"/><path fill="#FFB300" d="M35.402 4.729c5.474-1.316 8.142 1.692 8.544 2.963 1.067 3.377-.401 6.912-3.129 9.432 0 0-1.127-.594-1.211-2.107 0 0 1.269.705 2.092-2.04.7-2.335-1.714-3.768-3.239-.639l-.34-.029c-.565-1.672.888-3.604-.939-4.392-1.611-.695-4.68.511-4.68.511-.44-1.074.665-3.16 2.902-3.699z"/><path fill="#937237" d="M34.083 11.871c-.043.507-.368.896-.727.865-.356-.03-.423-.453-.38-.96.044-.51.182-.914.537-.883.359.031.614.468.57.978z"/><path fill="#EBA352" d="M39.126 12.956c.085-.993.987-1.775 1.814-1.705 0 0-1.522 1.049-1.296 2.675.001 0-.577-.28-.518-.97z"/><path fill="#937237" d="M34.335 15.154s-1.059.656-1.414.797c-.755.301-.856.063-.417-.228.354-.234.992-.452.992-.452l.839-.117z"/><g fill="#3E4347"><path d="M39.643 16.98l-1.014.022-1.033-6.742 1.012-.024z"/><path d="M39.391 17.148l-.832-.552 3.506-3.41.833.552z"/><path d="M38.64 15.84l1.31.329-.906 3.614-1.31-.328z"/></g><path fill="#F15744" d="M44.493 14.695c-.641 1.199-4.026-2.504-6.413-3.779-2.619-1.4-7.193-2.246-6.674-3.217 1.89-3.531 6.349-4.828 9.962-2.896 3.613 1.933 5.013 6.361 3.125 9.892z"/><path fill="#3B946F" d="M36.109 20.959l-4.777 3.217-1.184-.145.061 1.184 2.509.949 4.951-3.812z"/><path fill="#94989B" d="M43.122 29.168s-9.002 1.869-9.704 2.174c-.706.307-1.224.627-2.131 1.713l2.037 2.424s9.306-4.817 9.798-6.311z"/><g><path fill="#89664C" d="M59.344 35.31c2.143-4.306-8.539-5.166-12.043.915l.149 1.317s8.252-3.428 6.85 1.649c-1.56 5.651 7.7 9.19 7.7 9.19s-5.666-7.029-2.656-13.071zM19.955 5.893s-.002-1.662 1.5-3.893c0 0 1.21 2.1 1.087 5.52l-2.587-1.627z"/><path fill="#574137" d="M5.934 48.431l2.412-3.697s-.774-.352-1.509-.984a25.83 25.83 0 0 0-2.507 3.12c.784 1.076 1.604 1.561 1.604 1.561z"/><path fill="#89664C" d="M20.564 45.895c-.854.17-1.884.404-2.67.678l-2.676-2.42s4.946-2.986 13.139-2.572c0 0-6.287-6.521-10.647-4.055 0 0-5.895 3.445-7.641 4.102-1.749.654-1.058 2.33-.561 2.793.498.461 8.29 5.07 8.29 5.07s1.566-.402 3.222-.271c.027-1.57-.232-2.677-.456-3.325z"/><path fill="#574137" d="M22.208 45.607s-.721.105-1.644.287c.224.648.482 1.756.456 3.324.793.063 1.604.248 2.273.654.001.001.055-2.786-1.085-4.265z"/><path fill="#89664C" d="M44.027 40.71l-3.209 4.125s4.112 3.323 7.959 2.872c0 0 1.991 3.196 7.237 6.598.284-.668.607-1.714.737-3.234-2.01-.961-4.937-3.483-6.309-6.36.001-.001-3.749-1.418-6.415-4.001z"/><path fill="#574137" d="M56.015 54.305c.7.459 1.443.873 2.214 1.217 0 0 .521-1.812.343-3.803 0 0-.732-.125-1.819-.648-.131 1.52-.454 2.566-.738 3.234z"/><path fill="#B7805C" d="M45.32 32.792c-8.875 2.31-15.622-1.405-15.004-5.95 2.523-18.565-8.47-20.752-8.47-20.752-.714-2.875-2.318-4.078-2.318-4.078-1.126 1.963-1.168 4.063-1.168 4.063-1.757 2.34-10.056 8.504-11.027 9.42-.975.915 1.105 4.335 1.105 4.335.686.184 1.325-.754 2.726-.035.354.18-1.254.957-.937 1.27.591.578 2.454-1.066 4.296-1.158 6.929-.346 6.058-3.195 6.058-3.195 1.491 2.652-1.43 5.436-3.261 6.742-4.314 3.08-4.895 10.396-4.895 10.396-3.044.645-7.646-1.08-7.646-1.08-5 5.068-2.041 11.909-.449 14.101a25.94 25.94 0 0 1 2.507-3.121c-3.11-3.062-.499-6.781-.499-6.781 5.489 3.516 9.565 2.929 14.242 3.917 4.683.992 8.919 4.294 13.157 5.823 16.4 5.916 20.01-16.109 11.583-13.917z"/><path fill="#B7805C" d="M38.737 47.179c3.846 6.799 9.875 5.232 9.875 5.232 1.962 4.498 6.431 6.381 8.24 8.203 1.031-.847 1.464-2.337 1.635-3.207-6.236-2.733-7.736-8.496-7.736-8.496-5.083.331-4.354-5.963-4.354-5.963l-7.66 4.231z"/><path fill="#574137" d="M58.582 62c1.479-.395 1.174-3.85 1.174-3.85a7.421 7.421 0 0 1-1.269-.743c-.171.87-.604 2.36-1.635 3.207.959.961 1.73 1.386 1.73 1.386zM31.124 40.002s-.69 2.154-3.339 4.145c0 0 1.072.467 1.952 1.064 0 0 1.193-.504 3.309-4.031l-1.922-1.178z"/><path fill="#89664C" d="M30.332 27.914s1.007 3.326-1.238 4.689c-3.083 1.875-.032 9.455 7.52 9.684 5.406.168 3.479-6.793 6.336-7.658-.001 0-8.253-1.949-12.618-6.715z"/><g><path fill="#333" d="M10.804 16.066l-.211-.709c7.404-2.256 9.523-3.713 9.548-3.727l.419.609c-.087.062-2.238 1.538-9.756 3.827z"/><path fill="#333" d="M20.848 13.143a22.617 22.617 0 0 0-1.057-4.137c-.48-1.326-1.2-2.34-1.432-2.932.001.004-.312.389-.537.625.219.574.874 1.465 1.277 2.566.67 1.846 1.183 4.936 1.088 8.869.199-.031.704-.305.777-.316.033-1.638.128-3.148-.116-4.675zM10.598 19.578c.214-.002.615.297.615.297.333-3.348-.461-6.068-.929-6.752l-.566.449c.149.229.287.475.495 1.07.297.852.595 2.936.385 4.936z"/></g><path fill="#89664C" d="M15.268 11.055s.702.805 1.67.355c.973-.451 1.497-2.465 1.497-2.465s-1.659.371-3.167 2.11zM8.261 15.527s1.288.426.174 1.629c-1.115 1.199-.474-1.17-.174-1.629z"/></g><path fill="#333" d="M24.927 23.727c-2.802-1.41-5.449-3.846-7.175-5.641-1.879-1.953-3.103-3.59-3.116-3.605l-.48.359c.013.018 1.255 1.68 3.158 3.658a37.272 37.272 0 0 0 3.344 3.104c1.268 1.033 2.503 1.873 3.686 2.5.276-.094.583-.375.583-.375z"/><g><path fill="#47B892" d="M32.271 25.244s-5.754-1.816-6.481-1.928c0 0-.111.393-.855.963l7.367 4.303 5.747-3.422 5.074 4.008s2.626 1.438 6.529.172c0 0-2.513-8.131-8.973-10.734 0 0-2.035 1.586-4.513 1.605l-3.895 5.033z"/><path fill="#D0D0D0" d="M43.122 29.168s-7.396 1.877-9.742 3.986c-1.588 1.43-.954 5.002-1.021 6.027 0 0 1.918 1.184 3.646.545 0 0 .538-.92.262-3.996 0 0 6.116.648 9.066-.191 2.948-.838 4.354-2.379 4.318-6.199l-6.529-.172z"/><path fill="#333" d="M30.591 45.045s-4.181.156-4.608.629c-.431.473.172 1.066.172 1.066s2.759 1.76 6.371 2.508l3.73-9.746s-1.308.717-4.039-.375l-1.626 5.918z"/><path fill="#FFDD67" d="M25.63 23.877l.47-.957a.692.692 0 0 0-.326-.924l-.469-.229a.7.7 0 0 0-.736.074c-.646-.262-1.574-.436-2.133.709-.092.188-.604 1.234.649 1.846 1.85.901 1.85.901 2.545-.519z"/></g><path fill="#C9150D" d="M39.506 11.842s-9.357-1.555-10.531-2.357c-1.175-.799 1.611-1.592 2.416-1.738.803-.147 7.861 3.191 8.115 4.095z"/></svg>