<svg xmlns="http://www.w3.org/2000/svg" width="64" height="64" viewBox="0 0 64 64"><ellipse fill="#C7E755" cx="32" cy="33.541" rx="22.342" ry="25.916"/><path fill="#C7E755" d="M51.958 43.467H12.042L32 16.137l19.958 27.33z"/><path fill="#A3BF2C" d="M47.064 50.966l-3.765 4.26-3.768-4.26 3.768-4.26 3.765 4.26zM32 50.966l-3.767 4.26-3.765-4.26 3.765-4.26L32 50.966zM24.468 50.966l-3.767 4.26-3.765-4.26 3.765-4.26 3.767 4.26z"/><path fill="#A3BF2C" d="M39.531 50.966l-3.764 4.26L32 50.966l3.767-4.26 3.764 4.26z"/><g fill="#C7E755"><path d="M43.299 46.706l-3.768 4.26-3.764-4.26 3.764-4.259 3.768 4.259zM50.831 46.706l-3.767 4.26-3.765-4.26 3.765-4.259 3.767 4.259zM28.233 46.706l-3.765 4.26-3.767-4.26 3.767-4.259 3.765 4.259zM20.701 46.706l-3.765 4.26-3.767-4.26 3.767-4.259 3.765 4.259z"/><path d="M35.767 46.706L32 50.966l-3.767-4.26L32 42.447l3.767 4.259z"/></g><g><path fill="#A3BF2C" d="M47.064 42.447l-3.765 4.259-3.768-4.259 3.768-4.259 3.765 4.259zM32 42.447l-3.767 4.259-3.765-4.259 3.765-4.259L32 42.447zM24.468 42.447l-3.767 4.259-3.765-4.259 3.765-4.259 3.767 4.259z"/><path fill="#A3BF2C" d="M39.531 42.447l-3.764 4.259L32 42.447l3.767-4.259 3.764 4.259z"/></g><path fill="#C28FEF" d="M7.037 29.967s-1.54 17.004 11.085 24.497c4.098 2.434-2.494-3.579-.786-18.436L7.037 29.967zM56.963 29.967s1.54 17.004-11.085 24.497c-4.098 2.434 2.494-3.579.785-18.436l10.3-6.061z"/><g><path fill="#9450E0" d="M32 2c-7.053 7.008-15 .877-15 .877 4.853 8.767 15 10.373 15 10.373s10.147-1.606 15-10.373c0 0-7.947 6.131-15-.877z"/><path fill="#9450E0" d="M18.765 39.39C9.521 39.39 2 31.869 2 22.625S9.521 5.86 18.765 5.86 35.53 13.381 35.53 22.625 28.009 39.39 18.765 39.39z"/><path fill="#9450E0" d="M45.235 39.39c-9.244 0-16.765-7.521-16.765-16.765S35.991 5.86 45.235 5.86 62 13.381 62 22.625 54.479 39.39 45.235 39.39z"/><circle fill="#C7E755" cx="45.125" cy="22.625" r="13.125"/><circle fill="#FFF" cx="45.125" cy="22.625" r="9.375"/><circle fill="#3E4347" cx="45.125" cy="22.625" r="5.625"/><g fill="#C7E755"><path d="M32.469 9.5c0 3.105-.469 5.625-.469 5.625s-.469-2.52-.469-5.625S32 3.875 32 3.875s.469 2.52.469 5.625zM29.739 10.291c1.035 2.069 1.323 3.896 1.323 3.896s-1.389-1.534-2.427-3.604c-1.035-2.069-1.323-3.896-1.323-3.896s1.389 1.534 2.427 3.604zM34.261 10.291c-1.035 2.069-1.323 3.896-1.323 3.896s1.389-1.534 2.427-3.604c1.035-2.069 1.323-3.896 1.323-3.896s-1.389 1.534-2.427 3.604z"/></g><circle fill="#C7E755" cx="18.875" cy="22.625" r="13.125"/><circle fill="#FFF" cx="18.875" cy="22.625" r="9.375"/><circle fill="#3E4347" cx="18.875" cy="22.625" r="5.625"/><path fill="#FFCE31" d="M28.212 31.063c0 3.227 1.476 6.106 3.788 8.004 2.313-1.897 3.788-4.777 3.788-8.004S34.313 24.956 32 23.059a10.327 10.327 0 0 0-3.788 8.004z"/><path fill="#F2B200" d="M32 23.059v16.008c2.313-1.897 3.788-4.777 3.788-8.004S34.313 24.956 32 23.059z"/></g><g fill="#F2B200"><path d="M18.753 54.853c0 2.469-2 6.147-2 6.147s-2-3.679-2-6.147c0-2.47 4-2.47 4 0zM25.44 54.853c0 2.469-2 6.147-2 6.147s-2-3.679-2-6.147c0-2.47 4-2.47 4 0z"/><path d="M22.097 54.315c0 3.087-2 7.685-2 7.685s-2-4.598-2-7.685 4-3.086 4 0z"/><g><path d="M42.56 54.853c0 2.469-2 6.147-2 6.147s-2-3.679-2-6.147c0-2.47 4-2.47 4 0zM49.247 54.853c0 2.469-2 6.147-2 6.147s-2-3.679-2-6.147c0-2.47 4-2.47 4 0z"/><path d="M45.903 54.315c0 3.087-2 7.685-2 7.685s-2-4.598-2-7.685 4-3.086 4 0z"/></g></g></svg>