<svg xmlns="http://www.w3.org/2000/svg" width="64" height="64" viewBox="0 0 64 64"><path fill="#83BF4F" d="M25.502 13.396c0-4.415-3.254-7.994-7.278-7.994-4.011 0-7.266 3.58-7.266 7.994 0 2.433 1.689 5.015 2.554 7.066.757 1.823.592 8.034.592 8.034h8.103s-.027-6.211.741-8.034c.865-2.052 2.554-4.634 2.554-7.066z"/><path fill="#D3976E" d="M55.758 40.255c-2.032 1.684-3.915 2.3-3.915 2.3 4.999-5.637 7.019-12.159 7.019-12.159-4.079 4.481-6.592 4.95-6.592 4.95 2.595-2.726 6.125-11.878 6.125-11.878s-6.304 5.378-11.563 7.883c-25.971 12.331-24.625-2.855-24.625-2.855h-8.103c0 6.92-7.059 13.639-2.253 23.965 5.893 12.646 28.924 7.283 37.343 0 10.85-9.395 10.932-16.885 10.932-16.885s-2.088 2.782-4.368 4.679z"/><path fill="#F29A2E" d="M16.479 17.891s0 1.029-1.8 2.609c-1.4 1.229-2.719 2.391-4.052 2.391-2.101 0-3.363-2.307-.439-3.379 2.926-1.074 4.697-.268 6.291-1.621z"/><path fill="#FFD93B" d="M11.906 15.912c-1.429 0-3.86 2.208-6.222.627-.397-.258-1.084-1.371-1.73-.663-.688.76 3.076 8.669 12.525 2.015 0 0-.59-1.979-4.573-1.979z"/><path fill="#E8E8E8" d="M14.104 26.52h8.13v1.976h-8.13z"/><path fill="#89664C" d="M54.632 20.583s-9.009 7.629-22.372 9.089c-15.341 1.679-11.853 20.042 1.881 18.543 9.777-1.071 17.964-11.872 17.964-11.872l-6.18 1.64s5.918-4.643 8.24-9.294l-8.818 3.576s4.698-2.354 9.285-11.682z"/><path fill="#D3976E" d="M31.943 38.809a2.934 2.934 0 0 0-1.62-2.151c.137-.346.191-.735.122-1.135a2.026 2.026 0 0 0-2.362-1.657 1.935 1.935 0 0 0-.549.191c.906.092 1.676.77 1.84 1.709.07.432.015.85-.15 1.223a2.74 2.74 0 0 1 1.332 1.887 2.767 2.767 0 0 1-.742 2.389c.537.299.936.819 1.059 1.469.165 1-.399 1.96-1.306 2.326.152.003.289-.006.427-.029a2.074 2.074 0 0 0 1.676-2.39 1.903 1.903 0 0 0-.632-1.151 2.958 2.958 0 0 0 .905-2.681zM37.313 37.082a2.912 2.912 0 0 0-1.62-2.15c.138-.346.192-.739.122-1.135a2.026 2.026 0 0 0-2.361-1.663 1.829 1.829 0 0 0-.55.194 2.07 2.07 0 0 1 1.841 1.709c.069.43.015.854-.15 1.223a2.727 2.727 0 0 1 1.331 1.889 2.774 2.774 0 0 1-.741 2.389c.536.295.934.813 1.043 1.471a2.112 2.112 0 0 1-1.291 2.322c.152.007.29-.002.439-.031 1.113-.198 1.855-1.271 1.663-2.394a1.942 1.942 0 0 0-.619-1.143 2.993 2.993 0 0 0 .893-2.681zM42.917 35.186a2.93 2.93 0 0 0-1.8-1.994c.109-.354.137-.747.027-1.14a2.026 2.026 0 0 0-2.5-1.441 1.875 1.875 0 0 0-.534.239 2.056 2.056 0 0 1 1.978 1.542c.109.417.095.842-.042 1.226a2.703 2.703 0 0 1 1.498 1.764c.232.883 0 1.779-.537 2.444a2.086 2.086 0 0 1 1.182 1.37 2.138 2.138 0 0 1-1.1 2.428c.152-.009.29-.031.439-.067a2.084 2.084 0 0 0 1.456-2.526 2.039 2.039 0 0 0-.727-1.092c.645-.726.92-1.75.66-2.753z"/><path fill="#FED0AC" d="M16.123 32.24c-1.251 0-2.185.416-2.913 1.047-1.73 5.412-5.054 11.224-1.359 19.174 1.771 3.793 5.082 5.957 9.079 6.941-8.709-2.756 2.045-27.162-4.807-27.162z"/><path fill="#83BF4F" d="M24.006 8.56s1.496 2.533 4.05.803c0 0-1.276 3.218-4.874 2.061l.824-2.864z"/><path fill="#83BF4F" d="M25.324 11.618s1.84.467 3.708-.853c0 0-1.099 2.928-3.708 3.423 0 0-2.72-2.916 0-2.57z"/><path fill="#83BF4F" d="M25.324 14.188s1.605.866 3.186-.454c0 0-1.25 3.135-4.395 2.517 0-.001-.646-2.559 1.209-2.063zM16.479 6.103s-.069-1.234-1.484-2.165c0 0 1.842-.124 3.229 2.165 0 0-.55.741-1.745 0z"/><path fill="#83BF4F" d="M19.459 6.103s.069-1.234 1.471-2.165c0 0-1.841-.124-3.229 2.165 0 0 .565.741 1.758 0z"/><path fill="#83BF4F" d="M17.427 6.721S16.975 4.952 18.608 2c0 0-.397 3.61.274 5.34 0 0-.769-.135-1.455-.619z"/><path fill="#594640" d="M22.426 40.77c.948 4.355 5.163 8.162 11.715 7.445 9.777-1.071 17.964-11.872 17.964-11.872s-8.928 9.933-19.2 9.933c-7.664-.001-9.876-3.319-10.479-5.506z"/><g><path fill="#3E4347" d="M13.704 13.409c0-1.279 1.031-2.644 2.309-2.644 1.264 0 2.293 1.365 2.293 2.644s-1.029 1.837-2.293 1.837c-1.278 0-2.309-.558-2.309-1.837z"/></g><g><path fill="#75D6FF" d="M57.714 53.432c-2.368 0-2.719-1.432-4.285-1.432s-1.919 1.432-4.286 1.432c-2.368 0-2.719-1.432-4.285-1.432s-1.919 1.432-4.286 1.432c-2.368 0-2.72-1.432-4.286-1.432S34.367 53.432 32 53.432 29.279 52 27.713 52c-1.566.002-1.916 1.432-4.284 1.432-2.367 0-2.72-1.432-4.286-1.432s-1.918 1.432-4.285 1.432S12.139 52 10.572 52s-1.919 1.432-4.287 1.432C3.919 53.432 2 52 2 52v10h60V52s-1.919 1.432-4.286 1.432z"/><g fill="#42ADE2"><path d="M29.586 57.859c-6.802.865-11.482-4.648-18.458-1.482 5.423-.373 13.584 3.92 18.458 1.482-1.402.18 0 0 0 0zM52.872 57.859c-6.806.861-11.477-4.631-18.461-1.482 5.44-.375 13.568 3.914 18.461 1.482-1.402.178 0 0 0 0z"/></g></g></svg>