<svg xmlns="http://www.w3.org/2000/svg" width="64" height="64" viewBox="0 0 64 64"><path fill="#8A8E91" d="M28.211 18.266c-5.587 2.461-8.302-6.342-8.302-6.342l-1.699.186c-4.307 3.392-6.465-2.504-6.465-2.504l-1.67.414c-2.783 5.247-6.339.212-6.339.212 1.689 10.185 11.397 20.294 11.397 20.294 1.66-3.925 7.256-.019 11.798-2.627l1.28-9.633zM35.789 18.266c5.587 2.461 8.302-6.342 8.302-6.342l1.699.186c4.307 3.392 6.465-2.504 6.465-2.504l1.67.414c2.783 5.247 6.339.212 6.339.212-1.689 10.185-11.397 20.294-11.397 20.294-1.66-3.925-7.256-.019-11.798-2.627l-1.28-9.633z"/><path fill="#3E4347" d="M60.264 10.231c-2.432 7.247-5.87 13.136-10.87 18.065-.469-.479-1.24-.631-2.217-.647a51.03 51.03 0 0 0 6.748-17.63c.352-1.911-1.26-2.619-1.67-.414-1.25 6.867-3.477 12.782-7.021 18.108-.947.062-1.982.129-3.047.11a52.307 52.307 0 0 0 3.604-15.714c.137-1.946-1.543-2.431-1.699-.186-.4 5.741-1.533 10.926-3.526 15.797a9.901 9.901 0 0 1-1.97-.453c1.021-1.93 1.833-4.232 1.853-5.282 0 0-.24.413-.807.814.158-.727.339-2.007.195-3.766 0 0-.229.362-.616.82.052-.726.052-1.723-.126-3.022l-.637 1.126a40.554 40.554 0 0 0-1.389-4.03v2.91s-1.438-6.803-.549-12.397c.945.363 2.24-.173 2.24-1.628 0-1.398-2.924-.569-2.924-.569s-.939 2.666-1.262 7.407c-2.161-4.928-2.987-4.928-5.148 0-.322-4.741-1.262-7.407-1.262-7.407s-2.924-.828-2.924.57c0 1.455 1.295 1.991 2.24 1.628.889 5.594-.549 12.397-.549 12.397v-2.91a40.722 40.722 0 0 0-1.389 4.03l-.637-1.126c-.178 1.299-.178 2.296-.126 3.022-.387-.458-.616-.82-.616-.82-.144 1.759.037 3.04.195 3.766-.566-.401-.807-.814-.807-.814.02 1.05.831 3.352 1.853 5.282a9.901 9.901 0 0 1-1.97.453c-1.993-4.872-3.126-10.057-3.526-15.797-.156-2.245-1.836-1.76-1.699.186a52.276 52.276 0 0 0 3.604 15.714c-1.064.02-2.1-.048-3.047-.11-3.545-5.326-5.771-11.242-7.021-18.108-.41-2.206-2.021-1.498-1.67.414a51.03 51.03 0 0 0 6.748 17.63c-.977.017-1.748.168-2.217.647-5-4.93-8.438-10.819-10.87-18.065-.703-2.104-2.207-1.121-1.592.701 3.447 10.31 9.376 16.716 11.944 19.135 0 .852.664 1.642 1.563 2.173 0 0-2.734-3.687 6.67-2.81 1.59.147 2.911-.146 4.004-.637.039.056.077.123.116.177-1.127 1.781-.828 4.643.737 7.141C20.854 39.838 22.547 48 22.547 48c5.115-.965 7.235-5.404 8.115-8.906 1.009.328 1.62.344 2.676 0 .88 3.502 3 7.941 8.115 8.906 0 0 1.692-8.162-4.632-11.889 1.565-2.498 1.864-5.36.737-7.141.039-.054.077-.121.116-.177 1.093.49 2.414.784 4.004.637 9.404-.877 6.67 2.81 6.67 2.81.898-.531 1.563-1.321 1.563-2.173 2.568-2.419 8.497-8.825 11.944-19.135.616-1.821-.888-2.805-1.591-.701z"/><path fill="#FFF" d="M34.876 32.565s.75-1.123-.23-2.699c0 0 .283 1.576-.391 2.361l.621.338zM29.124 32.565s-.748-1.123.234-2.699c0 0-.283 1.576.387 2.361l-.621.338z"/><path fill="#B2C1C0" d="M29.481 32.565c.539-.417 1.49-1.12 2.52-1.12 1.027 0 1.979.703 2.52 1.12.926.712 2.338.13 1.338.13-1.703 0-1.693-2.324-3.857-2.324s-2.154 2.324-3.855 2.324c-1.003 0 .409.582 1.334-.13z"/><g fill="#B2C1C0"><path d="M33.011 33.479c.176-.211-.063-.87-.295-1.037-.057-.039-.24-.045-.291 0-.201.182-.199.859 0 1.037.103.095.496.111.586 0zM30.989 33.479c.092.111.484.096.588 0 .197-.178.201-.855 0-1.037-.053-.045-.234-.039-.293 0-.23.166-.469.826-.295 1.037z"/></g><path fill="#FFF" d="M34.568 34.488c-.11 1.148-1.222 1.148-1.332.002-.282-.055-.468-.043-.468.361 0 .674.508 1.211 1.133 1.211s1.135-.537 1.135-1.211c0-.404-.185-.415-.468-.363zM30.768 34.488c-.11 1.148-1.224 1.148-1.334 0-.28-.053-.464-.039-.464.363 0 .674.504 1.211 1.131 1.211.623 0 1.131-.537 1.131-1.211-.001-.402-.184-.415-.464-.363z"/><path fill="#FFC7CE" d="M27.726 36.885c-4.023 3.639-3.592 8.279-3.592 8.279 3.391-1.82 4.672-5.066 5.132-6.791a7.311 7.311 0 0 1-1.54-1.488zM36.274 36.887a7.368 7.368 0 0 1-1.542 1.488c.463 1.727 1.748 4.971 5.134 6.789 0 0 .432-4.639-3.592-8.277z"/><path fill="#8A8E91" d="M28.233 23.007c0 .682.332.949.332.949.338-1.129 1.641-1.979 1.641-1.979-.295.607 0 1.215 0 1.215.523-.734 1.795-1.599 1.795-1.599s1.271.865 1.793 1.599c0 0 .297-.608 0-1.215 0 0 1.305.85 1.637 1.979 0 0 .336-.268.336-.949l1.303 1.573c-.406-1.753-1.303-2.813-2.271-3.286 0 0 .305.765.377 1.202 0 0-1.145-1.279-2.434-1.79 0 0 .336.637.436 1.271l-1.176-1.271-1.178 1.271c.1-.634.436-1.271.436-1.271-1.287.51-2.434 1.79-2.434 1.79.076-.437.375-1.202.375-1.202-.967.473-1.859 1.533-2.271 3.286l1.303-1.573z"/></svg>