<svg xmlns="http://www.w3.org/2000/svg" width="64" height="64" viewBox="0 0 64 64"><path fill="#3E4347" d="M55.86 32.117L33.213 17.175S46.156-.202 52.597 2.232c3.138 1.185 5.398 25.177 3.263 29.885z"/><path fill="#FFF" d="M54.874 33.908l-8.971-4.15s-5.285-14.037 6.135-24.067c2.324 1.986 5.055 24.992 2.836 28.217z"/><path fill="#3E4347" d="M8.139 32.117l22.647-14.942S17.843-.202 11.403 2.232C8.264 3.417 6.004 27.409 8.139 32.117z"/><path fill="#FFF" d="M9.126 33.908l8.97-4.15s5.286-14.037-6.135-24.067C9.637 7.677 6.906 30.683 9.126 33.908z"/><path fill="#FF8736" d="M32 13.044c-13.11 0-30 20.583-30 32.344 18.546 0 17.709 16.61 30 16.61s11.454-16.61 30-16.61c0-11.761-16.89-32.344-30-32.344z"/><path fill="#FFF" d="M31.999 56.227c0 5.088 9.575 4.184 9.534-2.861 6.688-9.371 19.868-8.662 19.868-8.662-21.784-12.312-29.402 11.523-29.402 11.523z"/><path fill="#FFF" d="M32.001 56.227c0 5.088-9.576 4.184-9.535-2.861-6.688-9.371-19.868-8.662-19.868-8.662 21.784-12.312 29.403 11.523 29.403 11.523z"/><g><path fill="#FF8736" d="M53.413 18.458c-3.982.703-4.889 6.281-4.889 6.281l6.025 5.279c-2.362-5.781-1.136-11.56-1.136-11.56z"/><path fill="#FF8736" d="M51.064 13.503c-4.364 3.905-5.106 8.742-5.106 8.742l6.024 5.278c-2.362-5.78-.918-14.02-.918-14.02z"/><g><path fill="#FF8736" d="M10.586 18.458c3.982.703 4.889 6.281 4.889 6.281l-6.025 5.28c2.363-5.782 1.136-11.561 1.136-11.561z"/><path fill="#FF8736" d="M12.935 13.503c4.364 3.905 5.107 8.742 5.107 8.742l-6.025 5.278c2.363-5.78.918-14.02.918-14.02z"/></g></g><g><path fill="#3E4347" d="M52.846 31.15c-5.676-1.813-10.938-3.438-13.75.875-2.407 3.691.688 9.406.688 9.406C50.908 42.557 52.846 31.15 52.846 31.15z"/><ellipse fill="#D5FF83" cx="42.959" cy="36.313" rx="4.209" ry="4.138"/><ellipse fill="#3E4347" cx="42.959" cy="36.313" rx="2.706" ry="2.66"/><g><path fill="#3E4347" d="M11.154 31.15c5.676-1.813 10.937-3.438 13.75.875 2.407 3.691-.688 9.406-.688 9.406C13.091 42.557 11.154 31.15 11.154 31.15z"/><ellipse fill="#D5FF83" cx="21.04" cy="36.313" rx="4.21" ry="4.138"/><ellipse fill="#3E4347" cx="21.039" cy="36.313" rx="2.706" ry="2.66"/></g></g><g><path fill="#3E4347" d="M41.217 47.936c-.718-2.309-1.787-4.439-2.988-6.451 1.066 2.099 1.986 4.299 2.535 6.598.54 2.275.714 4.735-.037 6.845-.37 1.043-.981 1.958-1.774 2.595-.788.639-1.752.999-2.7 1.009-.945.018-1.872-.332-2.476-.984-.611-.653-.874-1.551-.831-2.573L32 54.99l-.946-.018c.043 1.022-.22 1.92-.831 2.573-.603.652-1.53 1.002-2.476.984-.948-.01-1.912-.37-2.699-1.009-.793-.637-1.405-1.552-1.775-2.595-.751-2.109-.576-4.569-.037-6.845.549-2.299 1.469-4.499 2.535-6.598-1.201 2.012-2.271 4.143-2.988 6.451-.697 2.288-1.092 4.844-.402 7.329.344 1.226.996 2.393 1.927 3.26.927.869 2.11 1.434 3.365 1.549 1.243.118 2.604-.22 3.653-1.184.256-.227.479-.49.675-.777.194.287.418.551.675.777 1.049.964 2.409 1.302 3.652 1.184 1.255-.115 2.439-.68 3.365-1.549.932-.867 1.584-2.034 1.928-3.26.689-2.483.294-5.038-.404-7.326z"/></g><path fill="#3E4347" d="M37.571 50.293c-1.118-1.126-4.546-1.212-5.572-1.212-1.021 0-4.455.086-5.572 1.212-.793.801-.18 2.788 1.939 4.504 1.334 1.081 2.611 1.422 3.633 1.422 1.026 0 2.301-.341 3.637-1.422 2.115-1.716 2.732-3.703 1.935-4.504z"/></svg>