<svg xmlns="http://www.w3.org/2000/svg" width="64" height="64" viewBox="0 0 64 64"><path fill="#594640" d="M21.902 21.899c-.649-1.601-1.112-3-1.426-4.243 10.155-5.388 6.896-10.344 4.572-6.679-1.647 2.601-4.016 3.817-5.045 4.249-.419-3.327.286-5.451.646-7.93.569-3.903-3.104-5.798-3.653-4.29-.846 2.327 2.488.94 1.454 6.362-.81 4.24-.104 7.814.586 9.998-1.498-1.208-3.147-2.395-4.911-3.585-1.164-2.274-2.712-6.993.721-12.171 1.049-1.582-.345-1.693-.75-1.582-1.747.48-4.236 6.563-2.811 11.855C4.344 8.857 6.793 2.029 5.108 2.029c-2.081 0-1.013 7.686 2.022 11.546.957 1.215 2.894 2.573 5.062 4.042-1.798.761-5.07 1.438-8.395-1.467C3.399 15.801 2 15.093 2 16.868c0 1.78 5.898 6.559 12.512 2.325 2.806 1.937 5.569 4.034 6.813 6.243l5.838 5.247c-.665-3.27-2.552-6.114-5.261-8.784zM42.098 21.899c.652-1.601 1.113-3 1.428-4.243-10.156-5.388-6.896-10.344-4.572-6.679 1.646 2.601 4.014 3.817 5.043 4.249.42-3.327-.285-5.451-.646-7.93-.568-3.903 3.105-5.798 3.654-4.29.846 2.327-2.488.94-1.455 6.362a20.54 20.54 0 0 1-.584 9.998c1.498-1.208 3.146-2.395 4.912-3.585 1.162-2.274 2.711-6.993-.723-12.171-1.049-1.582.344-1.693.75-1.582 1.748.48 4.236 6.563 2.811 11.855 6.941-5.027 4.49-11.855 6.178-11.855 2.08 0 1.012 7.686-2.023 11.546-.955 1.215-2.891 2.573-5.059 4.042 1.797.761 5.068 1.438 8.393-1.467.397-.348 1.795-1.056 1.795.719 0 1.78-5.898 6.559-12.51 2.325-2.805 1.937-5.568 4.034-6.814 6.243l-5.838 5.247c.666-3.27 2.553-6.114 5.26-8.784z"/><path fill="#D3976E" d="M42.736 39.386c-2.527-4.483.451-7.317-1.412-8.562-3.232-2.159-6.406-2.293-9.324-2.293-2.917 0-6.092.134-9.323 2.293-1.862 1.244 1.114 4.078-1.414 8.562-2.528 4.484-.217 8.407 2.813 11.056 3.03 2.646.234 8.401 4.43 10.584.963.498 2.161.973 3.495.973 1.333 0 2.533-.475 3.496-.973 4.195-2.183 1.398-7.938 4.428-10.584 3.03-2.649 5.341-6.572 2.811-11.056z"/><path fill="#89664C" d="M41.68 35.87c.055 1.034.318 2.202 1.057 3.516 2.529 4.484.219 8.407-2.813 11.056-1.258 1.097-1.508 2.731-1.676 4.423v.002c0-2.371.174-6.733 1.877-11.096 1.494-3.824 1.561-5.73 1.555-7.901zM22.322 35.87c-.055 1.034-.317 2.202-1.059 3.516-2.528 4.484-.217 8.407 2.813 11.056 1.258 1.097 1.511 2.731 1.677 4.423l.001.002c0-2.371-.173-6.733-1.877-11.096-1.495-3.824-1.561-5.73-1.555-7.901z" opacity=".5"/><path fill="#D3976E" d="M27.456 35.703s0-15.299-14.546-15.299c0 0 .079 15.299 14.546 15.299z"/><path fill="#89664C" d="M15.41 22.556s5.546 0 9.622 7.57c0 0-3.258-1.753-2.804-.956.454.796 2.868 2.592.449 1.654-2.418-.938-.752.656.005 1.453.758.796-7.272-1.355-7.272-9.721z"/><path fill="#D3976E" d="M36.547 35.703s0-15.299 14.543-15.299c0 0-.078 15.299-14.543 15.299z"/><path fill="#89664C" d="M48.59 22.556s-5.545 0-9.621 7.57c0 0 3.26-1.753 2.803-.956-.453.796-2.867 2.592-.447 1.654 2.418-.938.752.656-.006 1.453-.758.796 7.271-1.355 7.271-9.721zM35.742 59.245c.143.256-1.455 1.828-3.742 1.815-2.287.013-3.884-1.56-3.741-1.815.119-.303 1.728.646 3.741.618 2.014.028 3.623-.919 3.742-.618z"/><path fill="#89664C" d="M31.532 58.248h.938v1.875h-.938z"/><path fill="#594640" d="M32 53.862c-1.97 0-4.545.32-4.545 1.436s1.818 3.585 4.545 3.585c2.728 0 4.546-2.47 4.546-3.585S33.971 53.862 32 53.862z"/><ellipse fill="#FFF" cx="32" cy="55.436" rx="3.281" ry=".938"/><ellipse transform="rotate(-10.003 23.57 42.319)" fill="#3E4347" cx="23.563" cy="42.311" rx="1.703" ry="2.431"/><ellipse transform="rotate(-169.997 40.438 42.31)" fill="#3E4347" cx="40.438" cy="42.311" rx="1.704" ry="2.431"/><path fill="#89664C" d="M23.644 37.046c-.129.177 1.832 1.498 2.545 3.963.787 2.443-.099 4.636.106 4.711.17.16 1.527-2.146.653-4.943-.839-2.808-3.253-3.96-3.304-3.731zM40.357 37.046c.127.177-1.832 1.498-2.545 3.963-.787 2.443.098 4.636-.107 4.711-.168.16-1.527-2.146-.654-4.943.842-2.808 3.256-3.96 3.306-3.731z"/><path opacity=".5" fill="#89664C" d="M28.287 28.739c-1.805 1.794-2.909 3.652-.618 8.278 2.583 5.215 1.667 14.668 4.332 14.668 2.666 0 1.75-9.453 4.332-14.668 2.291-4.626 1.188-6.484-.617-8.278-1.271-.176-2.516-.208-3.714-.208-1.2 0-2.444.032-3.715.208z"/></svg>