<svg xmlns="http://www.w3.org/2000/svg" width="64" height="64" viewBox="0 0 64 64"><path fill="#83BF4F" d="M58.77 25.462c-.602.05-2.735 1.031-3.494 1.095-1.572.116-2.409-.639-1.779-1.799.277-.514 1.957-1.974 2.203-2.487.658-1.285-1.47-2.237-2.108-.951-.263.52-.392 2.689-.64 3.228-.468.965-1.84 1.061-2.341.382-.415-.583-1.011-2.813-1.357-3.288-.856-1.157-2.765.091-1.917 1.246.337.454 2.468 1.832 2.71 2.972-2.551-.494-4.111-2.973-4.94-4.834.453-.74.916-1.446 1.416-2.113 1.795.973 4.044.74 5.457-.924 1.743-2.065 12.346-11.625 9.557-15.121C58.72-.665 46.938 7.674 44.52 8.922c-2.044 1.067-2.69 3.33-1.941 5.33-1.6.866-3.824 1.837-6.719 2.618-1.792-.116-6.219-.83-3.442-5.053.845.803 1.104 3.107 1.356 3.576.714 1.397 2.732.238 2.003-1.155-.268-.508-2.02-1.99-2.356-2.611-.392-.736.339-1.91 1.43-1.914.602.011 2.631.831 3.216.827 1.435-.008 1.55-2.293.108-2.274-.587.003-2.679.855-3.271.879-1.347.067-1.644-1.004-.817-2.343.409-.644 2.284-2.111 2.603-2.623.865-1.411-1.016-2.537-1.902-1.123-.312.516-.768 2.818-1.161 3.471-.828 1.341-1.931 1.576-2.501.386-.253-.527-.45-2.742-.725-3.243-.654-1.286-2.674-.12-2.006 1.149.267.519 1.948 1.896 2.241 2.412.506.945-.223 2.113-1.064 2.119-.715-.005-2.871-.831-3.46-.828-1.439.015-1.547 2.291-.114 2.282.535-.006 2.683-.828 3.815-.515-.948 1.225-4.282 6.078.23 8.763-4.854 2.27-11.282 6.212-16.627 11.838-1.646.423-4.11.362-3.842-3.905 1.15.186 2.599 2.134 3.065 2.418 1.321.845 2.479-1.175 1.144-2.009-.487-.302-2.748-.697-3.354-1.063-.709-.437-.673-1.819.267-2.373.524-.295 2.69-.613 3.193-.913 1.233-.731.178-2.761-1.057-2.017-.505.298-1.879 2.091-2.379 2.411-1.127.739-1.925-.036-1.89-1.609.027-.762.904-2.975.921-3.578.031-1.655-2.159-1.675-2.21-.008-.008.603.763 2.821.753 3.582-.037 1.576-.869 2.335-1.962 1.597-.486-.327-1.776-2.138-2.265-2.433-1.217-.779-2.369 1.247-1.151 2.005.493.313 2.641.651 3.152.95.915.559.878 1.934.155 2.366-.621.358-2.898.734-3.406 1.034-1.233.74-.176 2.759 1.056 2.027.447-.269 1.821-1.983 2.942-2.355-.187 1.493-.521 6.723 3.856 7.383l-.009.011c-4.08 5.339-8.847 19.705 7.786 25.815 16.229 5.959 37.349-4.2 41.408-23.529 0 0-9.03 24.011-31.096 19.274-6.679-1.438-15.429-5.85-7.219-12.176 1.059-.814 2.249-1.603 3.47-2.363 1.035 4.405 5.674 4.936 8.114 4.901-.13 1.155-2.142 2.646-2.43 3.119-.845 1.321 1.176 2.479 2.01 1.144.302-.487.696-2.748 1.063-3.352.436-.71 1.818-.674 2.373.265.296.524.614 2.69.913 3.193.731 1.231 2.762.177 2.017-1.057-.298-.505-2.091-1.879-2.411-2.378-.739-1.127.036-1.924 1.61-1.889.762.027 2.976.903 3.578.92 1.654.032 1.675-2.158.008-2.209-.603-.008-2.821.762-3.582.752-1.576-.037-2.337-.869-1.598-1.961.326-.485 2.139-1.776 2.434-2.264.777-1.217-1.249-2.369-2.007-1.15-.313.492-.65 2.639-.949 3.15-.56.915-1.936.879-2.366.154-.358-.62-.734-2.897-1.034-3.404-.741-1.232-2.76-.176-2.028 1.057.288.478 2.228 2.021 2.401 3.176-2.182-.35-3.335-1.541-3.783-2.967-.145-.48-.132-1.229.458-2.072 1.388-.833 2.637-1.624 3.566-2.365 4.895-3.9 7.508-7.602 9.49-10.889 1.292 3.745 5.404 3.578 7.711 3.159.063 1.164-1.88 2.903-2.126 3.413-.713 1.397 1.409 2.353 2.11.945.254-.515.428-2.802.734-3.439.367-.749 1.747-.846 2.389.035.345.494.871 2.618 1.217 3.09.848 1.156 2.767-.09 1.905-1.247-.345-.473-2.262-1.668-2.63-2.134-.844-1.05-.151-1.918 1.42-2.036.762-.045 3.05.612 3.651.571 1.653-.129 1.463-2.311-.202-2.201z"/><path fill="#E8E8E8" d="M50.42 9.509a2.929 2.929 0 0 1-4.073-.426 2.804 2.804 0 0 1 .424-4.009 2.928 2.928 0 0 1 4.077.417 2.825 2.825 0 0 1-.428 4.018z"/><path fill="#3E4347" d="M49.507 7.165a1.473 1.473 0 0 1-2.039-.225 1.406 1.406 0 0 1 .212-2.003c.62-.5 1.533-.404 2.044.212a1.425 1.425 0 0 1-.217 2.016z"/><path fill="#E8E8E8" d="M56.277 16.622a2.94 2.94 0 0 1-4.087-.421 2.836 2.836 0 0 1 .424-4.021c1.247-.991 3.079-.804 4.083.42a2.836 2.836 0 0 1-.42 4.022z"/><path fill="#3E4347" d="M53.402 14.546a1.481 1.481 0 0 1 2.043.217c.5.619.407 1.522-.217 2.014-.613.494-1.527.397-2.035-.217s-.408-1.509.209-2.014z"/><path fill="#C7E755" d="M39.21 56.018c-1.17.265-2.403.436-3.688.514-1.981 2.043-1.811 2.594 1.825 3.963a33.061 33.061 0 0 0 3.78-1.424c-2.295-.934-2.523-.914-1.917-3.053z"/><path fill="#6ADBC6" d="M29.209 56.112c-.261-.05-2.531-.585-3.449-.878-3.347 2.49.398 4.123 1.128 6.662 0 0 1.617.338 4.851-.206-.811-3.124-4.618-3.04-2.53-5.578z"/><path fill="#C7E755" d="M21.414 53.338c-1.305-.785-2.362-1.694-2.95-2.734-2.858 4.104-5.578-.795-4.23 7.8 1.683 1.28 4.542 2.03 4.542 2.03-1.818-6.022-2.487-4.311 2.638-7.096z"/><path fill="#6ADBC6" d="M18.138 49.881c-.393-1.188-.179-2.506.935-3.952-6.7-10.275-9.42-.235-12.526-1.467-.13 1.473-.072 2.989.253 4.491 6.691-.73 2.577-6.873 11.338.928z"/><path fill="#C7E755" d="M21.951 43.293c1.219-.889 2.566-1.737 3.918-2.553-10.164-6.754 5.503-8.045-12.443-9.865a43.35 43.35 0 0 0-2.973 3.462c13.085 3.149 1.585 2.643 11.498 8.956z"/><path fill="#6ADBC6" d="M20.633 24.604c13.405 1.507-.178 4.507 9.916 13.337 2.324-1.196 3.881-2.849 3.881-2.849-7.308-6.523 9.525-9.356-9.967-13.036-1.842.926-3.83 2.548-3.83 2.548z"/><path fill="#C7E755" d="M31.706 18.306c11.471 4.434 4.225 5.927 7.678 11.653 1.983-2.156 3.209-4.655 3.209-4.655.764-8.749-2.148-4.555-6.65-8.46-.168.044-2.742.831-4.237 1.462z"/></svg>