<svg xmlns="http://www.w3.org/2000/svg" width="64" height="64" viewBox="0 0 64 64"><path fill="#B2C1C0" d="M44.804 6.999c-16.09 4.336-20.173 18.51-20.173 18.51l16.397 3.382c-1.399-6.582 3.776-21.892 3.776-21.892z"/><path fill="#879191" d="M28.462 21.34l13.057-1.785s.213-1.109.373-1.859c-8.685 0-13.432 3.642-13.43 3.644z"/><path fill="#B2C1C0" d="M53.084 9.397s3.028 2.972 3.785 5.942C61.559 18.562 62 23.234 62 26.31c0 10.9-17.196 21.363-17.196 21.363L2 38.531c0-4.268 19.178-18.986 38.972-18.986 6.913 0 16.003 4.914 18.147 2.582 1.178-1.279-1.346-5.348-2.481-5.348 0 0 .063 2.605-1.22 4.205.505-5.896-2.334-11.587-2.334-11.587z"/><path fill="#FF717F" d="M19.741 55.241s.032-17.025 16.582-23.824c0 0 9.525 19.135-16.582 23.824z"/><path fill="#ED4C5C" d="M25.527 38.333s-3.491 10.065-3.646 14.499c0 0 16.457-5.061 12.506-20.619l-8.86 6.12z"/><path opacity=".5" fill="#3E4347" d="M29.605 35.515s-3.547 6.004-4.149 11.479c-.601 5.479 8.48-2.764 9.338-13.61l-5.189 2.131z"/><path fill="#FFF" d="M15.874 48.224l3.297 2.073-.627-3.855 2.983 2.166-.58-3.979 3.485 2.58-1.159-4.875 3.782 3.183-1.05-5.33 3.891 3.232-1.286-5.236 3.676 2.613-1.128-4.784 3.45 3.259-1.091-5.362c.001-.001-8.466 5.264-17.643 14.315z"/><path fill="#B2C1C0" d="M19.171 50.297l-3.297-2.073 1.183-1.149zM18.544 46.441l2.983 2.166-2.016-3.817zM20.947 44.629l3.486 2.58-2.57-4.49zM23.273 42.334l3.783 3.183-2.416-4.616zM26.006 40.187l3.89 3.232-2.767-4.977zM28.61 38.183l3.676 2.613-2.638-4.234zM31.158 36.012l3.45 3.259-2.301-4.568z"/><g><path fill="#FFF" d="M35.379 40.911l-2.231-1.04 1.334 3.837c.53-1.115.784-2.072.897-2.797zM34.271 44.114l-3.18-1.34 1.379 3.967a14.132 14.132 0 0 0 1.801-2.627zM32.052 47.22l-3.248-1.807.946 3.937c.9-.715 1.663-1.434 2.302-2.13zM29.433 49.599l-3.287-2.252.806 3.948a27.03 27.03 0 0 0 2.481-1.696zM26.596 51.51l-3.354-2.586s.458 3.202.634 4.043c.99-.481 1.891-.967 2.72-1.457z"/><path fill="#FFF" d="M23.998 52.904L20.532 50.1c.248 1.569.682 4.006.69 4.037a46.883 46.883 0 0 0 2.776-1.233z"/><path fill="#B2C1C0" d="M35.001 42.427l-1.854-2.556 1.334 3.837c.218-.455.382-.887.52-1.281zM33.336 45.634l-2.245-2.859 1.379 3.967c.326-.375.609-.748.866-1.108zM30.793 48.469l-1.989-3.056.946 3.937c.372-.291.72-.586 1.043-.881zM28.136 50.536l-1.99-3.189.806 3.948c.412-.252.812-.503 1.184-.759zM25.089 52.358l-1.847-3.435.608 4.054.001.003c.428-.207.841-.415 1.238-.622zM22.259 53.697L20.532 50.1l.69 4.037c.354-.145.702-.287 1.037-.44z"/></g><path fill="#B2C1C0" d="M15.67 48.607s23.606-15.683 21.841-18.312L23.998 35.72 15.67 48.607z"/><g><circle fill="#3E4347" cx="24.694" cy="29.558" r="3.298"/><path fill="#76807F" d="M15.942 32.087s4.018.829 6.02-2.521c2.002-3.348 4.799-3.483 8.58-3.679 0 0-6.075-1.479-9.104.833-3.028 2.312-2.832 4.651-5.496 5.367z"/></g><g fill="#3E4347"><path opacity=".5" d="M44.021 28.641s1.37-.881 1.641-1.926c.277-1.061 1.184-3.182-.109-4.419 0 0 1.789.984 1.119 3.551-.669 2.572-1.573 2.58-2.651 2.794zM45.735 29.431s1.439-.748 1.801-1.766c.364-1.023 1.442-3.052.26-4.405 0 0 1.703 1.147.814 3.642-.882 2.497-1.783 2.418-2.875 2.529zM47.891 30.224s1.414-.787 1.747-1.816c.335-1.032 1.366-3.093.148-4.415 0 0 1.729 1.099.91 3.62-.816 2.52-1.721 2.47-2.805 2.611z"/></g><path fill="#879191" d="M51.289 38.348s3.898-.8 4.832 0l-1.46 1.523-3.372-1.523z"/><path fill="#B2C1C0" d="M51.289 38.348c8.468 0 10.711 18.65 10.711 18.65s-8.075-10.971-18.393-10.971l7.682-7.679z"/><path fill="#E8E8E8" d="M2 38.531c0-1.074 11.874-3.011 20.3-.184s10.554-12.422 14.813-11.216c4.595 1.301.97 15.608 10.356 19.396-8.669 7.843-21.622 12.598-27.728 8.714 23.866-7.86 16.882-22.385 16.882-22.385s-10.027 12.108-20.681 15.88C11.992 50.135 2 42.026 2 38.531z"/><path fill="#3E4347" d="M14.895 39.454s1.561-1.005 2.95-.014c.613.44-.134 1.298-1.262 1.298-1.126 0-.729-.965-1.688-1.284z"/></svg>