<svg xmlns="http://www.w3.org/2000/svg" width="64" height="64" viewBox="0 0 64 64"><path fill="#3E4347" d="M51.781 16.117C49.5 6.202 39.609 1.998 32 1.998S14.502 6.202 12.219 16.117-2.983 30.771 4.101 40.486C9.246 47.538 24.5 61.998 32 61.998s22.754-14.46 27.898-21.512c7.084-9.715-5.834-14.454-8.117-24.369z"/><path fill="#94989B" d="M51.5 25c-7.029-4.688-14.625 1-19.5 1s-12.469-5.688-19.5-1c-7.032 4.688 1.068 14.835 9 11.997 10.5-3.752 2.178 4.305.938 7.5C21.199 47.695 20 56.999 32 56.999s10.801-9.304 9.563-12.502c-1.24-3.195-9.529-10.499.938-7.5C50.77 39.37 58.531 29.688 51.5 25z"/><path opacity=".5" fill="#94989B" d="M47.846 18.52c-4.678-1.781-9.629 1.59-15.846 1.59-6.215 0-11.168-3.371-15.846-1.59-5.213 1.988 0 0 5.418 1.643 5.414 1.643 7.684 1.835 10.428 1.835s5.014-.192 10.428-1.835c5.418-1.643 10.631.345 5.418-1.643z"/><path opacity=".5" fill="#94989B" d="M42.563 15.889C39.443 14.55 36.145 17.08 32 17.08c-4.143 0-7.443-2.53-10.561-1.191-3.477 1.494 0 0 3.609 1.232S30.17 18.5 32 18.5c1.832 0 3.342-.146 6.951-1.379 3.612-1.232 7.088.262 3.612-1.232z"/><g fill="#94989B"><path d="M29.014 34.208c-2.441-1.128-1.531 2.603-6.172 4.228-4.688 1.64-2.889 5.563.479 5.563 2.91 0 5.162.063 6.924-2.375 1.763-2.434 1.212-6.292-1.231-7.416zM41.16 38.436c-4.643-1.625-3.73-5.355-6.174-4.228-2.443 1.124-2.994 4.982-1.23 7.416 1.762 2.438 4.014 2.375 6.924 2.375 3.369 0 5.168-3.924.48-5.563z"/></g><path fill="#3E4347" d="M28.506 37.449c.121 1.56.686 4.982-2.605 5.096-2.9.104-3.697-2.873-.232-2.994 2.31-.078 2.837-2.102 2.837-2.102zM35.494 37.449c-.121 1.56-.686 4.982 2.605 5.096 2.9.104 3.699-2.873.234-2.994-2.31-.078-2.839-2.102-2.839-2.102z"/><ellipse fill="#3E4347" cx="32" cy="48.998" rx="8.619" ry=".501"/><path fill="#C7E755" d="M23 34.216c3.314 0 6.002-2.6 6.002-5.8h-12c0 3.2 2.686 5.8 5.998 5.8z"/><path fill="#89664C" d="M23 31.677c1.656 0 3-1.297 3-2.9h-6c0 1.603 1.346 2.9 3 2.9z"/><path fill="#C7E755" d="M47 28.416c0 3.2-2.686 5.8-6 5.8-3.313 0-6-2.6-6-5.8h12z"/><path fill="#89664C" d="M43.998 28.776c0 1.604-1.342 2.9-2.998 2.9s-3-1.297-3-2.9h5.998z"/><path fill="#3E4347" d="M51.5 28.621c0 .414-8.732.751-19.5.751s-19.5-.337-19.5-.751c0-.411 8.732-.746 19.5-.746s19.5.335 19.5.746zM1.999 34.997s0 6.237 4.251 11.729l.876-1.966s.125 3.034 2.688 6.477l.813-3.032s.123 4.592 4.123 8.938c0 0 .342-3.018.752-4.102 0 0 2.25 4.756 7.498 7.956 0 0-1.389-2.553 1.67-4.561 0 .002-14.566-21.439-22.671-21.439zM62 34.997s0 6.237-4.25 11.729l-.877-1.966s-.123 3.034-2.686 6.477l-.813-3.032s-.125 4.592-4.123 8.938c0 0-.344-3.018-.754-4.102 0 0-2.25 4.756-7.498 7.956 0 0 1.389-2.553-1.67-4.561.001.002 14.569-21.439 22.671-21.439z"/></svg>