<svg xmlns="http://www.w3.org/2000/svg" width="64" height="64" viewBox="0 0 64 64"><path fill="#E84D88" d="M33.609 40.785s1.462-4.189 14.193 3.143c12.731 7.337 3.958 9.244.879 14.018C45.48 62.916 32 67.105 32 46.287v-5.502h1.609z"/><path fill="#9450E0" d="M56.584 10.29c9.482 0 4.317 10.807.959 18.011-3.357 7.207 1.566 12.796-1.482 15.529-4.399 3.94-14.989-6.173-22.186-3.595V23.9s9.817-13.61 22.709-13.61zM7.416 10.29c-9.482 0-4.317 10.807-.959 18.011 3.357 7.207-1.566 12.796 1.482 15.529 4.399 3.94 14.989-6.173 22.186-3.595V23.9S20.308 10.29 7.416 10.29z"/><path fill="#E84D88" d="M30.391 40.785s-1.462-4.189-14.193 3.143c-12.731 7.337-3.958 9.244-.879 14.018C18.52 62.916 32 67.105 32 46.287v-5.502h-1.609z"/><path fill="#FFCE31" d="M31.988 27.546S21.387 13.739 13.763 13.739c-7.446 0 5.214 5.981 1.735 9.41-3.905 3.849-.483 5.514 1.736 7.702 2.774 2.737-10.269 12.691 8.494 7.028 4.324-1.306 3.655.601 6.271.601l-.011-10.934zM32.012 27.546s10.601-13.807 18.225-13.807c7.446 0-5.214 5.981-1.735 9.41 3.905 3.849.483 5.514-1.736 7.702-2.774 2.737 10.269 12.691-8.494 7.028-4.326-1.305-3.657.601-6.272.601l.012-10.934z"/><path fill="#6ADBC6" d="M8.945 15.921c-.039.694-.682 1.226-1.434 1.191-.754-.035-1.332-.627-1.291-1.319.039-.696.681-1.228 1.435-1.191.752.035 1.33.627 1.29 1.319z"/><path fill="#FFCE31" d="M12.994 20.733c-.058 1.002-.985 1.772-2.071 1.721-1.089-.052-1.923-.909-1.865-1.912.057-.998.984-1.768 2.073-1.715 1.085.051 1.92.904 1.863 1.906z"/><path fill="#6ADBC6" d="M11.615 26.11c-.037.649-.639 1.149-1.344 1.114-.704-.033-1.246-.587-1.208-1.233.035-.649.639-1.149 1.343-1.113.705.031 1.245.586 1.209 1.232z"/><path fill="#FFCE31" d="M14.654 31.33c.043 1.16-.938 2.129-2.192 2.169-1.257.042-2.308-.864-2.353-2.02-.042-1.152.94-2.127 2.193-2.168 1.258-.037 2.309.864 2.352 2.019z"/><path fill="#6ADBC6" d="M13.399 37.429c.024.696-.563 1.28-1.316 1.302-.754.026-1.387-.516-1.412-1.21-.027-.694.563-1.276 1.316-1.302.754-.026 1.385.518 1.412 1.21zM55.055 15.921c.039.694.682 1.226 1.434 1.191.754-.035 1.332-.627 1.291-1.319-.039-.696-.681-1.228-1.435-1.191-.752.035-1.33.627-1.29 1.319z"/><path fill="#FFCE31" d="M51.006 20.733c.058 1.002.985 1.772 2.071 1.721 1.089-.052 1.923-.908 1.865-1.911-.057-.998-.984-1.768-2.073-1.715-1.085.05-1.92.903-1.863 1.905z"/><path fill="#6ADBC6" d="M52.385 26.11c.037.649.639 1.149 1.344 1.114.704-.033 1.246-.587 1.208-1.233-.035-.649-.639-1.149-1.343-1.113-.705.031-1.245.586-1.209 1.232z"/><path fill="#FFCE31" d="M49.346 31.33c-.043 1.16.938 2.129 2.192 2.169 1.257.042 2.308-.864 2.353-2.02.042-1.152-.94-2.127-2.193-2.168-1.258-.037-2.309.864-2.352 2.019z"/><path fill="#6ADBC6" d="M50.601 37.429c-.024.696.563 1.28 1.316 1.302.754.026 1.387-.516 1.412-1.21.027-.694-.563-1.276-1.316-1.302-.754-.026-1.385.518-1.412 1.21z"/><g fill="#E84D88"><path d="M32.582 29.114s-7.433-7.394-14.867-7.427c0 0 8.031.688 14.867 9.052v-1.625zM33.02 32.215s-9.799-.694-15.733 4.472c0 0 6.757-5.061 16.589-3.173l-.856-1.299z"/><path d="M33.139 30.606S24.071 26.273 17 28.929c0 0 7.818-2.248 16.582 3.228l-.443-1.551z"/></g><g fill="#E84D88"><path d="M31.418 29.114s7.433-7.394 14.867-7.427c0 0-8.031.688-14.867 9.052v-1.625zM30.98 32.215s9.799-.694 15.733 4.472c0 0-6.757-5.061-16.589-3.173l.856-1.299z"/><path d="M30.861 30.606S39.929 26.273 47 28.929c0 0-7.818-2.248-16.582 3.228l.443-1.551z"/></g><path fill="#FFCE31" d="M30.435 39.592S15.9 43.243 15.9 48.207c0 4.574 4.022 3.195 4.963 6.276C21.803 57.566 32 61.945 32 40.769l-1.565-1.177z"/><ellipse fill="#FFCE31" cx="13.391" cy="50.752" rx="1.079" ry=".946"/><ellipse fill="#6ADBC6" cx="17.26" cy="55.148" rx="2.208" ry="1.94"/><ellipse fill="#FFCE31" cx="21.738" cy="59.083" rx="1.36" ry="1.194"/><path fill="#FFCE31" d="M33.565 39.592S48.1 43.243 48.1 48.207c0 4.574-4.022 3.195-4.963 6.276C42.197 57.566 32 61.945 32 40.769l1.565-1.177z"/><ellipse fill="#FFCE31" cx="50.609" cy="50.752" rx="1.079" ry=".946"/><ellipse fill="#6ADBC6" cx="46.74" cy="55.148" rx="2.208" ry="1.94"/><ellipse fill="#FFCE31" cx="42.262" cy="59.083" rx="1.36" ry="1.194"/><g fill="#E84D88"><path d="M33.406 41.316c-4.119 1.132-10.949 3.503-15 7.615 0 0 5.34-4.722 15-6.81v-.805zM33.406 43.827c-3.383 2.244-7.507 5.598-9.401 9.554 0 0 2.694-4.627 9.401-8.752v-.802z"/></g><g fill="#E84D88"><path d="M30.594 41.316c4.119 1.132 10.949 3.503 15 7.615 0 0-5.34-4.722-15-6.81v-.805zM30.594 43.827c3.383 2.244 7.507 5.598 9.401 9.554 0 0-2.694-4.627-9.401-8.752v-.802z"/></g><path fill="#594640" d="M35.75 36.146c0 7.138-1.679 12.929-3.75 12.929s-3.75-5.791-3.75-12.929c0-7.14 0-12.927 3.75-12.927s3.75 5.786 3.75 12.927z"/><path fill="#594640" d="M35.75 23.728c0 2.294-1.679.63-3.75.63s-3.75 1.664-3.75-.63c0-2.296 1.679-3.955 3.75-3.955s3.75 1.659 3.75 3.955z"/><path fill="#594640" d="M31.857 21.03c-.453-1.032-1.024-2.296-1.47-3.759-.121-.364-.188-.744-.291-1.132-.076-.391-.131-.792-.188-1.201-.006-.406-.063-.832-.033-1.248.019-.418.08-.875.142-1.335.252-1.858.7-3.877.569-6.037-.079-1.053-.328-2.267-1.218-3.121a3.8 3.8 0 0 0-1.472-.883 5.632 5.632 0 0 0-1.598-.306c-1.062-.049-2.104.115-3.029.522-.919.387-1.762 1.052-2.139 1.936-.786 1.728-.263 3.584.706 4.573a2.64 2.64 0 0 0 1.67.812c.558.001 1.033-.119 1.368-.309.356-.156.586-.35.747-.471l.247-.187-.257.171c-.168.111-.407.29-.766.424-.338.168-.807.252-1.326.222a2.431 2.431 0 0 1-1.497-.833c-.844-.955-1.203-2.718-.424-4.172.357-.729 1.088-1.242 1.924-1.547.833-.317 1.784-.41 2.709-.318.913.096 1.853.428 2.419 1.054.585.609.758 1.549.777 2.489.021 1.912-.493 3.853-.85 5.746-.088.481-.177.952-.225 1.457-.057.505-.02.988-.029 1.471.041.472.084.938.151 1.385.094.437.159.876.273 1.281.424 1.633.98 2.975 1.408 4.023.27.661.884 1.027 1.354.835.475-.191.634-.89.348-1.542z"/><path fill="#594640" d="M32.143 21.03c.453-1.032 1.024-2.296 1.47-3.759.121-.364.188-.744.291-1.132.076-.391.131-.792.188-1.201.006-.406.063-.832.033-1.248-.019-.418-.08-.875-.142-1.335-.252-1.858-.7-3.877-.569-6.037.079-1.053.328-2.267 1.218-3.121a3.8 3.8 0 0 1 1.472-.883 5.632 5.632 0 0 1 1.598-.306c1.062-.049 2.104.115 3.029.522.919.387 1.762 1.052 2.139 1.936.786 1.728.263 3.584-.706 4.573a2.64 2.64 0 0 1-1.67.812c-.558.001-1.033-.119-1.368-.309-.356-.156-.586-.35-.747-.471l-.249-.186.257.171c.168.111.407.29.766.424.338.168.807.252 1.326.222a2.431 2.431 0 0 0 1.497-.833c.844-.955 1.203-2.718.424-4.172-.357-.729-1.088-1.242-1.924-1.547-.833-.317-1.784-.41-2.709-.318-.913.096-1.853.428-2.419 1.054-.585.609-.758 1.549-.777 2.489-.021 1.912.493 3.853.85 5.746.088.481.177.952.225 1.457.057.505.02.988.029 1.471a22.66 22.66 0 0 1-.151 1.385c-.094.437-.159.876-.273 1.281-.424 1.633-.98 2.975-1.408 4.023-.27.661-.884 1.027-1.354.835-.473-.192-.632-.891-.346-1.543z"/></svg>