<svg xmlns="http://www.w3.org/2000/svg" width="64" height="64" viewBox="0 0 64 64"><path fill="#594640" d="M52.422 41.145l-37.5-20.338S5.56 26.325 4.875 33.313c0 0 2.245-3.146 5.271-2.817-6.137 2.574-7.224 10.711-7.224 10.711 3.216-3.152 5.842-3.242 5.842-3.242C3.068 41.469 2 51.438 2 51.438a34.645 34.645 0 0 1 4.581-3.387C1.778 55.031 4.867 62 4.867 62h57.086s1.278-15.514-9.531-20.855z"/><path fill="#B2C1C0" d="M37.403 25.61S41.366-.037 22.799 3.008c2.865.562 2.93 3.442 2.93 3.442s-6.973-2.931-13.251 3.77c4.278.98 4.513 4.666 4.513 4.666s-9.287-.611-10.078 11.872c3.691-2.417 6.503-1.192 6.503-1.192s-6.751 6.099-1.991 16.719c2.925-3.01 3.463-3.557 3.463-3.557s-1.508 5.883 3.539 12.98c6.094-1.238 7.734-3.865 7.734-3.865s.903 6.605 4.879 10.391c5.811-2.688 8.334-7.279 8.334-7.279s1.124 2.93 6.094 5.619c1.874-3.863.433-9.58.433-9.58s1.825 1.926 3.566 5.77l1.011-1.291L37.403 25.61z"/><path fill="#E8E8E8" d="M53.115 24.4C57.895 11.924 38.702-1.876 22.8 3.008c4.271.256 5.133 2.3 5.133 2.3s-9.176-1.789-15.454 4.913c4.759.057 7.253 2.187 7.253 2.187s-10.924.595-12.186 12.295c3.425-2.84 7.513-3.495 7.513-3.495s-8.831 8.039-4.071 18.659c2.925-3.01 6.651-5.51 6.651-5.51s-3.612 7.213 1.435 14.313c5.141.492 7.855-6.248 7.855-6.248s.688 8.822 4.665 12.609c5.81-2.688 7.34-8.18 7.34-8.18s1.414 5.492 6.384 8.18c1.874-3.861.114-10.373.114-10.373s3.306 2.971 5.046 6.814c11.05-14.313-4.319-15.902-1.222-23.523 0 .001 3.391-2.329 3.859-3.549z"/><path fill="#3E4347" d="M41.623 15.609c-1.181-3.874-6.485-4.375-8.741-1.51-1.427.641-5.056-1.396-5.056-1.396 1.886 3.279 3.57 3.617 4.11 3.634a5.886 5.886 0 0 0-.077.931c0 5.942 7.938 6.583 9.665 1.933.396.112 3.332.818 5.078-2.464-2.883 1.353-4.578-.586-4.979-1.128z"/><circle fill="#C7E755" cx="36.859" cy="17.268" r="3"/><circle fill="#3E4347" cx="36.86" cy="17.268" r="1.5"/><g><path fill="#F2B200" d="M59.416 35.102s-2.327-3.941-4.881-5.392c-7.838-4.455-16.252-2.356-17.706-5.461 8.536-2.045 26.18 1.602 22.587 10.853z"/><path fill="#FFCE31" d="M50.563 17.33c3.553-.837 9.666 4.646 11.115 9.569 1.52 5.157-2.827 9.616-2.827 9.616s4.854-12.267-22.021-12.267c7.819-1.59 12.865-.511 12.865-.511s-.705-6.037.868-6.407z"/><path fill="#3E4347" d="M52.31 22.166c-.956 1.407-.259 1.872.697.464.954-1.408.255-1.874-.697-.464z"/></g><g fill="#FFF"><path d="M48.721 39.836c-1.306-3.443-5.665-4.771-5.665-4.771s.469 4.609-.648 7.369c-2.492-2.65-5.388-9.564-5.388-9.564s-.19 7.461-4.419 10.713c-2.889-4.658-3.836-12.192-3.836-12.192s-2.412 4.299-6.086 6.245c-1.232-2.852-1.143-6.372-.761-7.739-2.394 4.294.384 8.745.384 8.745s3.598-1.232 5.522-3.793c.403 6.732 4.11 11.104 4.11 11.104s5.262-2.543 6.044-7.104c1.187 3.873 4.777 6.961 4.777 6.961s2.831-3.416 1.792-8.58c2.414.695 4.375 4.074 4.375 4.074s1.789-2.895-.113-5.68c.288.798.606 2.862-.088 4.212zM25.921 22.56c-.771 2.723-.734 5.122-.734 5.122s5.385.32 7.466-2.905c-2.331 1.897-6.46 1.896-6.46 1.896.645-3.608 2.21-7.277 2.21-7.277s-2.925 2.294-6.564 1.822c3.155-1.653 4.98-4.646 4.98-4.646s-3.075.602-4.943.063c.813.575 1.796.864 2.801.959-2.62 2.439-5.896 3.91-5.896 3.91s2.118 1.919 7.14 1.056zM14.178 30.965c.128-1.229 1.207-2.565 1.861-3.089-3.218 1.047-3.08 4.761-3.08 4.761s2.206-1.463 4.306-2.083c-.314.635-.511 1.329-.485 2.026.221-.92 1.804-2.916 1.804-2.916s-2.403-.084-4.406 1.301zM25.741 11.048c-1.864-2.064-3.788-2.641-6.149-1.418 0 0 3.011-.209 6.149 1.418zM27.541 11.291c-1.042-2.839-2.33-3.939-5.173-3.71 0 0 2.797.92 5.173 3.71zM28.169 10.193c.133-1.823-.552-3.243-2.526-3.52 0 0 1.647 1.407 2.526 3.52zM49.433 13.485c.906 2.375.318 3.478.318 3.478s-.146-4.352-4.635-5.915c2.535 2.383 4.151 5.888 4.447 8.469 1.112-.656 2.151-3.75-.13-6.032z"/></g></svg>