<svg xmlns="http://www.w3.org/2000/svg" width="64" height="64" viewBox="0 0 64 64"><path fill="#8A8E91" d="M27.144 9.647c-7.825 1.877-9.454-3.252-9.454-3.252-.714 9.669 7.384 13.912 13.006 13.912l6.838-5.765s-2.565-6.771-10.39-4.895z"/><path fill="#B2C1C0" d="M51.439 4.496c-8.992 2.37-18.126-.937-19.72 5.473-1.829 7.352-4.138 9.636-5.519 12.729-3.171 7.098-10.247 9.506-14.129 13.695-2.283 8.64-5.517 6.752-3.439 10.477 4.547 8.154-4.049 7.289 7.214 8.75 7.635.99 9.074 4.358 15.627.183 5.687-3.624 18.633-3.365 18.633-3.365l.496 9.561h11.396V11.125l-2.93-7.36-3.754 2.25c.001-.001-1.038-2.267-3.875-1.519z"/><path fill="#8A8E91" d="M58.229 39.458c-7.751 15.23-16.091 10.766-24.749 15.327 0 0 13.285-3.638 13.285 7.213h5.16c.001-10.96 6.304-22.54 6.304-22.54z"/><path fill="#3E4347" d="M31.765 51.621c-4.383-4.649-5.564 3.798-5.564 3.798s1.114-2.112 2.509-1.825c1.536.315 4.281-.673 3.055-1.973z"/><path fill="#E8E8E8" d="M17.806 21.477c-.831 1.345 1.417 8.838 3.455 9.836 2.133 1.042 7.877-3.041 7.441-5.74-.447-2.774-10.136-5.328-10.896-4.096zM3.393 17.696c-3.723 2.247.453 20.657 7.323 25.848 1.791 1.354 7.113-.439 8.624-2.09 1.626-1.77 3.026-6.049.435-9.443-2.407-3.149-5.958-1.933-7.274-3.01C7.85 25.19 4.235 17.187 3.393 17.696z"/><path fill="#3E4347" d="M45.33 30.153c0 1.721-1.593 3.115-3.556 3.115-1.964 0-3.554-1.395-3.554-3.115s1.229-1.229 3.554-3.115c1.441-1.169 3.556 1.395 3.556 3.115z"/><path fill="#8A8E91" d="M35.184 26.148s2.829.184 5.005-1.727c3.058-2.677 4.633-4.171 8.183-2.701 0 0-4.232-5.05-7.381-1.291-2.133 2.544-1.373 3.597-5.807 5.719zM48.946 30.856s-6.846-1.438-9.422 5.551c0 0 3.445-4.152 9.422-5.551z"/><path fill="#3E4347" d="M49.684 26.148s-2.76-3.965-6.548-.646c-6.176 5.412-8.154 4.462-8.154 4.462s3.743 2.931 7.353-.231c3.606-3.161 4.589-4.553 7.349-3.585z"/><path fill="#8A8E91" d="M30.392 25.282s1.013 6.992-7.848 7.543c0 0 2.065 6.366-2.275 9.607 0 0 6.536-2.914 5.044-8.154 0 0 8.94-1.084 5.079-8.996z"/><path fill="#3E4347" d="M57.726 7.499s-1.886 6.433-7.436 7.705c-3.668.84-4.412 2.116-4.412 2.116s.426-4.598 5.727-5.813c3.867-.887 6.121-4.008 6.121-4.008z"/><path fill="#8A8E91" d="M59.631 1.998s-3.518 3.247-7.727 4.523c-4.213 1.278-8.302 3.538-9.021 8.875 0 0 1.829-5.122 7.684-6.897 5.858-1.774 7.701-2.635 8.579-4.066 0 0 1.232 3.419-.147 7.025-.988 2.068-2.335 3.967-4.622 4.66-5.091 1.543-5.473 3.488-5.473 3.488 3.351-1.74 4.703-.76 8.188-1.816 9.287-2.817 2.539-15.792 2.539-15.792zM10.19 48.017s3.074-1.179 4.135-1.055c2.677.313 9.51 4.988 9.51 4.988s-6.625-2.664-8.932-3.244c-1.153-.291-4.713-.689-4.713-.689zM26.914 49.761s3.39-.879 4.446-.518c.608.209 1.817 1.795 1.817 1.795s-.726-3.146-1.643-3.468c-1.209-.423-4.62 2.191-4.62 2.191z"/><path fill="#3E4347" d="M49.283 41.79C43.117 48.798 33.48 54.785 33.48 54.785s15.497-6.081 18.658-13.36c2.29-5.27.495-3.443-2.855.365z"/><path fill="#8A8E91" d="M56.018 38.892s-1.262-2.333-2.054-2.601c-.891-.301-3.651.913-3.651.913s2.819-2.65 3.906-2.313c1.062.33 1.799 4.001 1.799 4.001z"/></svg>