<svg xmlns="http://www.w3.org/2000/svg" width="64" height="64" viewBox="0 0 64 64"><path fill="#ED4C5C" d="M37.665 12.979C30.321 5.89 20.639 14.444 7.748 2c7.973 12.89 22.433 6.461 28.466 12.285l1.451-1.306z"/><g fill="#FF717F"><path d="M54.604 17.869c.019-.008.026-.014.026-.014l-.026.014zM48.608 16.539L59 11.055c-15.886 3.662-22.676-.516-25.625 4.365-7.392-1.135-9.755 3.532-9.755 3.532s-7.607.75-8.014 6.513c-2.799.269-6.263 2.894-4.91 5.681-3.393 1.994-5.885 4.65-3.28 7.323-3.706 4.253-2.287 6.202-1.351 6.592-.936 6.579 1.519 7.234 2.279 7.361.077 2.586.889 6.109 3.98 9.578 0 0 2.408-2.251.781-5.311 0 0 1.722 2.146 4.24 1.838 0 0 .172-2.291-1.299-5.061 0 0 1.865 1.707 4.184.364 0 0-2.412-3.733-6.625-5.063.099-1.113-.186-2.504-1.042-4.204.796-1.055 1.339-2.689 1.384-5.106 1.293-.898 2.482-2.612 3.311-5.491 1.148-.512 2.359-1.501 3.565-3.167 2.218.346 5.083-.487 8.509-3.475 2.232.017 5.025-1.128 8.299-4.199 3.52.434 9.004-.77 16.972-5.257-.145.068-1.087.292-5.995-1.329z"/></g><path fill="#FFF" d="M43.911 15.719c-.764 2.205-3.178 3.374-5.393 2.612a4.204 4.204 0 0 1-2.631-5.357c.762-2.199 3.177-3.37 5.393-2.616 2.217.76 3.395 3.16 2.631 5.361z"/><path fill="#3E4347" d="M41.823 15.007a2.038 2.038 0 0 1-2.586 1.253 2.022 2.022 0 0 1-1.263-2.571 2.041 2.041 0 0 1 2.588-1.254 2.024 2.024 0 0 1 1.261 2.572z"/><path fill="#ED4C5C" d="M12.251 54.72c.47 2.584.074 7.28.074 7.28 1.854-1.291 1.584-4.224 1.584-4.224 1.449.885 3.438.751 3.438.751-3.766-1.409-5.096-3.807-5.096-3.807z"/><path fill="#ED4C5C" d="M37.147 30.021c.243-.379.589-.425.113-.87-1.004-.946-4.809.643-8.43-1.352.169-.141.332-.278.479-.408 2.143.122 4.915-.876 8.348-4.262 3.519.424 8.994-.781 16.944-5.258a.416.416 0 0 0-.036.011c-1.11.476-17.586 7.36-21.857-1.041-.629 1.751-.159 3.917 1.806 5.218-6.352 0-17.337-10.657-29.385-5.527 12.544-2.609 19.3 5.536 27.017 7.417-2.278 1.127-5.476 1.845-8.476-.519 0 0 1.113 2.288 3.423 3.392-5.212 3.655-11.486-1.358-11.486-1.358.96 2.515 2.175 3.999 3.493 4.789-3.732 4.344-8.402.896-8.402.896 1.689 2.049 3.229 2.953 4.594 3.159-.848 2.239-3.088 6.236-7.876 4.159 0 0 2.316 1.648 4.776 1.458-.061 1.572-.75 5.473-6.158 5.109 0 0 2.761 1.46 5.068.805.651 1.576 1.34 4.798-2.838 6.571 0 0 5.087.343 5.571-3.167 1.814 1.188 2.869 2.702 2.869 2.702-1.014.21-3.352-.225-3.352-.225 2.75 2.639 3.994 6.807 3.994 6.807.164-2.683-1.299-5.061-1.299-5.061 2.146 1.766 4.184.364 4.184.364-2.223-3.165-4.801-4.469-6.363-5 .033-1.011-.289-2.309-1.141-3.966.918-.971 1.521-2.686 1.436-5.558 1.072-.645 2.052-1.865 2.748-3.958.926 1.702 2.818 4.34 6.148 5.71.273.111.633.266.963-.168 3.17 2.904 2.44 6.017 3.132 6.042.364.406.956 1.324 1.123 3.173 0 0 1.171-2.02.979-4.183 1-.048-1.25-4.357-4.351-6.597.376-.261.715-.178.452-.766-.574-1.281-5.003-1.149-7.528-4.676 1.271-.631 2.274-1.791 2.979-2.824.831 1.189 3.503 4.51 7.989 5.392.293.055.678.136.91-.354 3.355 2.092 3.654 5.427 4.347 5.314.447.339 1.213 1.133 1.758 2.893 0 0 .64-2.067.107-4.298.878-.309-2.202-4.034-5.678-5.609.314-.33.665-.313.285-.836-.783-1.077-4.647-.273-7.78-2.644 1.758-.26 3.468-1.194 4.838-2.163 1.319 1.189 4.39 3.48 8.54 3.537.296.003.69.016.826-.507 4.097 1.676 4.636 4.66 5.272 4.454.49.228 1.414.844 2.314 2.519 0 0 .277-2.471-.711-4.249.738-.487-2.984-3.565-6.678-4.487z"/></svg>