<svg xmlns="http://www.w3.org/2000/svg" width="64" height="64" viewBox="0 0 64 64"><path fill="#ED4C5C" d="M41.396 42.701c-1.254 1.885 5.516 2.299 2.032 5.805-9.925 9.994-18.491-8.543-5.64-10.906 1.798-5.207 6.126-5.975 6.126-5.975 1.296-3.369 5.63-6.371 5.63-6.371L38.901 14.541s-2.981 4.361-6.327 5.666c-.001 5.51-5.951 6.234-5.952 6.234-2.401 12.836-20.725 4.229-10.817-5.746 3.482-3.506 3.895 3.309 5.766 2.047.86-.58 2.477-3.764-.127-6.385-3.287-3.309-15.747 2.83-13.135 14.486.694 3.102 2.282 5.063 4.304 6.21-6.936 2.053-14.56 8.717-8.273 15.045 1.447 1.457 4.755 4.787 12.223.281 7.383-4.455 1.699-9.137-1.524-8.324-3.225.813 5.521 4.656-3.798 6.119-4.648.729-5.993-6.637 3.695-9.012 3.722-.912 6.364-.842 8.741-1.013a28.184 28.184 0 0 0-1.596 6.917c-.942 9.447-11.94 12.898-15.511 13.93-3.57 1.029 8.559 3.232 15.837-5.814a27.643 27.643 0 0 0 3.762-6.128c.738 3.266 2.85 6.016 7.182 6.999 11.578 2.631 17.676-9.912 14.388-13.223-2.603-2.621-5.766-.994-6.343-.129z"/><path fill="#E8E8E8" d="M32.574 20.207a5.416 5.416 0 0 1-1.076.314c-3.754.629-4.254 2.512-4.859 5.854l-.017.066c1.438.521 3.307.047 4.689-1.346 1.439-1.447 1.885-3.421 1.263-4.888z"/><circle fill="#3E4347" cx="29.278" cy="23.051" r="1.5"/><path fill="#E8E8E8" d="M37.722 37.615c.023-.004.044-.012.067-.016 3.319-.609 5.189-1.113 5.813-4.893.06-.363.174-.725.313-1.082-1.457-.627-3.419-.178-4.857 1.271-1.382 1.392-1.854 3.275-1.336 4.72z"/><circle fill="#3E4347" cx="41.091" cy="34.942" r="1.501"/><path fill="#9C323C" d="M55.763 2.92s-5.488.33-10.316-.848c-4.959-1.211-5.55 13.043-8.733 18.064-.001.001 13.952-11.236 19.049-17.216zM33.163 54.266c-6.944-4.221-4.902-10.514-4.902-10.514l-.004.005c-.678 1.742-1.266 3.476-2.084 5.289.738 3.268 2.844 6.022 7.178 7.007 3.06.697 5.732.324 7.955-.65-1.859.579-5.446.501-8.143-1.137zM23.69 40.149a27.951 27.951 0 0 0-1.609 6.917c-.942 9.447-11.94 12.898-15.511 13.93-.354.102-.548.215-.613.328 13.884-1.652 17.048-9.686 18.447-15.398.714-2.911 1.754-4.985 2.606-6.326-1.105.328-2.183.467-3.32.549zM12.632 37.049a16.458 16.458 0 0 1 1.865-.443 89.477 89.477 0 0 0 1.692-.313c-2.642-.001-5.534-.93-7.532-4.214.807 2.401 2.232 3.984 3.975 4.97z"/><path fill="#9C323C" d="M44.463 30.504c.31-.533.677-1.047 1.072-1.531-.521-.477-1.332-.762-2.737-.594-2.477.301-4.488-.137-5.677-1.332-1.188-1.197-1.621-3.223-1.324-5.715.169-1.414-.116-2.232-.588-2.756-.481.398-.992.768-1.521 1.08.604.506 1.012 1.346.818 2.975-.297 2.492.136 4.52 1.324 5.715 1.188 1.197 3.2 1.633 5.676 1.334 1.621-.196 2.454.215 2.957.824z"/><path fill="#9C323C" d="M61.087 8.279s-.328 5.527.841 10.387c1.204 4.99-12.954 5.586-17.941 8.793-.001 0 11.159-14.049 17.1-19.18z"/><path fill="#ED4C5C" d="M56.724 17.791c5.431-6.678 5.825-11.939 3.638-14.141-2.188-2.203-7.412-1.805-14.047 3.662-7.354 6.061-13.377 5.16-14.105 8.273-.729 3.115 4.175.813 3.588 5.746-.297 2.492.137 4.518 1.324 5.715 1.188 1.195 3.2 1.633 5.677 1.332 4.899-.59 2.614 4.348 5.707 3.613 3.091-.731 2.199-6.796 8.218-14.2z"/><g fill="#9C323C"><ellipse transform="rotate(45.158 30.287 30.557)" cx="30.289" cy="30.56" rx=".376" ry="3.9"/><ellipse transform="rotate(45.283 32.005 32.291)" cx="32.006" cy="32.294" rx=".282" ry="4.581"/><path d="M33.922 34.166c-1.48 1.492-2.797 2.586-2.938 2.443-.142-.141.945-1.467 2.427-2.957 1.482-1.492 2.799-2.588 2.939-2.445.142.143-.946 1.467-2.428 2.959z"/></g></svg>