<?xml version="1.0" encoding="UTF-8" standalone="no"?>
<!-- Created with Inkscape (http://www.inkscape.org/) -->

<svg
   xmlns:dc="http://purl.org/dc/elements/1.1/"
   xmlns:cc="http://creativecommons.org/ns#"
   xmlns:rdf="http://www.w3.org/1999/02/22-rdf-syntax-ns#"
   xmlns:svg="http://www.w3.org/2000/svg"
   xmlns="http://www.w3.org/2000/svg"
   xmlns:xlink="http://www.w3.org/1999/xlink"
   xmlns:sodipodi="http://sodipodi.sourceforge.net/DTD/sodipodi-0.dtd"
   xmlns:inkscape="http://www.inkscape.org/namespaces/inkscape"
   width="256"
   height="256"
   id="svg2"
   version="1.1"
   inkscape:version="0.48.5 r10040"
   sodipodi:docname="raw.svg"
   inkscape:export-filename="./raw.png"
   inkscape:export-xdpi="360"
   inkscape:export-ydpi="360">
  <title
     id="title4628">qTox</title>
  <defs
     id="defs4">
    <linearGradient
       id="linearGradient3181">
      <stop
         style="stop-color:#ff2000;stop-opacity:1;"
         offset="0"
         id="stop3183" />
      <stop
         style="stop-color:#ffcc00;stop-opacity:1;"
         offset="1"
         id="stop3185" />
    </linearGradient>
    <linearGradient
       id="linearGradient3881">
      <stop
         style="stop-color:#000000;stop-opacity:1;"
         offset="0"
         id="stop3883" />
      <stop
         style="stop-color:#505050;stop-opacity:1;"
         offset="1"
         id="stop3885" />
    </linearGradient>
    <filter
       inkscape:collect="always"
       id="filter3777">
      <feGaussianBlur
         inkscape:collect="always"
         stdDeviation="0.20338983"
         id="feGaussianBlur3779" />
    </filter>
    <filter
       color-interpolation-filters="sRGB"
       inkscape:collect="always"
       id="filter3777-8">
      <feGaussianBlur
         inkscape:collect="always"
         stdDeviation="0.20338983"
         id="feGaussianBlur3779-3" />
    </filter>
    <linearGradient
       inkscape:collect="always"
       xlink:href="#linearGradient3881"
       id="linearGradient3887"
       x1="11.216473"
       y1="234.94836"
       x2="14.142681"
       y2="245.0323"
       gradientUnits="userSpaceOnUse" />
    <linearGradient
       id="linearGradient3881-1">
      <stop
         style="stop-color:#000000;stop-opacity:1;"
         offset="0"
         id="stop3883-2" />
      <stop
         style="stop-color:#505050;stop-opacity:1;"
         offset="1"
         id="stop3885-8" />
    </linearGradient>
    <linearGradient
       gradientTransform="translate(-5.3934044,0.00862702)"
       y2="245.0323"
       x2="14.142681"
       y1="234.94836"
       x1="11.216473"
       gradientUnits="userSpaceOnUse"
       id="linearGradient3904"
       xlink:href="#linearGradient3881-1"
       inkscape:collect="always" />
    <filter
       color-interpolation-filters="sRGB"
       inkscape:collect="always"
       id="filter3777-5">
      <feGaussianBlur
         inkscape:collect="always"
         stdDeviation="0.20338983"
         id="feGaussianBlur3779-0" />
    </filter>
    <filter
       color-interpolation-filters="sRGB"
       inkscape:collect="always"
       id="filter3777-5-2">
      <feGaussianBlur
         inkscape:collect="always"
         stdDeviation="0.20338983"
         id="feGaussianBlur3779-0-5" />
    </filter>
    <filter
       color-interpolation-filters="sRGB"
       inkscape:collect="always"
       id="filter3777-5-2-6">
      <feGaussianBlur
         inkscape:collect="always"
         stdDeviation="0.20338983"
         id="feGaussianBlur3779-0-5-3" />
    </filter>
    <filter
       color-interpolation-filters="sRGB"
       inkscape:collect="always"
       id="filter3777-56">
      <feGaussianBlur
         inkscape:collect="always"
         stdDeviation="0.20338983"
         id="feGaussianBlur3779-5" />
    </filter>
    <filter
       color-interpolation-filters="sRGB"
       inkscape:collect="always"
       id="filter3777-4">
      <feGaussianBlur
         inkscape:collect="always"
         stdDeviation="0.20338983"
         id="feGaussianBlur3779-4" />
    </filter>
    <filter
       color-interpolation-filters="sRGB"
       inkscape:collect="always"
       id="filter3777-4-5">
      <feGaussianBlur
         inkscape:collect="always"
         stdDeviation="0.20338983"
         id="feGaussianBlur3779-4-7" />
    </filter>
    <filter
       color-interpolation-filters="sRGB"
       inkscape:collect="always"
       id="filter3777-42">
      <feGaussianBlur
         inkscape:collect="always"
         stdDeviation="0.20338983"
         id="feGaussianBlur3779-6" />
    </filter>
    <filter
       color-interpolation-filters="sRGB"
       inkscape:collect="always"
       id="filter3777-42-4">
      <feGaussianBlur
         inkscape:collect="always"
         stdDeviation="0.20338983"
         id="feGaussianBlur3779-6-6" />
    </filter>
    <filter
       color-interpolation-filters="sRGB"
       inkscape:collect="always"
       id="filter3777-42-5">
      <feGaussianBlur
         inkscape:collect="always"
         stdDeviation="0.20338983"
         id="feGaussianBlur3779-6-4" />
    </filter>
    <filter
       color-interpolation-filters="sRGB"
       inkscape:collect="always"
       id="filter3777-42-1">
      <feGaussianBlur
         inkscape:collect="always"
         stdDeviation="0.20338983"
         id="feGaussianBlur3779-6-0" />
    </filter>
    <linearGradient
       inkscape:collect="always"
       xlink:href="#linearGradient3181"
       id="linearGradient3187"
       x1="14.965159"
       y1="231.7083"
       x2="14.965159"
       y2="244.56258"
       gradientUnits="userSpaceOnUse" />
  </defs>
  <sodipodi:namedview
     id="base"
     pagecolor="#ffffff"
     bordercolor="#666666"
     borderopacity="1.0"
     inkscape:pageopacity="0.0"
     inkscape:pageshadow="2"
     inkscape:zoom="5.6"
     inkscape:cx="132.20639"
     inkscape:cy="56.459967"
     inkscape:document-units="px"
     inkscape:current-layer="layer1"
     showgrid="true"
     gridtolerance="10"
     inkscape:window-width="1920"
     inkscape:window-height="1025"
     inkscape:window-x="-3"
     inkscape:window-y="-5"
     inkscape:window-maximized="1">
    <inkscape:grid
       type="xygrid"
       id="grid2985"
       empspacing="1"
       visible="true"
       enabled="true"
       snapvisiblegridlinesonly="true"
       spacingx="32px"
       spacingy="32px" />
  </sodipodi:namedview>
  <metadata
     id="metadata7">
    <rdf:RDF>
      <cc:Work
         rdf:about="">
        <dc:format>image/svg+xml</dc:format>
        <dc:type
           rdf:resource="http://purl.org/dc/dcmitype/StillImage" />
        <dc:title>qTox</dc:title>
        <cc:license
           rdf:resource="http://creativecommons.org/licenses/by-nc/3.0/" />
        <dc:description>Created for the qTox project. Inspired by the &quot;Never mind!&quot; smiley pack.</dc:description>
      </cc:Work>
      <cc:License
         rdf:about="http://creativecommons.org/licenses/by-nc/3.0/">
        <cc:permits
           rdf:resource="http://creativecommons.org/ns#Reproduction" />
        <cc:permits
           rdf:resource="http://creativecommons.org/ns#Distribution" />
        <cc:requires
           rdf:resource="http://creativecommons.org/ns#Notice" />
        <cc:requires
           rdf:resource="http://creativecommons.org/ns#Attribution" />
        <cc:prohibits
           rdf:resource="http://creativecommons.org/ns#CommercialUse" />
        <cc:permits
           rdf:resource="http://creativecommons.org/ns#DerivativeWorks" />
      </cc:License>
    </rdf:RDF>
  </metadata>
  <g
     inkscape:label="Layer 1"
     inkscape:groupmode="layer"
     id="layer1"
     transform="translate(0,-796.36218)">
    <g
       id="g3980">
      <g
         inkscape:label=""
         id="happy">
        <path
           sodipodi:type="arc"
           style="fill:#ffcc00;fill-opacity:1;stroke:#c8a900;stroke-width:1.69246382;stroke-linecap:butt;stroke-linejoin:bevel;stroke-miterlimit:4;stroke-opacity:1;stroke-dasharray:none;stroke-dashoffset:0;filter:url(#filter3777)"
           id="path2987"
           sodipodi:cx="16"
           sodipodi:cy="240"
           sodipodi:rx="16"
           sodipodi:ry="16"
           d="m 32,240 c 0,8.83656 -7.163444,16 -16,16 -8.836556,0 -16,-7.16344 -16,-16 0,-8.83656 7.163444,-16 16,-16 8.836556,0 16,7.16344 16,16 z"
           transform="matrix(0.88628187,0,0,0.88628187,1.8194901,823.65453)" />
        <path
           sodipodi:type="arc"
           style="fill:#000000;fill-opacity:1;stroke:none"
           id="path3781"
           sodipodi:cx="12.142858"
           sodipodi:cy="238.5"
           sodipodi:rx="1.9642857"
           sodipodi:ry="3.9285715"
           d="m 14.107143,238.5 c 0,2.16969 -0.87944,3.92857 -1.964285,3.92857 -1.084846,0 -1.964286,-1.75888 -1.964286,-3.92857 0,-2.16969 0.87944,-3.92857 1.964286,-3.92857 1.084845,0 1.964285,1.75888 1.964285,3.92857 z"
           transform="matrix(0.91334205,0,0,0.48070635,0.34633991,917.17801)" />
        <path
           sodipodi:type="arc"
           style="fill:#000000;fill-opacity:1;stroke:none"
           id="path3781-5"
           sodipodi:cx="12.142858"
           sodipodi:cy="238.5"
           sodipodi:rx="1.9642857"
           sodipodi:ry="3.9285715"
           d="m 14.107143,238.5 c 0,2.16969 -0.87944,3.92857 -1.964285,3.92857 -1.084846,0 -1.964286,-1.75888 -1.964286,-3.92857 0,-2.16969 0.87944,-3.92857 1.964286,-3.92857 1.084845,0 1.964285,1.75888 1.964285,3.92857 z"
           transform="matrix(0.91334205,0,0,0.48070635,9.8832106,917.17801)" />
        <path
           style="fill:none;stroke:#000000;stroke-width:1.5;stroke-linecap:round;stroke-linejoin:miter;stroke-opacity:1"
           d="m 6.5178572,243.05357 c 0,0 2.8196608,6.69643 9.4642858,6.69643 6.644625,0 8.571429,-6.69643 8.571429,-6.69643"
           id="path3809"
           inkscape:connector-curvature="0"
           transform="translate(0,796.36218)"
           sodipodi:nodetypes="czc" />
      </g>
      <g
         inkscape:label=""
         id="cool">
        <path
           sodipodi:type="arc"
           style="fill:#ffcc00;fill-opacity:1;stroke:#c8a900;stroke-width:1.69246387;stroke-linecap:butt;stroke-linejoin:bevel;stroke-miterlimit:4;stroke-opacity:1;stroke-dasharray:none;stroke-dashoffset:0;filter:url(#filter3777-8)"
           id="path2987-7"
           sodipodi:cx="16"
           sodipodi:cy="240"
           sodipodi:rx="16"
           sodipodi:ry="16"
           d="m 32,240 c 0,8.83656 -7.163444,16 -16,16 -8.836556,0 -16,-7.16344 -16,-16 0,-8.83656 7.163444,-16 16,-16 8.836556,0 16,7.16344 16,16 z"
           transform="matrix(0.88628187,0,0,0.88628187,33.801736,823.74463)" />
        <rect
           style="fill:#000000;fill-opacity:1;stroke:none"
           id="rect3871"
           width="20.714285"
           height="2.4541557"
           x="37.566963"
           y="1027.3845"
           ry="0.8035714" />
        <path
           sodipodi:type="arc"
           style="fill:url(#linearGradient3887);fill-opacity:1;stroke:none"
           id="path3781-6"
           sodipodi:cx="12.142858"
           sodipodi:cy="238.5"
           sodipodi:rx="1.9642857"
           sodipodi:ry="3.9285715"
           d="m 14.107143,238.5 c 0,2.16969 -0.87944,3.92857 -1.964285,3.92857 -1.084846,0 -1.964286,-1.75888 -1.964286,-3.92857 0,-2.16969 0.87944,-3.92857 1.964286,-3.92857 1.084845,0 1.964285,1.75888 1.964285,3.92857 z"
           transform="matrix(2.2007051,0,0,1.1582659,15.153743,755.67017)" />
        <path
           style="fill:none;stroke:#000000;stroke-width:1.5;stroke-linecap:round;stroke-linejoin:miter;stroke-opacity:1"
           d="m 42.05798,1044.2158 c 0,0 1.872643,2.6558 5.991887,2.6558 4.119244,0 6.235452,-4.7392 6.235452,-4.7392"
           id="path3809-8"
           inkscape:connector-curvature="0"
           sodipodi:nodetypes="czc" />
        <path
           sodipodi:type="arc"
           style="fill:url(#linearGradient3904);fill-opacity:1;stroke:none"
           id="path3781-6-5"
           sodipodi:cx="12.142858"
           sodipodi:cy="238.5"
           sodipodi:rx="1.9642857"
           sodipodi:ry="3.9285715"
           d="m 14.107143,238.5 c 0,2.16969 -0.87944,3.92857 -1.964285,3.92857 -1.084846,0 -1.964286,-1.75888 -1.964286,-3.92857 0,-2.16969 0.87944,-3.92857 1.964286,-3.92857 1.084845,0 1.964285,1.75888 1.964285,3.92857 z"
           transform="matrix(2.2007051,0,0,1.1582659,27.023036,755.66017)" />
      </g>
      <g
         inkscape:label=""
         id="stunned">
        <path
           sodipodi:type="arc"
           style="fill:#ffcc00;fill-opacity:1;stroke:#c8a900;stroke-width:1.69246387;stroke-linecap:butt;stroke-linejoin:bevel;stroke-miterlimit:4;stroke-opacity:1;stroke-dasharray:none;stroke-dashoffset:0;filter:url(#filter3777-5)"
           id="path2987-3"
           sodipodi:cx="16"
           sodipodi:cy="240"
           sodipodi:rx="16"
           sodipodi:ry="16"
           d="m 32,240 c 0,8.83656 -7.163444,16 -16,16 -8.836556,0 -16,-7.16344 -16,-16 0,-8.83656 7.163444,-16 16,-16 8.836556,0 16,7.16344 16,16 z"
           transform="matrix(0.88628187,0,0,0.88628187,65.76398,823.59407)" />
        <path
           sodipodi:type="arc"
           style="fill:#000000;fill-opacity:1;stroke:none"
           id="path3781-0"
           sodipodi:cx="12.142858"
           sodipodi:cy="238.5"
           sodipodi:rx="1.9642857"
           sodipodi:ry="3.9285715"
           d="m 14.107143,238.5 c 0,2.16969 -0.87944,3.92857 -1.964285,3.92857 -1.084846,0 -1.964286,-1.75888 -1.964286,-3.92857 0,-2.16969 0.87944,-3.92857 1.964286,-3.92857 1.084845,0 1.964285,1.75888 1.964285,3.92857 z"
           transform="matrix(0.91334205,0,0,0.48070635,64.29083,917.11755)" />
        <path
           sodipodi:type="arc"
           style="fill:#000000;fill-opacity:1;stroke:none"
           id="path3781-5-9"
           sodipodi:cx="12.142858"
           sodipodi:cy="238.5"
           sodipodi:rx="1.9642857"
           sodipodi:ry="3.9285715"
           d="m 14.107143,238.5 c 0,2.16969 -0.87944,3.92857 -1.964285,3.92857 -1.084846,0 -1.964286,-1.75888 -1.964286,-3.92857 0,-2.16969 0.87944,-3.92857 1.964286,-3.92857 1.084845,0 1.964285,1.75888 1.964285,3.92857 z"
           transform="matrix(0.91334205,0,0,0.48070635,73.8277,917.11755)" />
        <path
           sodipodi:type="arc"
           style="fill:#000000;fill-opacity:1;stroke:none"
           id="path3781-5-9-5"
           sodipodi:cx="12.142858"
           sodipodi:cy="238.5"
           sodipodi:rx="1.9642857"
           sodipodi:ry="3.9285715"
           d="m 14.107143,238.5 c 0,2.16969 -0.87944,3.92857 -1.964285,3.92857 -1.084846,0 -1.964286,-1.75888 -1.964286,-3.92857 0,-2.16969 0.87944,-3.92857 1.964286,-3.92857 1.084845,0 1.964285,1.75888 1.964285,3.92857 z"
           transform="matrix(1.5951602,0,0,1.0261609,60.548479,798.24781)" />
      </g>
      <g
         inkscape:label=""
         id="tongue">
        <path
           sodipodi:type="arc"
           style="fill:#ffcc00;fill-opacity:1;stroke:#c8a900;stroke-width:1.69246387;stroke-linecap:butt;stroke-linejoin:bevel;stroke-miterlimit:4;stroke-opacity:1;stroke-dasharray:none;stroke-dashoffset:0;filter:url(#filter3777-5-2)"
           id="path2987-3-0"
           sodipodi:cx="16"
           sodipodi:cy="240"
           sodipodi:rx="16"
           sodipodi:ry="16"
           d="m 32,240 c 0,8.83656 -7.163444,16 -16,16 -8.836556,0 -16,-7.16344 -16,-16 0,-8.83656 7.163444,-16 16,-16 8.836556,0 16,7.16344 16,16 z"
           transform="matrix(0.88628187,0,0,0.88628187,97.820154,823.8709)" />
        <path
           sodipodi:type="arc"
           style="fill:#000000;fill-opacity:1;stroke:none"
           id="path3781-0-7"
           sodipodi:cx="12.142858"
           sodipodi:cy="238.5"
           sodipodi:rx="1.9642857"
           sodipodi:ry="3.9285715"
           d="m 14.107143,238.5 c 0,2.16969 -0.87944,3.92857 -1.964285,3.92857 -1.084846,0 -1.964286,-1.75888 -1.964286,-3.92857 0,-2.16969 0.87944,-3.92857 1.964286,-3.92857 1.084845,0 1.964285,1.75888 1.964285,3.92857 z"
           transform="matrix(0.91334205,0,0,0.48070635,96.347004,917.39438)" />
        <path
           sodipodi:type="arc"
           style="fill:#000000;fill-opacity:1;stroke:none"
           id="path3781-5-9-3"
           sodipodi:cx="12.142858"
           sodipodi:cy="238.5"
           sodipodi:rx="1.9642857"
           sodipodi:ry="3.9285715"
           d="m 14.107143,238.5 c 0,2.16969 -0.87944,3.92857 -1.964285,3.92857 -1.084846,0 -1.964286,-1.75888 -1.964286,-3.92857 0,-2.16969 0.87944,-3.92857 1.964286,-3.92857 1.084845,0 1.964285,1.75888 1.964285,3.92857 z"
           transform="matrix(0.91334205,0,0,0.48070635,105.88387,917.39438)" />
        <path
           style="fill:#ff3c00;fill-opacity:1;stroke:#000000;stroke-width:1px;stroke-linecap:butt;stroke-linejoin:miter;stroke-opacity:1"
           d="m 111.69643,244.57143 c 0,0 -0.45837,5.71428 3.21428,5.71428 3.67265,0 2.94643,-5.625 2.94643,-5.625 z"
           id="path4009"
           inkscape:connector-curvature="0"
           transform="translate(0,796.36218)"
           sodipodi:nodetypes="czcc" />
        <path
           style="fill:none;stroke:#000000;stroke-width:1px;stroke-linecap:butt;stroke-linejoin:miter;stroke-opacity:1"
           d="m 104.19643,244.48214 15.80357,0"
           id="path4007"
           inkscape:connector-curvature="0"
           transform="translate(0,796.36218)" />
      </g>
      <g
         inkscape:label=""
         id="wink">
        <path
           sodipodi:type="arc"
           style="fill:#ffcc00;fill-opacity:1;stroke:#c8a900;stroke-width:1.69246387;stroke-linecap:butt;stroke-linejoin:bevel;stroke-miterlimit:4;stroke-opacity:1;stroke-dasharray:none;stroke-dashoffset:0;filter:url(#filter3777-56)"
           id="path2987-1"
           sodipodi:cx="16"
           sodipodi:cy="240"
           sodipodi:rx="16"
           sodipodi:ry="16"
           d="m 32,240 c 0,8.83656 -7.163444,16 -16,16 -8.836556,0 -16,-7.16344 -16,-16 0,-8.83656 7.163444,-16 16,-16 8.836556,0 16,7.16344 16,16 z"
           transform="matrix(0.88628187,0,0,0.88628187,161.68181,823.65707)" />
        <path
           sodipodi:type="arc"
           style="fill:#000000;fill-opacity:1;stroke:none"
           id="path3781-2"
           sodipodi:cx="12.142858"
           sodipodi:cy="238.5"
           sodipodi:rx="1.9642857"
           sodipodi:ry="3.9285715"
           d="m 14.107143,238.5 c 0,2.16969 -0.87944,3.92857 -1.964285,3.92857 -1.084846,0 -1.964286,-1.75888 -1.964286,-3.92857 0,-2.16969 0.87944,-3.92857 1.964286,-3.92857 1.084845,0 1.964285,1.75888 1.964285,3.92857 z"
           transform="matrix(0.91334205,0,0,0.1914354,160.20866,986.17167)" />
        <path
           sodipodi:type="arc"
           style="fill:#000000;fill-opacity:1;stroke:none"
           id="path3781-5-1"
           sodipodi:cx="12.142858"
           sodipodi:cy="238.5"
           sodipodi:rx="1.9642857"
           sodipodi:ry="3.9285715"
           d="m 14.107143,238.5 c 0,2.16969 -0.87944,3.92857 -1.964285,3.92857 -1.084846,0 -1.964286,-1.75888 -1.964286,-3.92857 0,-2.16969 0.87944,-3.92857 1.964286,-3.92857 1.084845,0 1.964285,1.75888 1.964285,3.92857 z"
           transform="matrix(1.2347542,0,0,0.64987065,165.84267,876.83486)" />
        <path
           style="fill:none;stroke:#000000;stroke-width:1.5;stroke-linecap:round;stroke-linejoin:miter;stroke-opacity:1"
           d="m 169.22444,1041.5403 c 0,0 2.64109,3.5714 7.05357,3.5714 4.41248,0 7.14286,-3.6606 7.14286,-3.6606"
           id="path3809-82-3"
           inkscape:connector-curvature="0"
           sodipodi:nodetypes="czc" />
      </g>
      <g
         inkscape:label=""
         id="sad"
         transform="translate(192.12627,0.09009866)">
        <path
           sodipodi:type="arc"
           style="fill:#ffcc00;fill-opacity:1;stroke:#c8a900;stroke-width:1.69246387;stroke-linecap:butt;stroke-linejoin:bevel;stroke-miterlimit:4;stroke-opacity:1;stroke-dasharray:none;stroke-dashoffset:0;filter:url(#filter3777-4)"
           id="path2987-2"
           sodipodi:cx="16"
           sodipodi:cy="240"
           sodipodi:rx="16"
           sodipodi:ry="16"
           d="m 32,240 c 0,8.83656 -7.163444,16 -16,16 -8.836556,0 -16,-7.16344 -16,-16 0,-8.83656 7.163444,-16 16,-16 8.836556,0 16,7.16344 16,16 z"
           transform="matrix(0.88628187,0,0,0.88628187,1.8194901,823.65453)" />
        <path
           sodipodi:type="arc"
           style="fill:#000000;fill-opacity:1;stroke:none"
           id="path3781-9"
           sodipodi:cx="12.142858"
           sodipodi:cy="238.5"
           sodipodi:rx="1.9642857"
           sodipodi:ry="3.9285715"
           d="m 14.107143,238.5 c 0,2.16969 -0.87944,3.92857 -1.964285,3.92857 -1.084846,0 -1.964286,-1.75888 -1.964286,-3.92857 0,-2.16969 0.87944,-3.92857 1.964286,-3.92857 1.084845,0 1.964285,1.75888 1.964285,3.92857 z"
           transform="matrix(0.91334205,0,0,0.48070635,0.34633991,917.17801)" />
        <path
           sodipodi:type="arc"
           style="fill:#000000;fill-opacity:1;stroke:none"
           id="path3781-5-2"
           sodipodi:cx="12.142858"
           sodipodi:cy="238.5"
           sodipodi:rx="1.9642857"
           sodipodi:ry="3.9285715"
           d="m 14.107143,238.5 c 0,2.16969 -0.87944,3.92857 -1.964285,3.92857 -1.084846,0 -1.964286,-1.75888 -1.964286,-3.92857 0,-2.16969 0.87944,-3.92857 1.964286,-3.92857 1.084845,0 1.964285,1.75888 1.964285,3.92857 z"
           transform="matrix(0.91334205,0,0,0.48070635,9.8832106,917.17801)" />
        <path
           style="fill:none;stroke:#000000;stroke-width:1.5;stroke-linecap:round;stroke-linejoin:miter;stroke-opacity:1"
           d="m 9.0981694,1044.9324 c 0,0 2.6410896,-3.5714 7.0535716,-3.5714 4.412482,0 7.142857,3.6606 7.142857,3.6606"
           id="path3809-82"
           inkscape:connector-curvature="0"
           sodipodi:nodetypes="czc" />
      </g>
      <g
         inkscape:label=""
         id="crying">
        <path
           transform="matrix(0.88628187,0,0,0.88628187,225.85699,823.74463)"
           d="m 32,240 c 0,8.83656 -7.163444,16 -16,16 -8.836556,0 -16,-7.16344 -16,-16 0,-8.83656 7.163444,-16 16,-16 8.836556,0 16,7.16344 16,16 z"
           sodipodi:ry="16"
           sodipodi:rx="16"
           sodipodi:cy="240"
           sodipodi:cx="16"
           id="path2987-2-8"
           style="fill:#ffcc00;fill-opacity:1;stroke:#c8a900;stroke-width:1.69246387;stroke-linecap:butt;stroke-linejoin:bevel;stroke-miterlimit:4;stroke-opacity:1;stroke-dasharray:none;stroke-dashoffset:0;filter:url(#filter3777-4-5)"
           sodipodi:type="arc" />
        <path
           style="fill:#007eff;fill-opacity:1;stroke:#000000;stroke-width:0.24999999;stroke-linecap:butt;stroke-linejoin:miter;stroke-opacity:1"
           d="m 235.15095,1034.4391 c 0,0 -2.07184,3.1415 -1.73757,4.3434 0.33426,1.2019 1.30331,1.7767 2.24863,1.7169 0.91359,-0.057 1.82518,-1.0217 1.94197,-1.919 0.20651,-1.5865 -2.45303,-4.1413 -2.45303,-4.1413 z"
           id="path4283"
           inkscape:connector-curvature="0"
           sodipodi:nodetypes="czaac" />
        <path
           transform="matrix(1.2115763,0,0,0.63767169,220.9911,879.83187)"
           d="m 14.107143,238.5 c 0,2.16969 -0.87944,3.92857 -1.964285,3.92857 -1.084846,0 -1.964286,-1.75888 -1.964286,-3.92857 0,-2.16969 0.87944,-3.92857 1.964286,-3.92857 1.084845,0 1.964285,1.75888 1.964285,3.92857 z"
           sodipodi:ry="3.9285715"
           sodipodi:rx="1.9642857"
           sodipodi:cy="238.5"
           sodipodi:cx="12.142858"
           id="path3781-9-1"
           style="fill:#000000;fill-opacity:1;stroke:none"
           sodipodi:type="arc" />
        <path
           transform="matrix(1.2115763,0,0,0.63767169,230.2492,879.83187)"
           d="m 14.107143,238.5 c 0,2.16969 -0.87944,3.92857 -1.964285,3.92857 -1.084846,0 -1.964286,-1.75888 -1.964286,-3.92857 0,-2.16969 0.87944,-3.92857 1.964286,-3.92857 1.084845,0 1.964285,1.75888 1.964285,3.92857 z"
           sodipodi:ry="3.9285715"
           sodipodi:rx="1.9642857"
           sodipodi:cy="238.5"
           sodipodi:cx="12.142858"
           id="path3781-5-2-2"
           style="fill:#000000;fill-opacity:1;stroke:none"
           sodipodi:type="arc" />
        <path
           sodipodi:nodetypes="czc"
           inkscape:connector-curvature="0"
           id="path3809-82-9"
           d="m 233.13567,1045.0225 c 0,0 2.64109,-3.5714 7.05357,-3.5714 4.41249,0 7.14286,3.6606 7.14286,3.6606"
           style="fill:none;stroke:#000000;stroke-width:1.5;stroke-linecap:round;stroke-linejoin:miter;stroke-opacity:1" />
        <path
           style="fill:#007eff;fill-opacity:1;stroke:#000000;stroke-width:0.24999999;stroke-linecap:butt;stroke-linejoin:miter;stroke-opacity:1"
           d="m 245.978,1034.7129 c 0,0 -2.07184,3.1415 -1.73757,4.3434 0.33426,1.2019 1.30331,1.7767 2.24863,1.7169 0.91359,-0.057 1.82518,-1.0217 1.94197,-1.919 0.20651,-1.5865 -2.45303,-4.1413 -2.45303,-4.1413 z"
           id="path4283-1"
           inkscape:connector-curvature="0"
           sodipodi:nodetypes="czaac" />
      </g>
      <g
         transform="translate(-0.01141139,-31.91911)"
         id="smile"
         inkscape:label="">
        <path
           sodipodi:type="arc"
           style="fill:#ffcc00;fill-opacity:1;stroke:#c8a900;stroke-width:1.69246387;stroke-linecap:butt;stroke-linejoin:bevel;stroke-miterlimit:4;stroke-opacity:1;stroke-dasharray:none;stroke-dashoffset:0;filter:url(#filter3777-42)"
           id="path2987-19"
           sodipodi:cx="16"
           sodipodi:cy="240"
           sodipodi:rx="16"
           sodipodi:ry="16"
           d="m 32,240 c 0,8.83656 -7.163444,16 -16,16 -8.836556,0 -16,-7.16344 -16,-16 0,-8.83656 7.163444,-16 16,-16 8.836556,0 16,7.16344 16,16 z"
           transform="matrix(0.88628187,0,0,0.88628187,1.8194901,823.65453)" />
        <path
           sodipodi:type="arc"
           style="fill:#000000;fill-opacity:1;stroke:none"
           id="path3781-26"
           sodipodi:cx="12.142858"
           sodipodi:cy="238.5"
           sodipodi:rx="1.9642857"
           sodipodi:ry="3.9285715"
           d="m 14.107143,238.5 c 0,2.16969 -0.87944,3.92857 -1.964285,3.92857 -1.084846,0 -1.964286,-1.75888 -1.964286,-3.92857 0,-2.16969 0.87944,-3.92857 1.964286,-3.92857 1.084845,0 1.964285,1.75888 1.964285,3.92857 z"
           transform="matrix(0.91334205,0,0,0.48070635,0.34633991,917.17801)" />
        <path
           sodipodi:type="arc"
           style="fill:#000000;fill-opacity:1;stroke:none"
           id="path3781-5-29"
           sodipodi:cx="12.142858"
           sodipodi:cy="238.5"
           sodipodi:rx="1.9642857"
           sodipodi:ry="3.9285715"
           d="m 14.107143,238.5 c 0,2.16969 -0.87944,3.92857 -1.964285,3.92857 -1.084846,0 -1.964286,-1.75888 -1.964286,-3.92857 0,-2.16969 0.87944,-3.92857 1.964286,-3.92857 1.084845,0 1.964285,1.75888 1.964285,3.92857 z"
           transform="matrix(0.91334205,0,0,0.48070635,9.8832106,917.17801)" />
        <path
           style="fill:#ffffff;stroke:#000000;stroke-width:1.5;stroke-linecap:round;stroke-linejoin:miter;stroke-opacity:1"
           d="m 6.5178572,243.05357 c 0,0 2.8196608,6.69643 9.4642858,6.69643 6.644625,0 8.571429,-6.69643 8.571429,-6.69643 z"
           id="path3809-7"
           inkscape:connector-curvature="0"
           transform="translate(0,796.36218)"
           sodipodi:nodetypes="czcc" />
        <path
           inkscape:connector-curvature="0"
           id="path4459"
           d="m 8.8502463,1042.4231 13.7924387,0"
           style="fill:none;stroke:#000000;stroke-width:1px;stroke-linecap:butt;stroke-linejoin:miter;stroke-opacity:1" />
      </g>
      <g
         transform="translate(-0.01141139,-31.91911)"
         id="plain"
         inkscape:label="#">
        <path
           sodipodi:type="arc"
           style="fill:#ffcc00;fill-opacity:1;stroke:#c8a900;stroke-width:1.69246387;stroke-linecap:butt;stroke-linejoin:bevel;stroke-miterlimit:4;stroke-opacity:1;stroke-dasharray:none;stroke-dashoffset:0;filter:url(#filter3777-42-4)"
           id="path2987-19-4"
           sodipodi:cx="16"
           sodipodi:cy="240"
           sodipodi:rx="16"
           sodipodi:ry="16"
           d="m 32,240 c 0,8.83656 -7.163444,16 -16,16 -8.836556,0 -16,-7.16344 -16,-16 0,-8.83656 7.163444,-16 16,-16 8.836556,0 16,7.16344 16,16 z"
           transform="matrix(0.88628187,0,0,0.88628187,33.814236,823.55768)" />
        <path
           sodipodi:type="arc"
           style="fill:#000000;fill-opacity:1;stroke:none"
           id="path3781-26-8"
           sodipodi:cx="12.142858"
           sodipodi:cy="238.5"
           sodipodi:rx="1.9642857"
           sodipodi:ry="3.9285715"
           d="m 14.107143,238.5 c 0,2.16969 -0.87944,3.92857 -1.964285,3.92857 -1.084846,0 -1.964286,-1.75888 -1.964286,-3.92857 0,-2.16969 0.87944,-3.92857 1.964286,-3.92857 1.084845,0 1.964285,1.75888 1.964285,3.92857 z"
           transform="matrix(0.91334205,0,0,0.48070635,32.341086,917.08116)" />
        <path
           sodipodi:type="arc"
           style="fill:#000000;fill-opacity:1;stroke:none"
           id="path3781-5-29-3"
           sodipodi:cx="12.142858"
           sodipodi:cy="238.5"
           sodipodi:rx="1.9642857"
           sodipodi:ry="3.9285715"
           d="m 14.107143,238.5 c 0,2.16969 -0.87944,3.92857 -1.964285,3.92857 -1.084846,0 -1.964286,-1.75888 -1.964286,-3.92857 0,-2.16969 0.87944,-3.92857 1.964286,-3.92857 1.084845,0 1.964285,1.75888 1.964285,3.92857 z"
           transform="matrix(0.91334205,0,0,0.48070635,41.877957,917.08116)" />
        <path
           inkscape:connector-curvature="0"
           id="path4459-9"
           d="m 40.844992,1042.3262 13.792439,0"
           style="fill:none;stroke:#000000;stroke-width:1px;stroke-linecap:butt;stroke-linejoin:miter;stroke-opacity:1" />
      </g>
      <g
         transform="translate(-0.01141139,-31.91911)"
         id="laugh"
         inkscape:label="">
        <path
           sodipodi:type="arc"
           style="fill:#ffcc00;fill-opacity:1;stroke:#c8a900;stroke-width:1.69246387;stroke-linecap:butt;stroke-linejoin:bevel;stroke-miterlimit:4;stroke-opacity:1;stroke-dasharray:none;stroke-dashoffset:0;filter:url(#filter3777-42-5)"
           id="path2987-19-5"
           sodipodi:cx="16"
           sodipodi:cy="240"
           sodipodi:rx="16"
           sodipodi:ry="16"
           d="m 32,240 c 0,8.83656 -7.163444,16 -16,16 -8.836556,0 -16,-7.16344 -16,-16 0,-8.83656 7.163444,-16 16,-16 8.836556,0 16,7.16344 16,16 z"
           transform="matrix(0.88628187,0,0,0.88628187,65.711639,823.5914)" />
        <path
           id="path3781-26-7"
           transform="translate(0.01141139,828.28129)"
           d="m 75.3125,201.59375 c -0.990835,0 -1.78125,0.83202 -1.78125,1.875 0,0.34127 0.09957,0.66122 0.25,0.9375 -0.0121,-0.063 -0.03125,-0.12179 -0.03125,-0.1875 0,-0.69736 0.690794,-1.25 1.5625,-1.25 0.871706,0 1.59375,0.55264 1.59375,1.25 0,0.055 -0.02273,0.10312 -0.03125,0.15625 0.140159,-0.2691 0.25,-0.57771 0.25,-0.90625 0,-1.04298 -0.821665,-1.875 -1.8125,-1.875 z"
           style="fill:#000000;fill-opacity:1;stroke:none"
           inkscape:connector-curvature="0" />
        <path
           id="path3781-5-29-1"
           transform="translate(0.01141139,828.28129)"
           d="m 84.84375,201.59375 c -0.990835,0 -1.78125,0.83202 -1.78125,1.875 0,0.31635 0.08814,0.61307 0.21875,0.875 0,-0.69736 0.690794,-1.25 1.5625,-1.25 0.871706,0 1.59375,0.55264 1.59375,1.25 0.12796,-0.25985 0.21875,-0.5621 0.21875,-0.875 0,-1.04298 -0.821665,-1.875 -1.8125,-1.875 z"
           style="fill:#000000;fill-opacity:1;stroke:none"
           inkscape:connector-curvature="0" />
        <path
           style="fill:#ffffff;stroke:#000000;stroke-width:1.5;stroke-linecap:round;stroke-linejoin:miter;stroke-opacity:1"
           d="m 70.410006,1039.3526 c 0,0 2.819661,6.6965 9.464286,6.6965 6.644625,0 8.571429,-6.6965 8.571429,-6.6965 z"
           id="path3809-7-5"
           inkscape:connector-curvature="0"
           sodipodi:nodetypes="czcc" />
        <path
           inkscape:connector-curvature="0"
           id="path4562"
           d="m 72.288197,1041.3349 14.732143,0 -1.473214,2.7678 -11.294643,0 z"
           style="fill:#000000;stroke:none" />
      </g>
      <g
         inkscape:label=""
         id="angry">
        <path
           sodipodi:type="arc"
           style="fill:url(#linearGradient3187);fill-opacity:1;stroke:#c8a900;stroke-width:1.69246387000000009;stroke-linecap:butt;stroke-linejoin:bevel;stroke-miterlimit:4;stroke-opacity:1;stroke-dasharray:none;stroke-dashoffset:0;filter:url(#filter3777-42-1)"
           id="path2987-19-2"
           sodipodi:cx="16"
           sodipodi:cy="240"
           sodipodi:rx="16"
           sodipodi:ry="16"
           d="m 32,240 a 16,16 0 1 1 -32,0 16,16 0 1 1 32,0 z"
           transform="matrix(0.88628187,0,0,0.88628187,97.629508,791.79739)" />
        <rect
           rx="0.8035714"
           style="fill:#f9f9f9;fill-opacity:1;stroke:#000000;stroke-width:1;stroke-opacity:1"
           id="rect3189"
           width="13.196339"
           height="6.1593604"
           x="105.08295"
           y="1007.2888"
           ry="0.8035714" />
        <path
           inkscape:connector-curvature="0"
           id="path4459-1"
           d="m 105.46983,1010.3042 12.71794,0"
           style="fill:none;stroke:#000000;stroke-width:1px;stroke-linecap:butt;stroke-linejoin:miter;stroke-opacity:1" />
        <path
           inkscape:connector-curvature="0"
           id="path4459-1-0"
           d="m 114.42224,1000.4643 4.54839,-0.86793"
           style="fill:none;stroke:#000000;stroke-width:1.5;stroke-linecap:butt;stroke-linejoin:miter;stroke-opacity:1" />
        <path
           inkscape:connector-curvature="0"
           id="path4459-1-0-1"
           d="m 104.85309,999.688 4.57955,0.6846"
           style="fill:none;stroke:#000000;stroke-width:1.5;stroke-linecap:butt;stroke-linejoin:miter;stroke-opacity:1" />
      </g>
      <g
         inkscape:label=""
         id="uncertain">
        <path
           sodipodi:type="arc"
           style="fill:#ffcc00;fill-opacity:1;stroke:#c8a900;stroke-width:1.69246387;stroke-linecap:butt;stroke-linejoin:bevel;stroke-miterlimit:4;stroke-opacity:1;stroke-dasharray:none;stroke-dashoffset:0;filter:url(#filter3777-5-2-6)"
           id="path2987-3-0-2"
           sodipodi:cx="16"
           sodipodi:cy="240"
           sodipodi:rx="16"
           sodipodi:ry="16"
           d="m 32,240 a 16,16 0 1 1 -32,0 16,16 0 1 1 32,0 z"
           transform="matrix(0.88628187,0,0,0.88628187,129.83735,823.77759)" />
        <path
           sodipodi:type="arc"
           style="fill:#000000;fill-opacity:1;stroke:none"
           id="path3781-0-7-4"
           sodipodi:cx="12.142858"
           sodipodi:cy="238.5"
           sodipodi:rx="1.9642857"
           sodipodi:ry="3.9285715"
           d="m 14.107143,238.5 a 1.9642857,3.9285715 0 1 1 -3.928571,0 1.9642857,3.9285715 0 1 1 3.928571,0 z"
           transform="matrix(0.91334205,0,0,0.48070635,128.3642,917.30107)" />
        <path
           sodipodi:type="arc"
           style="fill:#000000;fill-opacity:1;stroke:none"
           id="path3781-5-9-3-1"
           sodipodi:cx="12.142858"
           sodipodi:cy="238.5"
           sodipodi:rx="1.9642857"
           sodipodi:ry="3.9285715"
           d="m 14.107143,238.5 a 1.9642857,3.9285715 0 1 1 -3.928571,0 1.9642857,3.9285715 0 1 1 3.928571,0 z"
           transform="matrix(0.91334205,0,0,0.48070635,137.90106,917.30107)" />
        <path
           style="fill:none;stroke:#000000;stroke-width:1.5;stroke-linecap:round;stroke-linejoin:miter;stroke-opacity:1"
           d="m 140.66832,1045.9796 c 0,0 2.22896,-6.1582 5.84056,-6.352 3.35156,-0.1799 5.55738,1.9643 5.55738,1.9643"
           id="path3204"
           inkscape:connector-curvature="0"
           sodipodi:nodetypes="csc" />
      </g>
    </g>
  </g>
</svg>
