<?xml version="1.0" encoding="UTF-8" standalone="no"?>
<!-- Created with Inkscape (http://www.inkscape.org/) -->

<svg
   xmlns:dc="http://purl.org/dc/elements/1.1/"
   xmlns:cc="http://creativecommons.org/ns#"
   xmlns:rdf="http://www.w3.org/1999/02/22-rdf-syntax-ns#"
   xmlns:svg="http://www.w3.org/2000/svg"
   xmlns="http://www.w3.org/2000/svg"
   version="1.1"
   width="47.5"
   height="47.5"
   id="svg2"
   xml:space="preserve"><metadata
     id="metadata8"><rdf:RDF><cc:Work
         rdf:about=""><dc:format>image/svg+xml</dc:format><dc:type
           rdf:resource="http://purl.org/dc/dcmitype/StillImage" /><dc:title></dc:title></cc:Work></rdf:RDF></metadata><defs
     id="defs6"><clipPath
       id="clipPath16"><path
         d="M 0,38 38,38 38,0 0,0 0,38 z"
         id="path18" /></clipPath></defs><g
     transform="matrix(1.25,0,0,-1.25,0,47.5)"
     id="g10"><g
       id="g12"><g
         clip-path="url(#clipPath16)"
         id="g14"><g
           transform="translate(31,16.8555)"
           id="g20"><path
             d="M 0,0 C 0,0 0.094,2.362 -1.791,3.068 -3.458,3.693 -4.1,2.446 -4.1,2.446 c 0,0 -0.341,2.464 -2.341,3.172 -1.885,0.668 -3.35,-0.608 -3.35,-0.608 0,0 0.193,11.021 -0.042,14.017 C -12.404,22.136 -14.8,19.01 -14.8,19.01 L -14.9,6.068 c -0.0074,-0.9589715 0.008,-0.475 -2.092,0.527 -2.567514,0.1007372 -3.140931,-1.4648057 -3.608,-2.6745304 -0.47351,0.2679485 -4.948915,0.6925733 -3.412,-9.3954696 0.791,-5.857 5.809,-10.375 11.884,-10.38 6.626,-0.004 12.123,5.297 12.128,11.923 z"
             id="path22"
             style="fill:#d99e82;fill-opacity:1;fill-rule:nonzero;stroke:none" /></g></g></g></g></svg>