<?xml version="1.0" encoding="UTF-8" standalone="no"?>
<!-- Created with Inkscape (http://www.inkscape.org/) -->

<svg
   xmlns:dc="http://purl.org/dc/elements/1.1/"
   xmlns:cc="http://creativecommons.org/ns#"
   xmlns:rdf="http://www.w3.org/1999/02/22-rdf-syntax-ns#"
   xmlns:svg="http://www.w3.org/2000/svg"
   xmlns="http://www.w3.org/2000/svg"
   version="1.1"
   width="47.5"
   height="47.5"
   id="svg2"
   xml:space="preserve"><metadata
     id="metadata8"><rdf:RDF><cc:Work
         rdf:about=""><dc:format>image/svg+xml</dc:format><dc:type
           rdf:resource="http://purl.org/dc/dcmitype/StillImage" /><dc:title></dc:title></cc:Work></rdf:RDF></metadata><defs
     id="defs6"><clipPath
       id="clipPath16"><path
         d="M 0,38 38,38 38,0 0,0 0,38 z"
         id="path18" /></clipPath></defs><g
     transform="matrix(1.25,0,0,-1.25,0,47.5)"
     id="g10"
     style="display:none"><g
       clip-path="url(#clipPath16)"
       id="g14"
       style="fill-rule:nonzero"><g
         transform="translate(37,35)"
         id="g20"
         style="fill-rule:nonzero"><path
           d="M 0,0 C 0,0.809 -0.487,1.538 -1.234,1.848 -1.984,2.158 -2.842,1.987 -3.414,1.414 -4.3,0.528 -7.411,-2 -10,-2 c -10e-4,0 -0.002,0 -0.004,0 -2.384,1.273 -5.104,2 -7.996,2 -2.892,0 -5.612,-0.727 -7.996,-2 -0.002,0 -0.003,0 -0.004,0 -2.58,0 -5.631,2.466 -6.586,3.414 -0.571,0.572 -1.433,0.744 -2.179,0.434 C -35.513,1.538 -36,0.809 -36,0 c 0,-2.384 0.795,-6.229 3.359,-8.391 13.234455,-10.720319 22.581463,-8.821099 29.282,0 C -0.795,-6.229 0,-2.384 0,0"
           id="path22"
           style="fill:#664500;fill-opacity:1;fill-rule:nonzero;stroke:none" /></g><g
         transform="translate(28.335,11.3711)"
         id="g24"
         style="fill-rule:nonzero" /><g
         transform="translate(16.707,18.707)"
         id="g28"
         style="fill-rule:nonzero" /><g
         transform="translate(30,22)"
         id="g32"
         style="fill-rule:nonzero" /></g></g><g
     transform="matrix(1.25,0,0,-1.25,0,47.5)"
     id="g3013"
     style="display:none"><g
       clip-path="url(#clipPath16)"
       id="g3015"
       style="fill-rule:nonzero"><g
         transform="translate(37,35)"
         id="g3017"
         style="fill-rule:nonzero"><path
           d="M 0,0 C 0,0.809 -0.487,1.538 -1.234,1.848 -1.984,2.158 -2.842,1.987 -3.414,1.414 -4.3,0.528 -7.411,-2 -10,-2 c -10e-4,0 -0.002,0 -0.004,0 -2.384,1.273 -5.104,2 -7.996,2 -2.892,0 -5.612,-0.727 -7.996,-2 -0.002,0 -0.003,0 -0.004,0 -2.58,0 -5.631,2.466 -6.586,3.414 -0.571,0.572 -1.433,0.744 -2.179,0.434 C -35.513,1.538 -36,0.809 -36,0 c 0,-2.384 0.795,-6.229 3.359,-8.391 13.234455,-10.720319 22.581463,-8.821099 29.282,0 C -0.795,-6.229 0,-2.384 0,0"
           id="path3019"
           style="fill:#664500;fill-opacity:1;fill-rule:nonzero;stroke:none" /></g><g
         transform="translate(28.335,11.3711)"
         id="g3021"
         style="fill-rule:nonzero"><path
           d="m 0,0 c -0.178,0.161 -0.444,0.171 -0.635,0.029 -0.039,-0.029 -3.922,-2.9 -8.7,-2.9 -4.766,0 -8.662,2.871 -8.7,2.9 -0.191,0.142 -0.457,0.13 -0.635,-0.029 -0.177,-0.16 -0.217,-0.424 -0.094,-0.628 0.129,-0.215 3.217,-5.243 9.429,-5.243 6.212,0 9.301,5.028 9.429,5.243 C 0.217,-0.423 0.178,-0.16 0,0"
           id="path3023"
           style="fill:#553986;fill-opacity:1;fill-rule:nonzero;stroke:none" /></g><g
         transform="translate(16.707,18.707)"
         id="g3025"
         style="fill-rule:nonzero"><path
           d="m 0,0 c -3.255,3.255 -8.486,3.293 -8.707,3.293 -0.552,0 -0.999,-0.447 -0.999,-0.999 -0.001,-0.551 0.446,-1 0.998,-1.001 0.029,0 1.925,-0.022 3.983,-0.737 -0.593,-0.64 -0.982,-1.634 -0.982,-2.763 0,-1.934 1.119,-3.5 2.5,-3.5 1.381,0 2.5,1.566 2.5,3.5 0,0.174 -0.019,0.34 -0.037,0.507 0.013,0 0.025,-0.007 0.037,-0.007 0.256,0 0.512,0.098 0.707,0.293 0.391,0.391 0.391,1.023 0,1.414"
           id="path3027"
           style="fill:#553986;fill-opacity:1;fill-rule:nonzero;stroke:none" /></g><g
         transform="translate(30,22)"
         id="g3029"
         style="fill-rule:nonzero"><path
           d="m 0,0 c -0.221,0 -5.451,-0.038 -8.707,-3.293 -0.391,-0.391 -0.391,-1.023 0,-1.414 C -8.512,-4.902 -8.256,-5 -8,-5 c 0.013,0 0.024,0.007 0.036,0.007 C -7.98,-5.16 -8,-5.326 -8,-5.5 -8,-7.434 -6.881,-9 -5.5,-9 c 1.381,0 2.5,1.566 2.5,3.5 0,1.129 -0.389,2.123 -0.982,2.763 C -1.924,-2.022 -0.028,-2 0.002,-2 0.553,-1.999 1,-1.55 0.999,-0.999 0.998,-0.447 0.552,0 0,0"
           id="path3031"
           style="fill:#553986;fill-opacity:1;fill-rule:nonzero;stroke:none" /></g></g></g><g
     transform="matrix(1.25,0,0,-1.25,0,47.5)"
     id="g3779"
     style="display:inline"><g
       id="g3781"
       style="fill-rule:nonzero"><g
         transform="translate(37,35)"
         id="g3785"
         style="fill:#ffcc4d;fill-opacity:1;fill-rule:nonzero"><path
           d="m -26,-2 c -5.739184,-3.9961924 -8.922666,-7.621555 -9,-15"
           id="path3787"
           style="fill:#ffcc4d;fill-opacity:1;fill-rule:nonzero;stroke:none" /></g><g
         transform="translate(28.335,11.3711)"
         id="g3789"
         style="fill-rule:nonzero"><path
           d="m 0,0 c -0.178,0.161 -0.444,0.171 -0.635,0.029 -0.039,-0.029 -3.922,-2.9 -8.7,-2.9 -4.766,0 -8.662,2.871 -8.7,2.9 -0.191,0.142 -0.457,0.13 -0.635,-0.029 -0.177,-0.16 -0.217,-0.424 -0.094,-0.628 0.129,-0.215 3.217,-5.243 9.429,-5.243 6.212,0 9.301,5.028 9.429,5.243 C 0.217,-0.423 0.178,-0.16 0,0"
           id="path3791"
           style="fill:#664500;fill-opacity:1;fill-rule:nonzero;stroke:none" /></g><g
         transform="translate(16.707,18.707)"
         id="g3793"
         style="fill:#664500;fill-opacity:1;fill-rule:nonzero"><path
           d="m 0,0 c -3.255,3.255 -8.486,3.293 -8.707,3.293 -0.552,0 -0.999,-0.447 -0.999,-0.999 -0.001,-0.551 0.446,-1 0.998,-1.001 0.029,0 1.925,-0.022 3.983,-0.737 -0.593,-0.64 -0.982,-1.634 -0.982,-2.763 0,-1.934 1.119,-3.5 2.5,-3.5 1.381,0 2.5,1.566 2.5,3.5 0,0.174 -0.019,0.34 -0.037,0.507 0.013,0 0.025,-0.007 0.037,-0.007 0.256,0 0.512,0.098 0.707,0.293 0.391,0.391 0.391,1.023 0,1.414"
           id="path3795"
           style="fill:#664500;fill-opacity:1;fill-rule:nonzero;stroke:none" /></g><g
         transform="translate(30,22)"
         id="g3797"
         style="fill-rule:nonzero"><path
           d="m 0,0 c -0.221,0 -5.451,-0.038 -8.707,-3.293 -0.391,-0.391 -0.391,-1.023 0,-1.414 C -8.512,-4.902 -8.256,-5 -8,-5 c 0.013,0 0.024,0.007 0.036,0.007 C -7.98,-5.16 -8,-5.326 -8,-5.5 -8,-7.434 -6.881,-9 -5.5,-9 c 1.381,0 2.5,1.566 2.5,3.5 0,1.129 -0.389,2.123 -0.982,2.763 C -1.924,-2.022 -0.028,-2 0.002,-2 0.553,-1.999 1,-1.55 0.999,-0.999 0.998,-0.447 0.552,0 0,0"
           id="path3799"
           style="fill:#664500;fill-opacity:1;fill-rule:nonzero;stroke:none" /></g></g><path
       d="m 35.998295,17.999293 c 0,-9.3890003 -7.611,-16.9999998 -17,-16.9999998 -9.388,0 -17.0000001,7.6109995 -17.0000001,16.9999998 0,9.388 7.6120001,17 17.0000001,17 9.389,0 17,-7.612 17,-17"
       id="path22-4"
       style="fill:#ffcc4d;fill-opacity:1;fill-rule:nonzero;stroke:none" /></g><g
     transform="matrix(1.25,0,0,-1.25,0,47.5)"
     id="g3843"
     style="display:inline"><g
       clip-path="url(#clipPath16)"
       id="g3863"
       style="fill:#664500;fill-opacity:1;fill-rule:nonzero"><g
         transform="translate(37,35)"
         id="g3865"
         style="fill:#664500;fill-opacity:1;fill-rule:nonzero" /><g
         transform="translate(28.335,11.3711)"
         id="g3869"
         style="fill:#664500;fill-opacity:1;fill-rule:nonzero"><path
           d="m 0,0 c -0.178,0.161 -0.444,0.171 -0.635,0.029 -0.039,-0.029 -3.922,-2.9 -8.7,-2.9 -4.766,0 -8.662,2.871 -8.7,2.9 -0.191,0.142 -0.457,0.13 -0.635,-0.029 -0.177,-0.16 -0.217,-0.424 -0.094,-0.628 0.129,-0.215 3.217,-5.243 9.429,-5.243 6.212,0 9.301,5.028 9.429,5.243 C 0.217,-0.423 0.178,-0.16 0,0"
           id="path3871"
           style="fill:#664500;fill-opacity:1;fill-rule:nonzero;stroke:none" /></g><g
         transform="translate(16.707,18.707)"
         id="g3873"
         style="fill:#664500;fill-opacity:1;fill-rule:nonzero"><path
           d="m 0,0 c -3.255,3.255 -8.486,3.293 -8.707,3.293 -0.552,0 -0.999,-0.447 -0.999,-0.999 -0.001,-0.551 0.446,-1 0.998,-1.001 0.029,0 1.925,-0.022 3.983,-0.737 -0.593,-0.64 -0.982,-1.634 -0.982,-2.763 0,-1.934 1.119,-3.5 2.5,-3.5 1.381,0 2.5,1.566 2.5,3.5 0,0.174 -0.019,0.34 -0.037,0.507 0.013,0 0.025,-0.007 0.037,-0.007 0.256,0 0.512,0.098 0.707,0.293 0.391,0.391 0.391,1.023 0,1.414"
           id="path3875"
           style="fill:#664500;fill-opacity:1;fill-rule:nonzero;stroke:none" /></g><g
         transform="translate(30,22)"
         id="g3877"
         style="fill:#664500;fill-opacity:1;fill-rule:nonzero"><path
           d="m 0,0 c -0.221,0 -5.451,-0.038 -8.707,-3.293 -0.391,-0.391 -0.391,-1.023 0,-1.414 C -8.512,-4.902 -8.256,-5 -8,-5 c 0.013,0 0.024,0.007 0.036,0.007 C -7.98,-5.16 -8,-5.326 -8,-5.5 -8,-7.434 -6.881,-9 -5.5,-9 c 1.381,0 2.5,1.566 2.5,3.5 0,1.129 -0.389,2.123 -0.982,2.763 C -1.924,-2.022 -0.028,-2 0.002,-2 0.553,-1.999 1,-1.55 0.999,-0.999 0.998,-0.447 0.552,0 0,0"
           id="path3879"
           style="fill:#664500;fill-opacity:1;fill-rule:nonzero;stroke:none" /></g></g></g><g
     transform="matrix(1.25,0,0,-1.25,0,47.5)"
     id="g3033"
     style="display:inline"><g
       clip-path="url(#clipPath16)"
       id="g3035"
       style="fill:#000000;fill-rule:nonzero"><g
         transform="translate(37,35)"
         id="g3037"
         style="fill:#000000;fill-rule:nonzero"><path
           d="m -28.667619,-8.3639609 c 4.059916,2.5658406 3.741851,2.5088384 2.671619,6.3639609 -0.002,0 -0.003,0 -0.004,0 -2.58,0 -5.631,2.466 -6.586,3.414 -0.571,0.572 -1.433,0.744 -2.179,0.434 C -35.513,1.538 -36,0.809 -36,0 c 0,-2.384 0.795,-6.229 3.359,-8.391"
           id="path3039"
           style="fill:#000000;fill-opacity:1;fill-rule:nonzero;stroke:none" /><path
           d="m -7.3434679,-8.3553823 c -4.0599161,2.5658406 -3.7418511,2.5088384 -2.6716191,6.3639609 0.002,0 0.003,0 0.004,0 2.5800001,0 5.6310001,2.46600004 6.5860001,3.414 0.571,0.572 1.433,0.744 2.179,0.434 0.74800004,-0.31 1.23500004,-1.03899996 1.23500004,-1.84799996 0,-2.38400004 -0.795,-6.22900004 -3.35900004,-8.39100004"
           id="path3047"
           style="fill:#000000;fill-opacity:1;fill-rule:nonzero;stroke:none" /></g><g
         transform="translate(28.335,11.3711)"
         id="g3041"
         style="fill:#000000;fill-rule:nonzero" /><g
         transform="translate(16.707,18.707)"
         id="g3043"
         style="fill:#000000;fill-rule:nonzero" /><g
         transform="translate(30,22)"
         id="g3045"
         style="fill:#000000;fill-rule:nonzero" /></g></g></svg>