<?xml version="1.0" encoding="UTF-8" standalone="no"?>
<svg
   xmlns:dc="http://purl.org/dc/elements/1.1/"
   xmlns:cc="http://creativecommons.org/ns#"
   xmlns:rdf="http://www.w3.org/1999/02/22-rdf-syntax-ns#"
   xmlns:svg="http://www.w3.org/2000/svg"
   xmlns="http://www.w3.org/2000/svg"
   xmlns:sodipodi="http://sodipodi.sourceforge.net/DTD/sodipodi-0.dtd"
   xmlns:inkscape="http://www.inkscape.org/namespaces/inkscape"
   version="1.1"
   viewBox="0 0 47.5 47.5"
   style="enable-background:new 0 0 47.5 47.5;"
   id="svg2"
   xml:space="preserve"
   inkscape:version="0.48.4 r9939"
   width="100%"
   height="100%"
   sodipodi:docname="2714.svg"><metadata
     id="metadata4502"><rdf:RDF><cc:Work
         rdf:about=""><dc:format>image/svg+xml</dc:format><dc:type
           rdf:resource="http://purl.org/dc/dcmitype/StillImage" /></cc:Work></rdf:RDF></metadata><sodipodi:namedview
     pagecolor="#ffffff"
     bordercolor="#666666"
     borderopacity="1"
     objecttolerance="10"
     gridtolerance="10"
     guidetolerance="10"
     inkscape:pageopacity="0"
     inkscape:pageshadow="2"
     inkscape:window-width="1366"
     inkscape:window-height="719"
     id="namedview4500"
     showgrid="false"
     inkscape:zoom="4.9684211"
     inkscape:cx="23.75"
     inkscape:cy="23.75"
     inkscape:window-x="0"
     inkscape:window-y="0"
     inkscape:window-maximized="1"
     inkscape:current-layer="svg2" /><defs
     id="defs6"><clipPath
       id="clipPath18"><path
         d="M 0,38 38,38 38,0 0,0 0,38 z"
         id="path20" /></clipPath></defs><g
     transform="matrix(1.25,0,0,-1.25,0,47.5)"
     id="g12"><g
       id="g14"><g
         clip-path="url(#clipPath18)"
         id="g16"><g
           transform="translate(15.5,5.5)"
           id="g22"><path
             d="m 0,0 c -0.768,0 -1.536,0.293 -2.121,0.879 l -11.5,11.5 c -1.172,1.171 -1.172,3.071 0,4.242 1.171,1.172 3.071,1.172 4.242,0 L 0,7.242 16.379,23.621 c 1.172,1.172 3.07,1.172 4.242,0 1.172,-1.171 1.172,-3.071 0,-4.242 L 2.121,0.879 C 1.536,0.293 0.768,0 0,0"
             id="path24"
             style="fill:#414042;fill-opacity:1;fill-rule:nonzero;stroke:none" /></g></g></g></g><path
     style="fill:#1a1a1a"
     d="M 18.226303,40.27582 C 17.615082,40.058086 15.654354,38.219756 9.702515,32.284126 5.3868275,27.98019 1.8480705,24.289142 1.6907249,23.927545 1.1217096,22.619889 1.513987,20.741522 2.5521566,19.802697 c 0.496272,-0.448782 1.739248,-0.964016 2.322205,-0.962591 1.568633,0.0038 1.8616673,0.238504 8.3141414,6.65824 L 19.433149,31.71131 29.89401,21.229737 c 5.95167,-5.96345 10.740042,-10.603095 11.108529,-10.763493 3.078492,-1.3400308 6.23443,1.955598 4.700761,4.908829 -0.214744,0.413515 -5.760924,6.105401 -12.428495,12.755009 -10.304276,10.27652 -12.156798,12.039676 -12.84578,12.226101 -1.015268,0.274715 -1.227707,0.266964 -2.202722,-0.08036 z"
     id="path4504"
     inkscape:connector-curvature="0" /></svg>