<?xml version="1.0" encoding="UTF-8" standalone="no"?>
<svg
   xmlns:dc="http://purl.org/dc/elements/1.1/"
   xmlns:cc="http://creativecommons.org/ns#"
   xmlns:rdf="http://www.w3.org/1999/02/22-rdf-syntax-ns#"
   xmlns:svg="http://www.w3.org/2000/svg"
   xmlns="http://www.w3.org/2000/svg"
   xmlns:sodipodi="http://sodipodi.sourceforge.net/DTD/sodipodi-0.dtd"
   xmlns:inkscape="http://www.inkscape.org/namespaces/inkscape"
   version="1.1"
   viewBox="0 0 47.5 47.5"
   style="enable-background:new 0 0 47.5 47.5;"
   id="svg2"
   xml:space="preserve"
   inkscape:version="0.48.4 r9939"
   width="100%"
   height="100%"
   sodipodi:docname="2716.svg"><metadata
     id="metadata4134"><rdf:RDF><cc:Work
         rdf:about=""><dc:format>image/svg+xml</dc:format><dc:type
           rdf:resource="http://purl.org/dc/dcmitype/StillImage" /></cc:Work></rdf:RDF></metadata><sodipodi:namedview
     pagecolor="#ffffff"
     bordercolor="#666666"
     borderopacity="1"
     objecttolerance="10"
     gridtolerance="10"
     guidetolerance="10"
     inkscape:pageopacity="0"
     inkscape:pageshadow="2"
     inkscape:window-width="1366"
     inkscape:window-height="719"
     id="namedview4132"
     showgrid="false"
     inkscape:zoom="4.9684211"
     inkscape:cx="23.75"
     inkscape:cy="23.75"
     inkscape:window-x="0"
     inkscape:window-y="0"
     inkscape:window-maximized="1"
     inkscape:current-layer="svg2" /><defs
     id="defs6"><clipPath
       id="clipPath18"><path
         d="M 0,38 38,38 38,0 0,0 0,38 z"
         id="path20" /></clipPath></defs><g
     transform="matrix(1.25,0,0,-1.25,0,47.5)"
     id="g12"><g
       id="g14"><g
         clip-path="url(#clipPath18)"
         id="g16"><g
           transform="translate(23.2383,18.9956)"
           id="g22"><path
             d="m 0,0 9.883,9.883 c 1.172,1.171 1.172,3.071 0,4.242 -1.172,1.171 -3.071,1.172 -4.242,0 l -9.883,-9.883 -9.883,9.883 c -1.171,1.172 -3.071,1.172 -4.243,0 -1.171,-1.171 -1.171,-3.071 10e-4,-4.243 L -8.484,0 -18.391,-9.907 c -1.171,-1.171 -1.171,-3.071 0,-4.242 0.586,-0.586 1.354,-0.879 2.121,-0.879 0.768,0 1.536,0.293 2.122,0.879 l 9.906,9.906 9.883,-9.882 c 0.586,-0.585 1.353,-0.878 2.121,-0.878 0.767,0 1.535,0.293 2.121,0.878 1.172,1.171 1.172,3.072 0,4.243 L 0,0 z"
             id="path24"
             style="fill:#414042;fill-opacity:1;fill-rule:nonzero;stroke:none" /></g></g></g></g><path
     style="fill:#1a1a1a"
     d="M 7.07836,41.955838 C 5.8209191,41.333421 5.1391243,40.217209 5.1391243,38.780987 c 0,-0.859213 0.1147264,-1.298491 0.4782567,-1.831208 0.2630412,-0.38546 3.2945052,-3.530564 6.736587,-6.989118 l 6.25833,-6.288278 -6.572664,-6.593077 C 6.3382571,11.360221 5.437367,10.373835 5.2436481,9.6383671 4.6719604,7.4679142 6.4687012,5.1525424 8.7246718,5.1525424 c 1.5101392,0 2.0572372,0.4434622 8.6294222,6.9947656 l 6.393305,6.372992 6.492297,-6.455215 c 6.968549,-6.9287498 7.141854,-7.061826 8.933548,-6.859876 1.780115,0.2006448 3.182212,1.793023 3.155202,3.5834034 -0.0077,0.5120305 -0.124807,1.1487473 -0.260184,1.4149266 -0.135377,0.266178 -3.155715,3.403572 -6.711862,6.971986 l -6.465723,6.488025 6.362028,6.393331 c 3.499113,3.516332 6.496063,6.665047 6.659888,6.997144 0.7438,1.507795 0.579963,2.820782 -0.506372,4.058048 -1.02943,1.172455 -2.522536,1.57951 -3.90636,1.06496 -0.31163,-0.115874 -3.532832,-3.172166 -7.15823,-6.791759 L 23.75,28.804193 17.158369,35.385274 c -3.625398,3.619593 -6.846601,6.675885 -7.15823,6.791759 -0.88901,0.330562 -1.9728602,0.248508 -2.921779,-0.221195 z"
     id="path4136"
     inkscape:connector-curvature="0" /></svg>