<?xml version="1.0" encoding="UTF-8" standalone="no"?>
<svg
   xmlns:dc="http://purl.org/dc/elements/1.1/"
   xmlns:cc="http://creativecommons.org/ns#"
   xmlns:rdf="http://www.w3.org/1999/02/22-rdf-syntax-ns#"
   xmlns:svg="http://www.w3.org/2000/svg"
   xmlns="http://www.w3.org/2000/svg"
   xmlns:sodipodi="http://sodipodi.sourceforge.net/DTD/sodipodi-0.dtd"
   xmlns:inkscape="http://www.inkscape.org/namespaces/inkscape"
   version="1.1"
   viewBox="0 0 47.5 47.5"
   style="enable-background:new 0 0 47.5 47.5;"
   id="svg2"
   xml:space="preserve"
   inkscape:version="0.48.4 r9939"
   width="100%"
   height="100%"
   sodipodi:docname="2734.svg"><metadata
     id="metadata3803"><rdf:RDF><cc:Work
         rdf:about=""><dc:format>image/svg+xml</dc:format><dc:type
           rdf:resource="http://purl.org/dc/dcmitype/StillImage" /></cc:Work></rdf:RDF></metadata><sodipodi:namedview
     pagecolor="#ffffff"
     bordercolor="#666666"
     borderopacity="1"
     objecttolerance="10"
     gridtolerance="10"
     guidetolerance="10"
     inkscape:pageopacity="0"
     inkscape:pageshadow="2"
     inkscape:window-width="1366"
     inkscape:window-height="719"
     id="namedview3801"
     showgrid="false"
     inkscape:zoom="4.9684211"
     inkscape:cx="23.75"
     inkscape:cy="23.75"
     inkscape:window-x="0"
     inkscape:window-y="0"
     inkscape:window-maximized="1"
     inkscape:current-layer="svg2" /><defs
     id="defs6"><clipPath
       id="clipPath18"><path
         d="M 0,38 38,38 38,0 0,0 0,38 z"
         id="path20" /></clipPath></defs><g
     transform="matrix(1.25,0,0,-1.25,0,47.5)"
     id="g12"><g
       id="g14"><g
         clip-path="url(#clipPath18)"
         id="g16"><g
           transform="translate(14.5737,25.7646)"
           id="g22"><path
             d="M 0,0 C 1.334,-0.971 2.631,-0.43 2.882,1.201 L 3.97,8.27 c 0.251,1.631 0.661,1.631 0.912,0 L 5.97,1.201 C 6.221,-0.43 7.518,-0.971 8.852,0 L 15,4.471 c 1.334,0.97 1.632,0.673 0.662,-0.662 l -4.471,-6.147 c -0.971,-1.335 -0.431,-2.632 1.2,-2.883 l 7.07,-1.088 c 1.631,-0.251 1.631,-0.661 0,-0.912 l -7.07,-1.088 C 10.76,-8.56 10.22,-9.856 11.191,-11.19 l 4.471,-6.149 C 16.632,-18.673 16.334,-18.971 15,-18 l -6.148,4.471 c -1.334,0.97 -2.631,0.43 -2.882,-1.2 L 4.882,-21.8 c -0.251,-1.631 -0.661,-1.631 -0.912,0 l -1.088,7.071 c -0.251,1.63 -1.548,2.17 -2.882,1.2 L -6.147,-18 c -1.335,-0.971 -1.581,-0.713 -0.547,0.573 l 5.085,6.324 c 1.034,1.287 0.542,2.523 -1.092,2.749 l -8.057,1.112 c -1.634,0.226 -1.638,0.62 -0.008,0.876 l 7.228,1.136 c 1.631,0.256 2.17,1.557 1.2,2.892 L -6.809,3.809 C -7.78,5.144 -7.482,5.441 -6.147,4.471 L 0,0 z"
             id="path24"
             style="fill:#414042;fill-opacity:1;fill-rule:nonzero;stroke:none" /></g></g></g></g><path
     style="fill:#1a1a1a"
     d="m 23.373625,42.840572 c -0.11839,-0.525821 -0.494546,-2.812765 -0.835903,-5.082097 -0.341357,-2.269333 -0.712943,-4.419002 -0.825748,-4.777043 -0.411104,-1.304851 -1.738162,-1.809748 -3.017644,-1.148103 -0.334242,0.172843 -2.526116,1.711998 -4.870831,3.420344 -2.344715,1.708347 -4.3310467,3.106655 -4.414071,3.107349 -0.3761676,0.0032 0.066208,-0.616888 3.39013,-4.751662 1.947596,-2.422702 3.673607,-4.65943 3.835581,-4.970511 0.161973,-0.311081 0.266711,-0.896885 0.232751,-1.301788 -0.08919,-1.063426 -0.910254,-1.55009 -3.129758,-1.855084 C 7.008692,24.557244 3.784266,24.07114 3.592133,23.952394 3.157582,23.683828 3.9479273,23.501107 9.1400798,22.669763 12.00849,22.210487 14.609752,21.70317 14.92066,21.542393 c 0.72155,-0.373128 0.979764,-0.865135 0.979764,-1.866867 0,-0.679913 -0.241853,-1.135374 -1.61017,-3.032299 C 13.404661,15.415511 11.950811,13.399994 11.059477,12.164298 9.1885455,9.5705443 8.9517886,9.1779661 9.2584746,9.1779661 c 0.3050605,0 0.8032494,0.338699 5.3916444,3.6655659 2.531717,1.83565 4.339397,3.009038 4.756027,3.087198 0.900514,0.168938 1.885174,-0.35479 2.220128,-1.180857 0.142899,-0.352419 0.545819,-2.542776 0.895377,-4.8674577 0.712471,-4.7381699 0.992727,-6.1387712 1.228349,-6.1387712 0.235622,0 0.515878,1.4006013 1.228348,6.1387712 0.34956,2.3246817 0.752478,4.5150387 0.895379,4.8674577 0.334954,0.826067 1.319612,1.349795 2.220128,1.180857 0.416629,-0.07816 2.224308,-1.251548 4.756026,-3.087198 4.588395,-3.3268669 5.086584,-3.6655659 5.391644,-3.6655659 0.306687,0 0.06993,0.3925782 -1.801002,2.9863319 -0.891334,1.235696 -2.345184,3.251213 -3.230777,4.478929 -1.368318,1.896925 -1.61017,2.352386 -1.61017,3.032299 0,0.996541 0.258024,1.49364 0.965067,1.859267 0.302825,0.156597 2.40594,0.569531 4.673588,0.917631 6.857275,1.052641 7.408176,1.202097 5.890193,1.597973 -0.418461,0.109131 -2.877387,0.523497 -5.464279,0.920814 -2.586892,0.397317 -4.869191,0.811103 -5.071776,0.919523 -0.963105,0.515438 -1.273365,1.885418 -0.684765,3.023645 0.169416,0.327613 1.537786,2.28183 3.040821,4.342702 2.88489,3.955582 3.642686,5.105686 3.3633,5.104454 -0.308213,-0.0014 -1.464107,-0.782932 -5.184981,-3.505906 -2.018173,-1.47692 -3.952765,-2.831842 -4.299097,-3.010935 -1.301312,-0.672936 -2.625488,-0.17773 -3.039621,1.136738 -0.112805,0.358041 -0.484392,2.50771 -0.825748,4.777043 -0.699012,4.647011 -0.978308,6.038135 -1.212278,6.038135 -0.08862,0 -0.257985,-0.430217 -0.376375,-0.956038 l 0,0 z"
     id="path3805"
     inkscape:connector-curvature="0" /></svg>