<?xml version="1.0" encoding="UTF-8" standalone="no"?>
<svg
   xmlns:dc="http://purl.org/dc/elements/1.1/"
   xmlns:cc="http://creativecommons.org/ns#"
   xmlns:rdf="http://www.w3.org/1999/02/22-rdf-syntax-ns#"
   xmlns:svg="http://www.w3.org/2000/svg"
   xmlns="http://www.w3.org/2000/svg"
   xmlns:sodipodi="http://sodipodi.sourceforge.net/DTD/sodipodi-0.dtd"
   xmlns:inkscape="http://www.inkscape.org/namespaces/inkscape"
   version="1.1"
   viewBox="0 0 47.5 47.5"
   style="enable-background:new 0 0 47.5 47.5;"
   id="svg2"
   xml:space="preserve"
   inkscape:version="0.48.4 r9939"
   width="100%"
   height="100%"
   sodipodi:docname="2795.svg"><metadata
     id="metadata3287"><rdf:RDF><cc:Work
         rdf:about=""><dc:format>image/svg+xml</dc:format><dc:type
           rdf:resource="http://purl.org/dc/dcmitype/StillImage" /></cc:Work></rdf:RDF></metadata><sodipodi:namedview
     pagecolor="#ffffff"
     bordercolor="#666666"
     borderopacity="1"
     objecttolerance="10"
     gridtolerance="10"
     guidetolerance="10"
     inkscape:pageopacity="0"
     inkscape:pageshadow="2"
     inkscape:window-width="1366"
     inkscape:window-height="719"
     id="namedview3285"
     showgrid="false"
     inkscape:zoom="4.9684211"
     inkscape:cx="23.75"
     inkscape:cy="23.75"
     inkscape:window-x="0"
     inkscape:window-y="0"
     inkscape:window-maximized="1"
     inkscape:current-layer="svg2" /><defs
     id="defs6"><clipPath
       id="clipPath18"><path
         d="M 0,38 38,38 38,0 0,0 0,38 z"
         id="path20" /></clipPath></defs><g
     transform="matrix(1.25,0,0,-1.25,0,47.5)"
     id="g12"><g
       id="g14"><g
         clip-path="url(#clipPath18)"
         id="g16"><g
           transform="translate(32,22)"
           id="g22"><path
             d="m 0,0 -10,0 0,10 c 0,1.657 -1.343,3 -3,3 -1.657,0 -3,-1.343 -3,-3 l 0,-10 -10,0 c -1.657,0 -3,-1.343 -3,-3 0,-1.657 1.343,-3 3,-3 l 10,0 0,-10 c 0,-1.657 1.343,-3 3,-3 1.657,0 3,1.343 3,3 l 0,10 10,0 c 1.657,0 3,1.343 3,3 0,1.657 -1.343,3 -3,3"
             id="path24"
             style="fill:#414042;fill-opacity:1;fill-rule:nonzero;stroke:none" /></g></g></g></g><path
     style="fill:#1a1a1a"
     d="m 22.240915,43.289721 c -0.918099,-0.496156 -1.330052,-0.925312 -1.735259,-1.807729 -0.334513,-0.728465 -0.370117,-1.432413 -0.374117,-7.396717 l -0.0044,-6.591631 -6.128865,0 c -6.6383699,0 -7.8041435,-0.127928 -8.7997196,-0.965649 -0.7310912,-0.615173 -1.3655412,-1.896518 -1.3655412,-2.757868 0,-1.46241 1.2921532,-3.10437 2.7648886,-3.513389 0.4420531,-0.12277 3.361827,-0.208342 7.1313542,-0.209005 l 6.382837,-0.0011 0.05784,-6.925467 0.05784,-6.9254666 0.618125,-0.773156 C 21.632834,4.4381887 22.601507,3.9455408 23.75,3.9455408 c 1.148494,0 2.117166,0.4926479 2.904122,1.4769796 l 0.618124,0.773156 0.05784,6.9254666 0.05784,6.925467 6.382839,0.0011 c 3.769526,6.64e-4 6.6893,0.08624 7.131354,0.209006 1.472734,0.409019 2.764889,2.050979 2.764889,3.513389 0,0.861349 -0.634451,2.142694 -1.365543,2.757867 -0.995576,0.837717 -2.161348,0.965645 -8.799719,0.965645 l -6.128865,0 -0.0044,6.591631 c -0.005,7.428111 -0.05336,7.711953 -1.502884,8.81756 -0.933085,0.711697 -2.678821,0.898032 -3.624662,0.386886 l 8e-6,0 z"
     id="path3289"
     inkscape:connector-curvature="0" /></svg>