<?xml version="1.0" encoding="UTF-8" standalone="no"?>
<svg
   xmlns:dc="http://purl.org/dc/elements/1.1/"
   xmlns:cc="http://creativecommons.org/ns#"
   xmlns:rdf="http://www.w3.org/1999/02/22-rdf-syntax-ns#"
   xmlns:svg="http://www.w3.org/2000/svg"
   xmlns="http://www.w3.org/2000/svg"
   xmlns:sodipodi="http://sodipodi.sourceforge.net/DTD/sodipodi-0.dtd"
   xmlns:inkscape="http://www.inkscape.org/namespaces/inkscape"
   version="1.1"
   viewBox="0 0 47.5 47.5"
   style="enable-background:new 0 0 47.5 47.5;"
   id="svg2"
   xml:space="preserve"
   inkscape:version="0.48.4 r9939"
   width="100%"
   height="100%"
   sodipodi:docname="2797.svg"><metadata
     id="metadata3490"><rdf:RDF><cc:Work
         rdf:about=""><dc:format>image/svg+xml</dc:format><dc:type
           rdf:resource="http://purl.org/dc/dcmitype/StillImage" /></cc:Work></rdf:RDF></metadata><sodipodi:namedview
     pagecolor="#ffffff"
     bordercolor="#666666"
     borderopacity="1"
     objecttolerance="10"
     gridtolerance="10"
     guidetolerance="10"
     inkscape:pageopacity="0"
     inkscape:pageshadow="2"
     inkscape:window-width="1366"
     inkscape:window-height="719"
     id="namedview3488"
     showgrid="false"
     inkscape:zoom="4.9684211"
     inkscape:cx="23.75"
     inkscape:cy="23.75"
     inkscape:window-x="0"
     inkscape:window-y="0"
     inkscape:window-maximized="1"
     inkscape:current-layer="svg2" /><defs
     id="defs6"><clipPath
       id="clipPath18"><path
         d="M 0,38 38,38 38,0 0,0 0,38 z"
         id="path20" /></clipPath></defs><g
     transform="matrix(1.25,0,0,-1.25,0,47.5)"
     id="g12"><g
       id="g14"><g
         clip-path="url(#clipPath18)"
         id="g16"><g
           transform="translate(35,19)"
           id="g22"><path
             d="m 0,0 c 0,-1.657 -1.343,-3 -3,-3 l -26,0 c -1.657,0 -3,1.343 -3,3 0,1.657 1.343,3 3,3 L -3,3 C -1.343,3 0,1.657 0,0"
             id="path24"
             style="fill:#414042;fill-opacity:1;fill-rule:nonzero;stroke:none" /></g><g
           transform="translate(15,29.9995)"
           id="g26"><path
             d="M 0,0 C 0,2.209 1.791,4 4,4 6.209,4 8,2.209 8,0 8,-2.209 6.209,-4 4,-4 1.791,-4 0,-2.209 0,0"
             id="path28"
             style="fill:#414042;fill-opacity:1;fill-rule:nonzero;stroke:none" /></g><g
           transform="translate(15,8)"
           id="g30"><path
             d="M 0,0 C 0,2.209 1.791,4 4,4 6.209,4 8,2.209 8,0 8,-2.209 6.209,-4 4,-4 1.791,-4 0,-2.209 0,0"
             id="path32"
             style="fill:#414042;fill-opacity:1;fill-rule:nonzero;stroke:none" /></g></g></g></g><path
     style="fill:#1a1a1a"
     d="m 21.837924,41.907215 c -1.890153,-0.89509 -2.920067,-2.446729 -2.916466,-4.393865 0.0036,-1.947777 1.22416,-3.787799 3.00849,-4.535376 0.893386,-0.3743 2.746718,-0.3743 3.640104,0 2.394445,1.003196 3.672898,4.010259 2.698349,6.346817 -0.691199,1.657205 -2.761759,3.058988 -4.518401,3.058988 -0.535084,0 -1.317538,-0.195017 -1.912076,-0.476564 l 0,0 z"
     id="path3494"
     inkscape:connector-curvature="0" /><path
     style="fill:#1a1a1a"
     d="M 21.580707,14.302988 C 17.061752,12.016927 18.688565,5.161383 23.75,5.161383 c 3.769238,0 6.090579,4.1618786 4.109023,7.366971 -1.308632,2.116661 -4.06314,2.895253 -6.278316,1.774634 l 0,0 z"
     id="path3496"
     inkscape:connector-curvature="0" /><path
     style="fill:#1a1a1a"
     d="M 6.5858402,27.207797 C 6.0568339,27.065523 5.3882385,26.731991 5.1000725,26.466614 4.4435083,25.861972 3.8329932,24.562728 3.8329932,23.770127 c 0,-1.46241 1.2921532,-3.10437 2.7648886,-3.513388 1.0290038,-0.285783 33.2752322,-0.285783 34.3042372,0 1.472734,0.409018 2.764889,2.050978 2.764889,3.513388 0,0.86135 -0.634451,2.142695 -1.365543,2.757867 -0.344618,0.289977 -1.08654,0.625875 -1.648717,0.746441 -1.572312,0.3372 -32.7924088,0.276131 -34.0669078,-0.06664 l 0,0 z"
     id="path3498"
     inkscape:connector-curvature="0" /></svg>