<?xml version="1.0" encoding="UTF-8" standalone="no"?>
<svg
   xmlns:dc="http://purl.org/dc/elements/1.1/"
   xmlns:cc="http://creativecommons.org/ns#"
   xmlns:rdf="http://www.w3.org/1999/02/22-rdf-syntax-ns#"
   xmlns:svg="http://www.w3.org/2000/svg"
   xmlns="http://www.w3.org/2000/svg"
   xmlns:sodipodi="http://sodipodi.sourceforge.net/DTD/sodipodi-0.dtd"
   xmlns:inkscape="http://www.inkscape.org/namespaces/inkscape"
   version="1.1"
   viewBox="0 0 47.5 47.5"
   style="enable-background:new 0 0 47.5 47.5;"
   id="svg2"
   xml:space="preserve"
   inkscape:version="0.48.4 r9939"
   width="100%"
   height="100%"
   sodipodi:docname="27b0.svg"><metadata
     id="metadata7386"><rdf:RDF><cc:Work
         rdf:about=""><dc:format>image/svg+xml</dc:format><dc:type
           rdf:resource="http://purl.org/dc/dcmitype/StillImage" /></cc:Work></rdf:RDF></metadata><sodipodi:namedview
     pagecolor="#ffffff"
     bordercolor="#666666"
     borderopacity="1"
     objecttolerance="10"
     gridtolerance="10"
     guidetolerance="10"
     inkscape:pageopacity="0"
     inkscape:pageshadow="2"
     inkscape:window-width="1366"
     inkscape:window-height="719"
     id="namedview7384"
     showgrid="false"
     inkscape:zoom="4.9684211"
     inkscape:cx="23.75"
     inkscape:cy="23.75"
     inkscape:window-x="0"
     inkscape:window-y="0"
     inkscape:window-maximized="1"
     inkscape:current-layer="svg2" /><defs
     id="defs6"><clipPath
       id="clipPath18"><path
         d="M 0,38 38,38 38,0 0,0 0,38 z"
         id="path20" /></clipPath></defs><g
     transform="matrix(1.25,0,0,-1.25,0,47.5)"
     id="g12"><g
       id="g14"><g
         clip-path="url(#clipPath18)"
         id="g16"><g
           transform="translate(19.0127,26.3291)"
           id="g22"><path
             d="m 0,0 c -4.03,-2.585 -7.513,-6.345 -7.513,-10.642 0,-6.055 4.6,-8.312 7.5,-8.312 2.9,0 7.5,2.273 7.5,8.375 C 7.487,-6.31 4.02,-2.574 0,0 m -0.013,-21.954 c -5.09,0 -10.5,3.965 -10.5,11.312 0,4.877 3.366,9.178 7.591,12.273 -2.698,1.301 -5.334,2.04 -7.091,2.04 -2.708,0 -5.499,-0.914 -5.527,-0.923 -0.789,-0.259 -1.635,0.165 -1.896,0.95 -0.261,0.786 0.164,1.634 0.949,1.896 0.132,0.044 3.268,1.077 6.474,1.077 2.695,0 6.45,-1.158 10.011,-3.162 3.555,2.004 7.3,3.162 9.989,3.162 3.207,0 6.222,-1.559 6.344,-1.625 0.781,-0.422 1.312,-0.699 1.125,-1.266 -0.182,-0.551 -0.891,-0.328 -1.75,-0.234 -0.029,0.003 -2.156,0.391 -5.687,0.391 -1.752,0 -4.411,-1.004 -7.1,-2.304 4.215,-3.083 7.568,-7.361 7.568,-12.212 0,-7.389 -5.41,-11.375 -10.5,-11.375"
             id="path24"
             style="fill:#414042;fill-opacity:1;fill-rule:nonzero;stroke:none" /></g></g></g></g><path
     style="fill:#1a1a1a"
     d="m 21.890937,41.789667 c -2.888307,-0.523823 -5.005089,-1.634558 -7.123188,-3.737737 -2.707032,-2.687967 -3.950718,-5.81967 -3.953192,-9.954472 -8.04e-4,-1.343604 0.123167,-2.589856 0.340366,-3.421611 0.470831,-1.803026 1.890906,-4.664777 3.11542,-6.278229 1.156012,-1.523192 3.462409,-3.85352 4.89596,-4.94676 0.528449,-0.403 0.960816,-0.792562 0.960816,-0.865693 0,-0.224323 -2.740356,-1.373011 -4.589555,-1.923824 C 12.415761,9.7314619 9.3391449,9.7747303 5.1973145,10.806763 3.486374,11.233083 2.8842191,11.137734 2.3349296,10.353513 1.8816835,9.7064135 1.934447,8.8888594 2.469609,8.2666965 2.8251513,7.8533538 3.3658051,7.6293199 4.9068223,7.256774 7.3609083,6.6634906 9.4911801,6.3601695 11.203816,6.3601695 c 2.758791,0 7.392637,1.3364037 11.097468,3.2005162 l 1.548196,0.7789853 1.799578,-0.9038026 c 3.780066,-1.898463 7.825599,-3.0756989 10.569539,-3.0756989 3.987879,0 10.245863,2.5249466 9.099414,3.6713955 -0.144837,0.144837 -0.91007,0.123108 -2.485564,-0.070579 C 41.58048,9.807073 39.152278,9.6883945 37.436441,9.697256 c -2.939834,0.015183 -3.226001,0.052214 -4.963342,0.642279 -2.072081,0.703754 -5.100218,2.041974 -5.100218,2.253931 0,0.07653 0.394293,0.422302 0.876208,0.768387 1.153008,0.828028 3.653179,3.287692 4.724469,4.647928 4.243326,5.387814 4.930371,12.001542 1.817485,17.495672 -0.880495,1.554039 -3.205495,3.838175 -4.801636,4.717241 -2.459514,1.354563 -5.754404,1.99209 -8.09847,1.566973 l 0,0 z m 3.933505,-3.727609 c 0.633964,-0.165127 1.624093,-0.539123 2.20029,-0.831103 1.380592,-0.699599 3.366812,-2.717058 4.04289,-4.106474 1.654121,-3.39941 1.415887,-7.773194 -0.613669,-11.26643 -0.921021,-1.585242 -4.433751,-5.185284 -6.334365,-6.491809 l -1.347571,-0.926352 -1.426888,1.002064 c -6.273597,4.405775 -9.060487,10.068104 -7.656731,15.556739 0.534542,2.090038 1.260061,3.354213 2.678872,4.667783 2.487116,2.302631 5.517962,3.161149 8.457172,2.395582 z"
     id="path7388"
     inkscape:connector-curvature="0" /></svg>