<?xml version="1.0" encoding="UTF-8" standalone="no"?>
<svg
   xmlns:dc="http://purl.org/dc/elements/1.1/"
   xmlns:cc="http://creativecommons.org/ns#"
   xmlns:rdf="http://www.w3.org/1999/02/22-rdf-syntax-ns#"
   xmlns:svg="http://www.w3.org/2000/svg"
   xmlns="http://www.w3.org/2000/svg"
   xmlns:sodipodi="http://sodipodi.sourceforge.net/DTD/sodipodi-0.dtd"
   xmlns:inkscape="http://www.inkscape.org/namespaces/inkscape"
   version="1.1"
   viewBox="0 0 47.5 47.5"
   style="enable-background:new 0 0 47.5 47.5;"
   id="svg2"
   xml:space="preserve"
   inkscape:version="0.48.4 r9939"
   width="100%"
   height="100%"
   sodipodi:docname="3030.svg"><metadata
     id="metadata3248"><rdf:RDF><cc:Work
         rdf:about=""><dc:format>image/svg+xml</dc:format><dc:type
           rdf:resource="http://purl.org/dc/dcmitype/StillImage" /></cc:Work></rdf:RDF></metadata><sodipodi:namedview
     pagecolor="#ffffff"
     bordercolor="#666666"
     borderopacity="1"
     objecttolerance="10"
     gridtolerance="10"
     guidetolerance="10"
     inkscape:pageopacity="0"
     inkscape:pageshadow="2"
     inkscape:window-width="1366"
     inkscape:window-height="719"
     id="namedview3246"
     showgrid="false"
     inkscape:zoom="11.221053"
     inkscape:cx="23.75"
     inkscape:cy="23.75"
     inkscape:window-x="0"
     inkscape:window-y="0"
     inkscape:window-maximized="1"
     inkscape:current-layer="svg2" /><defs
     id="defs6"><clipPath
       id="clipPath18"><path
         d="M 0,38 38,38 38,0 0,0 0,38 z"
         id="path20" /></clipPath></defs><g
     transform="matrix(1.25,0,0,-1.25,0,47.5)"
     id="g12"><g
       id="g14"><g
         clip-path="url(#clipPath18)"
         id="g16"><g
           transform="translate(28,14)"
           id="g22"><path
             d="M 0,0 C -2.589,0 -4.005,2.549 -5.374,5.014 -6.463,6.974 -7.589,9 -9,9 -10.412,9 -11.537,6.974 -12.626,5.014 -13.996,2.549 -15.412,0 -18,0 -20.65,0 -21.853,2.706 -22.914,5.094 -23.962,7.454 -24.744,9 -26,9 c -0.552,0 -1,0.448 -1,1 0,0.552 0.448,1 1,1 2.65,0 3.853,-2.706 4.914,-5.094 C -20.038,3.547 -19.256,2 -18,2 c 1.412,0 2.537,2.026 3.626,3.986 C -13.004,8.451 -11.588,11 -9,11 -6.411,11 -4.995,8.451 -3.626,5.986 -2.537,4.026 -1.411,2 0,2 1.256,2 2.037,3.547 3.086,5.906 4.147,8.294 5.351,11 8,11 8.553,11 9,10.552 9,10 9,9.448 8.553,9 8,9 6.744,9 5.963,7.454 4.914,5.094 3.853,2.706 2.649,0 0,0"
             id="path24"
             style="fill:#414042;fill-opacity:1;fill-rule:nonzero;stroke:none" /></g></g></g></g><path
     style="fill:#1a1a1a"
     d="M 11.461699,29.817474 C 9.9572835,29.395018 8.7811357,28.26854 7.6017581,26.120544 7.4268292,25.801947 6.9531585,24.819418 6.5491568,23.937148 5.1811625,20.949685 4.7007639,20.096239 3.9985602,19.405918 3.5416373,18.956727 3.2461619,18.810971 2.6102908,18.721091 2.3190328,18.679922 1.9840794,18.58291 1.8659499,18.505508 1.1289311,18.022595 1.1411632,16.947141 1.888931,16.484995 c 0.2703017,-0.167056 0.3995532,-0.185719 1.0008134,-0.144507 0.9821661,0.06732 1.8634964,0.487118 2.6823776,1.277681 1.052615,1.016214 1.7001448,2.115673 3.3016918,5.606034 1.2230412,2.665457 1.9068562,3.666038 2.8061212,4.106007 0.902801,0.4417 1.771029,0.188898 2.744581,-0.799139 0.709613,-0.720171 1.276365,-1.576817 2.777404,-4.19805 1.561172,-2.726241 1.946088,-3.284569 2.983053,-4.326981 1.205463,-1.211795 2.211955,-1.688498 3.565027,-1.688498 1.351005,0 2.357282,0.476079 3.568941,1.688498 1.006051,1.006682 1.570396,1.835337 3.24366,4.762829 1.367656,2.39281 1.829103,3.07957 2.563392,3.815034 0.610853,0.61183 1.089949,0.871934 1.727202,0.937704 0.397493,0.04103 0.55589,0.0097 0.96671,-0.191319 0.889152,-0.435021 1.601183,-1.476665 2.806776,-4.106085 1.597918,-3.485089 2.248289,-4.589537 3.301197,-5.606034 0.818882,-0.790563 1.700212,-1.210362 2.682378,-1.277681 0.60126,-0.04121 0.730512,-0.02255 1.000813,0.144507 0.747768,0.462146 0.759999,1.5376 0.02298,2.020513 -0.118129,0.0774 -0.453083,0.174414 -0.744341,0.215583 -0.635871,0.08988 -0.931346,0.235636 -1.388269,0.684827 -0.702204,0.690321 -1.182603,1.543767 -2.550597,4.53123 -0.83371,1.820681 -1.181922,2.478875 -1.815161,3.431051 -1.479542,2.224727 -3.599126,3.074897 -5.695001,2.284278 -0.990281,-0.373559 -1.760451,-0.97237 -2.648292,-2.05906 -0.681938,-0.834672 -1.088943,-1.477611 -2.54022,-4.012742 -1.437784,-2.511557 -1.986146,-3.316777 -2.72391,-3.999816 -0.767215,-0.710307 -0.984207,-0.809028 -1.778259,-0.809028 -0.794052,0 -1.011044,0.09872 -1.778259,0.809028 -0.740346,0.685429 -1.269312,1.466208 -2.848345,4.204288 -1.908959,3.310177 -2.722143,4.405843 -3.886707,5.236858 -1.118253,0.79797 -2.630951,1.116726 -3.77499,0.795469 l 0,0 z"
     id="path3252"
     inkscape:connector-curvature="0" /></svg>