<?xml version="1.0" encoding="utf-8"?>
<!-- Generator: Adobe Illustrator 16.0.0, SVG Export Plug-In . SVG Version: 6.00 Build 0)  -->
<!DOCTYPE svg PUBLIC "-//W3C//DTD SVG 1.1//EN" "http://www.w3.org/Graphics/SVG/1.1/DTD/svg11.dtd">
<svg version="1.1" id="Layer_1" xmlns="http://www.w3.org/2000/svg" xmlns:xlink="http://www.w3.org/1999/xlink" x="0px" y="0px"
	 width="15.604px" height="15.604px" viewBox="0 0 15.604 15.604" enable-background="new 0 0 15.604 15.604" xml:space="preserve">
<g>
	<path fill="#FFFFFF" d="M6.303,15.588c-0.104-0.018-0.24-0.057-0.317-0.15s-0.149-0.301-0.119-0.604L6.482,8.78
		c0.023-0.23,0.115-0.492,0.297-0.461c0.133,0.023,0.34,0.164,0.552,0.375l1.4,1.4l4.144-4.145c0.076-0.076,0.191-0.105,0.321-0.084
		c0.131,0.023,0.263,0.096,0.37,0.203l1.828,1.828c0.223,0.223,0.277,0.533,0.117,0.691l-4.143,4.143l1.4,1.4
		c0.293,0.293,0.387,0.508,0.377,0.602s-0.138,0.215-0.463,0.248l-6.055,0.615C6.513,15.608,6.402,15.606,6.303,15.588L6.303,15.588
		z"/>
	<path fill="#FFFFFF" d="M9.303,0.015c0.102,0.018,0.24,0.057,0.316,0.15C9.696,0.259,9.77,0.467,9.738,0.77L9.122,6.825
		C9.1,7.055,9.006,7.315,8.825,7.284C8.691,7.26,8.484,7.122,8.273,6.911l-1.4-1.4L2.729,9.655C2.652,9.731,2.539,9.76,2.408,9.737
		C2.277,9.715,2.146,9.645,2.037,9.536L0.209,7.708c-0.223-0.223-0.275-0.533-0.117-0.693l4.143-4.143l-1.4-1.4
		c-0.292-0.291-0.385-0.505-0.375-0.6c0.01-0.094,0.137-0.215,0.462-0.247l6.056-0.617C9.092-0.005,9.201-0.002,9.303,0.015
		L9.303,0.015z"/>
</g>
</svg>
