<?xml version="1.0" encoding="UTF-8" standalone="no"?>
<!-- Generator: Adobe Illustrator 18.0.0, SVG Export Plug-In . SVG Version: 6.00 Build 0)  -->

<svg
   xmlns:dc="http://purl.org/dc/elements/1.1/"
   xmlns:cc="http://creativecommons.org/ns#"
   xmlns:rdf="http://www.w3.org/1999/02/22-rdf-syntax-ns#"
   xmlns:svg="http://www.w3.org/2000/svg"
   xmlns="http://www.w3.org/2000/svg"
   xmlns:sodipodi="http://sodipodi.sourceforge.net/DTD/sodipodi-0.dtd"
   xmlns:inkscape="http://www.inkscape.org/namespaces/inkscape"
   version="1.1"
   viewBox="0 0 21 21"
   enable-background="new 0 0 40 40"
   xml:space="preserve"
   width="21"
   height="21"
   ><metadata
     id="metadata13"><rdf:RDF><cc:Work
         rdf:about=""><dc:format>image/svg+xml</dc:format><dc:type
           rdf:resource="http://purl.org/dc/dcmitype/StillImage" /><dc:title /></cc:Work></rdf:RDF></metadata><defs
     id="defs11" /><g
     id="g4494"
     transform="matrix(0.87011066,0,0,0.87011066,-0.41325191,-0.45274106)"><g
       transform="matrix(0.51354912,0,0,0.51354912,2.2393718,3.5959177)"
       style="fill:none;fill-opacity:1;stroke:#df3b3b;stroke-width:1.9744947;stroke-miterlimit:4;stroke-dasharray:none;stroke-opacity:1"
       id="g6"><path
         inkscape:connector-curvature="0"
         style="fill:none;fill-opacity:1;stroke:#df3b3b;stroke-width:1.9744947;stroke-miterlimit:4;stroke-dasharray:none;stroke-opacity:1"
         id="path2"
         d="M 25.8,24.5 C 42,30.3 36.8,40 36.8,40 H 2.6 c 0,0 -2.7,-10.9 11.9,-15.5 0,0 5.8,4.9 11.3,0 z" /><path
         inkscape:connector-curvature="0"
         style="fill:none;fill-opacity:1;stroke:#df3b3b;stroke-width:1.9744947;stroke-miterlimit:4;stroke-dasharray:none;stroke-opacity:1"
         id="path4"
         d="m 10.3,10.1 c 0,0 0.9,13.5 9.6,13.5 8.7,0 9.7,-12.6 9.7,-12.6 0,0 0.4,-11 -9.7,-11 -10,0 -9.6,10.1 -9.6,10.1 z" /></g><rect
       y="0.92332584"
       x="0.87794179"
       height="23.328861"
       width="23.328861"
       id="rect4492"
       style="opacity:1;fill:none;fill-opacity:0;stroke:#df3b3b;stroke-width:0.80599999;stroke-miterlimit:4;stroke-dasharray:none;stroke-opacity:1" /></g></svg>
