<?xml version="1.0" encoding="utf-8"?>
<!-- Generator: Adobe Illustrator 16.0.0, SVG Export Plug-In . SVG Version: 6.00 Build 0)  -->
<!DOCTYPE svg PUBLIC "-//W3C//DTD SVG 1.1//EN" "http://www.w3.org/Graphics/SVG/1.1/DTD/svg11.dtd">
<svg version="1.1" id="Layer_1" xmlns="http://www.w3.org/2000/svg" xmlns:xlink="http://www.w3.org/1999/xlink" x="0px" y="0px"
	 width="15.402px" height="15.918px" viewBox="0 0 15.402 15.918" enable-background="new 0 0 15.402 15.918" xml:space="preserve">
<g>
	<path fill="#414141" d="M9.429,11.411c4.71,1.681,3.195,4.507,3.195,4.507H2.666c0,0-0.773-3.161,3.465-4.507
		C6.131,11.411,7.813,12.823,9.429,11.411z"/>
	<path fill="#414141" d="M4.92,6.682c0,0,0.27,3.938,2.793,3.938s2.826-3.668,2.826-3.668s0.101-3.194-2.826-3.194
		S4.92,6.682,4.92,6.682z"/>
	<path fill="#414141" d="M3.359,7.276c-0.005-0.092-0.016-0.52,0.093-1.082c-0.521-0.1-0.841-0.336-0.841-0.336
		c-3.15,1.045-2.569,3.23-2.569,3.23h3.651C3.428,8.178,3.368,7.413,3.361,7.313L3.359,7.276z"/>
	<path fill="#414141" d="M12.1,7.522v0.041l-0.004,0.04c-0.035,0.427-0.127,0.944-0.29,1.485h3.554c0,0,0.583-2.186-2.567-3.23
		c0,0-0.319,0.234-0.835,0.335C12.111,6.877,12.104,7.414,12.1,7.522z"/>
	<path fill="#414141" d="M5.904,2.525C5.923,2.403,5.93,2.328,5.93,2.328S6.002,0,3.88,0S1.855,2.131,1.855,2.131
		s0.18,2.606,1.781,2.85c0.176-0.513,0.461-1.063,0.922-1.545C4.859,3.121,5.297,2.774,5.904,2.525z"/>
	<path fill="#414141" d="M11.758,4.99c1.664-0.17,1.869-2.662,1.869-2.662S13.699,0,11.576,0C9.455,0,9.553,2.131,9.553,2.131
		s0.013,0.183,0.061,0.454c0.519,0.238,0.905,0.548,1.18,0.832C11.262,3.901,11.564,4.459,11.758,4.99z"/>
</g>
</svg>
