<svg xmlns:rdf="http://www.w3.org/1999/02/22-rdf-syntax-ns#" xmlns="http://www.w3.org/2000/svg" xml:space="preserve" version="1.1" xmlns:cc="http://creativecommons.org/ns#" viewBox="0 0 167.96599 185.6131" xmlns:dc="http://purl.org/dc/elements/1.1/"><g fill="#fff"><g transform="translate(-120.433,76.87011)"><path fill="#fff" d="m120.434 41.477h49.389v13.332h-17.371v53.934h-14.646v-53.934h-17.373v-13.332z"/></g><g transform="translate(-120.433,76.87011)"><path fill="#fff" d="m226.131 101.977c-0.574 1.348-1.363 2.524-2.373 3.534-1.012 1.011-2.189 1.804-3.535 2.374-1.349 0.573-2.795 0.857-4.344 0.857h-24.847c-1.55 0-2.997-0.284-4.343-0.857-1.348-0.57-2.525-1.363-3.535-2.374-1.01-1.01-1.803-2.187-2.373-3.534-0.573-1.347-0.857-2.794-0.857-4.344v-45.045c0-1.548 0.284-2.996 0.857-4.343 0.57-1.346 1.363-2.525 2.373-3.535s2.188-1.8 3.535-2.374c1.346-0.571 2.793-0.858 4.343-0.858h24.847c1.549 0 2.995 0.287 4.344 0.858 1.346 0.573 2.523 1.364 3.535 2.374 1.01 1.01 1.799 2.189 2.373 3.535 0.57 1.348 0.857 2.795 0.857 4.343v45.045c0.001 1.55-0.286 2.997-0.857 4.344zm-14.798-47.168h-15.756c-0.674 0-1.011 0.338-1.011 1.01v38.582c0 0.674 0.337 1.01 1.011 1.01h15.756c0.673 0 1.011-0.336 1.011-1.01v-38.582c0-0.672-0.338-1.01-1.011-1.01z"/></g><g transform="translate(-120.433,76.87011)"><path fill="#fff" d="m261.834 61.576 10.707-20.099h15.352l-17.775 33.129 18.281 34.137h-15.354l-11.211-21.108-11.211 21.108h-15.352l18.281-34.137-17.775-33.129h15.352l10.705 20.099z"/></g><g transform="translate(38.292389,1.5964409e-4)"><path fill="#fff" d="m71.574 41.851c0-4.685 0.074-10.553-0.033-15.237-0.047-2.018-0.268-4.076-0.746-6.034-3.421-13.999-16.972-22.705-31.201-20.13-12.596 2.279-21.973 13.518-21.973 26.336v15.035c-0.475 0-0.794-0.001-1.116 0h-11.482c-2.773 0-5.023 2.249-5.023 5.023v56.875c0 2.773 2.25 5.023 5.023 5.023h79.451c2.775 0 5.024-2.25 5.024-5.023v-56.875c0-2.774-2.249-5.023-5.024-5.023l-12.9 0.03zm-19.467 53.267h-14.775c-2.322 0-4.203-1.914-4.203-4.274 0-0.063 0.007-0.127 0.009-0.19-0.005 0-0.006-1.021-0.008-2.041-0.001-1.129 0.511-4.289 2.061-6.574 1.641-2.418 3.855-3.99 6.257-4.697-3.166-1.291-5.396-4.398-5.396-8.025 0-4.789 3.88-8.668 8.667-8.668 4.789 0 8.667 3.879 8.667 8.668 0 3.719-2.344 6.891-5.637 8.12 2.332 0.753 4.537 2.313 6.273 4.707 1.621 2.235 2.285 5.343 2.285 6.47v2.043c-0.006 0.062 0 0.125 0 0.189 0.001 2.358-1.88 4.272-4.2 4.272m9.672-62.014c-1.562 4.611-4.52 8.305-7.61 11.912-2.386 2.783-5.19 5.125-8.176 7.247-0.144 0.103-0.298 0.188-0.685 0.427 1.781-3.076 3.217-5.998 3.633-9.404-4.234 1.002-8.227 0.564-12.093-1.14-6.862-3.023-10.963-9.618-10.263-17.063 0.573-6.127 3.94-10.543 9.321-13.395 8.667-4.593 19.734-1.655 24.689 6.516 2.887 4.758 2.932 9.741 1.184 14.9"/></g></g></svg>