<?xml version="1.0" encoding="utf-8"?>
<!-- Generator: Adobe Illustrator 16.0.0, SVG Export Plug-In . SVG Version: 6.00 Build 0)  -->
<!DOCTYPE svg PUBLIC "-//W3C//DTD SVG 1.1//EN" "http://www.w3.org/Graphics/SVG/1.1/DTD/svg11.dtd">
<svg version="1.1" id="Layer_1" xmlns="http://www.w3.org/2000/svg" xmlns:xlink="http://www.w3.org/1999/xlink" x="0px" y="0px"
	 width="15.615px" height="15.616px" viewBox="0 0 15.615 15.616" enable-background="new 0 0 15.615 15.616" xml:space="preserve">
<path fill="#FFFFFF" d="M15.615,7.034c0-0.197-0.163-0.358-0.358-0.358h-0.66c-0.199,0-0.407-0.154-0.462-0.345l-0.896-2.092
	c-0.095-0.171-0.064-0.425,0.075-0.567l0.446-0.445c0.14-0.14,0.14-0.367,0-0.507l-1.073-1.074c-0.139-0.14-0.367-0.14-0.51,0
	L11.694,2.13c-0.142,0.142-0.399,0.18-0.574,0.09L9.3,1.49c-0.19-0.053-0.348-0.259-0.348-0.458V0.357C8.952,0.162,8.791,0,8.596,0
	h-1.52C6.879,0,6.717,0.162,6.717,0.357v0.675c0,0.199-0.156,0.406-0.344,0.465L4.263,2.4c-0.17,0.099-0.422,0.066-0.563-0.072
	L3.225,1.854c-0.138-0.139-0.367-0.139-0.506,0L1.645,2.929c-0.141,0.14-0.141,0.367,0,0.507l0.515,0.519
	c0.143,0.14,0.181,0.396,0.089,0.57L1.531,6.33C1.478,6.521,1.272,6.676,1.073,6.676H0.357C0.16,6.676,0,6.837,0,7.034v1.519
	c0,0.198,0.16,0.36,0.357,0.36h0.716c0.199,0,0.407,0.154,0.464,0.344l0.882,2.076c0.101,0.171,0.065,0.425-0.072,0.564L1.853,12.39
	c-0.139,0.14-0.139,0.367,0,0.507l1.076,1.074c0.14,0.14,0.368,0.14,0.505,0l0.528-0.525c0.141-0.14,0.394-0.177,0.57-0.083
	l1.841,0.734c0.188,0.055,0.344,0.262,0.344,0.458v0.702c0,0.198,0.162,0.359,0.359,0.359h1.52c0.195,0,0.356-0.161,0.356-0.359
	v-0.702c0-0.196,0.156-0.403,0.348-0.461l2.059-0.874c0.172-0.097,0.422-0.063,0.564,0.075l0.465,0.468
	c0.139,0.139,0.368,0.139,0.507,0l1.076-1.076c0.139-0.139,0.139-0.368,0-0.506l-0.497-0.495c-0.137-0.14-0.176-0.396-0.082-0.57
	l0.746-1.857c0.052-0.19,0.26-0.345,0.459-0.347h0.66c0.195,0,0.358-0.161,0.358-0.358V7.034z M7.808,10.36
	c-1.411,0-2.552-1.143-2.552-2.553s1.141-2.552,2.552-2.552c1.409,0,2.554,1.142,2.554,2.552S9.217,10.36,7.808,10.36z"/>
</svg>
